<svg width="182" height="201" viewBox="0 0 182 201" fill="none" xmlns="http://www.w3.org/2000/svg">
<path d="M79.1899 200.7C124.976 200.7 167.392 176.543 167.392 136.374C167.392 115.869 153.347 102.667 136.493 98.7339C163.179 91.1497 181.437 73.7339 181.437 47.6103C181.437 20.3631 157.561 0.700195 113.46 0.700195C78.3472 0.700195 51.9427 13.9025 31.1562 33.2845L56.4371 69.8013C70.7629 58.2845 86.7741 49.2957 104.471 49.2957C118.516 49.2957 125.819 52.3856 124.415 59.9699C122.167 70.644 110.931 77.6665 92.9539 77.6665H71.6056L62.055 123.172L87.3359 122.891C107.842 122.61 113.179 124.858 113.179 130.475C113.179 143.116 97.1674 152.105 79.1899 152.105C64.5831 152.105 48.0101 147.329 36.4932 133.846L0.819092 167.273C15.4258 186.374 40.7067 200.7 79.1899 200.7Z" fill="url(#paint0_linear)"/>
<defs>
<linearGradient id="paint0_linear" x1="72.2871" y1="-31.226" x2="72.2871" y2="259.895" gradientUnits="userSpaceOnUse">
<stop stop-color="#EAEEF5"/>
<stop offset="1" stop-color="#F3F6FB" stop-opacity="0"/>
</linearGradient>
</defs>
</svg>
