<svg width="214" height="228" viewBox="0 0 214 228" fill="none" xmlns="http://www.w3.org/2000/svg">
<path d="M87.6195 228C148.855 228 196.737 192.171 196.737 134.52C196.737 97.0629 168.725 75.8914 132.569 75.8914C117.912 75.8914 103.906 79.4743 91.8539 86.9657L100.974 56.3486H202.274L214 0H54.7215L25.7321 124.749L65.1446 142.011C77.5221 133.543 92.1796 127.354 109.769 127.354C125.403 127.354 133.872 132.24 133.872 141.36C133.872 158.949 113.352 173.606 90.8767 173.606C73.6134 173.606 56.0244 165.789 42.344 151.783L0 192.823C19.2177 213.669 46.2527 228 87.6195 228Z" fill="url(#paint0_linear)"/>
<defs>
<linearGradient id="paint0_linear" x1="84.6768" y1="-36.3958" x2="84.6768" y2="295.482" gradientUnits="userSpaceOnUse">
<stop stop-color="#EAEEF5"/>
<stop offset="1" stop-color="#F3F6FB" stop-opacity="0"/>
</linearGradient>
</defs>
</svg>
