<svg width="24" height="30" viewBox="0 0 24 30" fill="none" xmlns="http://www.w3.org/2000/svg">
<path fill-rule="evenodd" clip-rule="evenodd" d="M11.2 9.39997C10.3163 9.39997 9.59999 10.1163 9.59999 11V11.8H8.79999C7.91633 11.8 7.19999 12.5163 7.19999 13.4V15C7.19999 15.8836 7.91633 16.6 8.79999 16.6H9.59999V17.4C9.59999 18.2836 10.3163 19 11.2 19H12.8C13.6836 19 14.4 18.2836 14.4 17.4V16.6H15.2C16.0836 16.6 16.8 15.8836 16.8 15V13.4C16.8 12.5163 16.0836 11.8 15.2 11.8H14.4V11C14.4 10.1163 13.6836 9.39997 12.8 9.39997H11.2ZM11.2 11H12.8V13.4H15.2V15H12.8V17.4H11.2V15H8.79999V13.4H11.2V11Z" fill="#1C103F"/>
<path d="M17.6 21.4C17.6 21.8418 17.2418 22.2 16.8 22.2H7.19999C6.75816 22.2 6.39999 21.8418 6.39999 21.4C6.39999 20.9581 6.75816 20.6 7.19999 20.6H16.8C17.2418 20.6 17.6 20.9581 17.6 21.4Z" fill="#1C103F"/>
<path d="M7.99999 24.6C7.99999 25.0418 8.35816 25.4 8.79999 25.4H15.2C15.6418 25.4 16 25.0418 16 24.6C16 24.1581 15.6418 23.8 15.2 23.8H8.79999C8.35816 23.8 7.99999 24.1581 7.99999 24.6Z" fill="#1C103F"/>
<path fill-rule="evenodd" clip-rule="evenodd" d="M8.79981 2.19998C9.5287 1.22959 10.6905 0.599976 12 0.599976C13.3095 0.599976 14.4713 1.22959 15.2002 2.19998L16.3455 2.19997C16.5474 2.19995 16.7441 2.19993 16.9106 2.21353C17.0935 2.22847 17.3092 2.26373 17.5264 2.37436C17.8274 2.52776 18.0722 2.77253 18.2256 3.07359C18.3362 3.29073 18.3715 3.50652 18.3864 3.68939C18.4 3.85592 18.4 4.05256 18.4 4.25447L18.4 4.59998H19.2C21.4091 4.59998 23.2 6.39084 23.2 8.59998V25.4C23.2 27.6091 21.4091 29.4 19.2 29.4H4.79999C2.59085 29.4 0.799988 27.6091 0.799988 25.4V8.59998C0.799988 6.39084 2.59085 4.59998 4.79999 4.59998H5.60001L5.59999 4.25446C5.59997 4.05256 5.59994 3.85591 5.61355 3.68939C5.62849 3.50652 5.66374 3.29073 5.77438 3.07359C5.92778 2.77253 6.17255 2.52776 6.47361 2.37437C6.69075 2.26373 6.90653 2.22847 7.08941 2.21353C7.25594 2.19993 7.45257 2.19995 7.65447 2.19997L8.79981 2.19998ZM12 2.19998C11.1127 2.19998 10.3368 2.68111 9.92058 3.40056L9.68953 3.79998H7.67999C7.44277 3.79998 7.31297 3.8006 7.2197 3.80822L7.20915 3.80913L7.20823 3.81968C7.20061 3.91295 7.19999 4.04275 7.19999 4.27998V4.43998C7.19999 4.90122 7.20061 5.19904 7.21913 5.42571C7.23689 5.64304 7.26703 5.72361 7.28719 5.76317C7.36389 5.9137 7.48627 6.03608 7.6368 6.11278C7.67636 6.13293 7.75693 6.16308 7.97426 6.18083C8.20093 6.19935 8.49875 6.19998 8.95999 6.19998H15.04C15.5012 6.19998 15.7991 6.19935 16.0257 6.18083C16.2431 6.16308 16.3236 6.13293 16.3632 6.11278C16.5137 6.03608 16.6361 5.9137 16.7128 5.76317C16.733 5.72361 16.7631 5.64304 16.7809 5.42571C16.7994 5.19904 16.8 4.90122 16.8 4.43998V4.27998C16.8 4.04275 16.7994 3.91295 16.7917 3.81968L16.7908 3.80913L16.7803 3.80822C16.687 3.8006 16.5572 3.79998 16.32 3.79998H14.3105L14.0794 3.40056C13.6632 2.68111 12.8873 2.19998 12 2.19998ZM18.1384 6.48955C18.187 6.3941 18.226 6.29747 18.2574 6.19998H19.2C20.5255 6.19998 21.6 7.27449 21.6 8.59998V25.4C21.6 26.7255 20.5255 27.8 19.2 27.8H4.79999C3.4745 27.8 2.39999 26.7255 2.39999 25.4V8.59998C2.39999 7.27449 3.4745 6.19998 4.79999 6.19998H5.74259C5.77397 6.29747 5.81294 6.3941 5.86158 6.48955C6.09167 6.94114 6.45883 7.30829 6.91042 7.53839C7.21312 7.69263 7.52769 7.74968 7.84397 7.77552C8.14363 7.8 8.50743 7.79999 8.92915 7.79998H15.0708C15.4925 7.79999 15.8564 7.8 16.156 7.77552C16.4723 7.74968 16.7869 7.69263 17.0896 7.53839C17.5412 7.30829 17.9083 6.94114 18.1384 6.48955Z" fill="#1C103F"/>
</svg>
