<svg width="584" height="527" viewBox="0 0 584 527" fill="none" xmlns="http://www.w3.org/2000/svg">
<path d="M173.45 462.791H463.295C463.295 462.791 561.431 464.694 557.501 403.149C553.57 341.605 498.543 336.402 516.294 303.536C533.918 270.797 573.223 268.259 569.926 220.799C566.63 173.213 522.506 183.111 490.935 158.24C459.364 133.368 445.924 67.8895 372.512 54.0578C299.1 40.2261 196.273 43.5254 173.45 72.4577C150.501 101.263 148.599 122.328 105.997 127.531C63.5225 132.733 15.0882 164.331 36.0088 204.176C56.9293 244.021 86.3449 240.976 70.7495 287.42C55.1542 333.864 30.9371 376.374 60.8598 416.347C91.6701 457.588 117.789 462.791 173.45 462.791Z" fill="#2C1D58"/>
<mask id="mask0" mask-type="alpha" maskUnits="userSpaceOnUse" x="30" y="46" width="541" height="417">
<path d="M173.45 462.791H463.295C463.295 462.791 561.431 464.694 557.501 403.149C553.57 341.605 498.543 336.402 516.294 303.536C533.918 270.797 573.223 268.259 569.926 220.799C566.63 173.213 522.506 183.111 490.935 158.24C459.364 133.368 445.924 67.8895 372.512 54.0578C299.1 40.2261 196.273 43.5254 173.45 72.4577C150.501 101.263 148.599 122.328 105.997 127.531C63.5225 132.733 15.0882 164.331 36.0088 204.176C56.9293 244.021 86.3449 240.976 70.7495 287.42C55.1542 333.864 30.9371 376.374 60.8598 416.347C91.6701 457.588 117.789 462.791 173.45 462.791Z" fill="#8177B8"/>
</mask>
<g mask="url(#mask0)">
<path d="M42.7285 219.53H89.3877V237.677H156.08V220.926H185.495V252.904H204.134V219.53L213.643 210.013H220.236V264.832H234.944V238.819H247.75V257.472H280.589V194.659H292.38V222.195H308.102V201.765C308.102 201.765 310.004 178.162 331.178 172.833V257.346H357.171V246.052L364.524 238.692H421.454V176.766H437.176V257.346H460.252V178.289H478.89V239.199H513.25V265.213H525.042V249.478H569.292L543.3 304.551H47.5466L42.7285 219.53Z" fill="#3E2F6A"/>
<path d="M337.772 29.9475H331.178V305.059H337.772V29.9475Z" fill="#3D2E69"/>
<path d="M553.697 29.9475H547.104V305.059H553.697V29.9475Z" fill="#3D2E69"/>
<path d="M72.6512 29.9475H66.0581V305.059H72.6512V29.9475Z" fill="#3D2E69"/>
<path d="M584 304.932H0V474.846H584V304.932Z" fill="#2C1D58"/>
<path d="M545.075 300.998H54.2666V310.134H545.075V300.998Z" fill="#3D2E69"/>
<path opacity="0.25" d="M173.45 462.79H463.295C463.295 462.79 561.431 464.694 557.501 403.149C556.36 385.764 551.161 372.821 544.695 362.542C482.567 372.948 372.766 410.636 274.757 391.348C185.496 373.836 85.3306 378.658 46.9128 381.45C48.1808 393.251 52.2381 404.799 60.7331 416.22C91.6701 457.588 117.789 462.79 173.45 462.79Z" fill="url(#paint0_linear)"/>
<path opacity="0.25" d="M557.12 414.062C532.269 409.113 476.608 414.57 431.217 424.849C373.02 437.919 272.855 416.347 181.185 395.409C118.296 381.069 71.3834 385.511 48.1807 389.698C50.2093 398.708 54.1399 407.591 60.733 416.347C91.5432 457.588 117.662 462.791 173.324 462.791H463.168C463.295 462.791 549.513 464.567 557.12 414.062Z" fill="url(#paint1_linear)"/>
<path d="M177.381 350.868H133.765V361.527H177.381V350.868Z" stroke="#3D2E69" stroke-width="0.5" stroke-miterlimit="10"/>
<path d="M88.6269 350.868H45.0107V361.527H88.6269V350.868Z" stroke="#3D2E69" stroke-width="0.5" stroke-miterlimit="10"/>
<path d="M149.614 403.276L148.853 412.413L144.669 464.44H85.0769L80.8928 412.413L80.1321 403.276H149.614Z" fill="#3B46E3"/>
<path d="M149.614 403.276L148.853 412.413H80.8928L80.1321 403.276H149.614Z" fill="#2B22CE"/>
<path opacity="0.27" d="M105.11 403.276H80.1321L80.8928 412.54L85.0769 464.567H121.086C117.155 449.339 109.167 418.757 105.11 403.276Z" fill="url(#paint2_linear)"/>
<path d="M539.243 424.214L538.609 433.478L534.678 485.378H479.271L475.34 433.478L474.706 424.214H539.243Z" fill="#3B46E3"/>
<path d="M539.243 424.214L538.609 433.478H475.34L474.706 424.214H539.243Z" fill="#2B22CE"/>
<path opacity="0.27" d="M498.036 424.214H474.706L475.34 433.478L479.271 485.505H512.743C509.066 470.277 501.713 439.695 498.036 424.214Z" fill="url(#paint3_linear)"/>
</g>
<path d="M180.297 350.614C179.283 353.787 177.634 357.594 174.465 359.37C170.661 361.527 169.139 356.959 168.886 353.279C163.434 355.182 157.728 357.847 152.783 361.274C153.037 365.334 152.783 371.679 149.106 374.851C145.937 377.516 143.147 376.12 141.372 374.217C136.427 384.369 136.301 396.17 136.301 396.17C147.205 397.82 159.503 393.124 169.393 387.033C168.125 385.003 167.111 381.704 171.041 378.404C174.591 375.486 178.902 376.374 181.819 377.516C183.086 376.247 184.354 374.978 185.369 373.836C193.99 363.811 202.612 348.33 202.612 348.33C202.612 348.33 191.074 349.345 180.297 350.614Z" fill="url(#paint4_linear)"/>
<path d="M178.649 363.05C154.685 373.202 137.822 394.774 131.99 403.276H130.468C135.92 395.282 153.164 372.567 178.141 361.908C178.522 361.781 178.902 361.908 179.029 362.289C179.156 362.542 178.902 362.923 178.649 363.05Z" fill="#F54838"/>
<path d="M79.1176 335.767C76.455 337.036 72.3977 336.909 68.2136 333.61C63.2687 329.93 70.1154 324.727 74.1727 322.316C71.1298 315.591 67.1992 308.612 62.1276 303.409C59.0846 306.074 54.5201 309.373 52.1111 307.216C49.7021 305.185 51.0968 300.109 52.3647 296.81C37.4033 290.592 11.4111 289.958 11.4111 289.958C16.4828 292.369 20.4133 304.932 22.5688 323.331C22.6955 323.966 22.6955 324.6 22.9491 325.235C25.485 323.205 29.4155 321.301 33.4728 324.22C38.1641 327.646 31.9513 334.245 27.894 337.798C30.8102 343.127 34.6139 348.203 38.6712 352.771C40.8267 349.472 44.6304 346.173 50.8432 349.091C58.1971 352.644 55.1541 360.512 52.745 364.827C54.7737 366.095 56.6756 366.857 58.1971 367.238C68.2136 369.141 80.1319 365.842 80.1319 365.842C82.4142 362.035 82.541 348.33 80.1319 339.067C79.8783 338.178 79.498 337.036 79.1176 335.767Z" fill="url(#paint5_linear)"/>
<path d="M94.713 403.276H93.445C91.4164 390.586 81.3999 353.279 30.5566 307.85C30.3031 307.596 30.3031 307.216 30.5566 306.962C30.8102 306.708 31.1906 306.708 31.4442 306.962C82.6678 352.771 92.6843 390.46 94.713 403.276Z" fill="#F54838"/>
<path d="M128.947 339.32C130.848 336.656 136.3 338.051 139.851 339.194C141.752 333.356 142.386 325.996 142.513 318.509C137.442 317.494 131.356 315.591 131.102 311.911C130.848 307.723 137.695 307.089 142.386 307.089C142.26 303.028 142.133 299.348 142.133 296.43C142.133 283.994 149.233 272.573 149.233 272.573C149.233 272.573 127.679 278.03 121.719 284.628C121.085 285.263 120.452 286.151 119.691 287.166C121.466 288.562 122.987 290.846 124.002 293.384C126.157 298.587 117.916 304.043 117.916 304.043L111.069 301.632C108.28 307.343 105.744 313.814 104.349 320.286C107.519 322.951 112.21 327.9 110.942 333.864L103.335 335.006C105.363 349.98 116.394 363.811 116.394 363.811C116.394 363.811 124.255 359.243 130.975 352.391C130.975 352.264 126.157 343.254 128.947 339.32Z" fill="url(#paint6_linear)"/>
<path d="M133.765 286.278C117.028 318.129 115.633 385.003 115.507 403.149H114.239C114.366 384.876 115.76 317.748 132.623 285.643C132.75 285.263 133.131 285.263 133.511 285.39C133.765 285.643 133.891 286.024 133.765 286.278Z" fill="#F54838"/>
<path d="M517.561 332.468L524.154 326.631C524.154 333.103 523.647 341.351 523.013 350.487C520.858 378.151 516.547 412.92 515.152 424.214H493.851C492.584 411.271 488.907 371.933 488.78 347.696C488.78 343.635 488.78 339.955 489.033 336.909C489.667 327.9 492.076 315.21 495.119 302.648L503.488 305.693L496.134 298.46C501.205 277.395 507.164 257.853 507.164 257.853C507.164 257.853 520.985 297.191 523.774 317.494C524.028 319.398 524.154 322.063 524.154 325.235C521.238 328.534 517.942 331.961 517.561 332.468Z" fill="url(#paint7_linear)"/>
<path d="M573.096 309.754L560.417 315.972H572.335C571.448 323.459 570.307 330.818 568.912 337.417L541.525 339.447C541.525 339.447 558.008 341.985 567.644 343.001C567.137 344.904 566.63 346.807 566.249 348.457C563.206 358.482 558.135 371.045 552.683 383.227L546.977 383.354L551.795 385.257C550.147 388.937 548.372 392.617 546.723 396.043L535.185 393.125L544.441 400.992C539.369 411.525 534.932 420.153 532.903 424.087H507.925C510.081 411.651 516.674 375.232 523.14 350.361C525.422 341.351 527.705 333.864 529.733 329.55C538.609 310.896 576.266 263.056 576.266 263.056C576.266 263.056 575.632 285.897 573.096 309.754Z" fill="url(#paint8_linear)"/>
<path d="M500.571 424.214H479.651C478.383 419.011 473.945 400.104 468.874 381.577L488.907 371.298L467.098 375.232C466.338 372.694 465.577 370.029 464.816 367.618L473.565 361.908L464.182 365.715C462.407 360.005 460.759 354.802 459.111 350.614C450.362 328.28 426.652 289.577 426.652 289.577C426.652 289.577 455.307 295.161 468.366 305.058C475.467 310.388 482.947 328.788 488.78 347.696C493.598 363.558 497.275 379.8 498.543 388.556C500.825 404.672 500.698 419.646 500.571 424.214Z" fill="url(#paint9_linear)"/>
<path d="M421.834 416.093H416.001V498.829H421.834V416.093Z" fill="#CFCFCF"/>
<path d="M421.707 456.319V416.093H415.875V466.344C417.777 463.171 419.806 459.745 421.707 456.319Z" fill="url(#paint10_linear)"/>
<path d="M445.291 495.53H392.545V499.59H445.291V495.53Z" fill="#241F2D"/>
<path d="M470.902 399.85H366.807V407.971H470.902V399.85Z" fill="#3B46E3"/>
<path d="M374.414 407.971H448.207C450.362 405.307 453.025 402.134 455.053 399.85H378.598L374.414 407.971Z" fill="url(#paint11_linear)"/>
<path d="M401.548 407.971L405.478 416.093H432.231L436.162 407.971H401.548Z" fill="#241F2D"/>
<path d="M302.777 509.869C302.777 509.869 300.115 518.498 300.115 519.894C300.115 521.163 295.931 525.223 295.931 525.223C295.931 525.223 260.176 493.499 257.893 490.708L258.147 488.297C258.147 488.297 260.429 485.632 262.077 484.87C263.726 484.109 283.886 493.246 283.886 493.246L302.777 509.869Z" fill="url(#paint12_linear)"/>
<path d="M284.012 493.372C283.505 494.261 296.311 507.585 302.904 509.996L345.506 417.615L416.889 393.759L417.777 348.584L388.742 348.33C388.742 348.33 331.939 378.531 329.784 380.308C327.502 382.084 299.227 461.268 284.012 493.372Z" fill="url(#paint13_linear)"/>
<path d="M310.512 312.418L349.31 302.521L367.314 262.548L374.922 276.253L376.95 291.481L361.862 314.449L319.387 323.205L310.512 312.418Z" fill="url(#paint14_linear)"/>
<path d="M458.223 352.137C458.223 352.137 403.576 350.868 388.742 348.203C388.742 348.203 386.079 330.184 385.065 323.078C384.938 322.316 384.811 321.936 384.811 321.682C384.558 320.794 382.275 314.195 379.74 306.454C376.316 296.556 372.386 284.882 371.118 281.329C368.962 275.238 367.441 262.421 367.441 262.421C367.441 262.421 373.273 255.061 374.668 254.173C375.682 253.539 380.754 252.904 383.163 252.65C383.924 252.523 384.431 252.523 384.431 252.523L408.141 248.082C408.141 248.082 409.409 248.082 411.184 248.209C414.354 248.336 419.172 248.336 422.342 248.463C423.99 248.463 425.258 248.59 425.384 248.59C426.018 248.717 432.485 249.097 438.317 258.361C438.824 259.249 439.458 260.645 440.092 262.294C445.925 277.522 454.166 320.54 454.546 322.824C454.927 325.489 458.223 352.137 458.223 352.137Z" fill="url(#paint15_linear)"/>
<path d="M379.74 306.581C382.402 314.322 384.558 320.921 384.811 321.809C384.811 322.063 384.938 322.443 385.065 323.205C386.079 330.311 388.742 348.33 388.742 348.33C395.335 349.472 409.662 350.36 423.609 350.995L438.19 305.566L440.092 262.421L420.44 281.075L386.079 301.759L367.441 262.675C367.441 262.675 368.962 275.492 371.118 281.583C372.259 284.882 376.316 296.683 379.74 306.581Z" fill="#DAD7F6"/>
<path d="M411.057 248.336C409.536 252.143 405.859 260.899 402.055 265.721C397.11 271.939 388.869 273.715 388.869 273.715C388.869 273.715 382.275 268.893 381.768 264.452C381.388 261.406 382.402 255.823 383.036 252.777C383.797 252.65 384.304 252.65 384.304 252.65L408.014 248.209C408.014 248.209 409.282 248.209 411.057 248.336Z" fill="#FFD7CB"/>
<path d="M408.014 248.208C408.014 248.208 399.012 258.487 395.335 260.644C391.658 262.801 386.967 261.279 386.967 261.279L385.319 251.761L384.811 248.716L381.642 242.752L401.294 231.204L401.548 231.839L403.323 235.519C403.45 235.392 405.478 244.655 408.014 248.208Z" fill="url(#paint16_linear)"/>
<path d="M401.675 231.712C400.533 235.519 397.998 243.26 395.335 245.671C393.306 247.575 388.869 249.986 385.319 251.635L384.811 248.59L381.642 242.626L401.294 231.078L401.675 231.712Z" fill="url(#paint17_linear)"/>
<path d="M400.914 184C400.914 184 403.576 183.111 405.478 183.492C407.38 183.746 409.662 188.441 410.677 189.964C411.691 191.486 413.847 204.43 413.847 208.998C413.847 213.439 410.93 224.733 409.789 228.032C408.648 231.205 403.323 235.519 403.323 235.519L399.392 227.398L400.914 184Z" fill="#6E6B74"/>
<path d="M369.596 212.551C369.596 212.551 363.003 202.399 362.876 199.1C362.75 195.928 369.723 195.293 369.723 195.293L376.697 203.795L369.596 212.551Z" fill="#6E6B74"/>
<path d="M401.548 215.977C401.548 215.977 405.225 211.79 407.507 211.917C409.789 212.044 409.663 217.881 408.521 219.784C407.507 221.688 401.167 225.621 401.167 225.621L401.548 215.977Z" fill="url(#paint18_linear)"/>
<path d="M400.66 232.728C398.378 237.169 391.404 243.514 388.742 245.037C388.361 245.29 388.108 245.417 387.981 245.417H380.374C379.106 245.417 371.498 237.804 370.23 233.997C368.962 230.19 368.962 206.079 368.962 206.079C369.596 195.674 382.529 192.248 390.01 192.248C397.49 192.248 401.801 197.451 403.069 204.049C403.196 204.937 403.45 206.079 403.45 207.348C404.084 215.089 402.942 228.286 400.66 232.728Z" fill="url(#paint19_linear)"/>
<path d="M377.077 207.729C385.572 205.572 396.73 196.943 396.73 196.943L393.053 192.628C392.165 192.375 391.151 192.248 390.01 192.248C382.529 192.248 369.596 195.801 368.962 206.079C368.962 206.079 368.962 206.968 368.962 208.364C371.245 208.491 374.034 208.491 377.077 207.729Z" fill="url(#paint20_linear)"/>
<path d="M400.66 232.728C398.378 237.169 391.404 243.514 388.742 245.037C390.01 243.133 396.222 233.362 398.124 228.286C400.28 222.703 400.66 207.602 400.66 207.602L403.45 207.222C404.083 215.089 402.942 228.286 400.66 232.728Z" fill="url(#paint21_linear)"/>
<path d="M371.118 204.937C371.118 204.937 364.778 203.034 363.13 199.735C361.482 196.562 365.539 184.634 376.57 181.462C387.601 178.289 391.912 178.289 395.208 179.304C398.505 180.446 400.787 183.873 400.787 183.873C400.787 183.873 402.942 193.136 403.957 200.242C405.098 207.348 404.464 213.059 403.83 215.47C403.196 217.881 401.675 220.165 401.675 220.165L399.519 220.546C399.519 220.546 401.041 207.856 399.519 203.288C397.998 198.719 396.476 196.689 396.476 196.689C396.476 196.689 389.503 201.131 385.572 202.526C381.895 204.049 375.302 205.699 371.118 204.937Z" fill="#6E6B74"/>
<path d="M355.522 319.525H318.373L322.176 316.733C322.176 316.733 333.968 312.672 336.25 312.165C338.532 311.657 350.07 312.292 350.07 312.292L351.085 313.307L351.592 313.814C353.747 315.972 354.888 318.002 355.522 319.525Z" fill="url(#paint22_linear)"/>
<path d="M355.522 319.525C355.142 318.51 354.381 317.241 353.367 315.845C351.592 316.098 349.944 316.352 349.944 316.352C349.944 316.352 344.618 316.352 341.195 316.352C337.772 316.352 331.179 317.241 331.179 317.241L335.109 314.449C335.109 314.449 332.193 314.83 330.037 315.718C327.882 316.606 326.107 317.114 324.459 317.748C323.444 318.256 320.528 319.017 318.626 319.652H355.522V319.525Z" fill="url(#paint23_linear)"/>
<path d="M439.965 262.294C439.078 267.117 431.47 281.075 428.427 286.532C425.131 292.369 403.449 323.078 403.449 323.078H356.283C356.283 323.078 356.41 321.682 355.522 319.525C354.888 317.875 353.747 315.972 351.592 313.687L351.085 313.18C350.704 312.799 350.451 312.545 350.07 312.165C350.07 312.165 366.68 308.612 379.613 306.327C385.699 305.312 390.897 304.424 393.433 304.424C393.433 304.424 411.437 257.599 414.48 254.3C416.509 252.143 418.538 249.605 422.214 248.336C423.863 248.336 425.131 248.463 425.257 248.463C425.891 248.59 432.358 248.97 438.19 258.234C438.697 259.249 439.331 260.645 439.965 262.294Z" fill="url(#paint24_linear)"/>
<path d="M406.239 507.965C406.239 507.965 408.775 516.087 409.409 517.102C410.043 518.117 408.775 524.589 408.775 524.589C408.775 524.589 365.032 527.254 361.989 526.873L360.975 524.843C360.975 524.843 361.482 520.909 362.496 519.005C363.51 517.102 382.783 509.361 382.783 509.361L406.239 507.965Z" fill="url(#paint25_linear)"/>
<path d="M382.656 509.361C382.656 509.361 344.365 411.016 345.379 397.185C345.379 397.185 354.381 375.105 356.917 373.074C359.326 371.044 413.846 351.121 413.846 351.121L458.223 353.279C458.223 353.279 459.872 378.531 460.252 386.145C460.506 393.758 448.841 399.215 441.233 402.261C433.626 405.306 379.106 405.687 379.106 405.687L406.366 508.092C406.239 507.965 390.897 511.011 382.656 509.361Z" fill="#9692A6"/>
<path d="M450.996 379.293C450.996 379.293 430.329 386.78 422.468 388.556C414.607 390.46 378.725 405.56 378.725 405.56C378.725 405.56 434.894 404.799 442.501 401.626C450.109 398.581 459.238 393.124 458.984 385.511C458.731 377.897 457.97 353.152 457.97 353.152L413.593 350.995L448.08 364.065L450.996 379.293Z" fill="url(#paint26_linear)"/>
<path d="M362.242 435.127L356.41 407.083L345.633 396.931C345.633 397.058 345.506 397.185 345.506 397.185C344.872 404.291 355.015 434.239 364.778 461.395L362.242 435.127Z" fill="url(#paint27_linear)"/>
<path d="M372.512 319.525H318.373V323.078H372.512V319.525Z" fill="#CFCFCF"/>
<path d="M308.229 269.528H230.887L243.819 323.205H321.289L308.229 269.528Z" fill="#A3A3A3"/>
<path d="M306.327 269.528H228.985L241.918 323.205H319.387L306.327 269.528Z" fill="url(#paint28_linear)"/>
<path opacity="0.53" d="M239.635 313.561L282.237 299.348L299.481 269.528H228.985L239.635 313.561Z" fill="url(#paint29_linear)"/>
<path d="M509.827 323.205H121.085V332.341H509.827V323.205Z" fill="#E7E3FD"/>
<path d="M300.622 323.205H121.085V332.341H310.638C307.215 329.169 303.918 326.123 300.622 323.205Z" fill="url(#paint30_linear)"/>
<path d="M490.935 332.341H139.851V336.782H490.935V332.341Z" fill="#1C103F"/>
<path d="M475.72 341.858L474.833 336.782H469.381H160.137H154.812L153.924 341.858L129.073 525.731H134.652L159.376 341.858H470.268L494.992 525.731H500.571L475.72 341.858Z" fill="#CFCFCF"/>
<path d="M203.753 296.43H180.297V323.205H203.753V296.43Z" fill="white"/>
<path d="M210.093 302.14C208.571 300.998 206.289 300.49 203.753 300.871V303.028C203.753 303.028 203.88 303.028 204.007 303.028C204.514 302.901 204.894 302.901 205.401 302.901C206.796 302.901 207.937 303.155 208.698 303.789C209.459 304.297 209.712 305.058 209.712 306.074C209.712 309.119 206.669 313.053 203.88 313.814V316.098C204.007 316.098 204.134 316.098 204.134 316.098C208.191 315.21 212.121 310.261 212.121 306.2C211.995 304.424 211.361 303.028 210.093 302.14Z" fill="url(#paint31_linear)"/>
<path d="M195.639 293.003C195.639 293.003 191.074 290.212 192.849 285.643C194.624 281.075 197.16 277.649 195.639 274.223C195.639 274.223 198.935 276.126 198.048 279.933C197.16 283.74 193.737 287.547 195.639 293.003Z" fill="url(#paint32_linear)"/>
<path d="M189.299 287.801C189.299 287.801 183.847 284.121 187.017 278.283C189.68 273.208 190.947 266.863 185.749 262.041C185.749 262.041 195.766 265.34 192.596 272.7C188.665 281.583 187.397 283.105 189.299 287.801Z" fill="url(#paint33_linear)"/>
<path d="M274.165 244.202L273.435 244.416L273.791 245.633L274.521 245.42L274.165 244.202Z" fill="#766D98"/>
<path d="M272.348 240.595L271.587 238.057L272.348 237.804L273.108 240.341L272.348 240.595ZM270.572 234.377L269.812 231.839L270.572 231.586L271.333 234.124L270.572 234.377ZM268.671 228.159L267.91 225.622L268.671 225.368L269.431 227.906L268.671 228.159ZM266.896 221.815L266.135 219.277L266.896 219.023L267.656 221.561L266.896 221.815ZM264.994 215.597L264.233 213.059L264.994 212.805L265.754 215.343L264.994 215.597ZM263.219 209.252L262.458 206.714L263.219 206.46L263.979 208.998L263.219 209.252ZM261.317 203.034L260.556 200.496L261.317 200.242L262.077 202.78L261.317 203.034ZM259.542 196.689L258.781 194.151L259.542 193.897L260.302 196.435L259.542 196.689ZM257.64 190.471L256.879 187.933L257.64 187.68L258.401 190.217L257.64 190.471ZM255.865 184.126L255.104 181.589L255.865 181.335L256.625 183.873L255.865 184.126ZM254.09 177.909L253.329 175.371L254.09 175.117L254.85 177.655L254.09 177.909ZM252.188 171.691L251.427 169.153L252.188 168.899L252.948 171.437L252.188 171.691Z" fill="#766D98"/>
<path d="M250.711 163.888L249.98 164.102L250.336 165.32L251.067 165.106L250.711 163.888Z" fill="#766D98"/>
<path d="M252.822 160.524C252.822 162.681 251.047 164.331 249.018 164.331C246.862 164.331 245.214 162.554 245.214 160.524C245.214 158.366 246.989 156.717 249.018 156.717C251.047 156.59 252.822 158.366 252.822 160.524Z" fill="#766D98"/>
<path d="M244.761 157.378L244.44 158.069L245.59 158.603L245.911 157.913L244.761 157.378Z" fill="#766D98"/>
<path d="M240.903 156.463L238.494 155.321L238.874 154.687L241.284 155.829L240.903 156.463ZM234.817 153.671L232.408 152.529L232.789 151.895L235.198 153.037L234.817 153.671ZM228.858 150.88L226.449 149.738L226.829 149.103L229.238 150.245L228.858 150.88ZM222.772 148.088L220.363 146.946L220.743 146.311L223.152 147.453L222.772 148.088ZM216.813 145.296L214.404 144.154L214.784 143.52L217.193 144.662L216.813 145.296ZM210.854 142.504L208.445 141.362L208.825 140.728L211.234 141.87L210.854 142.504ZM204.768 139.713L202.359 138.571L202.739 137.936L205.148 139.078L204.768 139.713ZM198.808 136.921L196.399 135.779L196.78 135.144L199.189 136.287L198.808 136.921ZM192.723 134.129L190.313 132.987L190.694 132.353L193.103 133.495L192.723 134.129Z" fill="#766D98"/>
<path d="M185.96 130.059L185.64 130.75L186.79 131.284L187.11 130.593L185.96 130.059Z" fill="#766D98"/>
<path d="M248.779 155.328L248.49 156.563L249.231 156.737L249.52 155.501L248.779 155.328Z" fill="#766D98"/>
<path d="M250.413 151.895L249.652 151.768L250.159 149.357L250.92 149.484L250.413 151.895ZM251.807 145.931L251.047 145.804L251.554 143.393L252.314 143.52L251.807 145.931ZM253.202 139.967L252.441 139.84L252.948 137.429L253.709 137.555L253.202 139.967ZM254.597 134.002L253.836 133.875L254.343 131.464L255.104 131.591L254.597 134.002ZM255.991 128.038L255.231 127.911L255.738 125.5L256.499 125.627L255.991 128.038ZM257.386 122.074L256.625 121.947L257.133 119.536L257.893 119.663L257.386 122.074ZM258.781 116.11L258.02 115.983L258.527 113.572L259.288 113.699L258.781 116.11ZM260.176 110.146L259.415 110.019L259.922 107.608L260.683 107.735L260.176 110.146Z" fill="#766D98"/>
<path d="M261.134 102.867L260.845 104.103L261.585 104.276L261.874 103.04L261.134 102.867Z" fill="#766D98"/>
<path d="M253.803 159.723L252.602 160.127L252.845 160.849L254.046 160.444L253.803 159.723Z" fill="#766D98"/>
<path d="M257.767 159.255L257.513 158.493L259.922 157.732L260.176 158.493L257.767 159.255ZM263.726 157.224L263.472 156.463L265.881 155.702L266.135 156.463L263.726 157.224ZM269.812 155.067L269.558 154.306L271.967 153.544L272.221 154.306L269.812 155.067ZM275.898 153.037L275.644 152.275L278.053 151.514L278.307 152.275L275.898 153.037ZM281.857 151.007L281.603 150.245L284.012 149.484L284.266 150.245L281.857 151.007ZM287.943 148.976L287.689 148.215L290.098 147.453L290.352 148.215L287.943 148.976ZM294.029 146.946L293.775 146.184L296.184 145.423L296.438 146.184L294.029 146.946ZM300.115 144.915L299.861 144.154L302.27 143.393L302.524 144.154L300.115 144.915ZM306.074 142.885L305.82 142.124L308.229 141.362L308.483 142.124L306.074 142.885ZM312.16 140.855L311.906 140.093L314.315 139.332L314.569 140.093L312.16 140.855ZM318.246 138.824L317.992 138.063L320.401 137.302L320.655 138.063L318.246 138.824ZM324.205 136.794L323.951 136.033L326.361 135.271L326.614 136.033L324.205 136.794ZM330.291 134.764L330.037 134.002L332.446 133.241L332.7 134.002L330.291 134.764ZM336.377 132.733L336.123 131.972L338.532 131.211L338.786 131.972L336.377 132.733ZM342.336 130.703L342.083 129.942L344.492 129.18L344.745 129.942L342.336 130.703ZM348.422 128.673L348.169 127.911L350.578 127.15L350.831 127.911L348.422 128.673Z" fill="#766D98"/>
<path d="M355.474 125.441L354.272 125.846L354.515 126.567L355.717 126.163L355.474 125.441Z" fill="#766D98"/>
<path d="M245.568 162.296L244.455 162.904L244.819 163.572L245.932 162.965L245.568 162.296Z" fill="#766D98"/>
<path d="M167.872 205.572L167.491 204.937L169.647 203.795L170.027 204.43L167.872 205.572ZM173.324 202.653L172.943 202.019L175.099 200.877L175.479 201.511L173.324 202.653ZM178.902 199.608L178.522 198.973L180.677 197.831L181.058 198.466L178.902 199.608ZM184.354 196.689L183.974 196.055L186.13 194.913L186.51 195.547L184.354 196.689ZM189.806 193.644L189.426 193.009L191.582 191.867L191.962 192.502L189.806 193.644ZM195.385 190.598L195.005 189.964L197.16 188.822L197.541 189.456L195.385 190.598ZM200.837 187.68L200.457 187.045L202.612 185.903L202.993 186.537L200.837 187.68ZM206.289 184.634L205.909 184L208.064 182.857L208.445 183.492L206.289 184.634ZM211.868 181.589L211.488 180.954L213.643 179.812L214.024 180.446L211.868 181.589ZM217.32 178.67L216.94 178.035L219.095 176.893L219.476 177.528L217.32 178.67ZM222.899 175.624L222.519 174.99L224.674 173.848L225.054 174.482L222.899 175.624ZM228.351 172.579L227.971 171.944L230.126 170.802L230.506 171.437L228.351 172.579ZM233.803 169.66L233.423 169.026L235.578 167.884L235.958 168.518L233.803 169.66ZM239.382 166.615L239.001 165.98L241.157 164.838L241.537 165.473L239.382 166.615Z" fill="#766D98"/>
<path d="M164.147 206.723L163.034 207.331L163.398 207.999L164.511 207.392L164.147 206.723Z" fill="#766D98"/>
<path d="M109.801 296.683V295.922C110.689 295.922 111.449 295.795 112.337 295.795V296.556C111.576 296.556 110.689 296.683 109.801 296.683ZM105.997 296.683C105.11 296.683 104.349 296.556 103.462 296.556V295.795C104.349 295.922 105.11 295.922 105.997 295.922V296.683ZM116.141 296.049L116.014 295.288C116.902 295.161 117.662 295.034 118.55 294.907L118.677 295.668C117.916 295.795 117.028 295.922 116.141 296.049ZM99.6579 296.049C98.7704 295.922 98.0096 295.795 97.1221 295.541L97.2489 294.78C98.0096 294.907 98.8972 295.034 99.7847 295.161L99.6579 296.049ZM122.48 294.78L122.227 294.019C122.987 293.765 123.875 293.511 124.636 293.257L124.889 294.019C124.129 294.399 123.241 294.653 122.48 294.78ZM93.4451 294.653C92.6844 294.399 91.7969 294.145 91.0361 293.892L91.2897 293.13C92.0504 293.384 92.938 293.638 93.6987 293.892L93.4451 294.653ZM128.44 292.876L128.186 292.115C128.947 291.861 129.707 291.481 130.468 291.1L130.722 291.734C130.088 292.115 129.327 292.496 128.44 292.876ZM87.3592 292.623C86.5984 292.242 85.8377 291.988 84.9501 291.608L85.3305 290.973C86.0913 291.354 86.852 291.608 87.6128 291.988L87.3592 292.623ZM134.272 290.085L133.892 289.45C134.652 289.07 135.413 288.689 136.047 288.181L136.427 288.816C135.793 289.323 135.033 289.704 134.272 290.085ZM81.6536 289.958C80.8928 289.577 80.1321 289.07 79.4981 288.689L79.8785 288.054C80.6392 288.435 81.2732 288.943 82.0339 289.323L81.6536 289.958ZM139.724 286.785L139.344 286.151C139.978 285.643 140.738 285.136 141.372 284.628L141.879 285.263C141.119 285.77 140.358 286.278 139.724 286.785ZM76.2016 286.532C75.5676 286.024 74.8069 285.517 74.1729 285.009L74.6801 284.374C75.314 284.882 76.0748 285.39 76.7087 285.897L76.2016 286.532ZM144.796 282.852L144.288 282.217C144.922 281.71 145.556 281.075 146.19 280.568L146.697 281.075C146.063 281.71 145.43 282.344 144.796 282.852ZM71.1299 282.598C70.496 282.09 69.862 281.456 69.228 280.821L69.7352 280.314C70.3692 280.948 71.0031 281.456 71.6371 282.09L71.1299 282.598ZM149.233 278.41L148.726 277.903C149.233 277.268 149.867 276.634 150.374 275.999L151.008 276.507C150.374 277.141 149.867 277.776 149.233 278.41ZM66.6922 278.03C66.1851 277.395 65.5511 276.761 65.0439 276.126L65.6779 275.619C66.1851 276.253 66.6922 276.888 67.3262 277.522L66.6922 278.03ZM153.291 273.461L152.657 273.081C153.164 272.446 153.671 271.685 154.051 271.05L154.685 271.431C154.305 272.065 153.798 272.7 153.291 273.461ZM62.7617 273.081C62.2545 272.446 61.7474 271.685 61.367 270.923L62.001 270.543C62.5081 271.304 62.8885 271.939 63.3957 272.573L62.7617 273.081ZM156.714 268.005L156.08 267.624C156.46 266.863 156.841 266.101 157.221 265.34L157.855 265.721C157.475 266.482 157.094 267.243 156.714 268.005ZM59.3383 267.624C58.958 266.863 58.5776 266.101 58.1972 265.34L58.8312 264.959C59.2115 265.721 59.5919 266.482 59.9723 267.243L59.3383 267.624ZM159.503 262.294L158.743 262.041C159.123 261.279 159.377 260.518 159.63 259.63L160.391 259.883C160.137 260.645 159.757 261.533 159.503 262.294ZM56.6757 261.914C56.2954 261.152 56.0418 260.391 55.7882 259.503L56.5489 259.249C56.8025 260.01 57.1829 260.772 57.4365 261.66L56.6757 261.914ZM161.532 256.203L160.771 255.95C161.025 255.188 161.152 254.3 161.405 253.539L162.166 253.666C162.039 254.554 161.786 255.442 161.532 256.203ZM54.6471 255.823C54.3935 255.061 54.2667 254.173 54.0131 253.285L54.7739 253.158C54.9006 253.919 55.1542 254.808 55.4078 255.569L54.6471 255.823ZM162.927 249.986L162.166 249.859C162.293 248.97 162.42 248.209 162.546 247.321L163.307 247.448C163.18 248.336 163.053 249.224 162.927 249.986ZM53.2524 249.605C53.1256 248.717 52.9988 247.955 52.872 247.067L53.6327 246.94C53.7595 247.828 53.8863 248.59 54.0131 249.478L53.2524 249.605ZM163.561 243.641H162.8C162.8 242.752 162.8 241.991 162.8 241.103H163.561C163.687 241.991 163.687 242.879 163.561 243.641ZM52.6184 243.26C52.6184 242.499 52.6184 241.864 52.6184 241.103V240.722H53.3792V241.103C53.3792 241.864 53.3792 242.499 53.3792 243.133L52.6184 243.26ZM162.927 239.453C162.927 238.565 162.8 237.804 162.8 236.915H163.561C163.561 237.804 163.687 238.565 163.687 239.453H162.927ZM53.5059 236.915H52.7452C52.872 236.027 52.872 235.266 52.9988 234.377L53.7595 234.504C53.6327 235.266 53.6327 236.027 53.5059 236.915ZM162.293 233.235C162.166 232.347 162.039 231.586 161.912 230.697L162.673 230.57C162.8 231.459 162.927 232.22 163.053 233.108L162.293 233.235ZM54.3935 230.697L53.6327 230.57C53.7595 229.682 54.0131 228.921 54.1399 228.033L54.9006 228.159C54.7739 229.048 54.5203 229.809 54.3935 230.697ZM161.025 227.017C160.771 226.256 160.518 225.368 160.264 224.606L161.025 224.353C161.278 225.114 161.532 226.002 161.786 226.764L161.025 227.017ZM55.915 224.606L55.1542 224.353C55.4078 223.591 55.6614 222.703 56.0418 221.941L56.8025 222.195C56.4221 222.957 56.1686 223.718 55.915 224.606ZM159.123 221.053C158.869 220.292 158.489 219.53 158.109 218.769L158.743 218.515C159.123 219.277 159.377 220.038 159.757 220.926L159.123 221.053ZM58.1972 218.642L57.5633 218.388C57.9436 217.627 58.324 216.866 58.7044 216.104L59.3383 216.485C58.8312 217.119 58.5776 217.881 58.1972 218.642ZM156.46 215.343C156.08 214.582 155.7 213.82 155.192 213.186L155.826 212.805C156.207 213.566 156.714 214.328 157.094 215.089L156.46 215.343ZM61.1134 213.059L60.4795 212.678C60.8598 211.917 61.367 211.282 61.8742 210.521L62.5081 210.902C62.001 211.663 61.4938 212.424 61.1134 213.059ZM153.164 210.013C152.657 209.379 152.149 208.617 151.642 207.983L152.276 207.475C152.783 208.11 153.291 208.871 153.798 209.506L153.164 210.013ZM64.6636 207.856L64.0296 207.348C64.5368 206.714 65.0439 205.953 65.6779 205.318L66.3118 205.826C65.6779 206.587 65.1707 207.222 64.6636 207.856ZM149.36 204.937C148.853 204.303 148.219 203.668 147.712 203.034L148.219 202.526C148.853 203.161 149.36 203.795 149.994 204.43L149.36 204.937ZM68.7209 203.034L68.2137 202.526C68.8477 201.892 69.3548 201.257 69.9888 200.75L70.496 201.257C69.862 201.892 69.3548 202.526 68.7209 203.034ZM144.922 200.496C144.288 199.988 143.654 199.354 143.02 198.846L143.528 198.212C144.162 198.719 144.796 199.354 145.43 199.862L144.922 200.496ZM73.2854 198.846L72.7782 198.212C73.4122 197.704 74.0461 197.197 74.8069 196.689L75.314 197.324C74.6801 197.704 73.9193 198.339 73.2854 198.846ZM139.978 196.562C139.344 196.055 138.583 195.547 137.949 195.166L138.329 194.532C139.09 195.039 139.724 195.42 140.485 195.928L139.978 196.562ZM78.357 195.039L77.9766 194.405C78.7374 193.897 79.3713 193.517 80.1321 193.009L80.5125 193.644C79.8785 194.151 79.1178 194.659 78.357 195.039ZM134.652 193.136C133.892 192.755 133.131 192.375 132.37 191.994L132.75 191.36C133.511 191.74 134.272 192.121 135.033 192.502L134.652 193.136ZM83.809 191.994L83.4287 191.36C84.1894 190.979 84.9501 190.598 85.7109 190.217L85.9645 190.852C85.3305 191.233 84.5698 191.613 83.809 191.994ZM129.073 190.471C128.313 190.091 127.552 189.837 126.664 189.583L126.918 188.822C127.679 189.075 128.566 189.456 129.327 189.71L129.073 190.471ZM89.6414 189.583L89.3878 188.822C90.1486 188.568 91.0361 188.314 91.7969 188.06L92.0504 188.822C91.1629 188.948 90.4022 189.202 89.6414 189.583ZM123.114 188.314C122.354 188.06 121.466 187.933 120.705 187.679L120.832 186.918C121.72 187.172 122.48 187.299 123.241 187.553L123.114 188.314ZM95.7274 187.679L95.6006 186.918C96.4881 186.664 97.2489 186.537 98.1364 186.411L98.2632 187.172C97.2489 187.426 96.4881 187.553 95.7274 187.679ZM116.902 187.045C116.014 186.918 115.253 186.791 114.366 186.664L114.492 185.903C115.38 186.03 116.141 186.157 117.028 186.284L116.902 187.045ZM101.813 186.664L101.687 185.903C102.574 185.776 103.335 185.776 104.222 185.649V186.411C103.588 186.537 102.701 186.537 101.813 186.664ZM110.689 186.411C109.801 186.411 109.04 186.411 108.153 186.411V185.649C109.04 185.649 109.801 185.649 110.689 185.649V186.411Z" fill="#766D98"/>
<path d="M277.8 111.034V110.273C278.687 110.273 279.448 110.146 280.335 110.146V110.907C279.448 111.034 278.56 111.034 277.8 111.034ZM273.869 111.034C272.981 111.034 272.221 110.907 271.333 110.907V110.146C272.221 110.273 272.981 110.273 273.869 110.273V111.034ZM284.139 110.527L284.012 109.765C284.9 109.638 285.661 109.511 286.548 109.385L286.675 110.146C285.787 110.273 284.9 110.4 284.139 110.527ZM267.529 110.527C266.642 110.4 265.881 110.273 264.994 110.019L265.12 109.258C265.881 109.385 266.769 109.511 267.656 109.638L267.529 110.527ZM290.352 109.258L290.098 108.496C290.859 108.242 291.747 107.989 292.507 107.735L292.761 108.496C292 108.75 291.239 109.004 290.352 109.258ZM261.317 109.131C260.556 108.877 259.668 108.623 258.908 108.369L259.161 107.608C259.922 107.862 260.809 108.116 261.57 108.369L261.317 109.131ZM296.438 107.227L296.184 106.466C296.945 106.212 297.706 105.831 298.466 105.451L298.72 106.085C297.959 106.593 297.199 106.974 296.438 107.227ZM255.231 107.1C254.47 106.72 253.709 106.466 252.822 106.085L253.202 105.451C253.963 105.831 254.724 106.085 255.484 106.466L255.231 107.1ZM302.143 104.562L301.763 103.928C302.524 103.547 303.285 103.167 303.918 102.659L304.299 103.294C303.665 103.801 302.904 104.182 302.143 104.562ZM249.525 104.436C248.764 104.055 248.004 103.547 247.37 103.167L247.75 102.532C248.511 102.913 249.145 103.42 249.905 103.801L249.525 104.436ZM307.595 101.263L307.215 100.629C307.849 100.121 308.61 99.6135 309.244 99.1059L309.751 99.7404C308.99 100.248 308.356 100.756 307.595 101.263ZM244.073 101.009C243.439 100.502 242.678 99.9942 242.044 99.4866L242.552 98.8522C243.186 99.3597 243.946 99.8673 244.58 100.375L244.073 101.009ZM312.667 97.3294L312.16 96.6949C312.794 96.1873 313.428 95.5529 314.062 95.0453L314.569 95.5529C313.935 96.1873 313.301 96.8218 312.667 97.3294ZM239.128 97.0756C238.494 96.568 237.86 95.9335 237.226 95.2991L237.734 94.7915C238.367 95.426 239.001 95.9335 239.635 96.568L239.128 97.0756ZM317.232 92.888L316.724 92.3805C317.232 91.746 317.866 91.1115 318.373 90.477L319.007 90.9846C318.373 91.6191 317.739 92.2536 317.232 92.888ZM234.564 92.5074C234.057 91.8729 233.423 91.2384 232.915 90.6039L233.549 90.0963C234.057 90.7308 234.564 91.3653 235.198 91.9998L234.564 92.5074ZM321.162 87.9391L320.528 87.4315C321.035 86.797 321.542 86.0356 321.923 85.4012L322.557 85.7818C322.176 86.5432 321.669 87.1777 321.162 87.9391ZM230.633 87.5584C230.126 86.9239 229.619 86.1625 229.239 85.4012L229.872 85.0205C230.38 85.7819 230.76 86.4163 231.267 87.0508L230.633 87.5584ZM324.585 82.4825L323.951 82.1019C324.332 81.3405 324.712 80.5791 325.093 79.8177L325.727 80.1984C325.473 80.9598 325.093 81.7212 324.585 82.4825ZM227.21 82.1019C226.829 81.3405 226.449 80.5791 226.069 79.8177L226.703 79.437C227.083 80.1984 227.463 80.9598 227.844 81.7212L227.21 82.1019ZM327.375 76.7722L326.614 76.5184C326.994 75.757 327.248 74.9957 327.502 74.1074L328.262 74.3612C328.009 75.1226 327.755 75.8839 327.375 76.7722ZM224.547 76.3915C224.167 75.6301 223.913 74.8688 223.66 73.9805L224.42 73.7267C224.674 74.4881 225.054 75.2495 225.308 76.1377L224.547 76.3915ZM329.53 70.6812L328.77 70.4274C329.023 69.666 329.15 68.7778 329.403 68.0164L330.164 68.1433C329.911 69.0315 329.657 69.9198 329.53 70.6812ZM222.519 70.3005C222.265 69.5391 222.138 68.6509 221.885 67.7626L222.645 67.6357C222.772 68.3971 223.026 69.2853 223.279 70.0467L222.519 70.3005ZM330.798 64.4633L330.037 64.3364C330.164 63.4481 330.291 62.6867 330.418 61.7985L331.179 61.9254C331.052 62.8136 331.052 63.575 330.798 64.4633ZM221.124 64.0826C220.997 63.1943 220.87 62.4329 220.743 61.5447L221.504 61.4178C221.631 62.306 221.758 63.0674 221.885 63.9557L221.124 64.0826ZM331.559 58.1185H330.798C330.798 57.2302 330.798 56.4688 330.798 55.5805H331.559C331.559 56.4688 331.559 57.2302 331.559 58.1185ZM220.617 57.7378C220.617 56.9764 220.617 56.3419 220.617 55.5805V55.1999H221.377V55.5805C221.377 56.3419 221.377 56.9764 221.377 57.7378H220.617ZM330.798 53.9309C330.798 53.0426 330.671 52.2812 330.671 51.393H331.432C331.559 52.2812 331.559 53.0426 331.559 53.9309H330.798ZM221.504 51.393H220.743C220.87 50.5047 220.87 49.7433 220.997 48.855L221.758 48.9819C221.631 49.7433 221.504 50.5047 221.504 51.393ZM330.291 47.5861C330.164 46.6978 330.037 45.9364 329.911 45.0482L330.671 44.9213C330.798 45.8095 330.925 46.5709 331.052 47.4592L330.291 47.5861ZM222.265 45.1751L221.504 45.0482C221.631 44.1599 221.885 43.3985 222.011 42.5102L222.772 42.6371C222.645 43.5254 222.392 44.2868 222.265 45.1751ZM329.023 41.4951C328.77 40.7337 328.516 39.8454 328.262 39.084L329.023 38.8302C329.277 39.5916 329.53 40.4799 329.784 41.2413L329.023 41.4951ZM223.786 38.9571L223.026 38.7034C223.279 37.942 223.533 37.0537 223.913 36.2923L224.674 36.5461C224.42 37.4344 224.04 38.1958 223.786 38.9571ZM326.994 35.5309C326.741 34.7696 326.361 34.0082 325.98 33.2468L326.614 32.993C326.994 33.7544 327.248 34.5158 327.628 35.404L326.994 35.5309ZM226.069 33.1199L225.435 32.8661C225.815 32.1047 226.196 31.3434 226.576 30.582L227.21 30.9627C226.829 31.5972 226.449 32.3585 226.069 33.1199ZM324.332 29.8206C323.951 29.0592 323.571 28.2979 323.064 27.6634L323.698 27.2827C324.078 28.0441 324.585 28.8054 324.966 29.5668L324.332 29.8206ZM228.985 27.5365L228.351 27.1558C228.731 26.3944 229.238 25.7599 229.746 24.9986L230.38 25.3792C229.872 26.1406 229.365 26.7751 228.985 27.5365ZM321.035 24.3641C320.528 23.7296 320.021 22.9682 319.514 22.3337L320.148 21.8262C320.655 22.4606 321.162 23.222 321.669 23.8565L321.035 24.3641ZM232.535 22.3337L231.901 21.8262C232.408 21.1917 232.915 20.4303 233.549 19.7958L234.183 20.3034C233.549 20.9379 233.042 21.6993 232.535 22.3337ZM317.232 19.4151C316.724 18.7806 316.09 18.1462 315.583 17.5117L316.09 17.0041C316.724 17.6386 317.232 18.2731 317.866 18.9075L317.232 19.4151ZM236.592 17.5117L236.085 17.0041C236.719 16.3696 237.226 15.7351 237.86 15.2275L238.367 15.7351C237.86 16.3696 237.226 16.8772 236.592 17.5117ZM312.794 14.9738C312.16 14.4662 311.526 13.8317 310.892 13.3241L311.399 12.6896C312.033 13.1972 312.667 13.8317 313.301 14.3393L312.794 14.9738ZM241.284 13.3241L240.776 12.6896C241.41 12.182 242.044 11.6745 242.805 11.1669L243.312 11.8013C242.552 12.182 241.918 12.6896 241.284 13.3241ZM307.976 11.04C307.342 10.5324 306.581 10.0248 305.947 9.64411L306.328 9.00963C307.088 9.51722 307.722 9.89791 308.483 10.4055L307.976 11.04ZM246.355 9.51722L245.848 8.88274C246.609 8.37515 247.243 7.99446 248.004 7.48688L248.384 8.12136C247.75 8.62894 246.989 9.13653 246.355 9.51722ZM302.651 7.61377C301.89 7.23308 301.129 6.8524 300.368 6.47171L300.749 5.83723C301.509 6.21792 302.27 6.5986 303.031 6.97929L302.651 7.61377ZM251.807 6.47171L251.427 5.83723C252.188 5.45654 252.948 5.07585 253.709 4.69516L253.963 5.32964C253.329 5.71033 252.568 6.09102 251.807 6.47171ZM296.945 4.82206C296.184 4.44137 295.423 4.18758 294.536 3.93378L294.79 3.17241C295.55 3.4262 296.438 3.80689 297.199 4.06068L296.945 4.82206ZM257.513 3.93378L257.259 3.17241C258.02 2.91861 258.908 2.66482 259.668 2.41103L259.922 3.17241C259.161 3.4262 258.274 3.67999 257.513 3.93378ZM290.986 2.79172C290.225 2.53792 289.338 2.41103 288.577 2.15724L288.704 1.39586C289.591 1.64965 290.352 1.77655 291.113 2.03034L290.986 2.79172ZM263.599 2.15724L263.472 1.39586C264.36 1.14207 265.12 1.01517 266.008 0.888274L266.135 1.64965C265.247 1.77655 264.36 2.03034 263.599 2.15724ZM284.773 1.52275C283.885 1.39586 283.125 1.26896 282.237 1.14207L282.364 0.380689C283.252 0.507585 284.012 0.634481 284.9 0.761377L284.773 1.52275ZM269.812 1.14207L269.685 0.380689C270.572 0.253792 271.333 0.253792 272.221 0.126896V0.888274C271.46 0.888274 270.572 1.01517 269.812 1.14207ZM278.56 0.761377C277.673 0.761377 276.912 0.761377 276.024 0.761377V0C276.912 0 277.673 0 278.56 0V0.761377Z" fill="#766D98"/>
<path d="M396.603 144.789C396.222 144.789 395.969 144.789 395.715 144.789V144.027C395.969 144.027 396.349 144.027 396.603 144.027C397.11 144.027 397.617 144.027 398.251 144.027V144.789C397.744 144.789 397.237 144.789 396.603 144.789ZM391.912 144.408C391.024 144.281 390.263 144.154 389.376 143.9L389.503 143.139C390.263 143.266 391.151 143.52 391.912 143.52V144.408ZM402.055 144.408L401.928 143.647C402.816 143.52 403.576 143.393 404.337 143.139L404.464 143.9C403.83 144.027 402.942 144.154 402.055 144.408ZM385.699 143.012C384.938 142.758 384.051 142.378 383.29 142.124L383.543 141.362C384.304 141.743 385.065 141.997 385.826 142.251L385.699 143.012ZM408.268 142.758L408.014 141.997C408.775 141.743 409.536 141.362 410.296 140.982L410.677 141.616C409.916 142.124 409.155 142.378 408.268 142.758ZM379.866 140.347C379.106 139.967 378.345 139.459 377.711 138.951L378.091 138.317C378.725 138.824 379.486 139.205 380.247 139.713L379.866 140.347ZM414.1 139.967L413.72 139.332C414.48 138.951 415.114 138.444 415.748 137.936L416.129 138.571C415.495 139.078 414.734 139.459 414.1 139.967ZM374.668 136.667C374.034 136.16 373.4 135.525 372.766 134.891L373.273 134.383C373.907 135.018 374.541 135.525 375.048 136.033L374.668 136.667ZM419.172 136.16L418.665 135.652C419.298 135.144 419.932 134.51 420.44 133.876L420.947 134.383C420.44 134.891 419.806 135.525 419.172 136.16ZM370.23 131.972C369.723 131.338 369.216 130.576 368.709 129.942L369.343 129.561C369.85 130.196 370.357 130.957 370.864 131.591L370.23 131.972ZM423.483 131.338L422.849 130.83C423.356 130.196 423.863 129.434 424.243 128.8L424.877 129.18C424.497 130.069 423.99 130.703 423.483 131.338ZM366.68 126.642C366.3 125.881 365.919 125.12 365.539 124.358L366.3 124.104C366.68 124.866 366.934 125.627 367.314 126.389L366.68 126.642ZM426.906 125.881L426.272 125.5C426.652 124.739 427.033 123.978 427.286 123.216L428.047 123.47C427.667 124.358 427.286 125.12 426.906 125.881ZM364.271 120.678C364.018 119.917 363.764 119.029 363.637 118.14L364.398 118.013C364.525 118.775 364.778 119.663 365.032 120.425L364.271 120.678ZM429.188 119.917L428.427 119.663C428.681 118.902 428.808 118.013 428.935 117.252L429.695 117.379C429.569 118.267 429.315 119.156 429.188 119.917ZM363.13 114.333C363.003 113.445 363.003 112.557 363.003 111.796H363.764C363.764 112.684 363.891 113.445 363.891 114.333H363.13ZM430.202 113.572H429.442C429.442 112.684 429.569 111.922 429.569 111.034V110.78H430.329V111.034C430.329 111.922 430.329 112.811 430.202 113.572ZM363.764 107.989L363.003 107.862C363.13 106.974 363.13 106.212 363.384 105.324L364.144 105.451C364.018 106.339 363.891 107.227 363.764 107.989ZM429.315 107.1C429.188 106.339 429.061 105.451 428.935 104.562L429.695 104.436C429.822 105.324 429.949 106.085 430.076 106.974L429.315 107.1ZM365.032 101.898L364.271 101.644C364.525 100.882 364.778 99.9942 365.032 99.2328L365.793 99.4866C365.412 100.248 365.159 101.136 365.032 101.898ZM428.047 101.009C427.793 100.248 427.54 99.4866 427.16 98.5983L427.92 98.3446C428.301 99.1059 428.554 99.9942 428.808 100.756L428.047 101.009ZM367.314 96.0604L366.68 95.6797C367.061 94.9184 367.441 94.157 367.948 93.3956L368.582 93.7763C368.075 94.5377 367.694 95.299 367.314 96.0604ZM425.511 95.1722C425.131 94.4108 424.624 93.7763 424.243 93.0149L424.877 92.6342C425.384 93.3956 425.765 94.0301 426.145 94.7915L425.511 95.1722ZM370.611 90.7308L369.977 90.2232C370.484 89.5887 370.991 88.9542 371.625 88.3198L372.132 88.8273C371.752 89.4618 371.118 90.0963 370.611 90.7308ZM421.961 90.0963C421.454 89.4618 420.82 88.8273 420.313 88.1929L420.82 87.6853C421.454 88.3198 421.961 88.9542 422.468 89.5887L421.961 90.0963ZM374.922 86.2894L374.414 85.6549C375.048 85.1473 375.682 84.5129 376.443 84.0053L376.95 84.6398C376.189 85.1473 375.556 85.6549 374.922 86.2894ZM417.523 85.6549C416.889 85.1473 416.255 84.6398 415.495 84.1322L415.875 83.4977C416.509 84.0053 417.27 84.5129 417.904 85.0205L417.523 85.6549ZM379.993 82.6094L379.613 81.9749C380.374 81.5943 381.134 81.0867 381.895 80.706L382.275 81.3405C381.515 81.7211 380.754 82.1018 379.993 82.6094ZM412.452 82.1018C411.691 81.7211 410.93 81.3405 410.169 80.9598L410.423 80.3253C411.184 80.706 411.945 81.0867 412.705 81.4674L412.452 82.1018ZM385.699 79.9446L385.445 79.1832C386.206 78.9294 387.094 78.6756 387.854 78.4218L388.108 79.1832C387.347 79.437 386.46 79.6908 385.699 79.9446ZM406.619 79.6908C405.859 79.437 404.971 79.1832 404.21 79.0563L404.337 78.295C405.225 78.5487 405.985 78.6756 406.746 78.9294L406.619 79.6908ZM391.785 78.4218L391.658 77.6605C392.546 77.5336 393.306 77.4067 394.194 77.4067V78.1681C393.433 78.295 392.546 78.295 391.785 78.4218ZM400.533 78.295C399.646 78.1681 398.885 78.1681 397.998 78.0412V77.2798C398.885 77.2798 399.646 77.4067 400.533 77.5336V78.295Z" fill="#766D98"/>
<path d="M146.824 139.205C146.571 139.205 146.19 139.205 145.937 139.205V138.444C146.19 138.444 146.571 138.444 146.824 138.444C147.331 138.444 147.838 138.444 148.472 138.444V139.205C147.965 139.205 147.331 139.205 146.824 139.205ZM142.133 138.951C141.245 138.824 140.485 138.698 139.597 138.444L139.724 137.682C140.485 137.809 141.372 138.063 142.133 138.063V138.951ZM152.276 138.824L152.149 138.063C152.91 137.936 153.798 137.809 154.558 137.556L154.685 138.317C153.924 138.444 153.164 138.698 152.276 138.824ZM135.793 137.429C135.033 137.175 134.145 136.794 133.384 136.54L133.638 135.779C134.399 136.16 135.159 136.413 135.92 136.667L135.793 137.429ZM158.489 137.175L158.235 136.413C158.996 136.16 159.757 135.779 160.518 135.398L160.898 136.033C160.137 136.54 159.25 136.794 158.489 137.175ZM129.961 134.764C129.2 134.383 128.439 133.876 127.805 133.368L128.186 132.733C128.82 133.241 129.581 133.622 130.341 134.129L129.961 134.764ZM164.194 134.383L163.814 133.749C164.575 133.368 165.209 132.86 165.97 132.353L166.35 132.987C165.716 133.495 164.955 133.876 164.194 134.383ZM124.762 131.084C124.128 130.576 123.495 129.942 122.861 129.307L123.368 128.8C124.002 129.434 124.636 129.942 125.143 130.449L124.762 131.084ZM169.393 130.576L168.886 130.069C169.52 129.561 170.154 128.927 170.661 128.292L171.168 128.8C170.661 129.434 170.027 129.942 169.393 130.576ZM120.325 126.389C119.818 125.754 119.31 124.993 118.803 124.358L119.437 123.978C119.944 124.612 120.452 125.373 120.959 126.008L120.325 126.389ZM173.704 125.881L173.07 125.373C173.577 124.739 174.084 123.978 174.465 123.343L175.099 123.724C174.718 124.485 174.211 125.12 173.704 125.881ZM116.901 121.059C116.521 120.298 116.141 119.536 115.76 118.775L116.521 118.521C116.901 119.282 117.155 120.044 117.535 120.805L116.901 121.059ZM177 120.425L176.366 120.044C176.747 119.282 177.127 118.521 177.381 117.76L178.142 118.013C177.761 118.775 177.381 119.663 177 120.425ZM114.492 115.095C114.239 114.333 113.985 113.445 113.858 112.557L114.619 112.43C114.746 113.191 115 114.08 115.253 114.841L114.492 115.095ZM179.283 114.333L178.522 114.08C178.775 113.318 178.902 112.43 179.029 111.669L179.79 111.796C179.79 112.684 179.536 113.572 179.283 114.333ZM113.224 108.877C113.098 107.989 113.098 107.227 113.098 106.339H113.858C113.858 107.227 113.985 107.989 113.985 108.877H113.224ZM180.424 108.116H179.663C179.663 107.227 179.79 106.466 179.79 105.578V105.324H180.551V105.578C180.551 106.339 180.424 107.227 180.424 108.116ZM113.985 102.532L113.224 102.405C113.351 101.517 113.351 100.756 113.605 99.8673L114.366 99.9942C114.239 100.756 114.112 101.644 113.985 102.532ZM179.536 101.517C179.409 100.629 179.283 99.8673 179.156 98.979L179.917 98.8521C180.043 99.7404 180.17 100.502 180.297 101.39L179.536 101.517ZM115.126 96.3142L114.366 96.0604C114.619 95.299 114.873 94.4108 115.126 93.6494L115.887 93.9032C115.633 94.7915 115.38 95.5528 115.126 96.3142ZM178.142 95.4259C177.888 94.6646 177.634 93.9032 177.254 93.0149L178.015 92.7611C178.395 93.5225 178.649 94.4108 178.902 95.1722L178.142 95.4259ZM117.409 90.477L116.775 90.0963C117.155 89.3349 117.535 88.5735 118.043 87.8122L118.676 88.1929C118.296 89.0811 117.789 89.7156 117.409 90.477ZM175.732 89.7156C175.352 88.9542 174.845 88.3198 174.465 87.5584L175.099 87.1777C175.606 87.9391 175.986 88.5736 176.366 89.3349L175.732 89.7156ZM120.832 85.2742L120.198 84.7667C120.705 84.1322 121.339 83.4977 121.846 82.8632L122.353 83.3708C121.846 83.8784 121.339 84.5129 120.832 85.2742ZM172.182 84.5129C171.675 83.8784 171.041 83.2439 170.534 82.6094L171.041 82.1018C171.675 82.7363 172.182 83.3708 172.689 84.0053L172.182 84.5129ZM125.143 80.706L124.636 80.0715C125.27 79.5639 125.904 78.9294 126.664 78.4219L127.171 79.0563C126.411 79.5639 125.777 80.0715 125.143 80.706ZM167.745 80.0715C167.111 79.5639 166.477 79.0563 165.716 78.5487L166.096 77.9143C166.73 78.4219 167.491 78.9294 168.125 79.437L167.745 80.0715ZM130.214 77.026L129.834 76.3915C130.595 76.0108 131.356 75.5032 132.116 75.1225L132.497 75.757C131.736 76.1377 130.975 76.6453 130.214 77.026ZM162.546 76.5184C161.785 76.1377 161.025 75.757 160.264 75.3763L160.518 74.7419C161.278 75.1226 162.039 75.5032 162.8 75.8839L162.546 76.5184ZM135.92 74.3612L135.666 73.5998C136.427 73.346 137.315 73.0922 138.076 72.8384L138.329 73.5998C137.442 73.8536 136.681 74.1074 135.92 74.3612ZM156.841 74.1074C156.08 73.8536 155.192 73.5998 154.432 73.4729L154.558 72.7115C155.446 72.9653 156.207 73.0922 156.967 73.346L156.841 74.1074ZM142.006 72.8384L141.879 72.077C142.767 71.9501 143.528 71.8232 144.415 71.8232V72.5846C143.654 72.7115 142.767 72.7115 142.006 72.8384ZM150.755 72.7115C149.867 72.5846 149.106 72.5846 148.219 72.4577V71.6964C149.106 71.6964 149.994 71.8232 150.755 71.9501V72.7115Z" fill="#766D98"/>
<path d="M116.268 128.165L152.657 113.699L150.374 106.973L176.747 98.8521L174.718 93.0149L191.708 101.644L179.663 113.191L177.888 107.735L161.278 112.684L163.18 119.282L116.268 128.165Z" fill="url(#paint34_linear)"/>
<path d="M156.08 82.6094V102.659L167.872 98.979V82.6094H156.08Z" fill="url(#paint35_linear)"/>
<path d="M139.851 115.983L149.487 112.176L147.205 105.324L151.516 104.055V69.5391H139.851V115.983Z" fill="url(#paint36_linear)"/>
<path d="M123.495 122.582L135.286 117.887V80.0715H123.495V122.582Z" fill="url(#paint37_linear)"/>
<path d="M108.153 287.928C133.992 287.928 154.939 266.963 154.939 241.103C154.939 215.242 133.992 194.278 108.153 194.278C82.3137 194.278 61.3669 215.242 61.3669 241.103C61.3669 266.963 82.3137 287.928 108.153 287.928Z" fill="#E7E3FD"/>
<path d="M126.031 211.282C126.031 211.282 134.399 225.368 133.638 242.499C132.877 259.63 133.384 273.208 133.384 273.208L89.7683 273.334C89.7683 273.334 92.0506 254.046 91.0362 241.737C89.8951 229.428 92.9381 219.657 95.3471 216.866C97.5026 214.074 118.803 207.095 126.031 211.282Z" fill="#241F2D"/>
<path d="M90.2755 233.616C90.2755 233.616 86.0913 232.728 85.8378 234.504C85.711 236.408 87.1057 241.23 90.0219 242.118C93.0649 243.133 90.2755 233.616 90.2755 233.616Z" fill="url(#paint38_linear)"/>
<path d="M123.875 233.616C123.875 233.616 128.059 232.728 128.313 234.504C128.44 236.408 127.045 241.23 124.129 242.118C121.086 243.133 123.875 233.616 123.875 233.616Z" fill="url(#paint39_linear)"/>
<path d="M139.344 284.755C139.344 284.755 99.658 295.414 86.3449 293.638C73.0318 291.861 70.6228 283.994 70.6228 283.994C70.6228 283.994 76.7088 270.797 78.8642 269.274C79.7518 268.639 83.5555 267.624 87.7396 266.863C88.7539 266.609 89.8951 266.482 90.9094 266.228C91.4165 266.101 91.7969 266.101 92.3041 265.974C96.3614 265.213 99.7848 264.579 99.7848 264.579L115.76 264.959C115.76 264.959 119.691 265.721 124.129 266.609C125.27 266.863 126.538 267.117 127.679 267.37C128.44 267.497 129.327 267.751 129.961 267.878C132.624 268.512 134.779 269.147 135.54 269.654C137.949 271.177 139.344 284.755 139.344 284.755Z" fill="url(#paint40_linear)"/>
<path d="M127.552 267.243C127.172 268.005 124.129 274.984 120.832 278.918C117.409 283.232 99.7846 280.06 95.4737 277.776C92.4308 276.126 91.1628 269.528 90.7825 266.101C91.2896 265.974 91.67 265.974 92.1772 265.848C96.2345 265.086 99.6579 264.452 99.6579 264.452L115.634 264.832C115.634 264.832 119.564 265.594 124.002 266.482C125.143 266.736 126.411 266.99 127.552 267.243Z" fill="#FFD7CB"/>
<path d="M127.172 272.446C127.172 272.446 127.679 278.664 124.002 279.806C124.002 279.806 120.832 284.628 115.887 282.471C115.887 282.471 110.435 287.166 105.744 283.232C105.744 283.232 97.8829 286.405 96.615 280.568C96.615 280.568 89.2611 280.441 91.6702 273.969C91.6702 273.969 86.0914 271.558 87.7396 266.863C89.2611 266.482 90.7826 266.228 92.1773 265.974C92.8113 269.908 95.3471 279.425 105.237 278.918C116.902 278.283 122.227 274.603 124.002 266.609C126.031 266.99 128.059 267.497 129.834 267.878C129.581 269.401 128.82 271.431 127.172 272.446Z" fill="#EFE5FC"/>
<path d="M99.7847 253.158C99.7847 253.158 101.053 261.152 99.658 264.579C99.658 264.579 99.9115 269.147 105.744 268.385C111.576 267.624 115.634 264.959 115.634 264.959C115.634 264.959 113.859 260.518 116.268 251.001L99.7847 253.158Z" fill="url(#paint41_linear)"/>
<path d="M115.38 251.128H114.746L100.545 253.031L100.038 253.539C100.165 254.3 100.292 255.696 100.419 257.472C102.828 259.249 106.631 261.66 109.674 260.899C112.083 260.391 113.985 258.361 115.253 256.711C115.38 255.315 115.634 253.919 116.014 252.143L115.38 251.128Z" fill="url(#paint42_linear)"/>
<path d="M89.3879 226.89C89.3879 227.398 90.9094 243.133 92.8113 247.701C95.4739 253.919 101.813 257.346 105.871 257.726C111.957 258.234 118.296 252.27 120.579 248.59C122.861 245.037 124.636 235.266 124.255 228.032C123.875 220.799 121.466 213.82 117.282 212.17C112.971 210.521 100.546 211.663 100.546 211.663C100.546 211.663 89.8951 216.739 89.3879 226.89Z" fill="url(#paint43_linear)"/>
<path d="M114.492 212.678C114.492 212.678 114.746 212.17 114.873 211.536C109.548 210.775 100.672 211.663 100.672 211.663C100.672 211.663 100.545 211.663 100.419 211.79C98.8971 212.932 97.5024 214.201 96.1077 215.597C95.0934 216.612 93.4451 218.135 91.5432 219.784C90.2753 221.815 89.3878 224.099 89.261 226.89C89.261 227.144 89.261 230.697 89.6414 234.885C89.8949 234.885 90.1485 234.758 90.4021 234.758C113.985 230.697 114.492 213.186 114.492 212.678Z" fill="url(#paint44_linear)"/>
<path d="M89.6414 230.951C89.6414 230.951 86.852 224.987 88.2467 217.627C89.6414 210.267 97.1221 205.318 103.588 204.303C109.928 203.415 114.873 207.602 114.873 207.602C114.873 207.602 115.126 214.455 111.069 220.799C107.012 227.017 94.3327 230.444 89.6414 230.951Z" fill="#241F2D"/>
<path d="M89.5147 227.017C89.6415 227.906 87.8664 248.082 93.9524 254.3C93.9524 254.3 90.7826 236.281 92.0505 228.54L89.5147 227.017Z" fill="#241F2D"/>
<path d="M114.873 207.602C114.873 207.602 116.648 206.079 122.1 208.11C127.552 210.14 130.342 219.404 129.708 224.86C129.074 230.317 123.875 234.25 123.875 234.25C123.875 234.25 124.002 223.718 120.452 219.911C116.902 215.977 111.196 213.693 111.196 213.693L114.873 207.602Z" fill="#241F2D"/>
<path d="M123.621 229.936C123.621 229.936 123.241 247.955 120.832 254.681C120.832 254.681 127.298 245.037 126.411 229.936H123.621Z" fill="#241F2D"/>
<path d="M95.4739 225.114C95.4739 225.114 104.222 224.353 109.167 215.724C109.167 215.724 106.631 224.733 95.4739 225.114Z" fill="#76747D"/>
<path d="M322.81 55.5806C322.81 69.5392 316.724 81.975 307.088 90.6039C298.847 97.9639 287.943 102.405 276.024 102.405C275.39 102.405 274.756 102.405 274.249 102.405C273.108 102.405 272.094 102.278 270.953 102.151C260.556 101.009 251.173 96.4412 243.946 89.7157C234.944 81.2136 229.238 69.0316 229.238 55.5806C229.238 29.6937 250.159 8.75586 276.024 8.75586C301.89 8.75586 322.81 29.6937 322.81 55.5806Z" fill="#E7E3FD"/>
<path d="M259.795 61.5447C259.795 61.5447 256.879 61.4178 255.484 59.7681C254.216 58.1185 251.934 50.124 253.329 48.4744C253.836 47.9668 254.343 47.8399 254.977 47.9668C255.991 48.2206 257.132 48.982 257.513 49.3627C257.766 49.4895 257.766 49.6164 257.766 49.6164L259.795 61.5447Z" fill="url(#paint45_linear)"/>
<path d="M257.386 52.7889C257.386 52.7889 256.118 42.0027 258.147 38.7034C260.302 35.4041 265.374 32.4855 270.192 31.9779C275.137 31.4703 288.577 36.5461 290.352 38.3227C292.127 40.0992 289.084 51.7737 289.337 56.7226C289.718 61.6716 282.491 74.7419 278.18 75.884C273.869 77.026 262.331 76.8991 259.795 69.5392C257.513 62.0523 257.386 52.7889 257.386 52.7889Z" fill="url(#paint46_linear)"/>
<path d="M264.867 33.2468C264.993 33.8813 270.699 37.3075 276.531 38.1958C282.237 38.9572 289.084 43.1448 290.478 46.6978L292 49.4896L294.409 50.5047C294.409 50.5047 296.945 38.1958 294.409 32.7393C291.746 27.2827 287.562 27.1558 282.491 24.491C277.419 21.8262 273.108 18.2731 269.177 21.0648C265.247 23.9834 264.359 29.9475 264.867 33.2468Z" fill="#241F2D"/>
<path d="M267.656 31.0896L266.388 33.12C266.388 33.12 260.682 41.1144 259.161 43.1448C258.02 44.6675 257.766 47.8399 257.766 49.4896C257.259 49.1089 256.245 48.3475 255.23 48.0937C254.977 44.033 254.723 37.4344 255.991 34.6427C257.893 30.582 259.415 29.0593 261.697 29.44C263.852 29.6938 267.656 31.0896 267.656 31.0896Z" fill="#241F2D"/>
<path d="M290.859 49.6165C290.859 49.6165 294.029 46.8247 295.423 48.4744C296.945 50.124 294.663 58.1185 293.268 59.7682C292 61.4178 288.957 61.5447 288.957 61.5447L290.859 49.6165Z" fill="url(#paint47_linear)"/>
<path d="M307.088 90.604C298.847 97.9639 287.943 102.405 276.024 102.405C275.39 102.405 274.756 102.405 274.249 102.405C273.108 102.405 272.094 102.278 270.953 102.152C260.556 101.009 251.173 96.4412 243.946 89.7157L248.384 87.9391H298.339L307.088 90.604Z" fill="url(#paint48_linear)"/>
<path d="M285.28 88.066L284.139 83.8785L284.773 75.2495L291.746 77.7874L291.239 84.5129L285.28 88.066Z" fill="url(#paint49_linear)"/>
<path d="M261.316 88.066L262.458 83.8785L264.106 75.1226L254.85 77.7874L255.357 84.5129L261.316 88.066Z" fill="url(#paint50_linear)"/>
<path d="M289.971 86.0357L287.943 87.9391L285.914 89.8425L278.18 95.5529L274.122 102.405C272.981 102.405 271.967 102.278 270.826 102.151L268.163 95.5529L258.02 87.9391L255.484 86.0357L262.458 83.7515L284.773 84.7667L289.971 86.0357Z" fill="#FFD7CB"/>
<path d="M263.725 73.5998C263.725 72.5847 284.392 74.3612 284.392 74.3612L284.9 85.2743L262.458 83.7515C262.458 83.7515 263.725 74.615 263.725 73.5998Z" fill="url(#paint51_linear)"/>
<path d="M284.646 80.8329C282.744 82.2288 280.208 83.7515 277.926 84.7667C277.165 85.1474 276.278 85.4012 275.644 85.655C272.347 86.6701 267.783 84.8936 265.627 83.8784C264.74 83.4977 264.233 83.2439 264.233 83.2439L262.838 81.4674C263.218 78.6757 263.725 74.3612 263.725 73.7267C263.725 72.7115 284.392 74.4881 284.392 74.4881L284.646 80.8329Z" fill="url(#paint52_linear)"/>
<path d="M258.147 45.8096C258.147 45.8096 258.907 56.2151 259.541 57.8647C260.175 59.5144 259.541 63.575 259.541 63.575L263.345 67.3819C263.345 67.3819 266.642 61.2909 268.924 61.4178C271.206 61.5447 277.165 61.6716 278.433 62.3061C279.701 62.9406 281.73 66.6206 281.73 66.6206C281.73 66.6206 286.168 62.6868 287.309 59.3875C288.45 56.0882 290.605 46.8247 290.605 46.8247L292.507 46.9516C292.507 46.9516 291.366 54.9461 291.493 57.484C291.62 59.8951 289.591 68.3971 289.337 71.0619C289.211 73.7267 284.392 79.0564 281.857 80.0716C279.194 81.0867 277.419 82.7364 274.63 82.8633C271.84 82.9902 266.895 80.4522 264.359 78.9295C261.697 77.4067 257.132 72.204 256.625 69.5392C256.118 66.8743 257.386 63.1944 257.259 60.0219C257.132 56.8495 256.625 48.4744 256.625 48.4744L258.147 45.8096Z" fill="#241F2D"/>
<path d="M290.605 63.0674L286.421 72.8385L282.744 73.8536L277.799 77.4067L272.347 76.6453L272.854 79.6908C272.854 79.6908 265.247 77.6605 261.57 76.6453C262.458 77.5336 263.345 78.295 264.106 78.6757C266.769 80.1984 271.587 82.7364 274.376 82.6095C277.165 82.4826 278.94 80.8329 281.603 79.8177C284.266 78.8026 288.957 73.4729 289.084 70.8081C289.337 69.4123 290.098 66.113 290.605 63.0674Z" fill="#241F2D"/>
<path d="M294.789 62.8137C294.663 63.0675 294.409 63.1944 294.155 63.1944H294.029C293.902 63.1944 293.648 63.1944 293.521 62.9406C292.507 62.0523 292.38 57.9916 292.38 57.1033C292.38 56.9764 292.507 56.7227 292.761 56.7227C292.888 56.7227 292.888 56.7227 293.014 56.7227C293.141 56.7227 293.141 56.8496 293.141 56.9764C293.141 57.3571 293.141 57.8647 293.268 58.3723C293.395 60.022 293.648 61.9254 294.155 62.3061C294.282 62.3061 294.282 62.3061 294.282 62.3061C294.409 62.3061 294.409 62.3061 294.536 62.1792C294.916 61.6716 294.536 59.8951 294.155 58.4992C294.282 58.2454 294.409 57.8647 294.536 57.484L294.663 57.7378C294.789 59.8951 295.423 62.0523 294.789 62.8137Z" fill="#E7E3FD"/>
<path d="M267.529 27.7903C267.529 27.7903 268.544 23.6028 270.699 22.5876C272.728 21.6993 277.039 23.4759 277.039 23.4759C277.039 23.4759 271.333 22.8414 270.065 24.1103C268.797 25.3793 267.529 27.7903 267.529 27.7903Z" fill="#76747D"/>
<path d="M278.18 95.426L287.562 94.0301L298.213 87.8122C298.213 87.8122 293.014 78.4219 291.62 77.6605C291.62 77.6605 286.801 85.5281 285.28 87.9391C283.759 90.477 278.18 95.426 278.18 95.426Z" fill="url(#paint53_linear)"/>
<path d="M268.29 95.426L258.907 94.0301L248.257 87.8122C248.257 87.8122 253.455 78.4219 254.85 77.6605C254.85 77.6605 259.668 85.5281 261.19 87.9391C262.838 90.477 268.29 95.426 268.29 95.426Z" fill="url(#paint54_linear)"/>
<path d="M424.624 134.383H369.596C367.187 134.383 365.285 132.48 365.285 130.069V96.9487C365.285 94.5377 367.187 92.6342 369.596 92.6342H424.624C427.033 92.6342 428.935 94.5377 428.935 96.9487V130.069C428.935 132.48 427.033 134.383 424.624 134.383Z" fill="url(#paint55_linear)"/>
<path d="M397.871 117.887L427.793 93.9032C427.033 93.1418 425.892 92.6342 424.751 92.6342H369.723C368.328 92.6342 367.061 93.2687 366.3 94.4108L397.871 117.887Z" fill="url(#paint56_linear)"/>
<path d="M432.865 100.375H421.581C419.932 100.375 418.538 98.979 418.538 97.3294V87.8122C418.538 86.1625 419.932 84.7667 421.581 84.7667H432.865C434.513 84.7667 435.908 86.1625 435.908 87.8122V97.3294C435.781 99.1059 434.513 100.375 432.865 100.375Z" fill="url(#paint57_linear)"/>
<path d="M426.779 95.426H422.849V94.5377L424.243 93.1418C424.624 92.7612 424.877 92.3805 425.004 92.2536C425.131 92.1267 425.258 91.8729 425.258 91.746C425.258 91.6191 425.384 91.4922 425.384 91.3653C425.384 91.1115 425.384 90.9846 425.258 90.8577C425.131 90.7308 425.004 90.7308 424.75 90.7308C424.497 90.7308 424.37 90.7308 424.117 90.8577C423.863 90.9846 423.736 91.1115 423.483 91.2384L422.849 90.477C423.102 90.2232 423.356 90.0963 423.483 89.9694C423.609 89.8425 423.863 89.8425 424.117 89.7156C424.37 89.7156 424.624 89.5887 424.877 89.5887C425.258 89.5887 425.511 89.7156 425.765 89.8425C426.018 89.9694 426.272 90.0963 426.399 90.3501C426.526 90.6039 426.652 90.8577 426.652 91.1115C426.652 91.3653 426.652 91.6191 426.526 91.8729C426.399 92.1267 426.272 92.3805 426.145 92.6343C425.892 92.888 425.638 93.2687 425.131 93.6494L424.37 94.2839H426.779V95.426Z" fill="white"/>
<path d="M429.315 91.746C429.822 91.746 430.329 91.8729 430.583 92.2536C430.963 92.5074 431.09 93.0149 431.09 93.5225C431.09 94.157 430.837 94.6646 430.456 94.9184C430.076 95.2991 429.569 95.426 428.808 95.426C428.174 95.426 427.667 95.2991 427.286 95.1722V94.157C427.54 94.2839 427.667 94.4108 428.047 94.4108C428.301 94.5377 428.554 94.5377 428.808 94.5377C429.569 94.5377 429.949 94.2839 429.949 93.6494C429.949 93.1418 429.569 92.7612 428.808 92.7612C428.681 92.7612 428.554 92.7612 428.301 92.7612C428.174 92.7612 428.047 92.7611 427.92 92.888L427.413 92.6343L427.667 89.7156H430.71V90.7308H428.681L428.554 91.8729H428.681C428.935 91.746 429.188 91.746 429.315 91.746Z" fill="white"/>
<defs>
<linearGradient id="paint0_linear" x1="297.376" y1="427.059" x2="314.418" y2="320.962" gradientUnits="userSpaceOnUse">
<stop stop-color="#CFCFCF" stop-opacity="0"/>
<stop offset="1" stop-color="white"/>
</linearGradient>
<linearGradient id="paint1_linear" x1="273.77" y1="492.035" x2="306.539" y2="391.189" gradientUnits="userSpaceOnUse">
<stop stop-color="#CFCFCF" stop-opacity="0"/>
<stop offset="1" stop-color="white"/>
</linearGradient>
<linearGradient id="paint2_linear" x1="100.534" y1="452.628" x2="86.7703" y2="405.151" gradientUnits="userSpaceOnUse">
<stop stop-color="#6295CA" stop-opacity="0"/>
<stop offset="1" stop-color="#336496"/>
</linearGradient>
<linearGradient id="paint3_linear" x1="493.989" y1="473.283" x2="480.384" y2="426.352" gradientUnits="userSpaceOnUse">
<stop stop-color="#6295CA" stop-opacity="0"/>
<stop offset="1" stop-color="#336496"/>
</linearGradient>
<linearGradient id="paint4_linear" x1="154.933" y1="379.523" x2="194.96" y2="346.89" gradientUnits="userSpaceOnUse">
<stop stop-color="#FF7870"/>
<stop offset="1" stop-color="#F54838"/>
</linearGradient>
<linearGradient id="paint5_linear" x1="69.4868" y1="352.243" x2="22.5672" y2="293.09" gradientUnits="userSpaceOnUse">
<stop stop-color="#FF7870"/>
<stop offset="1" stop-color="#F54838"/>
</linearGradient>
<linearGradient id="paint6_linear" x1="118.486" y1="341.442" x2="140.114" y2="268.999" gradientUnits="userSpaceOnUse">
<stop stop-color="#FF7870"/>
<stop offset="1" stop-color="#F54838"/>
</linearGradient>
<linearGradient id="paint7_linear" x1="502.689" y1="416.383" x2="510.642" y2="250.896" gradientUnits="userSpaceOnUse">
<stop stop-color="#FF7870"/>
<stop offset="1" stop-color="#F54838"/>
</linearGradient>
<linearGradient id="paint8_linear" x1="522.681" y1="435.939" x2="551.7" y2="322.297" gradientUnits="userSpaceOnUse">
<stop stop-color="#FF7870"/>
<stop offset="1" stop-color="#F54838"/>
</linearGradient>
<linearGradient id="paint9_linear" x1="505.684" y1="434.395" x2="468.573" y2="347.399" gradientUnits="userSpaceOnUse">
<stop stop-color="#FF7870"/>
<stop offset="1" stop-color="#F54838"/>
</linearGradient>
<linearGradient id="paint10_linear" x1="415.874" y1="465.686" x2="420.954" y2="415.584" gradientUnits="userSpaceOnUse">
<stop stop-color="#CFCFCF"/>
<stop offset="1" stop-color="#8F8F8F"/>
</linearGradient>
<linearGradient id="paint11_linear" x1="424.886" y1="380.394" x2="413.418" y2="406.913" gradientUnits="userSpaceOnUse">
<stop stop-color="#3B46E3"/>
<stop offset="1" stop-color="#7086FF"/>
</linearGradient>
<linearGradient id="paint12_linear" x1="257.999" y1="505.059" x2="302.831" y2="505.059" gradientUnits="userSpaceOnUse">
<stop stop-color="#1C103F"/>
<stop offset="1" stop-color="#2C1D58"/>
</linearGradient>
<linearGradient id="paint13_linear" x1="309.108" y1="452.346" x2="402.776" y2="357.222" gradientUnits="userSpaceOnUse">
<stop stop-color="#A39FB2"/>
<stop offset="1" stop-color="#B9B6C5"/>
</linearGradient>
<linearGradient id="paint14_linear" x1="334.378" y1="315.173" x2="373.919" y2="278.12" gradientUnits="userSpaceOnUse">
<stop stop-color="#F5F3FE"/>
<stop offset="1" stop-color="#D4D2FA"/>
</linearGradient>
<linearGradient id="paint15_linear" x1="400.837" y1="252.316" x2="425.743" y2="350.221" gradientUnits="userSpaceOnUse">
<stop stop-color="#F5F3FE"/>
<stop offset="1" stop-color="#D4D2FA"/>
</linearGradient>
<linearGradient id="paint16_linear" x1="396.739" y1="255.471" x2="393.081" y2="236.461" gradientUnits="userSpaceOnUse">
<stop stop-color="#FFD6CA"/>
<stop offset="1" stop-color="#F9BDB5"/>
</linearGradient>
<linearGradient id="paint17_linear" x1="384.586" y1="252.842" x2="394.776" y2="231.907" gradientUnits="userSpaceOnUse">
<stop stop-color="#FFD6CA" stop-opacity="0"/>
<stop offset="1" stop-color="#F9BDB5"/>
</linearGradient>
<linearGradient id="paint18_linear" x1="404.041" y1="213.338" x2="405.147" y2="219.478" gradientUnits="userSpaceOnUse">
<stop stop-color="#FFD6CA"/>
<stop offset="1" stop-color="#F9BDB5"/>
</linearGradient>
<linearGradient id="paint19_linear" x1="386.61" y1="200.189" x2="384.889" y2="256.31" gradientUnits="userSpaceOnUse">
<stop stop-color="#FFD6CA"/>
<stop offset="1" stop-color="#F9BDB5"/>
</linearGradient>
<linearGradient id="paint20_linear" x1="389.022" y1="194.616" x2="371.59" y2="206.024" gradientUnits="userSpaceOnUse">
<stop stop-color="#FFD6CA"/>
<stop offset="1" stop-color="#F9BDB5"/>
</linearGradient>
<linearGradient id="paint21_linear" x1="397.772" y1="205.185" x2="396.297" y2="228.64" gradientUnits="userSpaceOnUse">
<stop stop-color="#FFD6CA"/>
<stop offset="1" stop-color="#F9BDB5"/>
</linearGradient>
<linearGradient id="paint22_linear" x1="329.543" y1="316.479" x2="353.838" y2="315.498" gradientUnits="userSpaceOnUse">
<stop stop-color="#FFD6CA"/>
<stop offset="1" stop-color="#F9BDB5"/>
</linearGradient>
<linearGradient id="paint23_linear" x1="338.93" y1="321.172" x2="333.034" y2="313.931" gradientUnits="userSpaceOnUse">
<stop stop-color="#FFD6CA"/>
<stop offset="1" stop-color="#F9BDB5"/>
</linearGradient>
<linearGradient id="paint24_linear" x1="376.302" y1="318.206" x2="448.755" y2="246.549" gradientUnits="userSpaceOnUse">
<stop stop-color="#F5F3FE"/>
<stop offset="1" stop-color="#D4D2FA"/>
</linearGradient>
<linearGradient id="paint25_linear" x1="360.996" y1="517.47" x2="409.605" y2="517.47" gradientUnits="userSpaceOnUse">
<stop stop-color="#1C103F"/>
<stop offset="1" stop-color="#2C1D58"/>
</linearGradient>
<linearGradient id="paint26_linear" x1="418.336" y1="391.1" x2="464.996" y2="338.01" gradientUnits="userSpaceOnUse">
<stop stop-color="#9591A6"/>
<stop offset="1" stop-color="#9894A9"/>
</linearGradient>
<linearGradient id="paint27_linear" x1="355.584" y1="422.138" x2="357.456" y2="395.011" gradientUnits="userSpaceOnUse">
<stop stop-color="#A39FB2"/>
<stop offset="1" stop-color="#89829B"/>
</linearGradient>
<linearGradient id="paint28_linear" x1="287.992" y1="318.191" x2="256.298" y2="268.111" gradientUnits="userSpaceOnUse">
<stop stop-color="#CFCFCF"/>
<stop offset="1" stop-color="#E8E8E8"/>
</linearGradient>
<linearGradient id="paint29_linear" x1="257.826" y1="278.066" x2="279.687" y2="303.1" gradientUnits="userSpaceOnUse">
<stop stop-color="#CFCFCF" stop-opacity="0"/>
<stop offset="1" stop-color="white"/>
</linearGradient>
<linearGradient id="paint30_linear" x1="167.178" y1="315.558" x2="304.619" y2="353.814" gradientUnits="userSpaceOnUse">
<stop stop-color="#E9E6FA"/>
<stop offset="1" stop-color="#D5D0F2"/>
</linearGradient>
<linearGradient id="paint31_linear" x1="203.68" y1="308.359" x2="211.982" y2="308.359" gradientUnits="userSpaceOnUse">
<stop stop-color="#E6E6E6"/>
<stop offset="1" stop-color="white"/>
</linearGradient>
<linearGradient id="paint32_linear" x1="196.17" y1="270.496" x2="194.941" y2="289.163" gradientUnits="userSpaceOnUse">
<stop stop-color="#E6E6E6"/>
<stop offset="1" stop-color="white" stop-opacity="0"/>
</linearGradient>
<linearGradient id="paint33_linear" x1="189.601" y1="260.704" x2="189.109" y2="283.299" gradientUnits="userSpaceOnUse">
<stop stop-color="#E6E6E6"/>
<stop offset="1" stop-color="white" stop-opacity="0"/>
</linearGradient>
<linearGradient id="paint34_linear" x1="177.753" y1="102.777" x2="115.89" y2="135.482" gradientUnits="userSpaceOnUse">
<stop stop-color="#FF7870"/>
<stop offset="1" stop-color="#F54838"/>
</linearGradient>
<linearGradient id="paint35_linear" x1="161.985" y1="79.9936" x2="161.985" y2="99.9695" gradientUnits="userSpaceOnUse">
<stop stop-color="#3B46E3"/>
<stop offset="1" stop-color="#7086FF"/>
</linearGradient>
<linearGradient id="paint36_linear" x1="145.687" y1="65.2573" x2="145.687" y2="111.436" gradientUnits="userSpaceOnUse">
<stop stop-color="#3B46E3"/>
<stop offset="1" stop-color="#7086FF"/>
</linearGradient>
<linearGradient id="paint37_linear" x1="129.39" y1="79.3387" x2="129.39" y2="118.657" gradientUnits="userSpaceOnUse">
<stop stop-color="#3B46E3"/>
<stop offset="1" stop-color="#7086FF"/>
</linearGradient>
<linearGradient id="paint38_linear" x1="85.8866" y1="237.805" x2="91.4833" y2="237.805" gradientUnits="userSpaceOnUse">
<stop stop-color="#FFD6CA"/>
<stop offset="1" stop-color="#F9BDB5"/>
</linearGradient>
<linearGradient id="paint39_linear" x1="122.638" y1="237.805" x2="128.235" y2="237.805" gradientUnits="userSpaceOnUse">
<stop stop-color="#FFD6CA"/>
<stop offset="1" stop-color="#F9BDB5"/>
</linearGradient>
<linearGradient id="paint40_linear" x1="109.812" y1="263.174" x2="102.603" y2="294.772" gradientUnits="userSpaceOnUse">
<stop stop-color="#F5A938"/>
<stop offset="1" stop-color="#FFD285"/>
</linearGradient>
<linearGradient id="paint41_linear" x1="107.596" y1="262.717" x2="108.087" y2="250.601" gradientUnits="userSpaceOnUse">
<stop stop-color="#FFD6CA"/>
<stop offset="1" stop-color="#F9BDB5"/>
</linearGradient>
<linearGradient id="paint42_linear" x1="112.289" y1="259.393" x2="106.025" y2="252.398" gradientUnits="userSpaceOnUse">
<stop stop-color="#FFD6CA" stop-opacity="0"/>
<stop offset="1" stop-color="#F9BDB5"/>
</linearGradient>
<linearGradient id="paint43_linear" x1="107.133" y1="244.678" x2="106.644" y2="195.784" gradientUnits="userSpaceOnUse">
<stop stop-color="#FFD6CA"/>
<stop offset="1" stop-color="#F9BDB5"/>
</linearGradient>
<linearGradient id="paint44_linear" x1="105.713" y1="210.281" x2="95.8828" y2="235.983" gradientUnits="userSpaceOnUse">
<stop stop-color="#FFD6CA"/>
<stop offset="1" stop-color="#F9BDB5"/>
</linearGradient>
<linearGradient id="paint45_linear" x1="252.931" y1="54.7773" x2="259.785" y2="54.7773" gradientUnits="userSpaceOnUse">
<stop stop-color="#FFD6CA"/>
<stop offset="1" stop-color="#F9BDB5"/>
</linearGradient>
<linearGradient id="paint46_linear" x1="274.142" y1="62.3334" x2="273.896" y2="38.0183" gradientUnits="userSpaceOnUse">
<stop stop-color="#FFD6CA"/>
<stop offset="1" stop-color="#F9BDB5"/>
</linearGradient>
<linearGradient id="paint47_linear" x1="289.084" y1="54.7771" x2="295.941" y2="54.7771" gradientUnits="userSpaceOnUse">
<stop stop-color="#FFD6CA"/>
<stop offset="1" stop-color="#F9BDB5"/>
</linearGradient>
<linearGradient id="paint48_linear" x1="275.438" y1="102.422" x2="275.602" y2="82.4464" gradientUnits="userSpaceOnUse">
<stop stop-color="#FF7870"/>
<stop offset="1" stop-color="#F54838"/>
</linearGradient>
<linearGradient id="paint49_linear" x1="292.012" y1="65.2528" x2="287.916" y2="80.151" gradientUnits="userSpaceOnUse">
<stop stop-color="#F5F3FE"/>
<stop offset="1" stop-color="#D4D2FA"/>
</linearGradient>
<linearGradient id="paint50_linear" x1="258.431" y1="69.9154" x2="260.069" y2="82.1953" gradientUnits="userSpaceOnUse">
<stop stop-color="#F5F3FE"/>
<stop offset="1" stop-color="#D4D2FA"/>
</linearGradient>
<linearGradient id="paint51_linear" x1="273.628" y1="84.2571" x2="273.75" y2="77.7484" gradientUnits="userSpaceOnUse">
<stop stop-color="#FFD6CA"/>
<stop offset="1" stop-color="#F9BDB5"/>
</linearGradient>
<linearGradient id="paint52_linear" x1="273.455" y1="87.0799" x2="273.865" y2="75.9458" gradientUnits="userSpaceOnUse">
<stop stop-color="#FFD6CA" stop-opacity="0"/>
<stop offset="1" stop-color="#F9BDB5"/>
</linearGradient>
<linearGradient id="paint53_linear" x1="288.158" y1="96.4739" x2="288.649" y2="68.8024" gradientUnits="userSpaceOnUse">
<stop stop-color="#F5F3FE"/>
<stop offset="1" stop-color="#D4D2FA"/>
</linearGradient>
<linearGradient id="paint54_linear" x1="258.342" y1="91.58" x2="259.325" y2="71.2767" gradientUnits="userSpaceOnUse">
<stop stop-color="#F5F3FE"/>
<stop offset="1" stop-color="#D4D2FA"/>
</linearGradient>
<linearGradient id="paint55_linear" x1="398.304" y1="144.839" x2="396.829" y2="103.331" gradientUnits="userSpaceOnUse">
<stop stop-color="#F5F3FE"/>
<stop offset="1" stop-color="#D4D2FA"/>
</linearGradient>
<linearGradient id="paint56_linear" x1="397.188" y1="112.012" x2="396.942" y2="88.679" gradientUnits="userSpaceOnUse">
<stop stop-color="#F5F3FE"/>
<stop offset="1" stop-color="#D4D2FA"/>
</linearGradient>
<linearGradient id="paint57_linear" x1="427.177" y1="98.7823" x2="427.177" y2="85.9897" gradientUnits="userSpaceOnUse">
<stop stop-color="#F54838"/>
<stop offset="1" stop-color="#FF7870"/>
</linearGradient>
</defs>
</svg>
