<svg width="609" height="284" viewBox="0 0 609 284" fill="none" xmlns="http://www.w3.org/2000/svg">
<path d="M371.071 192.023C336.852 223.438 294.288 223.361 250.985 205.964C225.637 195.77 198.83 178.101 184.279 155.325C164.572 124.938 171.439 98.7844 186.652 66.087C206.825 22.6522 239.468 -3.09413 287.518 2.226C349.167 9.0412 388.093 53.7963 398.734 113.23C404.084 143.171 392.781 172.101 371.071 192.023Z" fill="#FCECDB"/>
<path d="M10.2467 282.445C10.2467 282.445 -27.4347 155.461 41.7225 116.997C110.88 78.533 152.569 139.909 176.905 171.946C201.222 203.983 306.271 267.398 369.981 207.75C437.096 144.918 470.381 127.074 518.275 125.56C566.15 124.045 546.405 175.363 586.674 195.226C626.962 215.07 607.411 278.717 570.06 283.3L10.2467 282.445Z" fill="#FCECDB"/>
<path d="M454.391 268.97C454.391 268.97 453.574 282.057 451.045 282.232C450.714 282.251 438.186 282.251 438.186 282.251L422.195 282.154C422.195 282.154 422.293 278.31 426.981 277.494C431.65 276.679 439.47 273.397 442.31 267.242C445.267 260.777 454.391 268.97 454.391 268.97Z" fill="#163560"/>
<path d="M462.911 114.298C462.911 114.298 455.363 118.589 453.262 118.589C451.141 118.589 442.854 116.997 440.539 118.162C438.224 119.347 434.042 124.084 433.263 125.638C431.843 128.414 438.944 127.191 442.29 124.822C442.776 124.473 443.379 124.356 443.963 124.473C445.694 124.841 449.313 125.502 451.044 124.861C453.378 123.987 465.732 123.036 465.732 123.036L462.911 114.298Z" fill="#ED975D"/>
<path d="M520.318 55.9711C520.318 55.9711 512.497 111.464 499.541 116.434C493.141 118.881 464.914 124.453 456.549 124.997C456.549 124.997 454.506 123.346 454.993 116.589C454.993 116.589 484.582 105.755 488.784 99.8525C495.048 91.0762 484.893 63.9901 492.752 55.7575C500.631 47.5055 513.84 43.9717 520.318 55.9711Z" fill="#ED7D2B"/>
<path d="M517.693 172.878C515.417 176.742 512.771 180.353 510.047 183.79C501.643 194.392 492.481 203.11 490.886 211.381C490.574 213.031 490.069 214.798 489.407 216.662C488.746 218.546 487.909 220.546 486.976 222.604C483.416 230.332 478.066 239.011 472.755 246.874C463.553 260.485 456.005 269.631 456.005 269.631C456.005 269.631 453.593 271.514 446.687 271.514C444.761 271.514 438.303 270.466 438.303 270.466C438.945 268.873 446.571 250.797 455.85 227.827C459.604 218.507 463.612 208.585 467.464 199.013C467.969 197.731 468.495 196.469 469 195.207C470.187 192.275 471.335 189.402 472.483 186.586C481.178 165.014 488.104 147.831 488.104 147.831C488.104 147.831 522.867 134.686 526.486 143.21C529.443 150.18 527.03 157.073 517.693 172.878Z" fill="#599DAD"/>
<path d="M491.158 231.594C491.158 231.594 502.207 238.681 501.138 240.972C501.001 241.282 494.893 252.194 494.893 252.194L487.014 266.077C487.014 266.077 483.707 264.116 485.264 259.65C486.839 255.185 487.773 246.777 483.766 241.302C479.544 235.554 491.158 231.594 491.158 231.594Z" fill="#163560"/>
<path d="M484.875 245.185C484.875 245.185 492.656 237.982 493.862 233.516C493.862 233.516 465.421 199.498 459.255 191.887C458.963 191.537 459.041 191.149 459.41 190.741C464.06 185.499 515.825 174.839 522.576 164.335C524.91 160.723 526.233 157.287 526.953 154.277C528.489 147.87 527.264 143.443 527.264 143.443L475.576 141.948C475.576 141.948 432.545 168.684 427.662 186.936C422.818 205.148 484.875 245.185 484.875 245.185Z" fill="#6BB7BF"/>
<path d="M459.428 190.722C464.077 185.479 515.843 174.82 522.593 164.315C524.928 160.704 526.251 157.267 526.97 154.258V147.734L505.007 144.277C505.007 144.277 498.782 163.403 480.321 170.587C463.027 177.324 459.758 189.246 459.428 190.722Z" fill="#5AA9AD"/>
<path d="M489.738 52.4763C500.204 55.1752 517.518 45.5057 517.518 45.5057C517.518 45.5057 510.787 40.9817 508.297 31.0793C508.161 30.5744 508.063 30.0696 507.947 29.5454C506.857 29.3124 504.795 28.8852 502.578 28.3998L494.582 35.5451C494.582 35.5451 494.757 38.5158 495.769 43.6029C495.944 44.4961 496.138 45.4475 496.372 46.4571C492.112 49.0978 489.738 52.4763 489.738 52.4763Z" fill="#FFB27D"/>
<path d="M528.605 95.7361C527.107 115.832 529.072 146.413 527.38 151.714C525.921 156.277 509.21 153.559 502.537 152.044C500.067 151.481 497.071 150.666 493.997 149.714C485.379 147.054 476.003 143.248 474.991 140.433C474.952 140.316 474.913 140.219 474.894 140.103C474.797 139.695 474.816 139.307 474.913 138.919C475.244 137.482 476.548 135.928 476.703 132.356C476.878 128.375 476.839 123.696 476.995 118.667C476.995 118.104 477.014 117.483 477.073 116.92V116.706C477.073 116.589 477.073 116.492 477.073 116.376C477.209 110.765 477.52 104.862 477.851 98.9981C478.065 95.3284 478.318 91.678 478.61 88.1831C479.368 79.1738 480.38 71.1742 481.722 66.1065C483.92 57.8544 488.745 52.476 493.141 48.5151L496.312 45.7967C499.853 46.5734 504.055 46.0492 507.848 44.2628C511.953 42.3212 513.373 40.9232 514.093 41.4474C523.547 48.7869 530.375 71.1548 528.605 95.7361Z" fill="#F99746"/>
<path d="M493.998 149.714C485.38 147.054 476.003 143.248 474.992 140.433C474.953 140.316 474.914 140.219 474.895 140.103C474.895 139.715 474.914 139.307 474.914 138.918C475.245 137.482 476.548 135.928 476.704 132.356C476.879 128.375 476.84 123.696 476.996 118.667C476.996 118.104 477.015 117.483 477.073 116.92V116.706C477.073 116.589 477.073 116.492 477.073 116.376L511.895 72.1062C511.895 72.1062 535.298 120.764 493.998 149.714Z" fill="#ED7D2B"/>
<path d="M494.6 35.5257C494.6 35.5257 494.775 38.4964 495.786 43.5835C503.587 41.0594 507.128 34.0306 508.295 31.0599C508.159 30.555 508.061 30.0502 507.945 29.5259C506.855 29.2929 504.793 28.8658 502.576 28.3804L494.6 35.5257Z" fill="#ED975D"/>
<path d="M493.55 40.0302C493.55 40.0302 510.552 37.1954 508.626 26.6522C506.7 16.109 507.595 8.63364 496.643 10.0122C485.71 11.3714 484.329 15.7789 484.115 19.4486C483.92 23.1184 489.095 40.4962 493.55 40.0302Z" fill="#FFB27D"/>
<path d="M468.378 127.23L425.93 128.123L413.849 91.0568L412.352 91.5422L425.113 130.725L468.436 129.812L468.378 127.23Z" fill="#4A75CB"/>
<path d="M467.563 131.87C467.563 131.87 453.634 135.54 448.421 135.152C443.207 134.763 438.85 132.298 438.208 130.997C437.546 129.696 436.165 127.405 439.725 127.832C443.285 128.259 448.129 129.016 448.285 128.337C448.44 127.657 445.386 127.715 445.386 127.715C445.386 127.715 444.472 126.376 445.619 126.337C446.787 126.298 450.172 125.366 451.417 126.007C452.681 126.628 453.829 128.958 454.743 128.861C455.657 128.764 466.396 124.046 466.396 124.046L467.563 131.87Z" fill="#FFB27D"/>
<path d="M516.877 58.2429C516.877 58.2429 515.223 114.26 502.909 120.628C496.82 123.774 469.371 132.395 461.123 133.87C461.123 133.87 458.905 132.453 458.652 125.696C458.652 125.696 486.86 111.658 490.4 105.347C495.653 95.9303 482.58 70.1452 489.467 61.0777C496.353 52.0102 509.115 47.0395 516.877 58.2429Z" fill="#F99746"/>
<path d="M508.317 31.0597C508.317 31.0597 508.512 27.4483 506.275 25.3707C506.275 25.3707 507.053 21.7398 505.613 21.1379C504.174 20.536 503.882 23.5844 503.221 23.1184C502.559 22.633 499.622 20.3612 498.377 17.0216C497.112 13.6819 485.615 17.7206 484.273 18.3225C482.931 18.9244 478.612 16.7109 477.775 14.9246C477.775 14.9246 480.168 13.0024 481.258 11.585C482.347 10.1676 489.875 0.459295 500.419 3.21644C510.963 5.97359 512.403 10.9831 511.8 15.2935C511.177 19.604 512.636 29.6229 508.317 31.0597Z" fill="#2B478B"/>
<path d="M186.381 239.982C186.381 239.982 179.592 232.06 185.953 227.031C185.953 227.031 190.622 224.215 194.415 224.448C194.415 224.448 189.026 233.458 190.777 234.351C192.528 235.244 196.049 223.885 196.049 223.885C196.049 223.885 206.651 222.856 210.056 224.487C210.056 224.487 200.99 231.885 202.897 232.332C204.803 232.778 214.588 225.497 214.588 225.497C214.588 225.497 224.451 227.167 223.926 233.186C223.401 239.186 219.996 241.05 218.498 240.894C217.001 240.739 208.266 237.399 208.071 238.622C207.877 239.846 213.149 243.846 216.825 244.02C216.825 244.02 209.861 251.67 205.251 249.476C200.621 247.263 200.232 243.768 197.353 242.448C194.473 241.127 192.003 241.127 193.209 242.486C194.396 243.826 199.609 245.127 201.263 248.04C202.916 250.952 204.395 252.913 199.609 252.195C194.824 251.476 187.042 247.981 186.711 243.981C186.381 239.982 186.381 239.982 186.381 239.982Z" fill="#82B378"/>
<path d="M219.101 233.361C219.101 233.361 192.294 232.332 186.381 239.982C186.381 239.982 185.077 243.904 181.05 247.457L180.428 249.166C180.428 249.166 185.077 244.273 186.731 243.981C186.731 243.981 184.124 234.506 219.101 233.361Z" fill="#82B378"/>
<path d="M181.05 247.457C181.05 247.457 175.291 251.709 174.902 259.301L175.953 259.398C175.953 259.398 177.781 251.554 181.108 248.486C184.415 245.399 181.05 247.457 181.05 247.457Z" fill="#82B378"/>
<path d="M162.607 230.021C162.607 230.021 173.423 223.982 168.365 215.769C168.365 215.769 164.319 210.74 160 209.439C160 209.439 162.315 221.672 160 221.963C157.685 222.254 158.405 208.139 158.405 208.139C158.405 208.139 147.005 202.663 142.55 203.11C142.55 203.11 149.612 215.051 147.317 214.76C145.002 214.468 137.084 202.391 137.084 202.391C137.084 202.391 125.412 200.236 123.525 207.148C121.657 214.061 124.673 217.517 126.404 217.944C128.135 218.371 139.243 218.235 138.952 219.672C138.66 221.109 131.17 223.419 126.988 222.118C126.988 222.118 131.598 233.497 137.648 232.914C143.698 232.332 145.585 228.604 149.32 228.312C153.075 228.021 155.818 229.031 153.931 230.04C152.063 231.05 145.721 230.37 142.687 232.933C139.652 235.496 137.201 237.089 142.823 238.234C148.445 239.38 158.541 238.661 160.564 234.351C162.607 230.021 162.607 230.021 162.607 230.021Z" fill="#A8D29F"/>
<path d="M128.875 209.304C128.875 209.304 159.164 219.09 162.607 230.021C162.607 230.021 162.471 234.914 165.486 240.525V242.681C165.486 242.681 162.316 235.341 160.584 234.331C160.584 234.331 167.373 224.837 128.875 209.304Z" fill="#82B378"/>
<path d="M165.486 240.525C165.486 240.525 170.155 247.612 167.49 256.214L166.284 255.884C166.284 255.884 167.451 246.389 165 241.613C162.588 236.856 165.486 240.525 165.486 240.525Z" fill="#82B378"/>
<path d="M179.824 221.691C179.824 221.691 165.565 213.73 172.218 202.915C172.218 202.915 177.548 196.275 183.248 194.566C183.248 194.566 180.213 210.682 183.248 211.07C186.283 211.459 185.33 192.858 185.33 192.858C185.33 192.858 200.348 185.654 206.242 186.217C206.242 186.217 196.924 201.964 199.978 201.576C203.013 201.187 213.479 185.266 213.479 185.266C213.479 185.266 228.866 182.412 231.337 191.518C233.808 200.624 229.82 205.168 227.544 205.75C225.268 206.313 210.619 206.139 211.008 208.022C211.397 209.925 221.28 212.954 226.785 211.245C226.785 211.245 220.696 226.235 212.72 225.477C204.744 224.72 202.274 219.788 197.332 219.4C192.391 219.012 188.773 220.351 191.243 221.672C193.714 222.992 202.079 222.099 206.067 225.497C210.055 228.875 213.284 230.972 205.872 232.487C198.461 234.001 185.155 233.05 182.489 227.361C179.824 221.691 179.824 221.691 179.824 221.691Z" fill="#A8D29F"/>
<path d="M224.294 194.372C224.294 194.372 184.375 207.265 179.823 221.692C179.823 221.692 180.017 228.138 176.029 235.535V238.39C176.029 238.39 180.212 228.72 182.488 227.381C182.468 227.381 173.539 214.857 224.294 194.372Z" fill="#82B378"/>
<path d="M176.011 235.535C176.011 235.535 169.864 244.855 173.365 256.214L174.941 255.787C174.941 255.787 173.404 243.283 176.634 236.992C179.863 230.701 176.011 235.535 176.011 235.535Z" fill="#82B378"/>
<path d="M179.338 280.853C194.764 280.853 207.253 268.369 207.253 252.991H151.402C151.402 268.369 163.911 280.853 179.338 280.853Z" fill="#F1A34F"/>
<path d="M186.205 280.64C185.077 280.776 183.909 280.853 182.742 280.853C167.315 280.853 154.826 268.369 154.826 252.991H161.771C161.752 267.204 172.412 278.931 186.205 280.64Z" fill="#FFB973"/>
<path d="M207.643 282.271H151.033C151.033 280.368 152.57 278.834 154.476 278.834H204.2C206.106 278.834 207.643 280.368 207.643 282.271Z" fill="#F1A34F"/>
<path d="M207.894 252.971H150.486V253.826H207.894V252.971Z" fill="#D86713"/>
<path d="M559.752 280.756C553.118 273.98 541.407 269.32 527.887 268.776V246.389H548.76C549.286 246.389 549.733 245.942 550.025 245.243C550.219 244.758 550.356 244.156 550.356 243.496V242.486C550.356 240.894 549.636 239.593 548.76 239.593H527.887V186.256C527.887 184.78 526.681 183.576 525.202 183.576C523.724 183.576 522.518 184.78 522.518 186.256V239.593H501.644C500.769 239.593 500.049 240.894 500.049 242.486V243.496C500.049 244.175 500.185 244.797 500.399 245.282C500.691 245.942 501.138 246.369 501.644 246.369H522.518V268.757C508.997 269.3 497.306 273.96 490.653 280.737C490.166 281.222 489.719 281.727 489.291 282.251H561.094C560.685 281.746 560.238 281.242 559.752 280.756Z" fill="#D39E7A"/>
<path d="M527.886 268.873C518.451 269.747 510.359 274.29 505.651 280.756C505.301 281.242 504.951 281.746 504.639 282.271H497.986C498.298 281.766 498.628 281.261 498.998 280.756C504.231 273.533 513.724 268.718 524.54 268.718C525.688 268.718 526.797 268.757 527.886 268.873Z" fill="#E0B594"/>
<path d="M559.83 165.636H488.727C486.957 165.636 485.498 167.092 485.498 168.859V182.315C485.498 184.081 486.957 185.538 488.727 185.538H559.83C561.6 185.538 563.059 184.081 563.059 182.315V168.859C563.059 167.092 561.6 165.636 559.83 165.636Z" fill="#ED7D2B"/>
<path d="M166.189 63.3104C165.002 66.5141 162.921 70.2227 160.762 71.1547C158.31 72.2031 157.279 73.6788 157.279 73.6788L155.295 72.5332L152.922 71.1547C152.922 71.1547 152.98 70.8828 153.097 70.4557C153.214 70.0285 153.389 69.4266 153.622 68.7858C153.622 68.7858 154.342 67.8538 153.895 66.6694C153.447 65.5044 153.544 63.6793 154.303 62.592C155.062 61.4852 155.801 58.7669 156.248 58.8446C157.357 59.0387 155.704 62.7667 156.171 63.4657C156.599 64.087 157.143 63.8735 157.241 63.8346C157.241 63.8346 157.26 63.8346 157.26 63.8152C160.372 62.4561 164.146 55.0972 165.819 56.0874C166.461 56.4563 166.695 61.9318 166.189 63.3104Z" fill="#FFB27D"/>
<path d="M155.43 67.7569L159.32 70.4946C159.593 70.6888 159.982 70.6111 160.176 70.3393L170.156 56.1652C170.351 55.8934 170.292 55.5051 170 55.3109L166.11 52.5732C165.837 52.379 165.448 52.4567 165.254 52.7285L155.274 66.9026C155.08 67.1938 155.157 67.5627 155.43 67.7569Z" fill="#2B478B"/>
<path d="M158.988 70.2615L161.264 71.8731C161.478 72.0284 161.77 71.9701 161.906 71.7566L172.061 57.3301C172.216 57.1165 172.158 56.8252 171.944 56.6893L169.668 55.0778C169.454 54.9224 169.162 54.9807 169.026 55.1942L158.871 69.6207C158.735 69.8343 158.793 70.1256 158.988 70.2615Z" fill="#233862"/>
<path d="M99.5018 47.4083C99.5018 47.4083 119.344 81.9309 126.523 88.2801L152.902 68.65C152.902 68.65 156.734 69.815 158.407 73.6595C158.407 73.6595 142.377 106.24 126.62 107.619C110.843 108.998 88.7051 68.5724 88.7051 68.5724L99.5018 47.4083Z" fill="#233862"/>
<path d="M54.6209 282.251H43.1628C41.7232 281.475 40.4393 279.688 40.0308 277.009C39.4666 273.32 35.3425 271.32 34.4282 268.291C33.5333 265.281 38.1243 261.029 38.1243 261.029L38.883 260.039L39.6806 259.01L47.2869 260.796C47.2869 260.796 47.4815 262.602 47.5982 264.912C47.676 266.582 47.7344 268.485 47.6371 270.174C47.4231 274.193 48.7654 278.523 52.3448 279.3C54.9905 279.902 54.8738 281.475 54.6209 282.251Z" fill="#233862"/>
<path d="M121.132 282.251H94.928C93.6635 280.717 94.1304 275.048 94.3249 273.203C94.3639 272.834 94.3833 272.621 94.3833 272.621C94.3833 272.621 103.332 265.476 104.557 270.951C104.596 271.126 104.635 271.281 104.694 271.456C106.25 276.582 113.195 278.892 117.202 279.552C119.809 279.96 120.782 281.319 121.132 282.251Z" fill="#233862"/>
<path d="M116.133 136.239C116.133 136.239 114.772 153.17 113.177 173.499C110.998 201.129 108.391 235.069 108.138 241.496C107.691 252.661 105.901 270.524 105.901 270.524C105.901 270.524 101.66 274.776 93.1589 272.97C93.1589 272.97 85.5915 247.476 83.4127 220.507C83.3738 220.06 83.3543 219.614 83.3154 219.167C81.3117 191.712 78.1797 133.87 78.1797 133.87L116.133 136.239Z" fill="#F99746"/>
<path d="M116.133 136.239C116.133 136.239 114.772 153.17 113.177 173.499L83.4127 220.507C83.3738 220.06 83.3543 219.614 83.3154 219.167C81.3117 191.712 78.1797 133.87 78.1797 133.87L116.133 136.239Z" fill="#ED7D2B"/>
<path d="M109.926 138.258C109.926 138.258 85.434 199.537 69.3265 228.351C53.219 257.146 48.1805 265.184 48.1805 265.184C48.1805 265.184 38.9595 261.495 38.123 258.99C38.123 258.99 44.2898 203.381 55.0671 189.829C61.156 182.178 68.3149 159.189 68.6651 151.151C68.9958 143.112 70.8439 127.21 70.8439 127.21L109.926 138.258Z" fill="#F99746"/>
<path d="M103.839 48.9035C94.2678 51.9131 77.7129 43.7776 77.7129 43.7776C77.7129 43.7776 86.5448 37.176 86.0779 23.4291L93.4702 29.3899L98.4892 33.4286C98.4892 33.4286 98.4698 35.8168 97.9251 39.9914C97.7889 41.0981 97.5944 42.3213 97.3804 43.6611C101.485 45.9134 103.839 48.9035 103.839 48.9035Z" fill="#FFB27D"/>
<path d="M98.4893 33.4284C98.4893 33.4284 98.4699 35.8166 97.9252 39.9912C92.3615 39.0398 86.0391 30.0499 86.0391 30.0499C88.8793 29.2344 91.3499 29.0791 93.4703 29.3898L98.4893 33.4284Z" fill="#ED975D"/>
<path d="M101.427 33.1955C101.427 33.1955 85.6115 35.8167 84.133 25.9726C82.6545 16.1284 79.6003 9.818 89.6384 7.74043C99.6764 5.64345 102.205 9.11901 103.489 12.2839C104.793 15.4488 105.493 32.2635 101.427 33.1955Z" fill="#FFB27D"/>
<path d="M117.204 137.657C116.912 137.89 116.582 138.045 116.193 138.045C112.594 137.987 102.108 139.987 93.257 139.074C85.7869 138.356 79.1532 136.142 72.0527 132.958C71.0995 132.531 68.9401 131.385 68.979 130.317C69.0179 129.172 69.1347 127.502 69.2708 125.385C69.7766 118.065 70.652 105.464 69.7961 90.9404C69.6405 88.2415 69.5626 85.5426 69.5432 82.9019C69.4654 63.2136 73.3755 45.894 81.2347 40.0302C81.9156 39.5448 86.0203 41.5641 89.8137 43.4281C93.3154 45.1562 96.817 45.3503 100.124 44.6708L103.431 47.5832C107.458 51.3112 111.874 56.3789 113.78 64.0873C115.415 70.6501 116.368 82.4553 116.893 94.7072C117.126 100.26 117.321 105.852 117.379 111.172V111.367C117.418 111.891 117.418 112.473 117.418 112.998C117.632 126.647 117.438 137.462 117.204 137.657Z" fill="#2B478B"/>
<path d="M69.2695 125.404C69.7753 118.084 70.6507 105.483 69.7948 90.9595C69.6391 88.2606 69.5613 85.5617 69.5419 82.9211C72.8101 74.9991 75.4946 69.2518 75.4946 69.2518H83.7429C83.7429 69.2518 89.7929 110.512 69.2695 125.404Z" fill="#233862"/>
<path d="M66.7404 145.306L31.549 140.297C26.9774 139.637 22.6782 142.86 22.0362 147.423L19.8574 162.645C19.196 167.208 22.4253 171.499 26.9969 172.14L62.1883 177.15C66.7793 177.81 71.0591 174.587 71.701 170.024L73.8798 154.801C74.5413 150.238 71.312 145.967 66.7404 145.306Z" fill="#233862"/>
<path d="M68.7256 149.85C67.7335 147.384 65.5936 145.423 62.8895 144.763C62.6172 144.705 62.3643 144.646 62.0725 144.608L55.0692 143.617L55.5361 140.336C55.6334 139.598 55.4583 138.88 55.0109 138.278C54.5634 137.676 53.902 137.307 53.1822 137.19L51.3536 136.938L44.0002 135.889L42.6773 135.695C41.16 135.482 39.7399 136.53 39.5259 138.064L39.059 141.346L26.9589 139.617C22.3679 138.957 18.0687 142.18 17.4072 146.782L15.209 162.179C14.5476 166.762 17.7768 171.053 22.3873 171.713L57.5204 176.703C58.1429 176.8 58.7459 176.8 59.349 176.761C60.3022 176.684 61.236 176.451 62.0919 176.062C64.6793 174.917 66.6441 172.528 67.072 169.538L69.2703 154.141C69.4648 152.627 69.2508 151.17 68.7256 149.85ZM41.2378 138.297C41.2961 137.831 41.6658 137.482 42.0937 137.423C42.191 137.404 42.3077 137.404 42.405 137.423L43.9613 137.637L49.7584 138.472L52.9099 138.918C53.474 138.996 53.8826 139.52 53.7853 140.083L53.3184 143.365L40.7514 141.579L41.2378 138.297Z" fill="#2B478B"/>
<path d="M51.8021 130.841C51.8021 130.647 51.8216 130.453 51.841 130.259C51.9189 129.268 53.7669 126.822 53.7669 126.822L49.137 124.414L47.3084 127.443C44.546 129.637 44.4876 129.676 44.9934 133.89C45.4409 137.54 43.0286 137.579 43.087 140.2C43.1453 142.802 46.5108 141.52 46.5108 141.52C51.7243 139.074 52.1718 137.851 51.9967 135.365C52.483 136.064 53.0472 136.472 53.514 136.161C53.9226 135.889 53.1055 134.822 52.7359 132.356C52.6775 132.006 52.2496 131.385 51.8021 130.841Z" fill="#FFB27D"/>
<path d="M49.0579 128.705C52.0343 129.288 55.2441 129.055 55.2441 129.055C55.2441 129.055 64.076 101.852 65.2043 99.367C66.3326 96.8817 91.4082 67.4657 91.4082 67.4657L80.9616 41.3699C80.9616 41.3699 53.8435 86.591 51.0811 92.9402C46.5484 103.425 44.9727 126.977 44.9727 126.977C44.9727 126.977 46.7235 128.259 49.0579 128.705Z" fill="#2B478B"/>
<path d="M84.1127 25.0211C84.1127 25.0211 85.7273 24.7492 85.4744 22.5163C85.2215 20.2834 85.2215 17.371 87.0307 17.9146C88.8399 18.4583 88.9371 19.9145 89.6764 19.0602C90.4156 18.2059 90.4351 14.6332 95.8431 14.4002C101.251 14.1478 103.449 16.0312 105.959 14.9245C108.468 13.8177 108.605 10.0315 108.605 10.0315C108.605 10.0315 107.885 11.3907 106.815 11.8178C106.815 11.8178 111.017 6.08995 106.153 2.16781C101.29 -1.75432 96.3489 0.808657 93.5282 0.983406C87.342 1.35232 83.3345 1.72123 81.3114 5.79871C79.3077 9.83734 80.1442 21.1183 84.1127 25.0211Z" fill="#2B478B"/>
<path d="M308.024 132.084C308.024 132.084 292.033 128.86 289.348 129.132C286.683 129.385 277.423 133.54 277.307 134.297C277.209 135.054 277.657 135.656 279.291 135.734C280.906 135.792 286.216 134.977 285.905 135.637C285.574 136.297 270.323 139.695 270.245 142.782C270.148 145.869 278.707 151.384 285.827 151.578C292.928 151.772 306.681 143.17 307.868 143.034C317.984 141.869 308.024 132.084 308.024 132.084Z" fill="#ED975D"/>
<path d="M395.408 96.5902C389.163 104.357 383.95 110.376 381.207 112.57C379.028 114.318 376.265 116.084 373.095 117.871C350.295 130.724 306.427 143.753 306.427 143.753C306.427 143.753 306.388 143.734 306.35 143.695C305.805 143.287 302.79 140.976 300.864 137.132C299.191 133.753 299.541 131.676 300.027 130.569C300.338 129.909 300.689 129.598 300.689 129.598C300.689 129.598 353.252 96.066 357.454 92.571C359.847 90.5905 368.465 70.5333 375.507 53.5244C376.499 54.9418 377.433 56.3981 378.366 57.8543C385.739 69.543 391.439 82.5909 395.408 96.5902Z" fill="#ED7D2B"/>
<path d="M395.76 155.966C395.43 156.898 395.079 157.83 394.71 158.762C392.998 163.111 390.955 167.305 388.562 171.325C387.142 173.713 385.625 176.043 383.991 178.295C380.334 183.363 376.112 188.081 371.443 192.372C371.463 192.023 371.502 191.673 371.521 191.324C371.56 190.78 371.599 190.236 371.638 189.712C371.716 188.528 371.813 187.363 371.891 186.236C371.93 185.79 371.949 185.363 371.988 184.916C372.183 182.101 372.377 179.421 372.552 176.917C372.611 176.198 372.649 175.499 372.708 174.8C372.727 174.587 372.727 174.392 372.747 174.179C372.786 173.771 372.805 173.363 372.825 172.975C372.844 172.606 372.883 172.257 372.902 171.907C372.902 171.868 372.902 171.829 372.902 171.791C372.922 171.422 372.961 171.072 372.98 170.723C373.019 170.121 373.058 169.558 373.097 168.975C373.116 168.626 373.155 168.276 373.175 167.927C373.214 167.383 373.253 166.878 373.291 166.354C373.311 166.237 373.311 166.102 373.311 165.985C373.33 165.752 373.35 165.5 373.369 165.267C373.369 165.15 373.389 165.034 373.389 164.917C373.389 164.898 373.389 164.878 373.389 164.878C373.428 164.432 373.447 163.985 373.486 163.558C373.486 163.539 373.486 163.519 373.486 163.48C373.505 163.17 373.525 162.859 373.544 162.568C373.544 162.471 373.564 162.374 373.564 162.276C373.583 162.102 373.583 161.927 373.603 161.772C373.622 161.636 373.622 161.5 373.622 161.364C373.681 160.432 373.758 159.578 373.797 158.801C373.797 158.684 373.817 158.587 373.817 158.471C373.817 158.354 373.836 158.257 373.836 158.141C373.856 157.947 373.856 157.733 373.875 157.558C373.972 156.199 374.05 155.209 374.089 154.626C374.089 154.568 374.089 154.51 374.109 154.452C374.109 154.432 374.109 154.413 374.109 154.393C374.109 154.335 374.109 154.296 374.109 154.257C374.128 154.102 374.128 154.005 374.128 154.005L395.76 155.966Z" fill="#6BB7BF"/>
<path d="M395.76 155.966C395.43 156.898 395.079 157.83 394.71 158.762C392.998 163.111 390.955 167.305 388.562 171.325C387.142 173.713 385.625 176.043 383.991 178.295C380.334 183.363 376.112 188.081 371.443 192.372C371.463 192.023 371.502 191.673 371.521 191.324C371.56 190.78 371.599 190.236 371.638 189.712C371.716 188.528 371.813 187.363 371.891 186.236C371.93 185.79 371.949 185.363 371.988 184.916C372.183 182.101 372.377 179.421 372.552 176.917C372.611 176.198 372.649 175.499 372.708 174.8C372.727 174.587 372.727 174.392 372.747 174.179C372.786 173.771 372.805 173.363 372.825 172.975C372.844 172.606 372.883 172.257 372.902 171.907C372.902 171.868 372.902 171.829 372.902 171.791C372.922 171.422 372.961 171.072 372.98 170.723C373.019 170.121 373.058 169.558 373.097 168.975C373.116 168.626 373.155 168.276 373.175 167.927C373.214 167.383 373.253 166.878 373.291 166.354C373.311 166.237 373.311 166.102 373.311 165.985C373.33 165.752 373.35 165.5 373.369 165.267C373.369 165.15 373.389 165.034 373.389 164.917C373.389 164.898 373.389 164.878 373.389 164.878C373.428 164.432 373.447 163.985 373.486 163.558C373.486 163.539 373.486 163.519 373.486 163.48C373.505 163.17 373.525 162.859 373.544 162.568C373.544 162.471 373.564 162.374 373.564 162.276C373.583 162.102 373.583 161.927 373.603 161.772C373.622 161.636 373.622 161.5 373.622 161.364C373.681 160.432 373.758 159.578 373.797 158.801C373.797 158.684 373.817 158.587 373.817 158.471C373.817 158.354 373.836 158.257 373.836 158.141C373.856 157.947 373.856 157.733 373.875 157.558C373.972 156.199 374.05 155.209 374.089 154.626C374.089 154.568 374.089 154.51 374.109 154.452C374.109 154.432 374.109 154.413 374.109 154.393C374.109 154.335 374.109 154.296 374.109 154.257C374.128 154.102 374.128 154.005 374.128 154.005L395.76 155.966Z" fill="#599DAD"/>
<path d="M399.222 113.23C401.887 128.123 400.447 142.666 395.759 155.966C395.428 156.898 395.078 157.83 394.709 158.762C392.997 163.112 390.954 167.305 388.561 171.325C387.141 173.713 385.624 176.043 383.99 178.295C379.302 177.616 375.489 177.072 373.135 177.014C372.921 177.014 372.726 176.975 372.551 176.936C372.026 176.82 371.559 176.548 371.151 176.179C370.684 175.771 371.131 154.16 372.551 126.939C372.59 125.89 372.629 124.744 372.765 123.696L372.785 123.308C372.882 121.502 372.96 119.696 373.076 117.871C373.135 116.822 373.193 115.755 373.251 114.687C373.699 107.425 374.244 100.008 374.827 92.5907C374.886 91.8723 374.944 91.1733 375.002 90.4549C375.936 79.0574 377.045 67.854 378.348 57.8351C385.721 69.5238 391.421 82.5717 395.39 96.5711C396.946 102.008 398.21 107.561 399.222 113.23Z" fill="#F99746"/>
<path d="M202.936 153.461C202.683 145.85 202.294 136.763 201.768 126.958C201.729 125.909 201.691 124.764 201.554 123.715L201.535 123.327C201.496 122.453 201.457 121.579 201.399 120.706C201.379 120.201 201.34 119.715 201.321 119.211C201.243 117.716 201.165 116.221 201.068 114.706C200.621 107.444 200.076 100.027 199.492 92.61C199.434 91.8916 199.376 91.1926 199.317 90.4742C198.461 79.9116 197.45 69.5238 196.263 60.0873C196.263 60.0291 196.244 59.9902 196.244 59.932C196.088 58.7476 195.932 57.5632 195.796 56.4176C195.485 54.0876 195.174 51.8353 194.843 49.6412C194.395 50.3791 193.948 51.1363 193.501 51.8936C190.894 56.3399 188.462 61.0193 186.206 65.8735C181.595 75.7953 177.685 86.5132 174.417 97.8136C174.397 97.8913 174.378 97.9496 174.358 98.0272C173.288 101.716 172.549 105.347 172.121 108.939C172.063 109.444 172.004 109.968 171.946 110.473C170.37 126.725 175.02 141.928 183.813 155.5C184.105 155.966 184.416 156.432 184.746 156.898C185.369 157.83 186.011 158.743 186.672 159.636C187.139 160.277 187.606 160.917 188.092 161.558C188.19 161.694 188.287 161.83 188.404 161.966C191.769 166.315 195.563 170.47 199.687 174.412C200.348 175.053 201.029 175.693 201.729 176.315C201.905 176.47 202.08 176.625 202.235 176.781C202.566 176.645 202.877 176.431 203.169 176.179C203.48 175.926 203.402 166.995 202.936 153.461Z" fill="#2A4E96"/>
<path d="M202.935 153.461C190.68 140.627 180.447 124.9 172.102 108.959C172.53 105.367 173.269 101.716 174.339 98.0466C174.358 97.9689 174.378 97.9107 174.397 97.833C177.665 86.5326 181.575 75.8147 186.186 65.8928C193.714 76.6302 198.986 86.5132 199.317 90.4936C199.375 91.1925 199.434 91.911 199.492 92.6294C200.076 100.027 200.62 107.464 201.068 114.725C201.165 116.24 201.243 117.754 201.321 119.23C201.34 119.735 201.379 120.22 201.399 120.725C201.437 121.599 201.476 122.473 201.535 123.346L201.554 123.735C201.69 124.783 201.729 125.929 201.768 126.977C202.293 136.763 202.682 145.831 202.935 153.461Z" fill="#1E3D70"/>
<path d="M258.631 133.035C258.631 133.035 274.952 133.055 277.52 133.831C280.088 134.608 288.336 140.511 288.297 141.287C288.239 142.045 287.675 142.549 286.08 142.297C284.485 142.045 279.446 140.181 279.621 140.88C279.816 141.579 294.075 147.947 293.55 150.996C293.025 154.044 283.551 157.733 276.548 156.529C269.544 155.325 257.775 144.161 256.627 143.792C246.92 140.666 258.631 133.035 258.631 133.035Z" fill="#FFB27D"/>
<path d="M261.587 138.608C260.109 141.151 258.144 142.937 256.86 143.928C256.082 144.53 255.576 144.84 255.576 144.84C255.576 144.84 224.178 133.113 201.417 120.705C193.889 116.609 187.314 112.434 183.131 108.59C181.244 106.861 178.171 102.978 174.416 97.8134C177.684 86.513 181.594 75.7951 186.205 65.8732C188.461 60.9997 190.893 56.3397 193.5 51.8933C194.414 54.5922 195.348 57.3494 196.282 60.0871C201.262 74.6107 206.378 88.5323 208.207 90.2604C212.156 94.0272 262.288 131.093 262.288 131.093C262.288 131.093 262.93 131.715 263.105 133.074C263.26 134.297 263.046 136.122 261.587 138.608Z" fill="#2A4E96"/>
<path d="M323.334 23.4291H237.719V100.94H323.334V23.4291Z" fill="#DDEBFD"/>
<path d="M323.334 18.7885H237.719V23.429H323.334V18.7885Z" fill="#739AF0"/>
<path d="M240.596 20.1864C240.09 20.1864 239.662 20.5941 239.662 21.1184C239.662 21.6232 240.071 22.0504 240.596 22.0504C241.102 22.0504 241.53 21.6426 241.53 21.1184C241.53 20.5941 241.102 20.1864 240.596 20.1864Z" fill="#DDEBFD"/>
<path d="M244.233 20.1864C243.727 20.1864 243.299 20.5941 243.299 21.1184C243.299 21.6232 243.707 22.0504 244.233 22.0504C244.738 22.0504 245.166 21.6426 245.166 21.1184C245.166 20.5941 244.758 20.1864 244.233 20.1864Z" fill="#DDEBFD"/>
<path d="M247.908 20.1864C247.403 20.1864 246.975 20.5941 246.975 21.1184C246.975 21.6232 247.383 22.0504 247.908 22.0504C248.414 22.0504 248.842 21.6426 248.842 21.1184C248.842 20.5941 248.434 20.1864 247.908 20.1864Z" fill="#DDEBFD"/>
<path d="M263.435 33.5257H296.137C296.992 33.5257 297.693 32.8267 297.693 31.9724C297.693 31.1181 296.992 30.4191 296.137 30.4191H263.435C262.579 30.4191 261.879 31.1181 261.879 31.9724C261.879 32.8267 262.579 33.5257 263.435 33.5257Z" fill="#A8C3F7"/>
<path d="M255.984 38.8459H303.606C304.462 38.8459 305.162 38.1469 305.162 37.2926C305.162 36.4383 304.462 35.7393 303.606 35.7393H255.984C255.128 35.7393 254.428 36.4383 254.428 37.2926C254.428 38.1469 255.128 38.8459 255.984 38.8459Z" fill="#A8C3F7"/>
<path d="M251.956 52.8452H309.344C309.967 52.8452 310.492 52.3404 310.492 51.6997C310.492 51.0783 309.986 50.5541 309.344 50.5541H251.956C251.334 50.5541 250.809 51.0589 250.809 51.6997C250.809 52.3404 251.334 52.8452 251.956 52.8452Z" fill="#A8C3F7"/>
<path d="M309.344 55.8158H251.956C251.334 55.8158 250.809 56.3206 250.809 56.9614C250.809 57.5827 251.314 58.1069 251.956 58.1069H309.344C309.967 58.1069 310.492 57.6021 310.492 56.9614C310.473 56.34 309.967 55.8158 309.344 55.8158Z" fill="#A8C3F7"/>
<path d="M309.344 61.0582H251.956C251.334 61.0582 250.809 61.5631 250.809 62.2038C250.809 62.8251 251.314 63.3494 251.956 63.3494H309.344C309.967 63.3494 310.492 62.8445 310.492 62.2038C310.473 61.5825 309.967 61.0582 309.344 61.0582Z" fill="#A8C3F7"/>
<path d="M257.715 80.1252H251.956C251.334 80.1252 250.809 80.6301 250.809 81.2708C250.809 81.8922 251.314 82.4164 251.956 82.4164H257.715C258.337 82.4164 258.862 81.9116 258.862 81.2708C258.862 80.6301 258.337 80.1252 257.715 80.1252Z" fill="#A8C3F7"/>
<path d="M267.347 80.1252H261.589C260.967 80.1252 260.441 80.6301 260.441 81.2708C260.441 81.8922 260.947 82.4164 261.589 82.4164H267.347C267.97 82.4164 268.495 81.9116 268.495 81.2708C268.476 80.6301 267.97 80.1252 267.347 80.1252Z" fill="#A8C3F7"/>
<path d="M299.717 80.1252H293.958C293.336 80.1252 292.811 80.6301 292.811 81.2708C292.811 81.8922 293.316 82.4164 293.958 82.4164H299.717C300.339 82.4164 300.864 81.9116 300.864 81.2708C300.864 80.6301 300.339 80.1252 299.717 80.1252Z" fill="#A8C3F7"/>
<path d="M309.346 80.1252H303.587C302.965 80.1252 302.439 80.6301 302.439 81.2708C302.439 81.8922 302.945 82.4164 303.587 82.4164H309.346C309.968 82.4164 310.493 81.9116 310.493 81.2708C310.474 80.6301 309.968 80.1252 309.346 80.1252Z" fill="#A8C3F7"/>
<path d="M259.312 83.7759C255.966 83.7759 253.242 86.4942 253.242 89.8339C253.242 93.1735 255.966 95.8918 259.312 95.8918C262.658 95.8918 265.381 93.1735 265.381 89.8339C265.381 86.4942 262.658 83.7759 259.312 83.7759ZM259.312 95.6006C256.141 95.6006 253.553 93.0182 253.553 89.8533C253.553 86.6884 256.141 84.106 259.312 84.106C262.483 84.106 265.07 86.6884 265.07 89.8533C265.07 93.0182 262.483 95.6006 259.312 95.6006Z" fill="#A8C3F7"/>
<path d="M259.313 84.9602C256.608 84.9602 254.43 87.1543 254.43 89.8338C254.43 92.5326 256.628 94.7073 259.313 94.7073C262.017 94.7073 264.195 92.5132 264.195 89.8338C264.195 87.1543 262.017 84.9602 259.313 84.9602ZM259.313 94.416C256.784 94.416 254.721 92.3579 254.721 89.8338C254.721 87.3096 256.784 85.2515 259.313 85.2515C261.841 85.2515 263.904 87.3096 263.904 89.8338C263.904 92.3579 261.841 94.416 259.313 94.416Z" fill="#A8C3F7"/>
<path d="M257.659 91.8336C257.017 91.7754 256.667 91.4647 256.647 90.9211C256.628 90.4939 256.784 90.1444 257.114 89.8337C257.231 90.4745 257.581 90.9987 257.951 91.1152C258.165 91.1735 258.359 91.1152 258.515 90.9211C258.671 90.7269 258.826 90.4745 258.962 90.2026C259.04 90.2609 259.118 90.2997 259.215 90.3191C259.449 90.3386 259.663 90.1444 259.857 89.7949C259.916 89.6978 259.955 89.6007 259.993 89.5036C260.013 89.5231 260.032 89.5231 260.032 89.5425C260.071 89.5619 260.149 89.6007 260.246 89.5036C260.363 89.4066 260.499 89.193 260.616 88.9406C260.635 88.9988 260.674 89.0376 260.713 89.0571C260.772 89.0765 260.869 89.1153 260.986 88.9988C261.044 88.9406 261.044 88.8629 261.024 88.8241C260.986 88.7658 260.888 88.727 260.733 88.6881C260.908 88.2998 261.024 87.8921 260.947 87.7561C260.927 87.6979 260.869 87.6591 260.791 87.6591C260.674 87.6785 260.596 87.7756 260.558 88.0086C260.519 88.1833 260.499 88.4551 260.519 88.6687C260.402 88.6687 260.285 88.6493 260.13 88.6687C260.13 88.5716 260.11 88.494 260.071 88.4357C260.013 88.3581 259.955 88.3386 259.916 88.3581C259.838 88.3775 259.799 88.4746 259.779 88.5716C259.779 88.6105 259.779 88.6493 259.76 88.6881C259.351 88.727 258.923 88.7852 258.515 88.9017C257.97 89.0376 257.542 89.2512 257.192 89.4842C257.173 89.2901 257.192 89.0571 257.328 88.9794C257.484 88.8823 257.776 88.9988 257.873 89.0571L257.97 88.9017C257.951 88.8823 257.523 88.6493 257.231 88.8241C257.056 88.9406 256.978 89.1736 256.998 89.5425C256.998 89.5813 256.998 89.6201 257.017 89.6396C256.609 90.0085 256.395 90.4551 256.395 90.9599C256.414 91.6006 256.823 91.989 257.581 92.0472C258.068 92.0861 258.69 91.989 259.332 91.7754C260.752 91.3094 262.056 90.3386 262.328 89.4648C261.978 90.5521 259.235 91.9696 257.659 91.8336ZM260.791 87.9115C260.791 87.9697 260.772 88.028 260.752 88.1056C260.772 88.028 260.791 87.9503 260.791 87.9115ZM260.168 88.8435C260.285 88.8435 260.383 88.8435 260.48 88.8435C260.363 89.0765 260.246 89.2706 260.149 89.3677C260.149 89.3677 260.13 89.3483 260.091 89.2512C260.11 89.1153 260.149 88.9794 260.168 88.8435ZM259.137 88.96C259.371 88.9211 259.604 88.8823 259.818 88.8629C259.818 88.9988 259.838 89.1347 259.877 89.2512C259.818 89.4066 259.76 89.5425 259.682 89.6978C259.527 89.9696 259.351 90.125 259.215 90.125C259.137 90.125 259.079 90.0667 259.04 90.0085C259.196 89.6007 259.254 89.193 259.137 88.96ZM258.943 88.9988C259.04 89.1153 259.021 89.3871 258.923 89.7172C258.865 89.426 258.904 89.1153 258.943 88.9988ZM257.834 89.3483C258.126 89.2124 258.418 89.1153 258.729 89.0376C258.671 89.2512 258.69 89.5425 258.729 89.7755C258.748 89.8726 258.768 89.9502 258.807 90.0279C258.69 90.2997 258.534 90.591 258.34 90.8046C258.223 90.9405 258.106 90.9793 257.97 90.9405C257.678 90.8434 257.348 90.358 257.25 89.6978C257.426 89.5619 257.62 89.4454 257.834 89.3483Z" fill="#A8C3F7"/>
<path d="M262.365 89.4458C262.385 89.4068 262.385 89.3679 262.404 89.329C262.385 89.3679 262.365 89.4068 262.365 89.4458Z" fill="#A8C3F7"/>
<path d="M301.487 83.9506C298.063 83.9506 295.262 86.7271 295.262 90.1638C295.262 93.5811 298.044 96.3771 301.487 96.3771C304.911 96.3771 307.712 93.6006 307.712 90.1638C307.693 86.7271 304.911 83.9506 301.487 83.9506ZM301.487 96.047C298.238 96.047 295.592 93.4064 295.592 90.1638C295.592 86.9213 298.238 84.2806 301.487 84.2806C304.736 84.2806 307.381 86.9213 307.381 90.1638C307.381 93.4064 304.736 96.047 301.487 96.047Z" fill="#A8C3F7"/>
<path d="M301.488 85.1543C298.725 85.1543 296.469 87.4066 296.469 90.1637C296.469 92.9209 298.706 95.1732 301.488 95.1732C304.25 95.1732 306.487 92.9209 306.487 90.1637C306.487 87.3872 304.25 85.1543 301.488 85.1543ZM301.488 94.8431C298.9 94.8431 296.799 92.7461 296.799 90.1637C296.799 87.5814 298.9 85.4844 301.488 85.4844C304.075 85.4844 306.176 87.5814 306.176 90.1637C306.176 92.7267 304.075 94.8431 301.488 94.8431Z" fill="#A8C3F7"/>
<path d="M304.6 89.7369C304.619 89.698 304.619 89.659 304.639 89.6201C304.639 89.659 304.619 89.698 304.6 89.7369Z" fill="#A8C3F7"/>
<path d="M299.776 92.2027C299.114 92.1444 298.764 91.8338 298.745 91.2707C298.725 90.8435 298.9 90.4746 299.211 90.1445C299.348 90.7853 299.678 91.3483 300.067 91.4648C300.281 91.5231 300.495 91.4648 300.651 91.2513C300.807 91.0571 300.962 90.7853 301.098 90.5134C301.176 90.5911 301.254 90.6105 301.351 90.6299C301.585 90.6493 301.818 90.4552 302.013 90.1057C302.071 90.0086 302.11 89.9115 302.168 89.795C302.188 89.8144 302.207 89.8339 302.227 89.8339C302.266 89.8533 302.343 89.8921 302.46 89.795C302.577 89.6979 302.713 89.4844 302.849 89.2319C302.869 89.2902 302.908 89.329 302.947 89.3484C303.005 89.3679 303.102 89.4067 303.238 89.2902C303.316 89.2319 303.297 89.1543 303.277 89.1154C303.238 89.0572 303.141 88.9989 302.966 88.9795C303.141 88.5912 303.258 88.164 303.199 88.0087C303.18 87.9505 303.122 87.9116 303.044 87.9116C302.927 87.931 302.849 88.0281 302.791 88.2611C302.752 88.4359 302.733 88.7077 302.752 88.9407C302.635 88.9407 302.499 88.9213 302.363 88.9407C302.363 88.8436 302.344 88.7659 302.305 88.7077C302.246 88.6106 302.188 88.6106 302.149 88.63C302.052 88.6495 302.032 88.766 302.013 88.8436C302.013 88.8824 302.013 88.9213 301.993 88.9601C301.585 88.999 301.118 89.0572 300.709 89.1737C300.165 89.329 299.698 89.5232 299.348 89.7756C299.328 89.5814 299.348 89.329 299.484 89.2514C299.639 89.1543 299.931 89.2708 300.048 89.329L300.145 89.1543C300.126 89.1349 299.678 88.8824 299.387 89.0766C299.211 89.1931 299.114 89.4455 299.153 89.8144C299.153 89.8533 299.153 89.8921 299.173 89.9309C298.745 90.2999 298.531 90.7659 298.55 91.2901C298.569 91.9503 298.997 92.3386 299.756 92.4163C300.262 92.4551 300.884 92.3386 301.546 92.1444C302.985 91.6784 304.328 90.6688 304.6 89.7756C304.23 90.8823 301.41 92.3386 299.776 92.2027ZM303.005 88.164C303.005 88.2223 302.985 88.2805 302.966 88.3776C302.966 88.3 302.985 88.2223 303.005 88.164ZM302.344 89.1349C302.46 89.1349 302.557 89.1349 302.655 89.1349C302.538 89.3679 302.421 89.562 302.305 89.6591C302.305 89.6591 302.285 89.6397 302.246 89.5426C302.305 89.4067 302.344 89.2514 302.344 89.1349ZM301.312 89.2319C301.546 89.1931 301.799 89.1543 302.013 89.1349C302.013 89.2708 302.032 89.4067 302.071 89.5232C302.013 89.6785 301.954 89.8339 301.877 89.9698C301.721 90.261 301.546 90.4164 301.39 90.3969C301.312 90.3969 301.254 90.3387 301.215 90.2804C301.351 89.8921 301.429 89.4844 301.312 89.2319ZM301.118 89.2902C301.215 89.4261 301.196 89.6979 301.098 90.028C301.021 89.7368 301.06 89.4067 301.118 89.2902ZM299.97 89.6397C300.262 89.5038 300.573 89.4067 300.884 89.329C300.826 89.5426 300.846 89.8533 300.884 90.0863C300.904 90.1834 300.923 90.261 300.962 90.3387C300.846 90.6105 300.69 90.9018 300.495 91.1348C300.379 91.2707 300.262 91.3289 300.126 91.2707C299.834 91.1736 299.484 90.6688 299.387 89.9892C299.562 89.8727 299.756 89.7562 299.97 89.6397Z" fill="#A8C3F7"/>
<path d="M330.86 161.5L323.41 171.538L322.67 172.529L322.32 173.014L321.406 174.257L320.9 174.936L319.986 176.179L319.013 177.48L318.118 178.703L318.099 178.722L317.243 179.868L317.223 179.887L317.107 180.062L317.087 180.082L316.932 180.295L316.017 181.421V181.518L315.161 182.683L314.053 184.178L313.216 185.305L312.302 186.528L310.765 188.586L310.609 188.8L310.084 189.499L308.878 191.13L307.283 193.188V193.285L306.446 194.411L306.368 194.527L305.221 196.081L304.151 197.537L304.131 197.556L301.466 201.148L297.498 206.488L290.864 215.42L290.047 216.526L289.561 217.187C289.813 217.225 290.066 217.264 290.319 217.284C291.195 217.4 292.09 217.517 292.965 217.594C293.218 217.614 293.451 217.653 293.704 217.672C293.86 217.691 294.015 217.711 294.171 217.711C294.541 217.75 294.91 217.788 295.28 217.808C295.435 217.827 295.591 217.847 295.747 217.847C295.825 217.847 295.883 217.866 295.961 217.866C296.214 217.885 296.447 217.905 296.7 217.924C296.739 217.924 296.797 217.924 296.836 217.944C297.381 217.983 297.926 218.021 298.47 218.041C298.723 218.06 298.957 218.06 299.209 218.08C299.404 218.099 299.599 218.099 299.793 218.119C299.832 218.119 299.871 218.119 299.91 218.119C300.221 218.138 300.552 218.138 300.863 218.157C301.116 218.157 301.349 218.177 301.602 218.177C301.875 218.196 302.166 218.196 302.439 218.196C302.692 218.196 302.925 218.196 303.178 218.216C303.431 218.216 303.703 218.216 303.956 218.216C304.209 218.216 304.442 218.216 304.695 218.216C304.832 218.216 304.968 218.216 305.104 218.216C305.26 218.216 305.396 218.216 305.551 218.216C305.649 218.216 305.746 218.216 305.843 218.216C305.94 218.216 306.038 218.216 306.135 218.216C306.271 218.216 306.407 218.216 306.543 218.216C306.582 218.216 306.621 218.216 306.641 218.216C306.719 218.216 306.777 218.216 306.855 218.216C306.952 218.216 307.049 218.216 307.147 218.216C309.072 218.157 310.959 218.06 312.846 217.905C315.025 217.73 317.165 217.478 319.305 217.167C321.6 216.818 323.877 216.41 326.133 215.905C326.172 215.905 326.211 215.886 326.25 215.886C326.25 215.905 326.25 215.905 326.25 215.905L328.37 215.381C328.662 215.303 328.954 215.245 329.246 215.167C332.028 214.468 334.751 213.653 337.416 212.721C337.864 212.565 338.311 212.41 338.758 212.255C338.875 212.216 338.972 212.177 339.089 212.138C339.926 211.828 340.743 211.517 341.56 211.206C341.774 211.129 342.007 211.031 342.221 210.934C342.26 210.915 342.318 210.896 342.357 210.876C342.61 210.779 342.883 210.663 343.136 210.565C343.33 210.488 343.525 210.41 343.719 210.313C343.953 210.216 344.167 210.119 344.4 210.022C344.536 209.964 344.692 209.905 344.828 209.828C345.081 209.711 345.334 209.614 345.587 209.498C348.057 208.391 350.489 207.168 352.843 205.867C353.096 205.731 353.349 205.595 353.582 205.459L366.558 187.984L330.86 161.5Z" fill="#A8D29F"/>
<path d="M311.252 197.479V198.508L312.011 197.498L312.031 197.479H311.252ZM309.832 198.838C309.56 198.954 309.288 199.071 309.054 199.207L307.401 201.44L306.136 203.148V205.401L307.634 203.381L311.233 198.527C310.805 198.547 310.319 198.644 309.832 198.838ZM303.724 206.41L303.529 206.663L302.81 207.634L299.541 212.022V214.274L301.837 211.167L303.685 208.682L304.658 207.381L305.377 206.41H303.724ZM331.289 169.286L323.528 179.732L323.45 179.829L322.983 180.47L322.38 181.285L322.069 181.693L320.629 183.635L320.026 184.334V184.431L319.637 184.955L319.112 185.654L316.972 188.528L316.933 188.586L316.816 188.722L316.135 189.635V189.732L314.093 192.372L313.295 193.44L313.159 193.615L310.98 196.566L310.319 197.44L310.299 197.459L309.015 199.187L307.362 201.42L306.097 203.129L305.183 204.372L303.685 206.391L303.49 206.643L302.771 207.614L299.503 212.002L298.588 213.245L297.032 215.323L295.242 217.73C295.398 217.75 295.553 217.769 295.709 217.769C295.787 217.769 295.845 217.788 295.923 217.788C296.176 217.808 296.409 217.827 296.662 217.847C296.701 217.847 296.76 217.847 296.798 217.866L298.685 215.323L299.483 214.235L301.779 211.129L303.627 208.643L304.599 207.342L305.319 206.372L306.078 205.362L307.576 203.343L311.175 198.488L311.933 197.479L311.953 197.459L313.12 195.984V195.887L314.034 194.644L314.773 193.654L316.077 191.887L316.991 190.644L318.022 189.246L318.411 188.722L318.567 188.508L319.034 187.868L319.948 186.625L320.921 185.324L321.893 184.023L321.991 183.907L322.905 182.664L323.605 181.713L323.936 181.285L324.773 180.14L324.85 180.043L325.025 179.79L328.566 175.033C330.181 172.878 333.235 172.412 335.394 174.024L353.466 187.382C355.859 189.149 356.346 192.508 354.575 194.896L343.681 209.575L343.039 210.449C343.234 210.371 343.428 210.294 343.623 210.197C343.856 210.1 344.07 210.002 344.304 209.905C344.44 209.847 344.596 209.789 344.732 209.711C344.985 209.595 345.238 209.498 345.49 209.381L359.653 190.314L331.289 169.286ZM303.724 206.41L303.529 206.663L302.81 207.634L299.541 212.022V214.274L301.837 211.167L303.685 208.682L304.658 207.381L305.377 206.41H303.724ZM309.832 198.838C309.56 198.954 309.288 199.071 309.054 199.207L307.401 201.44L306.136 203.148V205.401L307.634 203.381L311.233 198.527C310.805 198.547 310.319 198.644 309.832 198.838ZM311.252 197.479V198.508L312.011 197.498L312.031 197.479H311.252Z" fill="#82B378"/>
<path d="M326.271 215.827C326.271 215.808 326.271 215.808 326.271 215.808C326.232 215.808 326.193 215.827 326.154 215.827C323.917 216.313 321.641 216.74 319.326 217.089C317.205 217.4 315.046 217.653 312.867 217.827C310.98 217.983 309.074 218.099 307.167 218.138C307.07 218.138 306.973 218.138 306.876 218.138C306.798 218.138 306.739 218.138 306.662 218.138C306.623 218.138 306.603 218.138 306.564 218.138C306.545 217.866 306.545 217.575 306.545 217.303C306.545 216.643 306.623 216.002 306.739 215.342C307.051 213.769 307.693 212.255 308.704 210.876C308.704 210.857 308.724 210.857 308.724 210.837C309.21 210.177 309.755 209.595 310.358 209.09C310.65 208.837 310.961 208.604 311.272 208.391C312.148 207.789 313.081 207.323 314.073 206.993C314.385 206.896 314.676 206.799 314.988 206.74C315.707 206.566 316.427 206.469 317.166 206.449C317.478 206.43 317.77 206.43 318.081 206.449C318.762 206.488 319.443 206.585 320.123 206.74C320.435 206.818 320.726 206.896 321.038 206.993C321.388 207.109 321.738 207.245 322.069 207.401C322.38 207.536 322.691 207.692 322.983 207.867C323.314 208.061 323.625 208.255 323.956 208.488C324.014 208.527 324.072 208.566 324.131 208.604C324.384 208.779 324.617 208.973 324.831 209.167C324.851 209.187 324.851 209.187 324.87 209.206C325.045 209.362 325.201 209.517 325.376 209.672C325.707 210.002 325.998 210.332 326.29 210.701V210.721C326.407 210.876 326.524 211.031 326.64 211.206V211.226C326.99 211.73 327.302 212.255 327.555 212.798V212.818C327.671 213.07 327.788 213.342 327.885 213.594C328.099 214.158 328.255 214.74 328.372 215.323L326.271 215.827Z" fill="#82B378"/>
<path opacity="0.5" d="M316.951 180.237L316.037 181.383V181.46L315.181 182.625L314.072 184.12L313.236 185.246L312.321 186.47L310.784 188.528L310.629 188.741L310.104 189.44L308.897 191.071L307.302 193.149V193.227L306.466 194.353L306.388 194.469L305.24 196.023L304.17 197.479L304.151 197.498L301.486 201.09L297.517 206.43L290.883 215.361L290.066 216.468L289.58 217.128C289.833 217.167 290.086 217.206 290.339 217.225C291.214 217.342 292.109 217.458 292.984 217.536C293.237 217.555 293.471 217.594 293.724 217.614C293.879 217.633 294.035 217.653 294.191 217.653C294.56 217.691 294.93 217.73 295.299 217.75C295.455 217.769 295.611 217.788 295.766 217.788C295.844 217.788 295.902 217.808 295.98 217.808C296.233 217.827 296.467 217.847 296.72 217.866C296.758 217.866 296.817 217.866 296.856 217.886C297.4 217.924 297.945 217.963 298.49 217.983C298.743 218.002 298.976 218.002 299.229 218.021C299.424 218.041 299.618 218.041 299.813 218.06C299.852 218.06 299.89 218.06 299.929 218.06C300.124 217.167 300.338 216.255 300.591 215.342C300.96 213.963 301.388 212.565 301.875 211.167C302.244 210.08 302.633 209.012 303.061 207.944C303.217 207.517 303.392 207.09 303.567 206.663C303.606 206.585 303.645 206.488 303.664 206.41C304.17 205.168 304.715 203.925 305.26 202.702V202.624C305.571 201.945 305.863 201.362 306.174 200.702C306.68 199.615 307.205 198.547 307.73 197.498V197.479C308.431 196.061 309.15 194.683 309.851 193.363C309.948 193.188 310.026 193.071 310.123 192.935V192.858C310.434 192.275 310.745 191.712 311.037 191.149C311.485 190.314 311.932 189.537 312.341 188.761C312.38 188.683 312.418 188.625 312.457 188.547C312.73 188.062 312.983 187.693 313.236 187.227V187.169C313.858 186.081 314.422 185.072 314.928 184.179C315.239 183.635 315.512 183.149 315.765 182.683C315.862 182.509 315.959 182.334 316.037 182.179C316.445 181.441 316.757 180.839 316.951 180.412C317.01 180.276 317.068 180.14 317.107 180.023L316.951 180.237Z" fill="#82B378"/>
<path d="M327.901 208.371V213.42C327.901 213.478 327.901 213.517 327.901 213.575C327.882 213.924 327.765 214.235 327.57 214.507C327.356 214.837 327.026 215.089 326.656 215.225C326.578 215.264 326.481 215.284 326.384 215.303C326.364 215.303 326.325 215.322 326.306 215.322C326.248 215.342 326.189 215.342 326.131 215.342C326.073 215.342 326.014 215.342 325.956 215.342H325.392H322.999H321.054H320.139H318.097H317.182H315.003H314.089H311.288H310.374H306.755H305.588H304.674H300.588H298.643H297.087H290.881H289.403H288.333H287.905H285.376H281.66H279.851C278.82 215.128 277.789 214.876 276.738 214.643C276.485 214.585 276.252 214.526 275.999 214.468C275.318 214.293 274.618 214.138 273.937 213.963C273.626 213.886 273.334 213.808 273.023 213.73C272.497 213.594 271.972 213.458 271.447 213.322C270.883 213.167 270.319 213.012 269.755 212.856C269.502 212.779 269.268 212.721 269.015 212.643C267.615 212.235 266.214 211.827 264.794 211.381C264.736 211.361 264.677 211.342 264.638 211.323C264.21 211.187 263.782 211.051 263.374 210.915C263.121 210.837 262.887 210.759 262.635 210.682C258.685 209.4 254.736 207.963 250.846 206.391H251.974L273.042 206.41H273.956H279.617H280.882H283.605H287.068H290.045H290.317H294.908H295.978H296.892H297.495H302.086H303.623H305.374H306.133H310.354H311.249H312.163H314.07H317.863H320.664H320.762H321.579H323.758H324.672H325.936H326.014C326.092 206.41 326.189 206.43 326.267 206.449C326.384 206.468 326.501 206.507 326.617 206.546C326.987 206.682 327.318 206.954 327.532 207.284C327.784 207.614 327.901 207.983 327.901 208.371Z" fill="#FFB93E"/>
<path d="M288.333 215.342H287.905H285.376H281.66H280.746H279.851C278.82 215.128 277.789 214.876 276.738 214.643C276.485 214.585 276.252 214.526 275.999 214.468C275.318 214.293 274.618 214.138 273.937 213.963C273.626 213.886 273.334 213.808 273.023 213.73C272.497 213.594 271.972 213.458 271.447 213.322C270.883 213.167 270.319 213.012 269.755 212.856C269.502 212.779 269.268 212.721 269.015 212.643C267.615 212.235 266.214 211.827 264.794 211.381C264.735 211.361 264.677 211.342 264.638 211.323C264.21 211.187 263.782 211.051 263.374 210.915C263.121 210.837 262.887 210.759 262.635 210.682C258.685 209.4 254.736 207.963 250.846 206.391H251.974L273.042 206.41H273.956H279.617H280.862H280.882H283.022C283.314 207.672 283.78 209.187 284.578 210.701C285.317 212.138 286.348 213.594 287.749 214.856C287.827 214.934 287.924 215.012 288.002 215.089C288.021 215.109 288.041 215.128 288.06 215.128C288.138 215.206 288.235 215.284 288.333 215.342Z" fill="#FFA412"/>
<path d="M318.098 206.429H317.184V215.361H318.098V206.429Z" fill="#FFA412"/>
<path d="M314.985 206.429H314.07V215.361H314.985V206.429Z" fill="#FFA412"/>
<path d="M311.27 206.429H310.355V215.361H311.27V206.429Z" fill="#FFA412"/>
<path d="M305.571 206.41H304.656V215.342H305.571V206.41Z" fill="#FFA412"/>
<path d="M299.559 206.41H298.645V215.342H299.559V206.41Z" fill="#FFA412"/>
<path d="M290.317 206.41H289.402V215.342H290.317V206.41Z" fill="#FFA412"/>
<path d="M281.66 206.41H280.746V215.342H281.66V206.41Z" fill="#FFA412"/>
<path d="M273.938 206.391V213.944C273.626 213.866 273.335 213.788 273.023 213.711V206.391H273.938Z" fill="#FFA412"/>
<path d="M321.033 206.429H320.119V215.361H321.033V206.429Z" fill="#FFA412"/>
<path d="M323 206.429H322.086V215.361H323V206.429Z" fill="#FFA412"/>
<path d="M324.871 206.43L323.957 206.429L323.948 215.361L324.862 215.362L324.871 206.43Z" fill="#FFA412"/>
<path d="M326.287 206.468V215.342C326.17 215.361 326.054 215.381 325.937 215.381H325.373V206.449H325.937C326.073 206.43 326.19 206.449 326.287 206.468Z" fill="#FFA412"/>
<path d="M327.569 207.303V214.526C327.355 214.856 327.024 215.109 326.654 215.245V206.565C327.024 206.701 327.335 206.973 327.569 207.303Z" fill="#FFA412"/>
<path d="M334.496 199.441V204.49C334.496 204.898 334.38 205.266 334.166 205.577C333.952 205.907 333.621 206.16 333.251 206.296C333.135 206.334 333.018 206.373 332.901 206.393C332.784 206.412 332.668 206.431 332.551 206.431L251.955 206.393C250.924 206.393 250.068 205.577 250.01 204.548C250.01 204.509 250.01 204.49 250.01 204.451V199.403C250.01 199.364 250.01 199.344 250.01 199.306C250.068 198.354 250.788 197.577 251.722 197.48C251.799 197.48 251.877 197.461 251.955 197.461L332.532 197.519C332.648 197.519 332.765 197.539 332.882 197.558C332.998 197.577 333.115 197.616 333.232 197.655C333.602 197.791 333.932 198.063 334.146 198.393C334.36 198.665 334.496 199.053 334.496 199.441Z" fill="#FFB93E"/>
<path d="M294.908 206.41L251.741 206.371C250.807 206.371 250.049 205.556 250.01 204.527C250.01 204.488 250.01 204.469 250.01 204.43V199.381C250.01 199.343 250.01 199.323 250.01 199.284C250.049 198.333 250.71 197.556 251.547 197.459C251.605 197.459 251.683 197.44 251.761 197.44L289.637 197.459C289.637 197.459 289.637 197.459 289.637 197.479C290.22 200.119 291.64 203.75 294.908 206.41Z" fill="#FFA412"/>
<path d="M324.672 197.498H323.758V206.429H324.672V197.498Z" fill="#FFA412"/>
<path d="M321.58 197.498H320.666V206.429H321.58V197.498Z" fill="#FFA412"/>
<path d="M317.866 197.479H316.951V206.41H317.866V197.479Z" fill="#FFA412"/>
<path d="M312.166 197.479H311.252V206.41H312.166V197.479Z" fill="#FFA412"/>
<path d="M306.133 197.479H305.219V206.41H306.133V197.479Z" fill="#FFA412"/>
<path d="M296.912 197.479H295.998V206.41H296.912V197.479Z" fill="#FFA412"/>
<path d="M288.258 197.459H287.344V206.391H288.258V197.459Z" fill="#FFA412"/>
<path d="M280.533 197.459H279.619V206.391H280.533V197.459Z" fill="#FFA412"/>
<path d="M327.631 197.498H326.717V206.429H327.631V197.498Z" fill="#FFA412"/>
<path d="M329.576 197.498H328.662V206.429H329.576V197.498Z" fill="#FFA412"/>
<path d="M331.463 197.498H330.549V206.429H331.463V197.498Z" fill="#FFA412"/>
<path d="M332.881 197.537V206.41C332.764 206.43 332.648 206.449 332.531 206.449H331.967V197.518H332.531C332.667 197.498 332.764 197.518 332.881 197.537Z" fill="#FFA412"/>
<path d="M334.147 198.352V205.575C333.933 205.906 333.602 206.158 333.232 206.294V197.615C333.621 197.77 333.933 198.022 334.147 198.352Z" fill="#FFA412"/>
<path d="M323.915 190.508V195.556C323.915 195.964 323.798 196.333 323.584 196.644C323.37 196.974 323.039 197.226 322.67 197.362C322.553 197.401 322.436 197.44 322.319 197.459C322.28 197.459 322.242 197.479 322.203 197.479C322.164 197.479 322.144 197.479 322.105 197.479C322.086 197.479 322.066 197.479 322.066 197.479C322.028 197.479 322.008 197.479 321.969 197.479L241.393 197.42C240.362 197.42 239.506 196.605 239.447 195.576C239.447 195.537 239.447 195.518 239.447 195.479V190.43C239.447 190.392 239.447 190.372 239.447 190.333C239.506 189.304 240.362 188.489 241.393 188.489L321.969 188.547C322.008 188.547 322.047 188.547 322.066 188.547C322.144 188.547 322.222 188.566 322.3 188.566C322.417 188.586 322.533 188.625 322.65 188.664C322.708 188.683 322.767 188.702 322.825 188.741C322.864 188.761 322.884 188.78 322.922 188.799C322.922 188.799 322.922 188.799 322.942 188.799C322.981 188.819 323 188.838 323.039 188.858C323.039 188.858 323.059 188.858 323.059 188.877C323.098 188.897 323.117 188.916 323.136 188.935C323.214 188.994 323.273 189.052 323.331 189.11C323.35 189.13 323.37 189.149 323.389 189.168C323.389 189.168 323.389 189.168 323.389 189.188C323.409 189.207 323.409 189.207 323.428 189.227C323.448 189.246 323.467 189.265 323.487 189.304C323.506 189.343 323.545 189.382 323.564 189.401C323.798 189.731 323.915 190.1 323.915 190.508Z" fill="#FFB93E"/>
<path d="M284.346 197.48L241.179 197.441C240.245 197.441 239.486 196.626 239.447 195.596C239.447 195.558 239.447 195.538 239.447 195.499V190.451C239.447 190.412 239.447 190.393 239.447 190.354C239.486 189.325 240.264 188.51 241.179 188.51L279.055 188.529C279.074 188.587 279.094 188.665 279.113 188.743C279.716 191.344 281.136 194.859 284.346 197.48C284.327 197.46 284.346 197.48 284.346 197.48Z" fill="#FFA412"/>
<path d="M314.11 188.567H313.195V197.498H314.11V188.567Z" fill="#FFA412"/>
<path d="M311.016 188.547H310.102V197.479H311.016V188.547Z" fill="#FFA412"/>
<path d="M307.299 188.547H306.385V197.479H307.299V188.547Z" fill="#FFA412"/>
<path d="M301.6 188.547H300.686V197.479H301.6V188.547Z" fill="#FFA412"/>
<path d="M295.571 188.547H294.656V197.479H295.571V188.547Z" fill="#FFA412"/>
<path d="M286.33 188.547H285.416V197.479H286.33V188.547Z" fill="#FFA412"/>
<path d="M277.672 188.528H276.758V197.459H277.672V188.528Z" fill="#FFA412"/>
<path d="M269.955 188.528L269.041 188.527L269.032 197.459L269.946 197.46L269.955 188.528Z" fill="#FFA412"/>
<path d="M317.067 188.567H316.152V197.498H317.067V188.567Z" fill="#FFA412"/>
<path d="M319.012 188.567H318.098V197.498H319.012V188.567Z" fill="#FFA412"/>
<path d="M320.897 188.567H319.982V197.498H320.897V188.567Z" fill="#FFA412"/>
<path d="M322.319 188.586V197.459C322.202 197.479 322.085 197.498 321.969 197.498H321.404V188.567H321.969C322.085 188.567 322.202 188.567 322.319 188.586Z" fill="#FFA412"/>
<path d="M323.584 189.421V196.644C323.37 196.974 323.04 197.226 322.67 197.362V188.683C323.04 188.838 323.37 189.091 323.584 189.421Z" fill="#FFA412"/>
<path d="M329.846 181.771V186.819C329.846 187.227 329.729 187.596 329.515 187.906C329.301 188.236 328.97 188.489 328.601 188.625C328.484 188.664 328.367 188.702 328.251 188.722C328.134 188.741 328.017 188.761 327.901 188.761L247.324 188.702C247.013 188.702 246.721 188.625 246.449 188.489C245.865 188.198 245.437 187.615 245.379 186.935C245.379 186.916 245.379 186.877 245.379 186.858C245.379 186.819 245.379 186.8 245.379 186.761V181.712C245.379 181.674 245.379 181.654 245.379 181.615C245.437 180.664 246.157 179.887 247.091 179.79C247.169 179.771 247.246 179.771 247.324 179.771L327.901 179.829C328.017 179.829 328.134 179.848 328.251 179.868C328.367 179.887 328.484 179.926 328.601 179.965C328.97 180.101 329.301 180.373 329.515 180.703C329.729 181.013 329.846 181.382 329.846 181.771Z" fill="#FFB93E"/>
<path d="M290.278 188.741L247.11 188.702C246.838 188.702 246.566 188.625 246.332 188.489C245.807 188.198 245.437 187.615 245.379 186.935C245.379 186.916 245.379 186.877 245.379 186.858C245.379 186.819 245.379 186.8 245.379 186.761V181.712C245.379 181.674 245.379 181.654 245.379 181.615C245.418 180.664 246.079 179.887 246.916 179.79C246.974 179.79 247.052 179.771 247.13 179.771L285.006 179.79V179.81C285.589 182.373 286.951 185.887 290.044 188.528C290.103 188.605 290.18 188.683 290.278 188.741Z" fill="#FFA412"/>
<path d="M320.043 179.829H319.129V188.761H320.043V179.829Z" fill="#FFA412"/>
<path d="M316.93 179.829H316.016V188.761H316.93V179.829Z" fill="#FFA412"/>
<path d="M313.213 179.829H312.299V188.761H313.213V179.829Z" fill="#FFA412"/>
<path d="M307.514 179.81H306.6V188.741H307.514V179.81Z" fill="#FFA412"/>
<path d="M301.504 179.81H300.59V188.741H301.504V179.81Z" fill="#FFA412"/>
<path d="M292.262 179.81H291.348V188.741H292.262V179.81Z" fill="#FFA412"/>
<path d="M283.606 179.81H282.691V188.741H283.606V179.81Z" fill="#FFA412"/>
<path d="M275.883 179.79H274.969V188.722H275.883V179.79Z" fill="#FFA412"/>
<path d="M322.981 179.829H322.066V188.761H322.981V179.829Z" fill="#FFA412"/>
<path d="M324.944 179.829H324.029V188.761H324.944V179.829Z" fill="#FFA412"/>
<path d="M326.813 179.829H325.898V188.761H326.813V179.829Z" fill="#FFA412"/>
<path d="M328.231 179.868V188.741C328.114 188.761 327.997 188.78 327.881 188.78H327.316V179.849H327.881C328.017 179.829 328.134 179.849 328.231 179.868Z" fill="#FFA412"/>
<path d="M329.518 180.703V187.926C329.304 188.256 328.973 188.508 328.604 188.644V179.965C328.973 180.101 329.284 180.373 329.518 180.703Z" fill="#FFA412"/>
<path d="M323.936 172.858V177.907C323.936 178.314 323.819 178.683 323.605 178.994C323.391 179.324 323.06 179.577 322.691 179.712C322.574 179.751 322.457 179.79 322.341 179.81C322.302 179.81 322.263 179.829 322.224 179.829C322.204 179.829 322.185 179.829 322.166 179.829C322.146 179.829 322.127 179.829 322.107 179.829C322.068 179.829 322.029 179.829 322.01 179.829L241.434 179.771C240.403 179.771 239.547 178.955 239.488 177.926C239.488 177.887 239.488 177.868 239.488 177.829V172.781C239.488 172.742 239.488 172.723 239.488 172.684C239.547 171.655 240.403 170.839 241.434 170.839L322.01 170.897C322.127 170.897 322.243 170.917 322.36 170.936C322.477 170.956 322.593 170.994 322.71 171.033C323.08 171.169 323.411 171.441 323.625 171.771C323.8 172.082 323.936 172.451 323.936 172.858Z" fill="#FFB93E"/>
<path d="M284.365 179.81L241.198 179.771C240.264 179.771 239.506 178.955 239.467 177.926C239.467 177.887 239.467 177.868 239.467 177.829V172.781C239.467 172.742 239.467 172.723 239.467 172.684C239.506 171.655 240.284 170.839 241.198 170.839L279.074 170.859C279.658 173.499 281.058 177.13 284.365 179.81C284.346 179.81 284.346 179.81 284.365 179.81Z" fill="#FFA412"/>
<path d="M314.133 170.898L313.219 170.897L313.209 179.829L314.124 179.829L314.133 170.898Z" fill="#FFA412"/>
<path d="M311.016 170.897H310.102V179.829H311.016V170.897Z" fill="#FFA412"/>
<path d="M307.301 170.897H306.387V179.829H307.301V170.897Z" fill="#FFA412"/>
<path d="M301.602 170.897H300.688V179.829H301.602V170.897Z" fill="#FFA412"/>
<path d="M295.569 170.878H294.654V179.809H295.569V170.878Z" fill="#FFA412"/>
<path d="M286.348 170.878H285.434V179.809H286.348V170.878Z" fill="#FFA412"/>
<path d="M277.692 170.878H276.777V179.809H277.692V170.878Z" fill="#FFA412"/>
<path d="M269.969 170.859H269.055V179.79H269.969V170.859Z" fill="#FFA412"/>
<path d="M317.067 170.897H316.152V179.829H317.067V170.897Z" fill="#FFA412"/>
<path d="M319.012 170.897H318.098V179.829H319.012V170.897Z" fill="#FFA412"/>
<path d="M320.899 170.897H319.984V179.829H320.899V170.897Z" fill="#FFA412"/>
<path d="M322.319 170.936V179.809C322.202 179.829 322.085 179.848 321.969 179.848H321.404V170.917H321.969C322.105 170.897 322.221 170.917 322.319 170.936Z" fill="#FFA412"/>
<path d="M323.602 171.771V178.994C323.388 179.324 323.057 179.576 322.688 179.712V171.033C323.057 171.169 323.368 171.441 323.602 171.771Z" fill="#FFA412"/>
<path d="M334.83 213.517C333.001 214.099 331.153 214.624 329.266 215.09C328.974 215.167 328.683 215.245 328.391 215.303C327.69 215.478 326.99 215.633 326.29 215.788C326.251 215.788 326.212 215.808 326.173 215.808C323.936 216.293 321.66 216.72 319.345 217.07C317.224 217.381 315.065 217.633 312.886 217.808C310.999 217.963 309.093 218.08 307.186 218.118C307.089 218.118 306.992 218.118 306.895 218.118C306.817 218.118 306.759 218.118 306.681 218.118C306.642 218.118 306.622 218.118 306.583 218.118C306.447 218.118 306.311 218.118 306.175 218.118C306.078 218.118 305.98 218.118 305.883 218.118C305.786 218.118 305.689 218.118 305.591 218.118C305.436 218.118 305.299 218.118 305.144 218.118C305.008 218.118 304.872 218.118 304.735 218.118C304.482 218.118 304.249 218.118 303.996 218.118C303.743 218.118 303.471 218.118 303.218 218.118C302.965 218.118 302.732 218.118 302.479 218.099C302.206 218.099 301.915 218.08 301.642 218.08C301.389 218.08 301.156 218.06 300.903 218.06C300.592 218.06 300.261 218.041 299.95 218.021C299.911 218.021 299.872 218.021 299.833 218.021C299.639 218.021 299.444 218.002 299.249 217.983C298.997 217.963 298.763 217.963 298.51 217.944C297.966 217.905 297.421 217.885 296.876 217.847C296.837 217.847 296.779 217.847 296.74 217.827C296.487 217.808 296.254 217.788 296.001 217.769C295.923 217.769 295.845 217.75 295.787 217.75C295.631 217.73 295.475 217.73 295.32 217.711C294.95 217.672 294.581 217.652 294.211 217.614C294.055 217.594 293.9 217.594 293.744 217.575C293.491 217.555 293.258 217.517 293.005 217.497C292.129 217.4 291.254 217.303 290.359 217.186C290.106 217.148 289.853 217.128 289.601 217.089C289.523 217.07 289.425 217.07 289.348 217.051C289.27 217.051 289.211 217.031 289.134 217.031C288.959 217.012 288.784 216.973 288.608 216.953C288.55 216.953 288.511 216.934 288.472 216.934C288.453 216.934 288.453 216.934 288.453 216.934C288.433 216.934 288.433 216.934 288.414 216.934C287.752 216.837 287.091 216.72 286.43 216.623C286.196 216.585 285.963 216.546 285.729 216.507C285.496 216.468 285.262 216.429 285.029 216.39C284.776 216.352 284.504 216.293 284.251 216.235C283.998 216.196 283.764 216.138 283.512 216.099C282.305 215.866 281.099 215.614 279.893 215.361C278.862 215.148 277.831 214.895 276.781 214.662C276.528 214.604 276.294 214.546 276.041 214.488C275.925 214.468 275.808 214.429 275.691 214.41C274.758 203.498 280.185 192.566 290.398 186.936C290.768 186.741 291.137 186.547 291.507 186.353C291.857 186.139 292.227 185.926 292.596 185.732C306.428 178.12 323.839 183.149 331.464 196.974C334.305 202.197 335.375 207.964 334.83 213.517Z" fill="#E2810E"/>
<path d="M340.335 193.304C337.767 188.664 334.11 185.013 329.85 182.509C329.733 182.45 329.636 182.373 329.519 182.314C329.208 182.14 328.916 181.965 328.605 181.81C328.488 181.751 328.371 181.693 328.255 181.635C327.943 181.48 327.652 181.324 327.34 181.188C327.165 181.111 327.01 181.033 326.835 180.955C326.523 180.819 326.232 180.683 325.92 180.567C325.609 180.431 325.278 180.315 324.948 180.198C324.928 180.198 324.909 180.179 324.87 180.179C324.597 180.082 324.306 179.984 324.033 179.887C323.975 179.868 323.897 179.849 323.839 179.829H323.761C323.683 179.79 323.644 179.771 323.547 179.732C323.352 179.674 323.177 179.616 322.983 179.577C322.886 179.557 322.788 179.518 322.691 179.499C322.574 179.46 322.458 179.441 322.341 179.402C322.03 179.324 321.738 179.247 321.427 179.188C321.251 179.15 321.096 179.111 320.921 179.091C320.609 179.033 320.318 178.975 320.006 178.917C319.676 178.858 319.364 178.819 319.034 178.761C318.742 178.722 318.431 178.684 318.139 178.664H318.119C317.769 178.625 317.439 178.606 317.088 178.586C316.777 178.567 316.485 178.548 316.174 178.548C315.493 178.528 314.812 178.528 314.131 178.548C313.82 178.567 313.528 178.567 313.217 178.606C312.497 178.664 311.758 178.742 311.038 178.858C310.727 178.897 310.435 178.955 310.124 179.014C309.19 179.188 308.256 179.402 307.323 179.674C307.128 179.732 306.953 179.79 306.759 179.849C306.739 179.849 306.72 179.868 306.72 179.868C306.7 179.868 306.661 179.887 306.642 179.887C304.91 180.45 303.199 181.169 301.526 182.081C301.526 182.081 301.506 182.081 301.506 182.101C301.195 182.276 300.903 182.431 300.611 182.606C300.553 182.645 300.495 182.664 300.456 182.703C297.791 184.314 295.476 186.314 293.53 188.567C293.472 188.644 293.413 188.702 293.355 188.78C291.157 191.382 289.484 194.353 288.356 197.498V197.518C288.336 197.595 288.297 197.653 288.278 197.731C287.908 198.799 287.597 199.867 287.363 200.974V201.051C286.974 202.838 286.741 204.605 286.702 206.449C286.624 209.265 286.974 212.099 287.772 214.895C287.811 215.07 287.869 215.225 287.928 215.4C288.083 215.944 288.278 216.468 288.472 217.012C288.511 217.012 288.57 217.031 288.608 217.031C288.784 217.051 288.959 217.089 289.134 217.109C289.212 217.128 289.27 217.128 289.348 217.128C289.425 217.148 289.523 217.148 289.601 217.167C289.853 217.206 290.106 217.245 290.359 217.264C291.235 217.381 292.13 217.497 293.005 217.575C293.258 217.594 293.491 217.633 293.744 217.652C293.9 217.672 294.055 217.691 294.211 217.691C294.581 217.73 294.95 217.769 295.32 217.788C295.476 217.808 295.631 217.827 295.787 217.827C295.865 217.827 295.923 217.847 296.001 217.847C296.254 217.866 296.487 217.885 296.74 217.905C296.779 217.905 296.837 217.905 296.876 217.924C297.421 217.963 297.966 218.002 298.51 218.021C298.763 218.041 298.997 218.041 299.25 218.06C299.444 218.08 299.639 218.08 299.833 218.099C299.872 218.099 299.911 218.099 299.95 218.099C300.261 218.118 300.592 218.118 300.903 218.138C301.156 218.138 301.389 218.157 301.642 218.157C301.915 218.177 302.206 218.177 302.479 218.177C302.732 218.177 302.965 218.177 303.218 218.196C303.471 218.196 303.743 218.196 303.996 218.196C304.249 218.196 304.483 218.196 304.735 218.196C304.872 218.196 305.008 218.196 305.144 218.196C305.3 218.196 305.436 218.196 305.591 218.196C305.689 218.196 305.786 218.196 305.883 218.196C305.98 218.196 306.078 218.196 306.175 218.196C306.311 218.196 306.447 218.196 306.584 218.196C306.622 218.196 306.661 218.196 306.681 218.196C306.759 218.196 306.817 218.196 306.895 218.196C306.992 218.196 307.089 218.196 307.187 218.196C309.112 218.138 310.999 218.041 312.886 217.885C315.065 217.711 317.205 217.458 319.345 217.148C321.641 216.798 323.917 216.39 326.173 215.886C326.212 215.886 326.251 215.866 326.29 215.866C326.29 215.886 326.29 215.886 326.29 215.886L328.41 215.361C328.702 215.284 328.994 215.225 329.286 215.148C332.068 214.449 334.791 213.633 337.456 212.701C337.904 212.546 338.351 212.391 338.799 212.235C338.915 212.196 339.012 212.158 339.129 212.119C339.966 211.808 340.783 211.497 341.6 211.187C341.814 211.109 342.047 211.012 342.261 210.915C342.3 210.896 342.359 210.876 342.397 210.857C342.65 210.76 342.923 210.643 343.176 210.546C343.37 210.468 343.565 210.391 343.759 210.294C343.779 210.08 343.798 209.886 343.818 209.672C344.265 204.139 343.195 198.469 340.335 193.304Z" fill="#E2810E"/>
<path d="M338.156 194.508C336.035 190.683 333.176 187.518 329.849 185.13C329.732 185.052 329.635 184.974 329.518 184.897C329.227 184.683 328.915 184.489 328.604 184.275C328.487 184.198 328.371 184.12 328.254 184.042C327.943 183.848 327.651 183.673 327.34 183.499C327.165 183.402 327.009 183.304 326.834 183.227C326.523 183.052 326.231 182.897 325.92 182.741C325.608 182.586 325.278 182.431 324.947 182.275C324.636 182.139 324.344 182.004 324.033 181.887C323.916 181.848 323.819 181.79 323.702 181.751C323.468 181.654 323.235 181.576 323.001 181.479C322.807 181.402 322.593 181.343 322.398 181.266C322.301 181.227 322.184 181.188 322.087 181.169C321.426 180.955 320.745 180.741 320.045 180.586C319.733 180.508 319.442 180.431 319.13 180.373C318.469 180.237 317.788 180.101 317.127 180.004C317.068 179.984 317.01 179.984 316.951 179.984C316.64 179.945 316.348 179.907 316.037 179.868C315.92 179.848 315.804 179.848 315.668 179.829H315.57C315.551 179.829 315.531 179.809 315.492 179.809C315.103 179.771 314.656 179.732 314.286 179.732C313.975 179.712 313.683 179.712 313.372 179.712C312.652 179.712 311.913 179.732 311.193 179.79C311.076 179.79 310.96 179.809 310.843 179.809H310.804C310.785 179.809 310.785 179.809 310.765 179.829H310.687C309.715 179.926 308.781 180.062 307.808 180.256C307.497 180.314 307.205 180.373 306.894 180.45C305.163 180.858 303.451 181.421 301.778 182.159C301.466 182.295 301.175 182.431 300.863 182.586C300.805 182.605 300.766 182.644 300.708 182.664C300.319 182.858 299.949 183.052 299.579 183.246C296.953 184.683 294.658 186.469 292.693 188.528C292.635 188.586 292.596 188.625 292.537 188.683C292.518 188.702 292.498 188.722 292.479 188.741C290.067 191.304 288.18 194.275 286.876 197.459C286.876 197.459 286.876 197.459 286.876 197.479C285.709 200.313 285.009 203.342 284.814 206.41C284.717 207.828 284.736 209.264 284.853 210.682C284.989 212.235 285.242 213.808 285.651 215.342C285.748 215.73 285.865 216.118 285.981 216.507C286.215 216.546 286.448 216.584 286.682 216.623C287.343 216.74 288.005 216.837 288.666 216.934C288.685 216.934 288.685 216.934 288.705 216.934C288.724 216.934 288.724 216.934 288.724 216.934C288.763 216.934 288.822 216.953 288.861 216.953C289.036 216.973 289.211 217.012 289.386 217.031C289.464 217.05 289.522 217.05 289.6 217.05C289.678 217.07 289.775 217.07 289.853 217.089C290.106 217.128 290.358 217.167 290.611 217.186C291.487 217.303 292.382 217.419 293.257 217.497C293.51 217.516 293.743 217.555 293.996 217.575C294.152 217.594 294.308 217.614 294.463 217.614C294.833 217.652 295.202 217.691 295.572 217.711C295.728 217.73 295.883 217.749 296.039 217.749C296.117 217.749 296.175 217.769 296.253 217.769C296.506 217.788 296.739 217.808 296.992 217.827C297.031 217.827 297.089 217.827 297.128 217.847C297.673 217.885 298.218 217.924 298.762 217.944C299.015 217.963 299.249 217.963 299.502 217.982C299.696 218.002 299.891 218.002 300.085 218.021C300.124 218.021 300.163 218.021 300.202 218.021C300.513 218.041 300.844 218.041 301.155 218.06C301.408 218.06 301.642 218.08 301.894 218.08C302.167 218.099 302.459 218.099 302.731 218.099C302.984 218.099 303.217 218.099 303.47 218.118C303.723 218.118 303.995 218.118 304.248 218.118C304.501 218.118 304.735 218.118 304.988 218.118C305.124 218.118 305.26 218.118 305.396 218.118C305.552 218.118 305.688 218.118 305.843 218.118C305.941 218.118 306.038 218.118 306.135 218.118C306.233 218.118 306.33 218.118 306.427 218.118C306.563 218.118 306.699 218.118 306.836 218.118C306.875 218.118 306.913 218.118 306.933 218.118C307.011 218.118 307.069 218.118 307.147 218.118C307.244 218.118 307.341 218.118 307.439 218.118C309.365 218.06 311.252 217.963 313.139 217.808C315.317 217.633 317.457 217.381 319.597 217.07C321.893 216.72 324.169 216.313 326.425 215.808C326.464 215.808 326.503 215.788 326.542 215.788C326.542 215.808 326.542 215.808 326.542 215.808L328.662 215.284C328.954 215.206 329.246 215.148 329.538 215.07C332.32 214.371 335.043 213.555 337.708 212.623C338.156 212.468 338.603 212.313 339.051 212.157C339.167 212.119 339.265 212.08 339.381 212.041C340.218 211.73 341.035 211.42 341.852 211.109C342.124 205.556 341.054 199.77 338.156 194.508Z" fill="#FFB93E"/>
<path d="M336.094 196.022C334.343 192.858 332.047 190.197 329.363 188.12C329.11 187.926 328.857 187.732 328.604 187.557C328.487 187.479 328.37 187.382 328.254 187.304C327.962 187.091 327.651 186.897 327.339 186.683C327.164 186.586 327.009 186.47 326.834 186.372C326.522 186.198 326.231 186.004 325.919 185.848C325.608 185.673 325.277 185.499 324.947 185.343C324.635 185.188 324.344 185.052 324.032 184.916C323.682 184.761 323.352 184.606 323.001 184.47C322.69 184.353 322.398 184.237 322.087 184.12C322.048 184.101 322.029 184.101 321.99 184.081C321.542 183.926 321.095 183.771 320.647 183.654C320.453 183.596 320.258 183.538 320.044 183.479C319.733 183.402 319.441 183.324 319.13 183.246C318.41 183.072 317.671 182.936 316.951 182.839C316.64 182.8 316.348 182.761 316.037 182.722C315.94 182.703 315.862 182.703 315.765 182.703C315.57 182.683 315.376 182.664 315.181 182.644C314.539 182.586 313.897 182.567 313.236 182.567C312.924 182.567 312.633 182.567 312.321 182.586C310.726 182.644 309.131 182.839 307.536 183.208C307.225 183.285 306.933 183.343 306.622 183.441C304.89 183.907 303.178 184.547 301.505 185.382C301.233 185.518 300.961 185.654 300.688 185.809C300.649 185.829 300.61 185.848 300.591 185.868C299.171 186.664 297.848 187.557 296.622 188.566C296.545 188.625 296.447 188.702 296.37 188.78C296.097 189.013 295.844 189.246 295.572 189.479C295.261 189.77 294.949 190.062 294.658 190.372C292.615 192.45 290.923 194.857 289.678 197.498V197.517C289.658 197.537 289.658 197.556 289.639 197.576C289.094 198.741 288.627 199.964 288.257 201.245V201.304C288.238 201.323 288.238 201.343 288.219 201.381C287.791 202.741 287.499 204.236 287.343 205.614C287.324 205.828 287.304 206.041 287.285 206.255C287.226 206.993 287.188 207.731 287.188 208.449C287.188 210.624 287.46 212.798 288.024 214.915C288.043 215.012 288.063 215.089 288.102 215.187C288.257 215.73 288.413 216.274 288.608 216.818C288.783 216.837 288.958 216.876 289.133 216.895C289.211 216.915 289.269 216.915 289.347 216.915C289.425 216.934 289.522 216.934 289.6 216.953C289.853 216.992 290.106 217.031 290.358 217.051C290.261 216.798 290.164 216.546 290.086 216.293C289.95 215.924 289.833 215.555 289.736 215.187C289.619 214.818 289.522 214.526 289.444 214.157V214.06C288.841 211.497 288.647 208.876 288.88 206.255C289.016 204.702 289.308 203.148 289.755 201.614C289.95 200.974 290.144 200.352 290.378 199.731C290.689 198.915 291.039 198.119 291.428 197.343V197.323C292.323 195.576 293.393 193.945 294.677 192.489C294.969 192.139 295.28 191.809 295.591 191.479C296.603 190.43 297.712 189.479 298.899 188.605C298.996 188.528 299.093 188.469 299.19 188.392H299.21C299.657 188.081 300.105 187.77 300.591 187.479C300.863 187.304 301.155 187.149 301.447 186.994C301.466 186.974 301.486 186.974 301.505 186.955C303.159 186.042 304.871 185.363 306.622 184.877C306.933 184.8 307.225 184.703 307.536 184.644C309.112 184.256 310.726 184.042 312.321 183.984C312.633 183.965 312.924 183.965 313.236 183.965H313.255C313.528 183.965 313.819 183.965 314.092 183.984C314.383 184.004 314.656 184.004 314.948 184.023C315.317 184.042 315.687 184.081 316.056 184.12C316.368 184.159 316.66 184.198 316.971 184.237C317.71 184.353 318.43 184.489 319.15 184.664C319.325 184.703 319.5 184.761 319.675 184.8C319.811 184.839 319.928 184.877 320.064 184.916C320.395 185.013 320.706 185.11 321.037 185.207C321.387 185.324 321.756 185.46 322.106 185.596C322.418 185.712 322.71 185.848 323.021 185.965C323.371 186.12 323.721 186.275 324.052 186.431C324.363 186.586 324.674 186.741 324.966 186.897C325.297 187.071 325.608 187.266 325.939 187.44C326.25 187.615 326.561 187.809 326.853 188.023C327.028 188.139 327.184 188.236 327.359 188.353C327.476 188.431 327.573 188.508 327.69 188.586C330.53 190.644 332.962 193.324 334.771 196.586C337.475 201.478 338.408 207.032 337.475 212.449C337.922 212.293 338.37 212.138 338.817 211.983C338.934 211.944 339.031 211.905 339.148 211.866C339.848 206.546 338.817 200.974 336.094 196.022Z" fill="#FFA412"/>
<path d="M312.517 217.478C312.03 216.992 311.602 216.293 311.252 215.42L306.564 217.323C306.564 217.594 306.564 217.886 306.583 218.157C306.622 218.157 306.661 218.157 306.681 218.157C306.759 218.157 306.817 218.157 306.895 218.157C306.992 218.157 307.089 218.157 307.186 218.157C309.112 218.099 310.999 218.002 312.886 217.847C312.75 217.711 312.633 217.594 312.517 217.478ZM312.517 217.478C312.03 216.992 311.602 216.293 311.252 215.42L306.564 217.323C306.564 217.594 306.564 217.886 306.583 218.157C306.622 218.157 306.661 218.157 306.681 218.157C306.759 218.157 306.817 218.157 306.895 218.157C306.992 218.157 307.089 218.157 307.186 218.157C309.112 218.099 310.999 218.002 312.886 217.847C312.75 217.711 312.633 217.594 312.517 217.478ZM312.517 217.478C312.03 216.992 311.602 216.293 311.252 215.42L306.564 217.323C306.564 217.594 306.564 217.886 306.583 218.157C306.622 218.157 306.661 218.157 306.681 218.157C306.759 218.157 306.817 218.157 306.895 218.157C306.992 218.157 307.089 218.157 307.186 218.157C309.112 218.099 310.999 218.002 312.886 217.847C312.75 217.711 312.633 217.594 312.517 217.478ZM312.517 217.478C312.03 216.992 311.602 216.293 311.252 215.42L306.564 217.323C306.564 217.594 306.564 217.886 306.583 218.157C306.622 218.157 306.661 218.157 306.681 218.157C306.759 218.157 306.817 218.157 306.895 218.157C306.992 218.157 307.089 218.157 307.186 218.157C309.112 218.099 310.999 218.002 312.886 217.847C312.75 217.711 312.633 217.594 312.517 217.478ZM312.517 217.478C312.03 216.992 311.602 216.293 311.252 215.42L306.564 217.323C306.564 217.594 306.564 217.886 306.583 218.157C306.622 218.157 306.661 218.157 306.681 218.157C306.759 218.157 306.817 218.157 306.895 218.157C306.992 218.157 307.089 218.157 307.186 218.157C309.112 218.099 310.999 218.002 312.886 217.847C312.75 217.711 312.633 217.594 312.517 217.478ZM312.517 217.478C312.03 216.992 311.602 216.293 311.252 215.42L306.564 217.323C306.564 217.594 306.564 217.886 306.583 218.157C306.622 218.157 306.661 218.157 306.681 218.157C306.759 218.157 306.817 218.157 306.895 218.157C306.992 218.157 307.089 218.157 307.186 218.157C309.112 218.099 310.999 218.002 312.886 217.847C312.75 217.711 312.633 217.594 312.517 217.478ZM326.29 212.41C326.193 211.964 326.037 211.517 325.862 211.07C325.706 210.701 325.551 210.371 325.376 210.041C325.22 209.75 325.045 209.498 324.87 209.245C324.85 209.226 324.85 209.206 324.831 209.187C324.559 208.818 324.267 208.488 323.955 208.197C323.955 208.197 323.955 208.197 323.936 208.177C323.644 207.906 323.313 207.653 322.983 207.44C322.691 207.245 322.38 207.09 322.068 206.935C321.796 206.799 321.504 206.682 321.212 206.585C321.154 206.566 321.096 206.546 321.037 206.527C320.94 206.488 320.862 206.469 320.765 206.449C320.726 206.43 320.687 206.43 320.668 206.43C319.812 206.177 318.878 206.022 317.866 205.964C317.828 205.964 317.789 205.964 317.75 205.964C317.497 205.944 317.225 205.944 316.952 205.925C315.902 205.886 314.773 205.886 313.587 205.906C313.081 205.925 312.595 205.925 312.167 205.906C311.836 205.906 311.525 205.886 311.252 205.847C311.233 205.847 311.213 205.847 311.194 205.847C310.532 205.789 309.968 205.673 309.521 205.478C309.054 205.284 308.684 205.032 308.412 204.721C308.12 204.411 307.887 204.003 307.692 203.556C307.673 203.517 307.653 203.459 307.634 203.42C307.478 203.013 307.4 202.605 307.362 202.197C307.342 201.964 307.362 201.731 307.4 201.498C307.439 201.304 307.498 201.09 307.576 200.896C307.731 200.488 308.004 200.119 308.373 199.77C308.568 199.595 308.801 199.421 309.073 199.265C309.307 199.129 309.56 198.993 309.852 198.896C310.338 198.702 310.805 198.586 311.272 198.566C311.583 198.547 311.894 198.586 312.186 198.644C312.458 198.702 312.711 198.799 312.984 198.916C313.956 199.382 314.734 200.372 315.338 201.867L316.972 201.207L317.886 200.838L320.687 199.712L321.174 199.518C321.018 199.149 320.862 198.799 320.687 198.469V198.372C320.512 198.061 320.337 197.848 320.162 197.557C320.162 197.557 320.162 197.537 320.143 197.537C320.084 197.459 320.045 197.382 319.987 197.304C319.753 196.974 319.52 196.663 319.267 196.372C319.189 196.294 319.112 196.197 319.034 196.12C318.742 195.809 318.431 195.537 318.119 195.285C317.789 195.032 317.439 194.799 317.088 194.586C316.952 194.508 316.816 194.43 316.68 194.372C316.505 194.295 316.33 194.217 316.155 194.139C315.727 193.964 315.299 193.829 314.851 193.731C314.618 193.673 314.365 193.634 314.112 193.596C313.917 193.576 313.723 193.557 313.528 193.537C313.451 193.537 313.392 193.537 313.314 193.518C313.275 193.518 313.237 193.518 313.178 193.518C312.478 193.498 311.739 193.537 310.999 193.673C310.688 193.731 310.396 193.79 310.085 193.867C310.066 193.867 310.027 193.887 310.007 193.887L309.813 193.401L308.879 191.13L308.354 189.829L307.284 190.256L306.369 190.625L305.124 191.13L306.369 194.178L306.447 194.392L306.758 195.129C306.622 195.207 306.486 195.265 306.369 195.343C305.961 195.576 305.572 195.809 305.222 196.061C304.696 196.43 304.23 196.819 303.802 197.246C303.704 197.343 303.626 197.421 303.529 197.518C303.529 197.518 303.51 197.518 303.51 197.537C302.829 198.256 302.304 199.032 301.915 199.848C301.72 200.255 301.564 200.683 301.448 201.129C301.311 201.673 301.234 202.216 301.214 202.78C301.195 203.809 301.389 204.838 301.837 205.906C301.915 206.1 301.992 206.275 302.09 206.469C302.304 206.915 302.537 207.323 302.79 207.692C302.868 207.789 302.926 207.906 303.004 207.983C303.218 208.255 303.432 208.507 303.665 208.721L303.743 208.799C304.016 209.051 304.307 209.284 304.619 209.498C304.91 209.692 305.222 209.867 305.533 210.022C305.825 210.158 306.136 210.294 306.467 210.391C307.148 210.624 307.887 210.799 308.684 210.896C309.093 210.954 309.501 210.993 309.929 211.012C310.046 211.012 310.182 211.032 310.299 211.032C310.591 211.051 310.902 211.051 311.213 211.051C312.108 211.07 313.023 211.051 314.015 211.012C314.034 211.012 314.073 211.012 314.092 211.012C314.384 210.993 314.657 210.993 314.929 210.973C315.454 210.973 315.941 210.973 316.369 211.012C316.641 211.032 316.874 211.07 317.108 211.109C317.439 211.168 317.75 211.265 318.022 211.381C318.489 211.575 318.878 211.828 319.189 212.177C319.501 212.507 319.753 212.954 319.967 213.478C319.987 213.536 320.026 213.556 320.045 213.595V213.692C320.181 214.08 320.24 214.468 320.24 214.857C320.24 215.031 320.22 215.206 320.181 215.381C320.123 215.653 320.045 215.905 319.909 216.158C319.753 216.488 319.52 216.798 319.228 217.09C321.524 216.74 323.8 216.332 326.056 215.827C326.095 215.827 326.134 215.808 326.173 215.808C326.212 215.653 326.251 215.497 326.27 215.342C326.329 214.993 326.368 214.624 326.387 214.274C326.504 213.653 326.446 213.031 326.29 212.41ZM312.517 217.478C312.03 216.992 311.602 216.293 311.252 215.42L306.564 217.323C306.564 217.594 306.564 217.886 306.583 218.157C306.622 218.157 306.661 218.157 306.681 218.157C306.759 218.157 306.817 218.157 306.895 218.157C306.992 218.157 307.089 218.157 307.186 218.157C309.112 218.099 310.999 218.002 312.886 217.847C312.75 217.711 312.633 217.594 312.517 217.478ZM312.517 217.478C312.03 216.992 311.602 216.293 311.252 215.42L306.564 217.323C306.564 217.594 306.564 217.886 306.583 218.157C306.622 218.157 306.661 218.157 306.681 218.157C306.759 218.157 306.817 218.157 306.895 218.157C306.992 218.157 307.089 218.157 307.186 218.157C309.112 218.099 310.999 218.002 312.886 217.847C312.75 217.711 312.633 217.594 312.517 217.478ZM312.517 217.478C312.03 216.992 311.602 216.293 311.252 215.42L306.564 217.323C306.564 217.594 306.564 217.886 306.583 218.157C306.622 218.157 306.661 218.157 306.681 218.157C306.759 218.157 306.817 218.157 306.895 218.157C306.992 218.157 307.089 218.157 307.186 218.157C309.112 218.099 310.999 218.002 312.886 217.847C312.75 217.711 312.633 217.594 312.517 217.478ZM312.517 217.478C312.03 216.992 311.602 216.293 311.252 215.42L306.564 217.323C306.564 217.594 306.564 217.886 306.583 218.157C306.622 218.157 306.661 218.157 306.681 218.157C306.759 218.157 306.817 218.157 306.895 218.157C306.992 218.157 307.089 218.157 307.186 218.157C309.112 218.099 310.999 218.002 312.886 217.847C312.75 217.711 312.633 217.594 312.517 217.478ZM312.517 217.478C312.03 216.992 311.602 216.293 311.252 215.42L306.564 217.323C306.564 217.594 306.564 217.886 306.583 218.157C306.622 218.157 306.661 218.157 306.681 218.157C306.759 218.157 306.817 218.157 306.895 218.157C306.992 218.157 307.089 218.157 307.186 218.157C309.112 218.099 310.999 218.002 312.886 217.847C312.75 217.711 312.633 217.594 312.517 217.478ZM312.517 217.478C312.03 216.992 311.602 216.293 311.252 215.42L306.564 217.323C306.564 217.594 306.564 217.886 306.583 218.157C306.622 218.157 306.661 218.157 306.681 218.157C306.759 218.157 306.817 218.157 306.895 218.157C306.992 218.157 307.089 218.157 307.186 218.157C309.112 218.099 310.999 218.002 312.886 217.847C312.75 217.711 312.633 217.594 312.517 217.478ZM312.517 217.478C312.03 216.992 311.602 216.293 311.252 215.42L306.564 217.323L305.436 217.789C305.494 217.924 305.552 218.06 305.611 218.177C305.708 218.177 305.805 218.177 305.903 218.177C306 218.177 306.097 218.177 306.194 218.177C306.331 218.177 306.467 218.177 306.603 218.177C306.642 218.177 306.681 218.177 306.7 218.177C306.778 218.177 306.836 218.177 306.914 218.177C307.011 218.177 307.109 218.177 307.206 218.177C309.132 218.119 311.019 218.022 312.906 217.866C312.75 217.711 312.633 217.594 312.517 217.478Z" fill="#FFA412"/>
</svg>
