<svg width="32" height="32" viewBox="0 0 32 32" fill="none" xmlns="http://www.w3.org/2000/svg">
<path opacity="0.14" d="M5.60039 2.40002H23.2004C24.084 2.40002 24.8004 3.11637 24.8004 4.00002H6.40039C5.51674 4.00002 4.80039 4.71637 4.80039 5.60002V28.8C3.47491 28.8 2.40039 27.7255 2.40039 26.4V5.60002C2.40039 3.83271 3.83308 2.40002 5.60039 2.40002Z" fill="#241F2D"/>
<path d="M30.4004 18.4C30.4004 22.8183 26.8187 26.4 22.4004 26.4C17.9821 26.4 14.4004 22.8183 14.4004 18.4C14.4004 13.9817 17.9821 10.4 22.4004 10.4C26.8187 10.4 30.4004 13.9817 30.4004 18.4Z" fill="#FF7870"/>
<path opacity="0.14" d="M24.7992 11.6096C24.0485 11.3443 23.2407 11.2 22.3992 11.2C18.4228 11.2 15.1992 14.4235 15.1992 18.4C15.1992 21.1863 16.782 23.603 19.0975 24.8H19.4401C18.2984 23.4405 17.5992 21.6115 17.5992 19.6C17.5992 15.4026 20.6437 12 24.3992 12C24.5335 12 24.6669 12.0043 24.7992 12.0129V11.6096Z" fill="#241F2D"/>
<path d="M7.19961 7.99998C7.19961 8.4418 7.55778 8.79998 7.99961 8.79998H19.9996C20.4414 8.79998 20.7996 8.4418 20.7996 7.99998C20.7996 7.55815 20.4414 7.19998 19.9996 7.19998H7.99961C7.55778 7.19998 7.19961 7.55815 7.19961 7.99998Z" fill="#1C103F"/>
<path d="M13.5996 12C13.5996 12.4418 13.2414 12.8 12.7996 12.8H7.99961C7.55778 12.8 7.19961 12.4418 7.19961 12C7.19961 11.5581 7.55778 11.2 7.99961 11.2H12.7996C13.2414 11.2 13.5996 11.5581 13.5996 12Z" fill="#1C103F"/>
<path d="M7.19961 16C7.19961 16.4418 7.55778 16.8 7.99961 16.8H11.1996C11.6414 16.8 11.9996 16.4418 11.9996 16C11.9996 15.5581 11.6414 15.2 11.1996 15.2H7.99961C7.55778 15.2 7.19961 15.5581 7.19961 16Z" fill="#1C103F"/>
<path d="M11.9996 20C11.9996 20.4418 11.6414 20.8 11.1996 20.8H7.99961C7.55778 20.8 7.19961 20.4418 7.19961 20C7.19961 19.5581 7.55778 19.2 7.99961 19.2H11.1996C11.6414 19.2 11.9996 19.5581 11.9996 20Z" fill="#1C103F"/>
<path d="M7.19961 24C7.19961 24.4418 7.55778 24.8 7.99961 24.8H12.7996C13.2414 24.8 13.5996 24.4418 13.5996 24C13.5996 23.5581 13.2414 23.2 12.7996 23.2H7.99961C7.55778 23.2 7.19961 23.5581 7.19961 24Z" fill="#1C103F"/>
<path d="M21.5996 12.8V14.0779C20.0823 14.3861 19.1996 15.5636 19.1996 16.8C19.1996 17.761 19.9652 18.3183 20.5047 18.6004C21.094 18.9084 21.7787 19.0863 22.234 19.1827C22.6094 19.2621 23.1275 19.4042 23.5326 19.614C23.7349 19.7188 23.8671 19.8193 23.9408 19.9017C23.975 19.9401 23.9892 19.9663 23.9946 19.979C23.9991 19.9894 23.9996 19.9944 23.9996 20C23.9996 20.4816 23.6023 21.2 22.3996 21.2C21.2993 21.2 20.848 20.3529 20.7632 20.0814L19.236 20.5586C19.3929 21.0607 20.0609 22.3655 21.5996 22.7136V24H23.1996V22.7225C24.7223 22.4148 25.5996 21.2357 25.5996 20C25.5996 19.0285 24.8021 18.4696 24.2684 18.1933C23.6742 17.8855 22.9923 17.7077 22.5652 17.6173C22.1558 17.5307 21.6405 17.3886 21.2459 17.1824C21.0496 17.0798 20.9246 16.9823 20.8562 16.9037C20.7991 16.8382 20.7995 16.8093 20.7996 16.8009L20.7996 16.8C20.7996 16.32 21.2023 15.6 22.3996 15.6C23.3481 15.6 23.6962 16.1887 24.0016 16.7053C24.0418 16.7732 24.0813 16.8401 24.1212 16.904L25.478 16.056C25.4609 16.0286 25.4391 15.9894 25.412 15.9406C25.1806 15.5241 24.5647 14.4154 23.1996 14.0906V12.8H21.5996Z" fill="#1C103F"/>
<path fill-rule="evenodd" clip-rule="evenodd" d="M1.59961 5.59998C1.59961 3.39084 3.39047 1.59998 5.59961 1.59998H22.3996C24.6087 1.59998 26.3996 3.39084 26.3996 5.59998V11.4702C28.7908 12.8535 30.3996 15.4388 30.3996 18.4C30.3996 21.3611 28.7908 23.9465 26.3996 25.3297V26.4C26.3996 28.6091 24.6087 30.4 22.3996 30.4H5.59961C3.39047 30.4 1.59961 28.6091 1.59961 26.4V5.59998ZM24.7996 5.59998V10.7662C24.042 10.5283 23.2358 10.4 22.3996 10.4C17.9813 10.4 14.3996 13.9817 14.3996 18.4C14.3996 22.8183 17.9813 26.4 22.3996 26.4C23.2358 26.4 24.042 26.2717 24.7996 26.0337V26.4C24.7996 27.7255 23.7251 28.8 22.3996 28.8H5.59961C4.27413 28.8 3.19961 27.7255 3.19961 26.4V5.59998C3.19961 4.27449 4.27413 3.19998 5.59961 3.19998H22.3996C23.7251 3.19998 24.7996 4.27449 24.7996 5.59998ZM22.3996 24.8C25.9342 24.8 28.7996 21.9346 28.7996 18.4C28.7996 14.8654 25.9342 12 22.3996 12C18.865 12 15.9996 14.8654 15.9996 18.4C15.9996 21.9346 18.865 24.8 22.3996 24.8Z" fill="#1C103F"/>
</svg>
