<svg width="32" height="32" viewBox="0 0 32 32" fill="none" xmlns="http://www.w3.org/2000/svg">
<path d="M3.20001 12.8C3.20001 16.7764 6.42356 20 10.4 20C14.3765 20 17.6 16.7764 17.6 12.8C17.6 8.82352 14.3765 5.59998 10.4 5.59998V12.8H3.20001Z" fill="#FF7870"/>
<path opacity="0.14" d="M13.6 6.80972C13.0905 6.62965 12.5548 6.5053 12 6.44397V14.4H4.04395C4.07396 14.6715 4.11907 14.9385 4.17841 15.2H13.6V6.80972Z" fill="#241F2D"/>
<g opacity="0.14">
<path d="M7.20001 20.8V26.4C7.20001 27.7255 8.27453 28.8 9.60001 28.8V20.8H7.20001Z" fill="#241F2D"/>
<path d="M10.4 2.40002C10.4 3.28368 11.1164 4.00002 12 4.00002H23.2V2.40002H10.4Z" fill="#241F2D"/>
</g>
<path fill-rule="evenodd" clip-rule="evenodd" d="M6.39998 26.4V21.6C6.39998 21.1581 6.75815 20.8 7.19998 20.8C7.6418 20.8 7.99998 21.1581 7.99998 21.6V26.4C7.99998 27.7255 9.07449 28.8 10.4 28.8H26.4C27.7255 28.8 28.8 27.7255 28.8 26.4V9.59998H24.8C23.4745 9.59998 22.4 8.52546 22.4 7.19998V3.19998H11.2C10.7581 3.19998 10.4 2.8418 10.4 2.39998C10.4 1.95815 10.7581 1.59998 11.2 1.59998H23.5313L30.4 8.4686V26.4C30.4 28.6091 28.6091 30.4 26.4 30.4H10.4C8.19084 30.4 6.39998 28.6091 6.39998 26.4ZM24 4.33135V7.19998C24 7.6418 24.3581 7.99998 24.8 7.99998H27.6686L24 4.33135Z" fill="#1C103F"/>
<path d="M24.8 16C24.8 16.4418 24.4418 16.8 24 16.8H21.6C21.1581 16.8 20.8 16.4418 20.8 16C20.8 15.5581 21.1581 15.2 21.6 15.2H24C24.4418 15.2 24.8 15.5581 24.8 16Z" fill="#1C103F"/>
<path d="M20.8 12.8C20.8 13.2418 21.1581 13.6 21.6 13.6H25.6C26.0418 13.6 26.4 13.2418 26.4 12.8C26.4 12.3581 26.0418 12 25.6 12H21.6C21.1581 12 20.8 12.3581 20.8 12.8Z" fill="#1C103F"/>
<path d="M25.6 20.8C25.9124 21.1124 25.9124 21.6189 25.6 21.9313L20.5657 26.9657C20.2731 27.2582 19.8057 27.2794 19.4878 27.0145L15.2491 23.4823L12.3314 26.4C12.0189 26.7124 11.5124 26.7124 11.2 26.4C10.8876 26.0876 10.8876 25.581 11.2 25.2686L14.6343 21.8343C14.9269 21.5417 15.3943 21.5205 15.7121 21.7854L19.9509 25.3177L24.4686 20.8C24.781 20.4876 25.2876 20.4876 25.6 20.8Z" fill="#1C103F"/>
<path fill-rule="evenodd" clip-rule="evenodd" d="M1.77839 9.59998C2.38919 6.90817 4.50817 4.78919 7.19998 4.17839C7.71455 4.06162 8.25006 3.99998 8.79998 3.99998V11.2H1.59998C1.59998 10.6501 1.66162 10.1146 1.77839 9.59998ZM3.43188 9.59998C3.96944 7.79375 5.39375 6.36944 7.19998 5.83188V9.59998H3.43188Z" fill="#1C103F"/>
<path fill-rule="evenodd" clip-rule="evenodd" d="M12 5.77839C11.4854 5.66162 10.9499 5.59998 10.4 5.59998V12.8H3.19998C3.19998 13.3499 3.26162 13.8854 3.37839 14.4C4.10596 17.6064 6.97344 20 10.4 20C14.3764 20 17.6 16.7764 17.6 12.8C17.6 9.37344 15.2064 6.50596 12 5.77839ZM12 14.4H5.03188C5.72032 16.7132 7.86316 18.4 10.4 18.4C13.4928 18.4 16 15.8928 16 12.8C16 10.2632 14.3132 8.12032 12 7.43188V14.4Z" fill="#1C103F"/>
</svg>
