<svg width="32" height="32" viewBox="0 0 32 32" fill="none" xmlns="http://www.w3.org/2000/svg">
<path d="M5.60039 7.19995C3.83308 7.19995 2.40039 8.63264 2.40039 10.4V13.6C2.40039 13.6 7.43684 15.4886 13.6004 15.9151V15.5428C13.6004 14.9116 14.1376 14.4 14.8004 14.4H17.2004C17.8631 14.4 18.4004 14.9116 18.4004 15.5428V15.9151C24.5639 15.4886 29.6004 13.6 29.6004 13.6V10.4C29.6004 8.63264 28.1677 7.19995 26.4004 7.19995H5.60039Z" fill="#FF7870"/>
<path opacity="0.14" d="M5.60039 7.19995H27.2004C28.084 7.19995 28.8004 7.9163 28.8004 8.79995H6.40039C5.51674 8.79995 4.80039 9.5163 4.80039 10.4V28C3.47491 28 2.40039 26.9254 2.40039 25.6V10.4C2.40039 8.63264 3.83308 7.19995 5.60039 7.19995Z" fill="#241F2D"/>
<path fill-rule="evenodd" clip-rule="evenodd" d="M11.9996 2.40002C10.6741 2.40002 9.59961 3.47454 9.59961 4.80002V6.40002H5.59961C3.39047 6.40002 1.59961 8.19088 1.59961 10.4V25.6C1.59961 27.8092 3.39047 29.6 5.59961 29.6H26.3996C28.6087 29.6 30.3996 27.8092 30.3996 25.6V10.4C30.3996 8.19089 28.6087 6.40002 26.3996 6.40002H22.3996V4.80002C22.3996 3.47454 21.3251 2.40002 19.9996 2.40002H11.9996ZM20.7996 6.40002V4.80002C20.7996 4.3582 20.4414 4.00002 19.9996 4.00002H11.9996C11.5578 4.00002 11.1996 4.3582 11.1996 4.80002V6.40002H20.7996ZM3.19961 10.4C3.19961 9.07454 4.27413 8.00002 5.59961 8.00002H26.3996C27.7251 8.00002 28.7996 9.07454 28.7996 10.4V13.0667C28.6672 13.1099 28.5156 13.1583 28.3459 13.2111C27.6374 13.4316 26.6159 13.7265 25.3721 14.0216C23.6494 14.4304 21.5106 14.8371 19.1926 15.0493C19.1166 14.2363 18.4324 13.6 17.5996 13.6H14.3996C13.5668 13.6 12.8826 14.2363 12.8066 15.0493C10.4886 14.8371 8.34984 14.4304 6.62716 14.0216C5.38331 13.7265 4.36184 13.4316 3.65333 13.2111C3.48365 13.1583 3.33199 13.1099 3.19961 13.0667V10.4ZM12.7996 16.6551C10.3306 16.4377 8.06382 16.007 6.25776 15.5784C4.98551 15.2765 3.93649 14.9744 3.19961 14.7456V25.6C3.19961 26.9255 4.27413 28 5.59961 28H26.3996C27.7251 28 28.7996 26.9255 28.7996 25.6V14.7456C28.0627 14.9744 27.0137 15.2765 25.7415 15.5784C23.9354 16.007 21.6686 16.4377 19.1996 16.655V16.8C19.1996 18.1255 18.1251 19.2 16.7996 19.2H15.1996C13.8741 19.2 12.7996 18.1255 12.7996 16.8V16.6551ZM14.3996 15.2H17.5996V16.8C17.5996 17.2419 17.2414 17.6 16.7996 17.6H15.1996C14.7578 17.6 14.3996 17.2419 14.3996 16.8V15.2Z" fill="#1C103F"/>
</svg>
