<svg width="48" height="48" viewBox="0 0 48 48" fill="none" xmlns="http://www.w3.org/2000/svg">
<rect width="48" height="48" rx="24" fill="#766D98"/>
<path d="M29.7099 23.29C29.617 23.1963 29.5064 23.1219 29.3845 23.0711C29.2627 23.0203 29.132 22.9942 28.9999 22.9942C28.8679 22.9942 28.7372 23.0203 28.6154 23.0711C28.4935 23.1219 28.3829 23.1963 28.2899 23.29L24.9999 26.59V19C24.9999 18.7348 24.8946 18.4804 24.707 18.2929C24.5195 18.1054 24.2652 18 23.9999 18C23.7347 18 23.4804 18.1054 23.2928 18.2929C23.1053 18.4804 22.9999 18.7348 22.9999 19V26.59L19.7099 23.29C19.5216 23.1017 19.2662 22.9959 18.9999 22.9959C18.7336 22.9959 18.4782 23.1017 18.2899 23.29C18.1016 23.4783 17.9958 23.7337 17.9958 24C17.9958 24.2663 18.1016 24.5217 18.2899 24.71L23.2899 29.71C23.385 29.801 23.4972 29.8724 23.6199 29.92C23.7396 29.9729 23.8691 30.0002 23.9999 30.0002C24.1308 30.0002 24.2602 29.9729 24.3799 29.92C24.5027 29.8724 24.6148 29.801 24.7099 29.71L29.7099 24.71C29.8037 24.617 29.8781 24.5064 29.9288 24.3846C29.9796 24.2627 30.0057 24.132 30.0057 24C30.0057 23.868 29.9796 23.7373 29.9288 23.6154C29.8781 23.4936 29.8037 23.383 29.7099 23.29Z" fill="white"/>
</svg>
