<svg width="32" height="32" viewBox="0 0 32 32" fill="none" xmlns="http://www.w3.org/2000/svg">
<path d="M8.80078 5.59998H8.00078C6.23347 5.59998 4.80078 7.03266 4.80078 8.79998V26.4C4.80078 28.1673 6.23347 29.6 8.00078 29.6H19.2008C20.9681 29.6 22.4008 28.1673 22.4008 26.4H12.0008C10.2335 26.4 8.80078 24.9673 8.80078 23.2V5.59998Z" fill="#FF7870"/>
<path opacity="0.14" d="M8.00078 5.59998H9.60078V7.19998H8.80078C7.91713 7.19998 7.20078 7.91632 7.20078 8.79998V28.8C5.8753 28.8 4.80078 27.7255 4.80078 26.4V8.79998C4.80078 7.03266 6.23347 5.59998 8.00078 5.59998Z" fill="#241F2D"/>
<path opacity="0.14" d="M12.0008 2.40002H20.8008V4.00002H12.8008C11.9171 4.00002 11.2008 4.71637 11.2008 5.60002V25.6C9.8753 25.6 8.80078 24.5255 8.80078 23.2V5.60002C8.80078 3.83271 10.2335 2.40002 12.0008 2.40002Z" fill="#241F2D"/>
<path d="M22.4 15.2C22.7535 15.4651 22.8251 15.9665 22.56 16.32L18.24 22.08C17.9749 22.4334 17.4735 22.5051 17.12 22.24L14.56 20.32C14.2065 20.0549 14.1349 19.5534 14.4 19.2C14.6651 18.8465 15.1665 18.7749 15.52 19.04L17.44 20.48L21.28 15.36C21.5451 15.0065 22.0465 14.9349 22.4 15.2Z" fill="#1C103F"/>
<path d="M12 11.2C12 11.6418 12.3582 12 12.8 12H16.8C17.2418 12 17.6 11.6418 17.6 11.2C17.6 10.7581 17.2418 10.4 16.8 10.4H12.8C12.3582 10.4 12 10.7581 12 11.2Z" fill="#1C103F"/>
<path d="M17.6 14.4C17.6 14.8418 17.2418 15.2 16.8 15.2H12.8C12.3582 15.2 12 14.8418 12 14.4C12 13.9581 12.3582 13.6 12.8 13.6H16.8C17.2418 13.6 17.6 13.9581 17.6 14.4Z" fill="#1C103F"/>
<path d="M12 7.99998C12 8.4418 12.3582 8.79998 12.8 8.79998H16.8C17.2418 8.79998 17.6 8.4418 17.6 7.99998C17.6 7.55815 17.2418 7.19998 16.8 7.19998H12.8C12.3582 7.19998 12 7.55815 12 7.99998Z" fill="#1C103F"/>
<path fill-rule="evenodd" clip-rule="evenodd" d="M19.2 30.4C21.1352 30.4 22.7494 29.0258 23.12 27.2H24C26.2091 27.2 28 25.4091 28 23.2V8.4686L21.1314 1.59998H12C10.0648 1.59998 8.45063 2.97418 8.08001 4.79998H8C5.79086 4.79998 4 6.59084 4 8.79998V26.4C4 28.6091 5.79086 30.4 8 30.4H19.2ZM5.6 8.79998C5.6 7.47449 6.67452 6.39998 8 6.39998V23.2C8 25.4091 9.79086 27.2 12 27.2H21.4634C21.134 28.1321 20.245 28.8 19.2 28.8H8C6.67452 28.8 5.6 27.7255 5.6 26.4V8.79998ZM12 3.19998C10.6745 3.19998 9.6 4.27449 9.6 5.59998V23.2C9.6 24.5255 10.6745 25.6 12 25.6H24C25.3255 25.6 26.4 24.5255 26.4 23.2V9.59998H22.4C21.0745 9.59998 20 8.52546 20 7.19998V3.19998H12ZM21.6 4.33135V7.19998C21.6 7.6418 21.9582 7.99998 22.4 7.99998H25.2686L21.6 4.33135Z" fill="#1C103F"/>
</svg>
