<svg width="40" height="40" viewBox="0 0 40 40" fill="none" xmlns="http://www.w3.org/2000/svg">
<path opacity="0.14" d="M14 10C11.7909 10 10 11.7909 10 14V26C10 27.8638 11.2748 29.4299 13 29.874V14.6C13 13.1641 14.1641 12 15.6 12H29.4649C28.7733 10.8044 27.4806 10 26 10H14Z" fill="#241F2D"/>
<path d="M18 36C18 34.8954 18.8954 34 20 34C21.1046 34 22 34.8954 22 36C22 37.1046 21.1046 38 20 38C18.8954 38 18 37.1046 18 36Z" fill="#FF7870"/>
<path d="M4 18C5.10457 18 6 18.8954 6 20C6 21.1046 5.10457 22 4 22C2.89543 22 2 21.1046 2 20C2 18.8954 2.89543 18 4 18Z" fill="#FF7870"/>
<path d="M22 4C22 5.10457 21.1046 6 20 6C18.8954 6 18 5.10457 18 4C18 2.89543 18.8954 2 20 2C21.1046 2 22 2.89543 22 4Z" fill="#FF7870"/>
<path d="M36 22C34.8954 22 34 21.1046 34 20C34 18.8954 34.8954 18 36 18C37.1046 18 38 18.8954 38 20C38 21.1046 37.1046 22 36 22Z" fill="#FF7870"/>
<path d="M23 20C23 21.6569 21.6569 23 20 23C18.3431 23 17 21.6569 17 20C17 18.3431 18.3431 17 20 17C21.6569 17 23 18.3431 23 20Z" fill="#FF7870"/>
<path fill-rule="evenodd" clip-rule="evenodd" d="M22.8541 17.1975C22.3525 16.6867 21.7149 16.31 21 16.126V14.5C21 14.2239 20.7761 14 20.5 14H19.5C19.2239 14 19 14.2239 19 14.5V16.126C18.285 16.31 17.6475 16.6867 17.1459 17.1975L15.7369 16.384C15.4977 16.2459 15.1919 16.3278 15.0538 16.567L14.5538 17.433C14.4158 17.6722 14.4977 17.978 14.7369 18.116L16.145 18.929C16.0505 19.2699 16 19.629 16 20C16 20.371 16.0505 20.7301 16.145 21.071L14.7369 21.884C14.4977 22.022 14.4158 22.3278 14.5539 22.567L15.0539 23.433C15.1919 23.6722 15.4977 23.7541 15.7369 23.616L17.1459 22.8025C17.6475 23.3133 18.285 23.69 19 23.874V25.5C19 25.7761 19.2239 26 19.5 26H20.5C20.7761 26 21 25.7761 21 25.5V23.874C21.7149 23.69 22.3525 23.3133 22.8541 22.8025L24.2631 23.616C24.5023 23.7541 24.8081 23.6722 24.9461 23.433L25.4461 22.567C25.5842 22.3278 25.5023 22.022 25.2631 21.884L23.855 21.071C23.9495 20.7301 24 20.371 24 20C24 19.629 23.9495 19.2699 23.855 18.929L25.2631 18.116C25.5023 17.978 25.5842 17.6722 25.4462 17.433L24.9462 16.567C24.8081 16.3278 24.5023 16.2459 24.2631 16.384L22.8541 17.1975ZM20 22C21.1046 22 22 21.1046 22 20C22 18.8954 21.1046 18 20 18C18.8954 18 18 18.8954 18 20C18 21.1046 18.8954 22 20 22Z" fill="#1C103F"/>
<path fill-rule="evenodd" clip-rule="evenodd" d="M20 1C18.3431 1 17 2.34315 17 4C17 5.30622 17.8348 6.41746 19 6.82929V9H14V7.73244C14.5978 7.38663 15 6.74028 15 6C15 4.89543 14.1046 4 13 4C11.8954 4 11 4.89543 11 6C11 6.74028 11.4022 7.38663 12 7.73244V9.41604C10.8466 9.92 9.92 10.8466 9.41604 12H7.73244C7.38663 11.4022 6.74028 11 6 11C4.89543 11 4 11.8954 4 13C4 14.1046 4.89543 15 6 15C6.74028 15 7.38663 14.5978 7.73244 14H9V19H6.82929C6.41746 17.8348 5.30622 17 4 17C2.34315 17 1 18.3431 1 20C1 21.6569 2.34315 23 4 23C5.30622 23 6.41746 22.1652 6.82929 21H9V26H7.73244C7.38663 25.4022 6.74028 25 6 25C4.89543 25 4 25.8954 4 27C4 28.1046 4.89543 29 6 29C6.74028 29 7.38663 28.5978 7.73244 28H9.41604C9.92 29.1534 10.8466 30.08 12 30.584V32.2676C11.4022 32.6134 11 33.2597 11 34C11 35.1046 11.8954 36 13 36C14.1046 36 15 35.1046 15 34C15 33.2597 14.5978 32.6134 14 32.2676V31H19V33.1707C17.8348 33.5825 17 34.6938 17 36C17 37.6569 18.3431 39 20 39C21.6569 39 23 37.6569 23 36C23 34.6938 22.1652 33.5825 21 33.1707V31H26V32.2676C25.4022 32.6134 25 33.2597 25 34C25 35.1046 25.8954 36 27 36C28.1046 36 29 35.1046 29 34C29 33.2597 28.5978 32.6134 28 32.2676V30.584C29.1534 30.08 30.08 29.1534 30.584 28H32.2676C32.6134 28.5978 33.2597 29 34 29C35.1046 29 36 28.1046 36 27C36 25.8954 35.1046 25 34 25C33.2597 25 32.6134 25.4022 32.2676 26H31V21H33.1707C33.5825 22.1652 34.6938 23 36 23C37.6569 23 39 21.6569 39 20C39 18.3431 37.6569 17 36 17C34.6938 17 33.5825 17.8348 33.1707 19H31V14H32.2676C32.6134 14.5978 33.2597 15 34 15C35.1046 15 36 14.1046 36 13C36 11.8954 35.1046 11 34 11C33.2597 11 32.6134 11.4022 32.2676 12H30.584C30.08 10.8466 29.1534 9.92 28 9.41604V7.73244C28.5978 7.38663 29 6.74028 29 6C29 4.89543 28.1046 4 27 4C25.8954 4 25 4.89543 25 6C25 6.74028 25.4022 7.38663 26 7.73244V9H21V6.82929C22.1652 6.41746 23 5.30622 23 4C23 2.34315 21.6569 1 20 1ZM19 4C19 3.44772 19.4477 3 20 3C20.5523 3 21 3.44772 21 4C21 4.55228 20.5523 5 20 5C19.4477 5 19 4.55228 19 4ZM21 36C21 36.5523 20.5523 37 20 37C19.4477 37 19 36.5523 19 36C19 35.4477 19.4477 35 20 35C20.5523 35 21 35.4477 21 36ZM4 21C3.44772 21 3 20.5523 3 20C3 19.4477 3.44772 19 4 19C4.55228 19 5 19.4477 5 20C5 20.5523 4.55228 21 4 21ZM36 19C36.5523 19 37 19.4477 37 20C37 20.5523 36.5523 21 36 21C35.4477 21 35 20.5523 35 20C35 19.4477 35.4477 19 36 19ZM14 11C12.3431 11 11 12.3431 11 14V26C11 27.6569 12.3431 29 14 29H26C27.6569 29 29 27.6569 29 26V14C29 12.3431 27.6569 11 26 11H14Z" fill="#1C103F"/>
</svg>
