<svg width="40" height="40" viewBox="0 0 40 40" fill="none" xmlns="http://www.w3.org/2000/svg">
<path opacity="0.14" d="M22.5784 8.85795C20.9358 7.09935 18.5963 6 16 6C11.0294 6 7 10.0294 7 15C7 19.6416 10.5138 23.4626 15.0265 23.948C14.689 23.9824 14.3466 24 14 24C8.47715 24 4 19.5228 4 14C4 8.47715 8.47715 4 14 4C17.6425 4 20.8301 5.94745 22.5784 8.85795Z" fill="#241F2D"/>
<path d="M16 9C16 10.1046 15.1046 11 14 11C12.8954 11 12 10.1046 12 9C12 7.89543 12.8954 7 14 7C15.1046 7 16 7.89543 16 9Z" fill="#FF7870"/>
<path d="M10 18.2374C10 17.4178 10.1095 16.5834 10.57 15.9054C11.1522 15.0482 12.2267 14 14 14C15.7733 14 16.8478 15.0482 17.43 15.9054C17.8905 16.5834 18 17.4178 18 18.2374C18 18.6586 17.6586 19 17.2374 19H10.7626C10.3414 19 10 18.6586 10 18.2374Z" fill="#FF7870"/>
<path fill-rule="evenodd" clip-rule="evenodd" d="M11 9C11 7.34315 12.3431 6 14 6C15.6569 6 17 7.34315 17 9C17 10.6569 15.6569 12 14 12C12.3431 12 11 10.6569 11 9ZM14 8C13.4477 8 13 8.44772 13 9C13 9.55228 13.4477 10 14 10C14.5523 10 15 9.55228 15 9C15 8.44772 14.5523 8 14 8Z" fill="#1C103F"/>
<path fill-rule="evenodd" clip-rule="evenodd" d="M14 13C11.7673 13 10.4252 14.3387 9.74277 15.3435C9.11124 16.2733 9 17.3557 9 18.2374C9 19.2109 9.78912 20 10.7626 20H17.2374C18.2109 20 19 19.2109 19 18.2374C19 17.3557 18.8888 16.2733 18.2572 15.3435C17.5748 14.3387 16.2327 13 14 13ZM11.3972 16.4672C11.8792 15.7576 12.6862 15 14 15C15.3138 15 16.1208 15.7576 16.6028 16.4672C16.8613 16.8478 16.9748 17.3562 16.9962 18H11.0038C11.0252 17.3562 11.1387 16.8478 11.3972 16.4672Z" fill="#1C103F"/>
<path fill-rule="evenodd" clip-rule="evenodd" d="M23.6671 19.2529C24.5171 17.692 25 15.9024 25 14C25 7.92487 20.0751 3 14 3C7.92487 3 3 7.92487 3 14C3 20.0751 7.92487 25 14 25C15.9024 25 17.692 24.5171 19.2529 23.6671L22.906 27.3202C22.6802 28.2953 22.9472 29.3614 23.7071 30.1213L28.7929 35.2071C30.5641 36.9783 33.4359 36.9783 35.2071 35.2071C36.9783 33.4359 36.9783 30.5641 35.2071 28.7929L30.1213 23.7071C29.3614 22.9472 28.2954 22.6802 27.3203 22.906L23.6671 19.2529ZM14 23C18.9706 23 23 18.9706 23 14C23 9.02944 18.9706 5 14 5C9.02944 5 5 9.02944 5 14C5 18.9706 9.02944 23 14 23ZM22.5308 20.945C22.0574 21.5258 21.5258 22.0574 20.945 22.5308L24 25.5858L25.5858 24L22.5308 20.945ZM28.7071 25.1213C28.3166 24.7308 27.6834 24.7308 27.2929 25.1213L25.1213 27.2929C24.7308 27.6834 24.7308 28.3166 25.1213 28.7071L30.2071 33.7929C31.1973 34.7831 32.8027 34.7831 33.7929 33.7929C34.7831 32.8027 34.7831 31.1973 33.7929 30.2071L28.7071 25.1213Z" fill="#1C103F"/>
<path d="M23 6C23 5.44772 23.4477 5 24 5H30C32.7614 5 35 7.23858 35 10V24C35 24.5523 34.5523 25 34 25C33.4477 25 33 24.5523 33 24V10C33 8.34315 31.6569 7 30 7H24C23.4477 7 23 6.55228 23 6Z" fill="#1C103F"/>
<path d="M6 23C6.55228 23 7 23.4477 7 24V30C7 31.6569 8.34315 33 10 33H24C24.5523 33 25 33.4477 25 34C25 34.5523 24.5523 35 24 35H10C7.23858 35 5 32.7614 5 30V24C5 23.4477 5.44772 23 6 23Z" fill="#1C103F"/>
<path d="M26.5 11C26.5 10.4477 26.9477 10 27.5 10H30C30.5523 10 31 10.4477 31 11C31 11.5523 30.5523 12 30 12H27.5C26.9477 12 26.5 11.5523 26.5 11Z" fill="#1C103F"/>
<path d="M27.5 14C26.9477 14 26.5 14.4477 26.5 15C26.5 15.5523 26.9477 16 27.5 16H30C30.5523 16 31 15.5523 31 15C31 14.4477 30.5523 14 30 14H27.5Z" fill="#1C103F"/>
<path d="M26.5 19C26.5 18.4477 26.9477 18 27.5 18H30C30.5523 18 31 18.4477 31 19C31 19.5523 30.5523 20 30 20H27.5C26.9477 20 26.5 19.5523 26.5 19Z" fill="#1C103F"/>
<path d="M10 28C9.44772 28 9 28.4477 9 29C9 29.5523 9.44772 30 10 30H19C19.5523 30 20 29.5523 20 29C20 28.4477 19.5523 28 19 28H10Z" fill="#1C103F"/>
</svg>
