<svg width="40" height="40" viewBox="0 0 40 40" fill="none" xmlns="http://www.w3.org/2000/svg">
<path opacity="0.14" d="M7 4C4.79086 4 3 5.79086 3 8V32C3 33.8638 4.27477 35.4299 6 35.874V8C6 6.89543 6.89543 6 8 6H36.4649C35.7733 4.8044 34.4806 4 33 4H7Z" fill="#241F2D"/>
<path d="M8 26C8 25.4477 8.44772 25 9 25H22C22.5523 25 23 25.4477 23 26V29C23 29.5523 22.5523 30 22 30H9C8.44772 30 8 29.5523 8 29V26Z" fill="#FF7870"/>
<path d="M2 8C2 5.23858 4.23858 3 7 3H33C35.7614 3 38 5.23858 38 8V24C38 24.5523 37.5523 25 37 25C36.4477 25 36 24.5523 36 24V8C36 6.34315 34.6569 5 33 5H7C5.34315 5 4 6.34315 4 8V32C4 33.6569 5.34315 35 7 35H24C24.5523 35 25 35.4477 25 36C25 36.5523 24.5523 37 24 37H7C4.23858 37 2 34.7614 2 32V8Z" fill="#1C103F"/>
<path fill-rule="evenodd" clip-rule="evenodd" d="M28.6402 21.2318C28.3421 20.9834 27.9272 20.9298 27.5758 21.0944C27.2245 21.259 27 21.612 27 22V34C27 34.4045 27.2436 34.7691 27.6173 34.9239C27.991 35.0787 28.4211 34.9931 28.7071 34.7071L30.226 33.1882L31.6584 36.0528C32.1523 37.0407 33.3537 37.4412 34.3416 36.9472L35.5528 36.3416C36.5407 35.8477 36.9412 34.6463 36.4472 33.6584L35.0149 30.7937L37.1414 30.4899C37.5326 30.4341 37.8542 30.1531 37.962 29.7729C38.0699 29.3928 37.9437 28.9847 37.6402 28.7318L28.6402 21.2318ZM29 31.5858V24.135L34.6318 28.8282L33.3586 29.01C33.0404 29.0555 32.7634 29.2512 32.6142 29.5359C32.465 29.8206 32.4618 30.1597 32.6056 30.4472L34.6584 34.5528L33.4472 35.1584L31.3944 31.0528C31.2507 30.7653 30.9775 30.5644 30.6602 30.5129C30.3429 30.4614 30.0202 30.5656 29.7929 30.7929L29 31.5858Z" fill="#1C103F"/>
<path fill-rule="evenodd" clip-rule="evenodd" d="M9 24C7.89543 24 7 24.8954 7 26V29C7 30.1046 7.89543 31 9 31H22C23.1046 31 24 30.1046 24 29V26C24 24.8954 23.1046 24 22 24H9ZM9 26H22V29H9V26Z" fill="#1C103F"/>
<path d="M7 13C7 12.4477 7.44772 12 8 12H32C32.5523 12 33 12.4477 33 13C33 13.5523 32.5523 14 32 14H8C7.44772 14 7 13.5523 7 13Z" fill="#1C103F"/>
<path d="M8 16C7.44772 16 7 16.4477 7 17C7 17.5523 7.44772 18 8 18H32C32.5523 18 33 17.5523 33 17C33 16.4477 32.5523 16 32 16H8Z" fill="#1C103F"/>
<path d="M7 21C7 20.4477 7.44772 20 8 20H23C23.5523 20 24 20.4477 24 21C24 21.5523 23.5523 22 23 22H8C7.44772 22 7 21.5523 7 21Z" fill="#1C103F"/>
<path d="M14 8C13.4477 8 13 8.44772 13 9C13 9.55228 13.4477 10 14 10H26C26.5523 10 27 9.55228 27 9C27 8.44772 26.5523 8 26 8H14Z" fill="#1C103F"/>
</svg>
