<svg width="32" height="32" viewBox="0 0 32 32" fill="none" xmlns="http://www.w3.org/2000/svg">
<path opacity="0.14" d="M18.062 7.08631C16.7479 5.67943 14.8762 4.79995 12.7992 4.79995C8.82277 4.79995 5.59922 8.0235 5.59922 12C5.59922 15.7133 8.41025 18.77 12.0204 19.1583C11.7504 19.1858 11.4765 19.2 11.1992 19.2C6.78094 19.2 3.19922 15.6182 3.19922 11.2C3.19922 6.78167 6.78094 3.19995 11.1992 3.19995C14.1132 3.19995 16.6633 4.75791 18.062 7.08631Z" fill="#241F2D"/>
<path d="M12.7996 7.19998C12.7996 8.08363 12.0833 8.79998 11.1996 8.79998C10.316 8.79998 9.59961 8.08363 9.59961 7.19998C9.59961 6.31632 10.316 5.59998 11.1996 5.59998C12.0833 5.59998 12.7996 6.31632 12.7996 7.19998Z" fill="#FF7870"/>
<path d="M8 14.5899C8 13.9342 8.08759 13.2666 8.456 12.7242C8.92179 12.0385 9.78139 11.2 11.2 11.2C12.6186 11.2 13.4782 12.0385 13.944 12.7242C14.3124 13.2666 14.4 13.9342 14.4 14.5899C14.4 14.9268 14.1269 15.2 13.79 15.2H8.61004C8.27312 15.2 8 14.9268 8 14.5899Z" fill="#FF7870"/>
<path fill-rule="evenodd" clip-rule="evenodd" d="M8.80039 7.20002C8.80039 5.87454 9.87491 4.80002 11.2004 4.80002C12.5259 4.80002 13.6004 5.87454 13.6004 7.20002C13.6004 8.52551 12.5259 9.60002 11.2004 9.60002C9.87491 9.60002 8.80039 8.52551 8.80039 7.20002ZM11.2004 6.40002C10.7586 6.40002 10.4004 6.7582 10.4004 7.20002C10.4004 7.64185 10.7586 8.00002 11.2004 8.00002C11.6422 8.00002 12.0004 7.64185 12.0004 7.20002C12.0004 6.7582 11.6422 6.40002 11.2004 6.40002Z" fill="#1C103F"/>
<path fill-rule="evenodd" clip-rule="evenodd" d="M11.2004 10.4C9.41422 10.4 8.34058 11.471 7.79461 12.2748C7.28938 13.0186 7.20039 13.8846 7.20039 14.59C7.20039 15.3687 7.83169 16 8.61043 16H13.7904C14.5691 16 15.2004 15.3687 15.2004 14.59C15.2004 13.8846 15.1114 13.0186 14.6062 12.2748C14.0602 11.471 12.9866 10.4 11.2004 10.4ZM9.11817 13.1738C9.50379 12.6061 10.1493 12 11.2004 12C12.2514 12 12.897 12.6061 13.2826 13.1738C13.4894 13.4783 13.5803 13.885 13.5974 14.4H8.80343C8.82051 13.885 8.91137 13.4783 9.11817 13.1738Z" fill="#1C103F"/>
<path fill-rule="evenodd" clip-rule="evenodd" d="M18.9341 15.4023C19.614 14.1536 20.0004 12.7219 20.0004 11.2C20.0004 6.33992 16.0605 2.40002 11.2004 2.40002C6.34028 2.40002 2.40039 6.33992 2.40039 11.2C2.40039 16.0601 6.34028 20 11.2004 20C12.7223 20 14.154 19.6137 15.4027 18.9337L18.3252 21.8562C18.1446 22.6363 18.3582 23.4892 18.9661 24.0971L23.0347 28.1657C24.4517 29.5827 26.7491 29.5827 28.1661 28.1657C29.5831 26.7487 29.5831 24.4513 28.1661 23.0343L24.0974 18.9657C23.4895 18.3578 22.6367 18.1442 21.8566 18.3249L18.9341 15.4023ZM11.2004 18.4C15.1768 18.4 18.4004 15.1765 18.4004 11.2C18.4004 7.22357 15.1768 4.00002 11.2004 4.00002C7.22394 4.00002 4.00039 7.22357 4.00039 11.2C4.00039 15.1765 7.22394 18.4 11.2004 18.4ZM18.025 16.756C17.6463 17.2207 17.2211 17.6459 16.7564 18.0247L19.2004 20.4687L20.469 19.2L18.025 16.756ZM22.9661 20.0971C22.6537 19.7847 22.1471 19.7847 21.8347 20.0971L20.0974 21.8343C19.785 22.1468 19.785 22.6533 20.0975 22.9657L24.1661 27.0343C24.9582 27.8265 26.2426 27.8265 27.0347 27.0343C27.8269 26.2422 27.8269 24.9579 27.0347 24.1657L22.9661 20.0971Z" fill="#1C103F"/>
<path d="M18.4004 4.80002C18.4004 4.3582 18.7586 4.00002 19.2004 4.00002H24.0004C26.2095 4.00002 28.0004 5.79089 28.0004 8.00002V19.2C28.0004 19.6419 27.6422 20 27.2004 20C26.7586 20 26.4004 19.6419 26.4004 19.2V8.00002C26.4004 6.67454 25.3259 5.60002 24.0004 5.60002H19.2004C18.7586 5.60002 18.4004 5.24185 18.4004 4.80002Z" fill="#1C103F"/>
<path d="M4.80039 18.4C5.24222 18.4 5.60039 18.7582 5.60039 19.2V24C5.60039 25.3255 6.67491 26.4 8.00039 26.4H19.2004C19.6422 26.4 20.0004 26.7582 20.0004 27.2C20.0004 27.6419 19.6422 28 19.2004 28H8.00039C5.79125 28 4.00039 26.2092 4.00039 24V19.2C4.00039 18.7582 4.35856 18.4 4.80039 18.4Z" fill="#1C103F"/>
<path d="M21.2004 8.80002C21.2004 8.3582 21.5586 8.00002 22.0004 8.00002H24.0004C24.4422 8.00002 24.8004 8.3582 24.8004 8.80002C24.8004 9.24185 24.4422 9.60002 24.0004 9.60002H22.0004C21.5586 9.60002 21.2004 9.24185 21.2004 8.80002Z" fill="#1C103F"/>
<path d="M22.0004 11.2C21.5586 11.2 21.2004 11.5582 21.2004 12C21.2004 12.4419 21.5586 12.8 22.0004 12.8H24.0004C24.4422 12.8 24.8004 12.4419 24.8004 12C24.8004 11.5582 24.4422 11.2 24.0004 11.2H22.0004Z" fill="#1C103F"/>
<path d="M21.2004 15.2C21.2004 14.7582 21.5586 14.4 22.0004 14.4H24.0004C24.4422 14.4 24.8004 14.7582 24.8004 15.2C24.8004 15.6419 24.4422 16 24.0004 16H22.0004C21.5586 16 21.2004 15.6419 21.2004 15.2Z" fill="#1C103F"/>
<path d="M8.00039 22.4C7.55856 22.4 7.20039 22.7582 7.20039 23.2C7.20039 23.6419 7.55856 24 8.00039 24H15.2004C15.6422 24 16.0004 23.6419 16.0004 23.2C16.0004 22.7582 15.6422 22.4 15.2004 22.4H8.00039Z" fill="#1C103F"/>
</svg>
