<svg width="64" height="64" viewBox="0 0 64 64" fill="none" xmlns="http://www.w3.org/2000/svg">
<rect width="64" height="64" rx="32" fill="white"/>
<path d="M21.6 23.2C19.8327 23.2 18.4 24.6327 18.4 26.4V29.6C18.4 29.6 23.4364 31.4887 29.6 31.9151V31.5429C29.6 30.9117 30.1373 30.4 30.8 30.4H33.2C33.8627 30.4 34.4 30.9117 34.4 31.5429V31.9151C40.5635 31.4887 45.6 29.6 45.6 29.6V26.4C45.6 24.6327 44.1673 23.2 42.4 23.2H21.6Z" fill="#FF7870"/>
<path opacity="0.14" d="M21.6 23.2H43.2C44.0836 23.2 44.8 23.9164 44.8 24.8H22.4C21.5163 24.8 20.8 25.5164 20.8 26.4V44C19.4745 44 18.4 42.9255 18.4 41.6V26.4C18.4 24.6327 19.8327 23.2 21.6 23.2Z" fill="#241F2D"/>
<path fill-rule="evenodd" clip-rule="evenodd" d="M28 18.4C26.6745 18.4 25.6 19.4745 25.6 20.8V22.4H21.6C19.3909 22.4 17.6 24.1909 17.6 26.4V41.6C17.6 43.8092 19.3909 45.6 21.6 45.6H42.4C44.6091 45.6 46.4 43.8092 46.4 41.6V26.4C46.4 24.1909 44.6091 22.4 42.4 22.4H38.4V20.8C38.4 19.4745 37.3255 18.4 36 18.4H28ZM36.8 22.4V20.8C36.8 20.3582 36.4418 20 36 20H28C27.5582 20 27.2 20.3582 27.2 20.8V22.4H36.8ZM19.2 26.4C19.2 25.0745 20.2745 24 21.6 24H42.4C43.7255 24 44.8 25.0745 44.8 26.4V29.0667C44.6676 29.1099 44.516 29.1583 44.3463 29.2111C43.6378 29.4316 42.6163 29.7265 41.3724 30.0216C39.6498 30.4304 37.511 30.8371 35.193 31.0493C35.117 30.2363 34.4328 29.6 33.6 29.6H30.4C29.5672 29.6 28.883 30.2363 28.807 31.0493C26.489 30.8371 24.3502 30.4304 22.6276 30.0216C21.3837 29.7265 20.3622 29.4316 19.6537 29.2111C19.484 29.1583 19.3324 29.1099 19.2 29.0667V26.4ZM28.8 32.6551C26.331 32.4377 24.0642 32.007 22.2582 31.5784C20.9859 31.2765 19.9369 30.9744 19.2 30.7456V41.6C19.2 42.9255 20.2745 44 21.6 44H42.4C43.7255 44 44.8 42.9255 44.8 41.6V30.7456C44.0631 30.9744 43.0141 31.2765 41.7419 31.5784C39.9358 32.007 37.669 32.4377 35.2 32.655V32.8C35.2 34.1255 34.1255 35.2 32.8 35.2H31.2C29.8745 35.2 28.8 34.1255 28.8 32.8V32.6551ZM30.4 31.2H33.6V32.8C33.6 33.2419 33.2418 33.6 32.8 33.6H31.2C30.7582 33.6 30.4 33.2419 30.4 32.8V31.2Z" fill="#1C103F"/>
</svg>
