<svg width="64" height="64" viewBox="0 0 64 64" fill="none" xmlns="http://www.w3.org/2000/svg">
<rect width="64" height="64" rx="32" fill="#F3F6FB"/>
<path opacity="0.14" d="M31.2 25.6C29.4327 25.6 28 27.0327 28 28.8V43.2C28 44.691 29.0198 45.9439 30.4 46.2992V28.8C30.4 27.9163 31.1163 27.2 32 27.2H43.5719C43.0186 26.2435 41.9845 25.6 40.8 25.6H31.2Z" fill="#241F2D"/>
<path d="M37.6 30.4C37.6 31.2837 36.8837 32 36 32C35.1164 32 34.4 31.2837 34.4 30.4C34.4 29.5164 35.1164 28.8 36 28.8C36.8837 28.8 37.6 29.5164 37.6 30.4Z" fill="#FF7870"/>
<path d="M32.8 37.79C32.8 37.1343 32.8876 36.4667 33.256 35.9243C33.7218 35.2386 34.5814 34.4 36 34.4C37.4186 34.4 38.2782 35.2386 38.744 35.9243C39.1124 36.4667 39.2 37.1343 39.2 37.79C39.2 38.1269 38.9269 38.4 38.5899 38.4H33.41C33.0731 38.4 32.8 38.1269 32.8 37.79Z" fill="#FF7870"/>
<path fill-rule="evenodd" clip-rule="evenodd" d="M36 28C34.6745 28 33.6 29.0745 33.6 30.4C33.6 31.7254 34.6745 32.8 36 32.8C37.3255 32.8 38.4 31.7254 38.4 30.4C38.4 29.0745 37.3255 28 36 28ZM35.2 30.4C35.2 29.9581 35.5582 29.6 36 29.6C36.4418 29.6 36.8 29.9581 36.8 30.4C36.8 30.8418 36.4418 31.2 36 31.2C35.5582 31.2 35.2 30.8418 35.2 30.4Z" fill="#1C103F"/>
<path fill-rule="evenodd" clip-rule="evenodd" d="M32.5942 35.4747C33.1402 34.6709 34.2138 33.6 36 33.6C37.7862 33.6 38.8598 34.6709 39.4058 35.4747C39.911 36.2186 40 37.0845 40 37.7899C40 38.5687 39.3687 39.1999 38.59 39.1999H33.4101C32.6313 39.1999 32 38.5687 32 37.7899C32 37.0845 32.089 36.2186 32.5942 35.4747ZM36 35.2C34.949 35.2 34.3034 35.806 33.9178 36.3737C33.711 36.6782 33.6201 37.0849 33.603 37.6H38.397C38.3799 37.0849 38.289 36.6782 38.0822 36.3737C37.6966 35.806 37.0511 35.2 36 35.2Z" fill="#1C103F"/>
<path d="M40 42.4C40.4418 42.4 40.8 42.0418 40.8 41.5999C40.8 41.1581 40.4418 40.7999 40 40.7999H32C31.5582 40.7999 31.2 41.1581 31.2 41.5999C31.2 42.0418 31.5582 42.4 32 42.4H40Z" fill="#1C103F"/>
<path fill-rule="evenodd" clip-rule="evenodd" d="M23.2 19.2C20.9909 19.2 19.2 20.9908 19.2 23.2V37.6C19.2 39.8091 20.9909 41.5999 23.2 41.5999H23.5328C24.1501 43.0127 25.5598 44 27.2 44H27.5328C28.1501 45.4127 29.5598 46.4 31.2 46.4H40.8C43.0091 46.4 44.8 44.6091 44.8 42.4V28C44.8 25.7908 43.0091 24 40.8 24H40.4672C39.8499 22.5872 38.4403 21.6 36.8 21.6H36.4672C35.8499 20.1872 34.4403 19.2 32.8 19.2H23.2ZM34.5889 21.6C34.1494 21.109 33.5108 20.8 32.8 20.8H23.2C21.8745 20.8 20.8 21.8745 20.8 23.2V37.6C20.8 38.9254 21.8745 40 23.2 40V25.6C23.2 23.3908 24.9909 21.6 27.2 21.6H34.5889ZM36.8 23.2C37.5108 23.2 38.1494 23.509 38.5889 24H31.2C28.9909 24 27.2 25.7908 27.2 28V42.4C25.8745 42.4 24.8 41.3254 24.8 40V25.6C24.8 24.2745 25.8745 23.2 27.2 23.2H36.8ZM28.8 28C28.8 26.6745 29.8745 25.6 31.2 25.6H40.8C42.1255 25.6 43.2 26.6745 43.2 28V42.4C43.2 43.7254 42.1255 44.7999 40.8 44.7999H31.2C29.8745 44.7999 28.8 43.7254 28.8 42.4V28Z" fill="#1C103F"/>
</svg>
