<svg width="64" height="64" viewBox="0 0 64 64" fill="none" xmlns="http://www.w3.org/2000/svg">
<rect width="64" height="64" rx="32" fill="white"/>
<path d="M24.8 21.6H24C22.2327 21.6 20.8 23.0327 20.8 24.8V42.4C20.8 44.1673 22.2327 45.6 24 45.6H35.2C36.9674 45.6 38.4 44.1673 38.4 42.4H28C26.2327 42.4 24.8 40.9673 24.8 39.2V21.6Z" fill="#FF7870"/>
<path opacity="0.14" d="M24 21.6H25.6V23.2H24.8C23.9164 23.2 23.2 23.9163 23.2 24.8V44.8C21.8746 44.8 20.8 43.7255 20.8 42.4V24.8C20.8 23.0327 22.2327 21.6 24 21.6Z" fill="#241F2D"/>
<path opacity="0.14" d="M28 18.4H36.8V20H28.8C27.9164 20 27.2 20.7164 27.2 21.6V41.6C25.8746 41.6 24.8 40.5255 24.8 39.2V21.6C24.8 19.8327 26.2327 18.4 28 18.4Z" fill="#241F2D"/>
<path d="M38.4 31.2C38.7535 31.4651 38.8251 31.9665 38.56 32.32L34.24 38.08C33.9749 38.4334 33.4735 38.5051 33.12 38.24L30.56 36.32C30.2065 36.0549 30.1349 35.5534 30.4 35.2C30.6651 34.8465 31.1665 34.7749 31.52 35.04L33.44 36.48L37.28 31.36C37.5451 31.0065 38.0465 30.9349 38.4 31.2Z" fill="#1C103F"/>
<path d="M28 27.2C28 27.6418 28.3582 28 28.8 28H32.8C33.2418 28 33.6 27.6418 33.6 27.2C33.6 26.7581 33.2418 26.4 32.8 26.4H28.8C28.3582 26.4 28 26.7581 28 27.2Z" fill="#1C103F"/>
<path d="M33.6 30.4C33.6 30.8418 33.2418 31.2 32.8 31.2H28.8C28.3582 31.2 28 30.8418 28 30.4C28 29.9581 28.3582 29.6 28.8 29.6H32.8C33.2418 29.6 33.6 29.9581 33.6 30.4Z" fill="#1C103F"/>
<path d="M28 24C28 24.4418 28.3582 24.8 28.8 24.8H32.8C33.2418 24.8 33.6 24.4418 33.6 24C33.6 23.5581 33.2418 23.2 32.8 23.2H28.8C28.3582 23.2 28 23.5581 28 24Z" fill="#1C103F"/>
<path fill-rule="evenodd" clip-rule="evenodd" d="M35.2 46.4C37.1352 46.4 38.7494 45.0258 39.12 43.2H40C42.2091 43.2 44 41.4091 44 39.2V24.4686L37.1314 17.6H28C26.0648 17.6 24.4506 18.9742 24.08 20.8H24C21.7909 20.8 20 22.5908 20 24.8V42.4C20 44.6091 21.7909 46.4 24 46.4H35.2ZM21.6 24.8C21.6 23.4745 22.6745 22.4 24 22.4V39.2C24 41.4091 25.7909 43.2 28 43.2H37.4634C37.134 44.1321 36.245 44.8 35.2 44.8H24C22.6745 44.8 21.6 43.7255 21.6 42.4V24.8ZM28 19.2C26.6745 19.2 25.6 20.2745 25.6 21.6V39.2C25.6 40.5255 26.6745 41.6 28 41.6H40C41.3255 41.6 42.4 40.5255 42.4 39.2V25.6H38.4C37.0745 25.6 36 24.5255 36 23.2V19.2H28ZM37.6 20.3313V23.2C37.6 23.6418 37.9582 24 38.4 24H41.2686L37.6 20.3313Z" fill="#1C103F"/>
</svg>
