<svg width="64" height="64" viewBox="0 0 64 64" fill="none" xmlns="http://www.w3.org/2000/svg">
<rect width="64" height="64" rx="32" fill="white"/>
<path d="M21.6 18.4C19.8327 18.4 18.4 19.8327 18.4 21.6V31.2C18.4 32.9673 19.8327 34.4 21.6 34.4H29.2L30.4 29.6H34.8L37.6 18.4H21.6Z" fill="#FF7870"/>
<path opacity="0.14" d="M44.8 31.2H32.8L29.2 45.6H26.4L30.4 29.6H44L44.8 31.2Z" fill="#241F2D"/>
<path opacity="0.14" d="M18.4 21.6C18.4 19.8327 19.8327 18.4 21.6 18.4H37.6L37.2 20H22.4C21.5164 20 20.8 20.7164 20.8 21.6V34.2992C19.4198 33.944 18.4 32.6911 18.4 31.2V21.6Z" fill="#241F2D"/>
<path fill-rule="evenodd" clip-rule="evenodd" d="M38.6833 40L39.7628 42.7479C39.9244 43.1591 40.3887 43.3615 40.8 43.2C41.2112 43.0384 41.4136 42.5741 41.2521 42.1628L37.5169 32.6551C37.1181 31.6402 35.6818 31.6402 35.2831 32.6551L31.5479 42.1628C31.3863 42.5741 31.5887 43.0384 32 43.2C32.4112 43.3615 32.8755 43.1591 33.0371 42.7479L34.1166 40H38.6833ZM38.0547 38.4L36.4 34.1878L34.7452 38.4H38.0547Z" fill="#1C103F"/>
<path fill-rule="evenodd" clip-rule="evenodd" d="M17.6 21.6C17.6 19.3908 19.3908 17.6 21.6 17.6H38.6246L35.8246 28.8H42.4C44.6091 28.8 46.4 30.5908 46.4 32.8V42.4C46.4 44.6091 44.6091 46.4 42.4 46.4H25.3754L28.1754 35.2H21.6C19.3908 35.2 17.6 33.4091 17.6 31.2V21.6ZM28.5754 33.6L29.2611 30.8568C28.6664 30.4117 28.0999 29.8437 27.5839 29.24C26.5602 30.3392 25.4465 31.1875 24.7014 31.7551C24.3731 32.0052 23.898 31.9575 23.6338 31.6405L23.6 31.6C23.3171 31.2606 23.3655 30.7591 23.7164 30.4906C23.7533 30.4624 23.7908 30.4337 23.8289 30.4047C24.6268 29.795 25.6533 29.0107 26.5883 27.9587C26.0577 27.2135 25.602 26.4727 25.2604 25.8636C25.0443 25.4782 25.2048 24.9976 25.6 24.8C25.9952 24.6024 26.4756 24.7627 26.6933 25.1472C26.9417 25.5862 27.2547 26.1001 27.6142 26.631C28.0918 25.9262 28.5025 25.19 28.8275 24.5065C29.0599 24.0177 29.24 23.5734 29.3691 23.2H23.2C22.7581 23.2 22.4 22.8418 22.4 22.4C22.4 21.9581 22.7581 21.6 23.2 21.6H26.4C26.4 21.1581 26.7581 20.8 27.2 20.8C27.6418 20.8 28 21.1581 28 21.6H31.2C31.6418 21.6 32 21.9581 32 22.4C32 22.8418 31.6418 23.2 31.2 23.2H31.0452C30.8839 23.779 30.6144 24.4743 30.2725 25.1935C29.8486 26.0851 29.2884 27.0662 28.6188 27.9837C28.9667 28.4073 29.3279 28.8 29.6917 29.1346L29.7754 28.8H34.1754L36.5754 19.2H21.6C20.2745 19.2 19.2 20.2745 19.2 21.6V31.2C19.2 32.5255 20.2745 33.6 21.6 33.6H28.5754ZM44.8 42.4C44.8 43.7255 43.7255 44.8 42.4 44.8H27.4246L31.0246 30.4H42.4C43.7255 30.4 44.8 31.4745 44.8 32.8V42.4Z" fill="#1C103F"/>
<path d="M40.8 19.2C40.8 19.6418 41.1581 20 41.6 20C42.9255 20 44 21.0745 44 22.4V25.6C44 26.0418 44.3581 26.4 44.8 26.4C45.2418 26.4 45.6 26.0418 45.6 25.6V22.4C45.6 20.1908 43.8091 18.4 41.6 18.4C41.1581 18.4 40.8 18.7581 40.8 19.2Z" fill="#1C103F"/>
<path d="M19.2 37.6C18.7581 37.6 18.4 37.9581 18.4 38.4V41.6C18.4 43.8091 20.1908 45.6 22.4 45.6C22.8418 45.6 23.2 45.2418 23.2 44.8C23.2 44.3581 22.8418 44 22.4 44C21.0745 44 20 42.9255 20 41.6V38.4C20 37.9581 19.6418 37.6 19.2 37.6Z" fill="#1C103F"/>
</svg>
