<svg width="64" height="64" viewBox="0 0 64 64" fill="none" xmlns="http://www.w3.org/2000/svg">
<rect width="64" height="64" rx="32" fill="#F3F6FB"/>
<path opacity="0.14" d="M27.2 24C25.4327 24 24 25.4327 24 27.2V36.8C24 38.2911 25.0198 39.544 26.4 39.8992V27.68C26.4 26.5312 27.3312 25.6 28.48 25.6H39.5719C39.0186 24.6435 37.9845 24 36.8 24H27.2Z" fill="#241F2D"/>
<path d="M30.4 44.8C30.4 43.9164 31.1163 43.2 32 43.2C32.8836 43.2 33.6 43.9164 33.6 44.8C33.6 45.6837 32.8836 46.4 32 46.4C31.1163 46.4 30.4 45.6837 30.4 44.8Z" fill="#FF7870"/>
<path d="M19.2 30.4C20.0836 30.4 20.8 31.1163 20.8 32C20.8 32.8836 20.0836 33.6 19.2 33.6C18.3163 33.6 17.6 32.8836 17.6 32C17.6 31.1163 18.3163 30.4 19.2 30.4Z" fill="#FF7870"/>
<path d="M33.6 19.2C33.6 20.0836 32.8837 20.8 32 20.8C31.1164 20.8 30.4 20.0836 30.4 19.2C30.4 18.3163 31.1164 17.6 32 17.6C32.8837 17.6 33.6 18.3163 33.6 19.2Z" fill="#FF7870"/>
<path d="M44.8 33.6C43.9164 33.6 43.2 32.8837 43.2 32C43.2 31.1164 43.9164 30.4 44.8 30.4C45.6837 30.4 46.4 31.1164 46.4 32C46.4 32.8837 45.6837 33.6 44.8 33.6Z" fill="#FF7870"/>
<path d="M34.4 32C34.4 33.3255 33.3255 34.4 32 34.4C30.6745 34.4 29.6 33.3255 29.6 32C29.6 30.6745 30.6745 29.6 32 29.6C33.3255 29.6 34.4 30.6745 34.4 32Z" fill="#FF7870"/>
<path fill-rule="evenodd" clip-rule="evenodd" d="M34.2833 29.758C33.8821 29.3494 33.372 29.0481 32.8 28.9009V27.6C32.8 27.3791 32.621 27.2 32.4 27.2H31.6C31.3791 27.2 31.2 27.3791 31.2 27.6V28.9009C30.6281 29.0481 30.118 29.3494 29.7168 29.758L28.5895 29.1072C28.3982 28.9968 28.1536 29.0623 28.0431 29.2536L27.6431 29.9465C27.5327 30.1378 27.5982 30.3824 27.7895 30.4929L28.916 31.1433C28.8404 31.416 28.8 31.7033 28.8 32C28.8 32.2968 28.8404 32.5841 28.916 32.8568L27.7895 33.5072C27.5982 33.6177 27.5327 33.8623 27.6431 34.0536L28.0431 34.7465C28.1536 34.9378 28.3982 35.0033 28.5895 34.8929L29.7168 34.2421C30.118 34.6507 30.6281 34.952 31.2 35.0992V36.4C31.2 36.621 31.3791 36.8 31.6 36.8H32.4C32.621 36.8 32.8 36.621 32.8 36.4V35.0992C33.372 34.952 33.8821 34.6507 34.2833 34.2421L35.4106 34.8929C35.6019 35.0033 35.8465 34.9378 35.957 34.7465L36.357 34.0536C36.4674 33.8623 36.4019 33.6177 36.2106 33.5072L35.0841 32.8568C35.1597 32.5841 35.2 32.2968 35.2 32C35.2 31.7033 35.1597 31.416 35.0841 31.1433L36.2106 30.4929C36.4019 30.3824 36.4674 30.1378 36.357 29.9465L35.957 29.2536C35.8465 29.0623 35.6019 28.9968 35.4106 29.1072L34.2833 29.758ZM32 33.6C32.8837 33.6 33.6 32.8837 33.6 32C33.6 31.1164 32.8837 30.4 32 30.4C31.1164 30.4 30.4 31.1164 30.4 32C30.4 32.8837 31.1164 33.6 32 33.6Z" fill="#1C103F"/>
<path fill-rule="evenodd" clip-rule="evenodd" d="M32 16.8C30.6746 16.8 29.6 17.8746 29.6 19.2C29.6 20.245 30.2679 21.134 31.2 21.4635V23.2H27.2V22.186C27.6783 21.9093 28 21.3923 28 20.8C28 19.9164 27.2837 19.2 26.4 19.2C25.5164 19.2 24.8 19.9164 24.8 20.8C24.8 21.3923 25.1218 21.9093 25.6 22.186V23.5329C24.6773 23.9361 23.9361 24.6773 23.5329 25.6H22.186C21.9093 25.1218 21.3923 24.8 20.8 24.8C19.9164 24.8 19.2 25.5164 19.2 26.4C19.2 27.2837 19.9164 28 20.8 28C21.3923 28 21.9094 27.6783 22.186 27.2H23.2V31.2H21.4635C21.134 30.2679 20.245 29.6 19.2 29.6C17.8746 29.6 16.8 30.6746 16.8 32C16.8 33.3255 17.8746 34.4 19.2 34.4C20.245 34.4 21.134 33.7322 21.4635 32.8H23.2V36.8H22.186C21.9093 36.3218 21.3923 36 20.8 36C19.9164 36 19.2 36.7164 19.2 37.6C19.2 38.4837 19.9164 39.2 20.8 39.2C21.3923 39.2 21.9093 38.8783 22.186 38.4H23.5329C23.9361 39.3228 24.6773 40.064 25.6 40.4672V41.8141C25.1218 42.0907 24.8 42.6078 24.8 43.2C24.8 44.0837 25.5164 44.8 26.4 44.8C27.2837 44.8 28 44.0837 28 43.2C28 42.6078 27.6783 42.0907 27.2 41.8141V40.8H31.2V42.5366C30.2679 42.8661 29.6 43.7551 29.6 44.8C29.6 46.1255 30.6746 47.2 32 47.2C33.3255 47.2 34.4 46.1255 34.4 44.8C34.4 43.7551 33.7322 42.8661 32.8 42.5366V40.8H36.8V41.8141C36.3218 42.0907 36 42.6078 36 43.2C36 44.0837 36.7164 44.8 37.6 44.8C38.4837 44.8 39.2 44.0837 39.2 43.2C39.2 42.6078 38.8783 42.0907 38.4 41.8141V40.4672C39.3228 40.064 40.064 39.3228 40.4672 38.4H41.8141C42.0907 38.8783 42.6078 39.2 43.2 39.2C44.0837 39.2 44.8 38.4837 44.8 37.6C44.8 36.7164 44.0837 36 43.2 36C42.6078 36 42.0907 36.3218 41.8141 36.8H40.8V32.8H42.5366C42.8661 33.7322 43.7551 34.4 44.8 34.4C46.1255 34.4 47.2 33.3255 47.2 32C47.2 30.6746 46.1255 29.6 44.8 29.6C43.7551 29.6 42.8661 30.2679 42.5366 31.2H40.8V27.2H41.8141C42.0907 27.6783 42.6078 28 43.2 28C44.0837 28 44.8 27.2837 44.8 26.4C44.8 25.5164 44.0837 24.8 43.2 24.8C42.6078 24.8 42.0907 25.1218 41.8141 25.6H40.4672C40.064 24.6773 39.3228 23.9361 38.4 23.5329V22.186C38.8783 21.9093 39.2 21.3923 39.2 20.8C39.2 19.9164 38.4837 19.2 37.6 19.2C36.7164 19.2 36 19.9164 36 20.8C36 21.3923 36.3218 21.9093 36.8 22.186V23.2H32.8V21.4635C33.7322 21.134 34.4 20.245 34.4 19.2C34.4 17.8746 33.3255 16.8 32 16.8ZM31.2 19.2C31.2 18.7582 31.5582 18.4 32 18.4C32.4419 18.4 32.8 18.7582 32.8 19.2C32.8 19.6419 32.4419 20 32 20C31.5582 20 31.2 19.6419 31.2 19.2ZM32.8 44.8C32.8 45.2419 32.4419 45.6 32 45.6C31.5582 45.6 31.2 45.2419 31.2 44.8C31.2 44.3582 31.5582 44 32 44C32.4419 44 32.8 44.3582 32.8 44.8ZM19.2 32.8C18.7582 32.8 18.4 32.4419 18.4 32C18.4 31.5582 18.7582 31.2 19.2 31.2C19.6419 31.2 20 31.5582 20 32C20 32.4419 19.6419 32.8 19.2 32.8ZM44.8 31.2C45.2419 31.2 45.6 31.5582 45.6 32C45.6 32.4419 45.2419 32.8 44.8 32.8C44.3582 32.8 44 32.4419 44 32C44 31.5582 44.3582 31.2 44.8 31.2ZM27.2 24.8C25.8746 24.8 24.8 25.8746 24.8 27.2V36.8C24.8 38.1255 25.8746 39.2 27.2 39.2H36.8C38.1255 39.2 39.2 38.1255 39.2 36.8V27.2C39.2 25.8746 38.1255 24.8 36.8 24.8H27.2Z" fill="#1C103F"/>
</svg>
