<svg width="64" height="64" viewBox="0 0 64 64" fill="none" xmlns="http://www.w3.org/2000/svg">
<rect width="64" height="64" rx="32" fill="#F3F6FB"/>
<path opacity="0.14" d="M24.8 19.2H36V20.8H25.6C24.7164 20.8 24 21.5163 24 22.4V44C22.6745 44 21.6 42.9254 21.6 41.5999V22.4C21.6 20.6326 23.0327 19.2 24.8 19.2Z" fill="#241F2D"/>
<path d="M25.6 24.8C25.6 23.9163 26.3164 23.2 27.2 23.2H30.4C31.2837 23.2 32 23.9163 32 24.8V28C32 28.8836 31.2837 29.6 30.4 29.6H27.2C26.3164 29.6 25.6 28.8836 25.6 28V24.8Z" fill="#FF7870"/>
<path fill-rule="evenodd" clip-rule="evenodd" d="M24.8 18.4C22.5908 18.4 20.8 20.1909 20.8 22.4V41.6C20.8 43.8092 22.5908 45.6 24.8 45.6H32C32.4418 45.6 32.8 45.2419 32.8 44.8C32.8 44.3582 32.4418 44 32 44H24.8C23.4745 44 22.4 42.9255 22.4 41.6V22.4C22.4 21.0745 23.4745 20 24.8 20H35.2V24C35.2 25.3255 36.2745 26.4 37.6 26.4H41.6V35.2471C41.6 35.6889 41.9582 36.0471 42.4 36.0471C42.8418 36.0471 43.2 35.6889 43.2 35.2471V25.2687L36.3314 18.4H24.8ZM40.4686 24.8L36.8 21.1314V24C36.8 24.4419 37.1582 24.8 37.6 24.8H40.4686Z" fill="#1C103F"/>
<path fill-rule="evenodd" clip-rule="evenodd" d="M24.8 24.8C24.8 23.4745 25.8745 22.4 27.2 22.4H30.4C31.7255 22.4 32.8 23.4745 32.8 24.8V28C32.8 29.3255 31.7255 30.4 30.4 30.4H27.2C25.8745 30.4 24.8 29.3255 24.8 28V24.8ZM27.2 24C26.7582 24 26.4 24.3582 26.4 24.8V28C26.4 28.4419 26.7582 28.8 27.2 28.8H30.4C30.8418 28.8 31.2 28.4419 31.2 28V24.8C31.2 24.3582 30.8418 24 30.4 24H27.2Z" fill="#1C103F"/>
<path d="M31.2 33.6C31.6418 33.6 32 33.2419 32 32.8C32 32.3582 31.6418 32 31.2 32H26.4C25.9582 32 25.6 32.3582 25.6 32.8C25.6 33.2419 25.9582 33.6 26.4 33.6H31.2Z" fill="#1C103F"/>
<path d="M30.4 36.8C30.8418 36.8 31.2 36.4419 31.2 36C31.2 35.5582 30.8418 35.2 30.4 35.2H26.4C25.9582 35.2 25.6 35.5582 25.6 36C25.6 36.4419 25.9582 36.8 26.4 36.8H30.4Z" fill="#1C103F"/>
<path d="M25.6 39.2C25.6 39.6419 25.9582 40 26.4 40H30.4C30.8418 40 31.2 39.6419 31.2 39.2C31.2 38.7582 30.8418 38.4 30.4 38.4H26.4C25.9582 38.4 25.6 38.7582 25.6 39.2Z" fill="#1C103F"/>
<path fill-rule="evenodd" clip-rule="evenodd" d="M35.7121 32.9854C35.4737 32.7867 35.1418 32.7439 34.8607 32.8756C34.5796 33.0072 34.4 33.2896 34.4 33.6V43.2C34.4 43.5236 34.5949 43.8153 34.8938 43.9391C35.1928 44.063 35.5369 43.9945 35.7657 43.7657L36.9808 42.5506L38.1267 44.8423C38.5219 45.6326 39.4829 45.953 40.2733 45.5578L41.2422 45.0733C42.0326 44.6782 42.3529 43.7171 41.9578 42.9267L40.8119 40.635L42.5131 40.392C42.8261 40.3473 43.0833 40.1225 43.1696 39.8184C43.2559 39.5142 43.155 39.1878 42.9121 38.9854L35.7121 32.9854ZM36 41.2687V35.3081L40.5054 39.0626L39.4868 39.2081C39.2323 39.2444 39.0107 39.401 38.8914 39.6287C38.772 39.8565 38.7694 40.1278 38.8844 40.3578L40.5267 43.6423L39.5578 44.1267L37.9155 40.8423C37.8005 40.6122 37.582 40.4515 37.3281 40.4104C37.0743 40.3692 36.8161 40.4525 36.6343 40.6343L36 41.2687Z" fill="#1C103F"/>
</svg>
