<svg width="64" height="64" viewBox="0 0 64 64" fill="none" xmlns="http://www.w3.org/2000/svg">
<rect width="64" height="64" rx="32" fill="#F3F6FB"/>
<path d="M27.9687 32.444C27.4305 32.185 26.8246 32.0321 26.1657 32.0136C25.8547 32.0048 25.5325 32 25.2 32C24.8675 32 24.5453 32.0048 24.2343 32.0136C21.3571 32.0944 19.4887 34.7384 19.8676 37.5916L20.2155 40.2107C20.3211 41.0059 20.9993 41.6 21.8015 41.6H27.5813L27.034 37.2216C26.8247 35.5473 27.1681 33.8587 27.9687 32.444Z" fill="#FF7870"/>
<path opacity="0.14" d="M36.8 32C35.6953 32 34.6772 32.0432 33.766 32.1092C31.4693 32.2757 29.9056 34.395 30.2093 36.8247L31.0186 43.2992C31.0687 43.6996 31.409 44 31.8125 44H32.8058L32.0364 37.6247C31.7431 35.195 33.253 33.0757 35.4705 32.9092C36.3503 32.8432 37.3334 32.8 38.4 32.8C39.4666 32.8 40.4497 32.8432 41.3295 32.9092C41.5807 32.9281 41.8228 32.972 42.0542 33.0386C41.4581 32.5108 40.6979 32.1719 39.834 32.1092C38.9228 32.0432 37.9047 32 36.8 32Z" fill="#241F2D"/>
<path opacity="0.14" d="M27.9687 32.444C27.4305 32.185 26.8246 32.0321 26.1657 32.0136C25.8547 32.0048 25.5325 32 25.2 32C24.8675 32 24.5453 32.0048 24.2343 32.0136C21.3571 32.0944 19.4887 34.7384 19.8676 37.5916L20.2155 40.2107C20.3211 41.0059 20.9993 41.6 21.8015 41.6H22.897C22.825 41.4551 22.7756 41.2957 22.7537 41.1264L22.4434 38.7257C22.1054 36.1102 23.772 33.6866 26.3385 33.6124C26.616 33.6044 26.9034 33.6 27.2 33.6C27.2799 33.6 27.359 33.6003 27.4376 33.6009C27.5824 33.2001 27.76 32.8128 27.9687 32.444Z" fill="#241F2D"/>
<path fill-rule="evenodd" clip-rule="evenodd" d="M36.8 18.4C35.4632 18.4 34.2418 18.7609 33.3505 19.6032C32.4514 20.4529 32 21.6867 32 23.2C32 25.201 32.5399 26.6369 33.4902 27.5677C34.4356 28.4937 35.6652 28.8 36.8 28.8C37.9348 28.8 39.1644 28.4937 40.1098 27.5677C41.0601 26.6369 41.6 25.201 41.6 23.2C41.6 21.66 41.0842 20.4313 40.1681 19.5941C39.264 18.7678 38.0548 18.4 36.8 18.4ZM33.6 23.2C33.6 22.0057 33.9486 21.2394 34.4495 20.7661C34.9582 20.2853 35.7368 20 36.8 20C37.7543 20 38.5452 20.2784 39.0887 20.7752C39.6203 21.261 40 22.0324 40 23.2C40 24.9221 39.5399 25.8863 38.9902 26.4247C38.4356 26.9679 37.6652 27.2 36.8 27.2C35.9348 27.2 35.1644 26.9679 34.6098 26.4247C34.0601 25.8863 33.6 24.9221 33.6 23.2Z" fill="#1C103F"/>
<path fill-rule="evenodd" clip-rule="evenodd" d="M25.2 21.6C24.2152 21.6 23.2898 21.8773 22.6095 22.5453C21.926 23.2164 21.6 24.1738 21.6 25.3091C21.6 26.7944 21.9853 27.8989 22.7044 28.6307C23.4235 29.3625 24.3571 29.6 25.2 29.6C26.0429 29.6 26.9765 29.3625 27.6956 28.6307C28.4147 27.8989 28.8 26.7944 28.8 25.3091C28.8 24.1479 28.4251 23.1953 27.7308 22.536C27.0447 21.8846 26.1316 21.6 25.2 21.6ZM23.2 25.3091C23.2 24.4752 23.434 23.978 23.7305 23.6869C24.0302 23.3926 24.5048 23.2 25.2 23.2C25.8148 23.2 26.3017 23.3854 26.629 23.6962C26.9481 23.9992 27.2 24.5011 27.2 25.3091C27.2 26.5316 26.8853 27.1725 26.5544 27.5092C26.2235 27.8459 25.7571 28 25.2 28C24.6429 28 24.1765 27.8459 23.8456 27.5092C23.5147 27.1725 23.2 26.5316 23.2 25.3091Z" fill="#1C103F"/>
<path fill-rule="evenodd" clip-rule="evenodd" d="M33.6503 30.5134C34.5969 30.4448 35.6538 30.4 36.8 30.4C37.9462 30.4 39.0031 30.4448 39.9497 30.5134C43.3026 30.7565 45.3772 33.8322 44.9783 37.0231L44.169 43.4977C44.0189 44.6987 42.9979 45.6 41.7875 45.6H31.8124C30.6021 45.6 29.5811 44.6987 29.431 43.4977L28.6217 37.0231C28.2228 33.8322 30.2974 30.7565 33.6503 30.5134ZM36.8 32C35.6953 32 34.6772 32.0432 33.766 32.1093C31.4693 32.2757 29.9056 34.395 30.2093 36.8247L31.0186 43.2993C31.0687 43.6996 31.409 44 31.8124 44H41.7875C42.191 44 42.5313 43.6996 42.5814 43.2993L43.3907 36.8247C43.6944 34.395 42.1307 32.2757 39.834 32.1093C38.9228 32.0432 37.9047 32 36.8 32Z" fill="#1C103F"/>
<path d="M26.1882 31.2139C27.0072 31.2369 27.7518 31.4333 28.4052 31.7629C28.0909 32.1982 27.825 32.6687 27.6108 33.164C27.1687 32.9521 26.6746 32.8282 26.1433 32.8133C25.8395 32.8047 25.5247 32.8 25.2 32.8C24.8753 32.8 24.5605 32.8047 24.2567 32.8133C21.9417 32.8783 20.3321 35.0121 20.6607 37.4863L21.0085 40.1054C21.0613 40.503 21.4004 40.8 21.8015 40.8H27.4813L27.6813 42.4H21.8015C20.5982 42.4 19.5809 41.5089 19.4224 40.316L19.0746 37.697C18.6453 34.4647 20.7724 31.3106 24.2118 31.2139C24.5301 31.205 24.8598 31.2 25.2 31.2C25.5402 31.2 25.8699 31.205 26.1882 31.2139Z" fill="#1C103F"/>
</svg>
