<svg width="64" height="64" viewBox="0 0 64 64" fill="none" xmlns="http://www.w3.org/2000/svg">
<rect width="64" height="64" rx="32" fill="white"/>
<path opacity="0.14" d="M21.6 18.4H39.2C40.0836 18.4 40.8 19.1164 40.8 20H22.4C21.5163 20 20.8 20.7164 20.8 21.6V44.8C19.4745 44.8 18.4 43.7255 18.4 42.4V21.6C18.4 19.8327 19.8327 18.4 21.6 18.4Z" fill="#241F2D"/>
<path d="M46.4 34.4C46.4 38.8183 42.8183 42.4 38.4 42.4C33.9817 42.4 30.4 38.8183 30.4 34.4C30.4 29.9817 33.9817 26.4 38.4 26.4C42.8183 26.4 46.4 29.9817 46.4 34.4Z" fill="#FF7870"/>
<path opacity="0.14" d="M40.8 27.6097C40.0493 27.3444 39.2415 27.2 38.4 27.2C34.4236 27.2 31.2 30.4236 31.2 34.4C31.2 37.1864 32.7828 39.603 35.0982 40.8H35.4408C34.2992 39.4406 33.6 37.6115 33.6 35.6C33.6 31.4026 36.6445 28 40.4 28C40.5343 28 40.6677 28.0044 40.8 28.0129V27.6097Z" fill="#241F2D"/>
<path d="M23.2 24C23.2 24.4418 23.5582 24.8 24 24.8H36C36.4418 24.8 36.8 24.4418 36.8 24C36.8 23.5581 36.4418 23.2 36 23.2H24C23.5582 23.2 23.2 23.5581 23.2 24Z" fill="#1C103F"/>
<path d="M29.6 28C29.6 28.4418 29.2418 28.8 28.8 28.8H24C23.5582 28.8 23.2 28.4418 23.2 28C23.2 27.5581 23.5582 27.2 24 27.2H28.8C29.2418 27.2 29.6 27.5581 29.6 28Z" fill="#1C103F"/>
<path d="M23.2 32C23.2 32.4418 23.5582 32.8 24 32.8H27.2C27.6418 32.8 28 32.4418 28 32C28 31.5581 27.6418 31.2 27.2 31.2H24C23.5582 31.2 23.2 31.5581 23.2 32Z" fill="#1C103F"/>
<path d="M28 36C28 36.4418 27.6418 36.8 27.2 36.8H24C23.5582 36.8 23.2 36.4418 23.2 36C23.2 35.5581 23.5582 35.2 24 35.2H27.2C27.6418 35.2 28 35.5581 28 36Z" fill="#1C103F"/>
<path d="M23.2 40C23.2 40.4418 23.5582 40.8 24 40.8H28.8C29.2418 40.8 29.6 40.4418 29.6 40C29.6 39.5581 29.2418 39.2 28.8 39.2H24C23.5582 39.2 23.2 39.5581 23.2 40Z" fill="#1C103F"/>
<path d="M37.6 28.8V30.0779C36.0827 30.3861 35.2 31.5636 35.2 32.8C35.2 33.761 35.9656 34.3183 36.5051 34.6004C37.0944 34.9084 37.7791 35.0863 38.2344 35.1827C38.6098 35.2621 39.1279 35.4042 39.533 35.614C39.7353 35.7188 39.8675 35.8193 39.9412 35.9017C39.9754 35.9401 39.9896 35.9663 39.995 35.979C39.9995 35.9894 40 35.9944 40 36C40 36.4816 39.6027 37.2 38.4 37.2C37.2997 37.2 36.8484 36.3529 36.7636 36.0814L35.2364 36.5586C35.3933 37.0607 36.0613 38.3655 37.6 38.7136V40H39.2V38.7225C40.7227 38.4148 41.6 37.2357 41.6 36C41.6 35.0285 40.8025 34.4696 40.2688 34.1933C39.6746 33.8855 38.9927 33.7077 38.5656 33.6173C38.1562 33.5307 37.6409 33.3886 37.2463 33.1824C37.05 33.0798 36.925 32.9823 36.8566 32.9037C36.7995 32.8382 36.7999 32.8093 36.8 32.8009L36.8 32.8C36.8 32.32 37.2027 31.6 38.4 31.6C39.3485 31.6 39.6966 32.1887 40.002 32.7053C40.0421 32.7732 40.0817 32.8401 40.1216 32.904L41.4784 32.056C41.4613 32.0286 41.4395 31.9894 41.4124 31.9406C41.181 31.5241 40.5651 30.4154 39.2 30.0906V28.8H37.6Z" fill="#1C103F"/>
<path fill-rule="evenodd" clip-rule="evenodd" d="M17.6 21.6C17.6 19.3908 19.3909 17.6 21.6 17.6H38.4C40.6091 17.6 42.4 19.3908 42.4 21.6V27.4702C44.7912 28.8535 46.4 31.4388 46.4 34.4C46.4 37.3611 44.7912 39.9465 42.4 41.3297V42.4C42.4 44.6091 40.6091 46.4 38.4 46.4H21.6C19.3909 46.4 17.6 44.6091 17.6 42.4V21.6ZM40.8 21.6V26.7662C40.0424 26.5283 39.2362 26.4 38.4 26.4C33.9817 26.4 30.4 29.9817 30.4 34.4C30.4 38.8183 33.9817 42.4 38.4 42.4C39.2362 42.4 40.0424 42.2717 40.8 42.0337V42.4C40.8 43.7255 39.7255 44.8 38.4 44.8H21.6C20.2745 44.8 19.2 43.7255 19.2 42.4V21.6C19.2 20.2745 20.2745 19.2 21.6 19.2H38.4C39.7255 19.2 40.8 20.2745 40.8 21.6ZM38.4 40.8C41.9346 40.8 44.8 37.9346 44.8 34.4C44.8 30.8654 41.9346 28 38.4 28C34.8654 28 32 30.8654 32 34.4C32 37.9346 34.8654 40.8 38.4 40.8Z" fill="#1C103F"/>
</svg>
