<svg width="32" height="32" viewBox="0 0 32 32" fill="none" xmlns="http://www.w3.org/2000/svg">
<path d="M2.81674 17.6C2.59048 17.6 2.39999 17.7737 2.39999 18C2.39999 20.43 4.19085 22.4 6.39999 22.4C8.60913 22.4 10.4 20.43 10.4 18C10.4 17.7737 10.2095 17.6 9.98324 17.6H2.81674Z" fill="#FF7870"/>
<path d="M22.0168 12.8C21.7905 12.8 21.6 12.9738 21.6 13.2C21.6 15.6301 23.3909 17.6 25.6 17.6C27.8091 17.6 29.6 15.6301 29.6 13.2C29.6 12.9738 29.4095 12.8 29.1833 12.8H22.0168Z" fill="#FF7870"/>
<path opacity="0.14" d="M2.39999 18C2.39999 17.7737 2.59048 17.6 2.81674 17.6H9.98324C10.2095 17.6 10.4 17.7737 10.4 18C10.4 18.416 10.3475 18.8185 10.2494 19.2H5.21674C4.99048 19.2 4.79999 19.3737 4.79999 19.6C4.79999 20.6289 5.12105 21.5753 5.65897 22.3246C3.80387 21.9424 2.39999 20.1515 2.39999 18Z" fill="#241F2D"/>
<path opacity="0.14" d="M21.6 13.2C21.6 12.9738 21.7905 12.8 22.0168 12.8H29.1833C29.4095 12.8 29.6 12.9738 29.6 13.2C29.6 13.6161 29.5475 14.0186 29.4494 14.4H24.4168C24.1905 14.4 24 14.5738 24 14.8C24 15.8289 24.3211 16.7754 24.859 17.5247C23.0039 17.1424 21.6 15.3516 21.6 13.2Z" fill="#241F2D"/>
<path fill-rule="evenodd" clip-rule="evenodd" d="M26.8254 5.02888C27.0592 4.75072 27.2 4.39182 27.2 4.00002C27.2 3.11637 26.4837 2.40002 25.6 2.40002C24.8689 2.40002 24.2524 2.89036 24.0612 3.5601L18.0014 5.07505C17.5717 4.42717 16.8357 4.00002 16 4.00002C14.7512 4.00002 13.7251 4.95386 13.6106 6.17275L7.55025 7.68785C7.25935 7.38705 6.85152 7.20002 6.40001 7.20002C5.51635 7.20002 4.80001 7.91637 4.80001 8.80002C4.80001 9.19182 4.94083 9.55073 5.17463 9.82889L2.63463 16.8139C2.08174 16.8981 1.60001 17.3593 1.60001 18C1.60001 20.7984 3.67899 23.2 6.40001 23.2C9.12102 23.2 11.2 20.7984 11.2 18C11.2 17.3594 10.7183 16.8981 10.1654 16.8139L7.62539 9.82888C7.76814 9.65905 7.87623 9.45911 7.93876 9.23996L13.6 7.82465V24.2141C13.1218 24.4907 12.8 25.0078 12.8 25.6V26.4H12C11.1164 26.4 10.4 27.1164 10.4 28V28.8C10.4 29.6837 11.1163 30.4 12 30.4H20C20.8837 30.4 21.6 29.6837 21.6 28.8V28C21.6 27.1164 20.8837 26.4 20 26.4H19.2V25.6C19.2 25.0078 18.8782 24.4907 18.4 24.2141V6.62465L24.3338 5.14121L21.8346 12.0139C21.2817 12.0981 20.8 12.5593 20.8 13.2C20.8 15.9984 22.879 18.4 25.6 18.4C28.321 18.4 30.4 15.9984 30.4 13.2C30.4 12.5594 29.9183 12.0981 29.3654 12.0139L26.8254 5.02888ZM27.6578 12L25.6 6.34096L23.5422 12H27.6578ZM6.40001 11.141L8.45785 16.8H4.34217L6.40001 11.141ZM15.2 8.66346V24H16.8V8.66346C16.5498 8.7519 16.2805 8.80002 16 8.80002C15.7195 8.80002 15.4502 8.7519 15.2 8.66346ZM16.8 6.40002C16.8 6.84185 16.4418 7.20002 16 7.20002C15.5582 7.20002 15.2 6.84185 15.2 6.40002C15.2 5.9582 15.5582 5.60002 16 5.60002C16.4418 5.60002 16.8 5.9582 16.8 6.40002ZM17.6 25.6V26.4H14.4V25.6H17.6ZM12 28.8V28H20V28.8H12ZM3.21916 18.4C3.39866 20.2575 4.81445 21.6 6.40001 21.6C7.98556 21.6 9.40135 20.2575 9.58085 18.4H3.21916ZM25.6 16.8C24.0144 16.8 22.5987 15.4575 22.4192 13.6H28.7808C28.6013 15.4575 27.1856 16.8 25.6 16.8Z" fill="#1C103F"/>
</svg>
