<svg width="129" height="28" viewBox="0 0 129 28" fill="none" xmlns="http://www.w3.org/2000/svg">
<path d="M11.7102 20.6898C12.1744 21.6771 12.9911 22.4588 14.0036 22.8782C14.3125 23.0061 14.7374 23.104 15.5165 23.1571C16.3125 23.2114 17.3337 23.2125 18.8211 23.2125H21.348C21.3857 23.2125 21.4236 23.2124 21.4617 23.2123C21.9298 23.2115 22.4323 23.2107 22.9315 23.327C23.0018 23.3434 23.0717 23.3615 23.1411 23.3813C23.6339 23.5221 24.0728 23.7669 24.4815 23.9948C24.5148 24.0134 24.5481 24.032 24.5809 24.0502L26.3495 25.0327V15.684C26.3495 14.1967 26.3485 13.1754 26.2942 12.3795C26.241 11.6004 26.1432 11.1755 26.0152 10.8666C25.5695 9.79053 24.7146 8.9356 23.6385 8.48988C23.3296 8.36193 22.9047 8.26408 22.1256 8.21092C21.72 8.18325 21.256 8.16941 20.7015 8.1625C20.6984 7.46245 20.6894 6.83748 20.6635 6.27979C22.4177 6.30015 23.4782 6.38632 24.3588 6.75104C25.896 7.38778 27.1173 8.60911 27.7541 10.1463C28.2316 11.2993 28.2316 12.7609 28.2316 15.684V27.1652C28.2316 27.6402 28.2316 27.8777 28.077 27.9687C27.9224 28.0596 27.7148 27.9443 27.2996 27.7136L23.6669 25.6955C23.1567 25.412 22.9016 25.2703 22.6242 25.1911C22.5845 25.1797 22.5446 25.1694 22.5044 25.16C22.2235 25.0946 21.9317 25.0946 21.348 25.0946H18.8211C15.8979 25.0946 14.4363 25.0946 13.2834 24.617C11.7462 23.9803 10.5248 22.7589 9.88809 21.2217C9.81957 21.0563 9.76088 20.8845 9.71062 20.703C10.4473 20.7029 11.1115 20.7018 11.7102 20.6898Z" fill="#1A1A1F"/>
<path fill-rule="evenodd" clip-rule="evenodd" d="M18.3435 3.87286C18.8211 5.02578 18.8211 6.48737 18.8211 9.41054C18.8211 12.3337 18.8211 13.7953 18.3435 14.9482C17.7068 16.4855 16.4855 17.7068 14.9482 18.3435C13.7953 18.8211 12.3337 18.8211 9.41054 18.8211H6.88365C6.29997 18.8211 6.00813 18.8211 5.72718 18.8865C5.68702 18.8959 5.64709 18.9062 5.60743 18.9176C5.33005 18.9968 5.07494 19.1385 4.56472 19.422L0.932047 21.4401C0.516825 21.6708 0.309214 21.7861 0.154607 21.6952C5.88958e-07 21.6042 0 21.3667 0 20.8917V9.41054C0 6.48737 0 5.02578 0.477556 3.87286C1.1143 2.33562 2.33562 1.1143 3.87286 0.477557C5.02578 0 6.48737 0 9.41054 0C12.3337 0 13.7953 0 14.9482 0.477557C16.4855 1.1143 17.7068 2.33562 18.3435 3.87286ZM5.33264 7.21475C5.33264 6.69502 5.75397 6.27369 6.2737 6.27369H12.5474C13.0671 6.27369 13.4884 6.69502 13.4884 7.21475C13.4884 7.73448 13.0671 8.1558 12.5474 8.1558H6.2737C5.75397 8.1558 5.33264 7.73448 5.33264 7.21475ZM5.33264 11.6063C5.33264 11.0866 5.75397 10.6653 6.2737 10.6653H10.0379C10.5576 10.6653 10.979 11.0866 10.979 11.6063C10.979 12.1261 10.5576 12.5474 10.0379 12.5474H6.2737C5.75397 12.5474 5.33264 12.1261 5.33264 11.6063Z" fill="#F54838"/>
<path d="M38.6887 20.1196H40.8522V9.20291H45.0355V7.17065H34.5053V9.20291H38.6887V20.1196Z" fill="#1A1A1F"/>
<path d="M52.848 11.9456C52.2106 10.6597 50.8371 10.1381 49.1135 10.1381C46.8333 10.1381 45.4957 11.2262 45.0199 12.8628L46.9949 13.4832C47.3181 12.4941 48.2427 12.1254 49.1135 12.1254C50.4331 12.1254 51.0167 12.647 51.0975 13.762C49.4008 14.0138 47.9016 14.2206 46.8782 14.5533C45.3431 15.0839 44.6698 16.046 44.6698 17.4578C44.6698 19.0585 45.8099 20.3893 47.9195 20.3893C49.4636 20.3893 50.496 19.8947 51.3219 18.8157V20.1196H53.2161V14.1577C53.2161 13.3214 53.1891 12.629 52.848 11.9456ZM50.8551 17.0532C50.6396 17.7276 49.8227 18.6628 48.3504 18.6628C47.3271 18.6628 46.7884 18.1413 46.7884 17.4309C46.7884 16.8014 47.2193 16.4327 47.9644 16.154C48.6467 15.9202 49.5265 15.7853 51.0705 15.5425C51.0615 15.9921 51.0346 16.6126 50.8551 17.0532Z" fill="#1A1A1F"/>
<path d="M55.7327 20.1196H57.8962V6.90088H55.7327V20.1196Z" fill="#1A1A1F"/>
<path d="M60.5673 20.1196H62.7757V15.4436L66.4833 20.1196H69.347L65.2624 15.2637L69.0238 10.4079H66.3217L62.7757 15.0839V7.17065H60.5853L60.5673 20.1196Z" fill="#1A1A1F"/>
<path d="M73.8406 20.1196H76.031V10.9924L82.0277 20.1196H84.2182V7.17065H82.0277V16.2978L76.031 7.17065H73.8406V20.1196Z" fill="#1A1A1F"/>
<path d="M94.3672 11.9456C93.7298 10.6597 92.3563 10.1381 90.6327 10.1381C88.3525 10.1381 87.015 11.2262 86.5392 12.8628L88.5141 13.4832C88.8373 12.4941 89.762 12.1254 90.6327 12.1254C91.9524 12.1254 92.5359 12.647 92.6167 13.762C90.92 14.0138 89.4208 14.2206 88.3974 14.5533C86.8623 15.0839 86.1891 16.046 86.1891 17.4578C86.1891 19.0585 87.3292 20.3893 89.4388 20.3893C90.9828 20.3893 92.0152 19.8947 92.8411 18.8157V20.1196H94.7353V14.1577C94.7353 13.3214 94.7084 12.629 94.3672 11.9456ZM92.3743 17.0532C92.1588 17.7276 91.3419 18.6628 89.8697 18.6628C88.8463 18.6628 88.3077 18.1413 88.3077 17.4309C88.3077 16.8014 88.7386 16.4327 89.4837 16.154C90.1659 15.9202 91.0457 15.7853 92.5897 15.5425C92.5808 15.9921 92.5538 16.6126 92.3743 17.0532Z" fill="#1A1A1F"/>
<path d="M99.9092 12.1074H102.755V10.4079H99.9092V7.71018H97.7547V10.4079H95.9952V12.1074H97.7547V16.154C97.7547 17.269 97.6739 18.0873 98.1228 18.9236C98.8768 20.3174 100.834 20.4882 102.755 20.1196V18.3031C101.543 18.483 100.538 18.4919 100.107 17.7726C99.8733 17.4039 99.9092 16.8014 99.9092 16.0281V12.1074Z" fill="#1A1A1F"/>
<path d="M105.019 8.93314H107.183V6.94584H105.019V8.93314ZM105.019 20.1196H107.183V10.4079H105.019V20.1196Z" fill="#1A1A1F"/>
<path d="M112.493 20.1196H114.666L118.185 10.4079H116.012L113.579 17.4488L111.138 10.4079H108.974L112.493 20.1196Z" fill="#1A1A1F"/>
<path d="M121.223 15.8662H128.243C128.494 12.3682 126.735 10.1381 123.727 10.1381C120.872 10.1381 118.906 12.1883 118.906 15.3716C118.906 18.3211 120.908 20.3893 123.853 20.3893C125.72 20.3893 127.39 19.3822 128.135 17.6197L125.998 16.9723C125.576 17.8715 124.787 18.3571 123.727 18.3571C122.255 18.3571 121.393 17.4668 121.223 15.8662ZM123.817 12.0355C125.155 12.0355 125.864 12.7099 126.043 14.2296H121.276C121.528 12.7908 122.363 12.0355 123.817 12.0355Z" fill="#1A1A1F"/>
</svg>
