<svg width="32" height="32" viewBox="0 0 32 32" fill="none" xmlns="http://www.w3.org/2000/svg">
<path d="M4.80078 8.8C4.80078 8.35817 5.15895 8 5.60078 8H9.60078C10.0426 8 10.4008 8.35817 10.4008 8.8V13.6C10.4008 14.0418 10.0426 14.4 9.60078 14.4H5.60078C5.15895 14.4 4.80078 14.0418 4.80078 13.6V8.8Z" fill="#FF7870"/>
<path fill-rule="evenodd" clip-rule="evenodd" d="M10.3909 14.991C10.8349 14.7379 11.1459 14.2783 11.1933 13.7429C11.3146 13.768 11.4436 13.7967 11.5771 13.8292C12.3171 14.0094 13.0675 14.2773 13.4986 14.6237C13.9653 14.9986 14.4018 15.7428 14.7385 16.502C14.8988 16.8636 15.0232 17.1974 15.1074 17.4407C15.1494 17.562 15.181 17.6598 15.2018 17.7261C15.2122 17.7592 15.2198 17.7843 15.2247 17.8006L15.2271 17.8087C15.3189 18.1493 15.63 18.4 15.9996 18.4C16.4414 18.4 16.7996 18.0418 16.7996 17.6V13.6C18.1251 13.6 19.1996 12.5255 19.1996 11.2C19.1996 9.87452 18.1251 8.8 16.7996 8.8V4.8C16.7996 4.35817 16.4414 4 15.9996 4C15.63 4 15.3189 4.25068 15.2271 4.59131L15.2247 4.59945C15.2198 4.61567 15.2122 4.64084 15.2018 4.67395C15.181 4.74022 15.1494 4.83799 15.1074 4.95926C15.0232 5.20261 14.8988 5.53639 14.7385 5.89795C14.4018 6.65715 13.9653 7.40139 13.4986 7.77635C13.0675 8.12267 12.3171 8.39059 11.5771 8.57077C11.4436 8.6033 11.3146 8.63198 11.1933 8.65711C11.121 7.8404 10.4351 7.2 9.59961 7.2H5.59961C4.71595 7.2 3.99961 7.91634 3.99961 8.8H3.19961C2.31595 8.8 1.59961 9.51634 1.59961 10.4V12C1.59961 12.8837 2.31595 13.6 3.19961 13.6H3.99961C3.99961 14.4819 4.71309 15.1971 5.5943 15.2C5.59744 15.3283 5.60264 15.4669 5.61076 15.6123C5.64822 16.2829 5.75236 17.2057 6.06723 17.922C6.3038 18.46 6.70304 18.9835 7.06418 19.3978C7.4343 19.8223 7.80895 20.1821 8.03968 20.394C8.33671 20.6668 8.71682 20.8 9.09373 20.8H11.5644C12.4637 20.8 12.8431 19.7063 12.2252 19.1257C12.0024 18.9163 11.6929 18.6092 11.4017 18.2668C11.1031 17.9156 10.8597 17.5685 10.7319 17.278C10.54 16.8413 10.4441 16.1642 10.4083 15.523C10.3974 15.3288 10.3925 15.1477 10.3909 14.991ZM15.1996 8.29397C14.9902 8.56627 14.7573 8.81747 14.5007 9.02365C13.7765 9.6055 12.7268 9.93757 11.9557 10.1254C11.6781 10.1929 11.4194 10.2457 11.1996 10.2859V12.1141C11.4194 12.1543 11.6781 12.2071 11.9557 12.2746C12.7268 12.4624 13.7765 12.7945 14.5007 13.3763C14.7573 13.5825 14.9902 13.8337 15.1996 14.106V8.29397ZM7.20827 15.523C7.20196 15.4102 7.19766 15.3018 7.19484 15.2H8.7943C8.79744 15.3283 8.80263 15.4669 8.81076 15.6123C8.84822 16.2829 8.95236 17.2057 9.26723 17.922C9.46854 18.3799 9.78666 18.8253 10.0962 19.2H9.10502C8.89841 19.0094 8.57919 18.7008 8.27021 18.3464C7.94366 17.9718 7.67056 17.5933 7.53194 17.278C7.33995 16.8413 7.24409 16.1642 7.20827 15.523ZM3.99961 12V10.4H3.19961V12H3.99961ZM5.59961 8.8H9.59961V13.6H5.59961V8.8Z" fill="#1C103F"/>
<path d="M26.3996 6.4H18.3996C17.9578 6.4 17.5996 6.04183 17.5996 5.6C17.5996 5.15817 17.9578 4.8 18.3996 4.8H26.3996C28.6087 4.8 30.3996 6.59086 30.3996 8.8V24.8C30.3996 27.0091 28.6087 28.8 26.3996 28.8H13.5996C11.3905 28.8 9.59961 27.0091 9.59961 24.8V22.4C9.59961 21.9582 9.95778 21.6 10.3996 21.6C10.8414 21.6 11.1996 21.9582 11.1996 22.4V24.8C11.1996 26.1255 12.2741 27.2 13.5996 27.2H26.3996C27.7251 27.2 28.7996 26.1255 28.7996 24.8V8.8C28.7996 7.47452 27.7251 6.4 26.3996 6.4Z" fill="#1C103F"/>
<path d="M25.5996 16.8C26.0414 16.8 26.3996 17.1582 26.3996 17.6V24C26.3996 24.4418 26.0414 24.8 25.5996 24.8C25.1578 24.8 24.7996 24.4418 24.7996 24V17.6C24.7996 17.1582 25.1578 16.8 25.5996 16.8Z" fill="#1C103F"/>
<path d="M22.3996 20.8C22.8414 20.8 23.1996 21.1582 23.1996 21.6V24C23.1996 24.4418 22.8414 24.8 22.3996 24.8C21.9578 24.8 21.5996 24.4418 21.5996 24V21.6C21.5996 21.1582 21.9578 20.8 22.3996 20.8Z" fill="#1C103F"/>
<path d="M15.9996 21.6C16.4414 21.6 16.7996 21.9582 16.7996 22.4V24C16.7996 24.4418 16.4414 24.8 15.9996 24.8C15.5578 24.8 15.1996 24.4418 15.1996 24V22.4C15.1996 21.9582 15.5578 21.6 15.9996 21.6Z" fill="#1C103F"/>
<path d="M19.1996 19.2C19.6414 19.2 19.9996 19.5582 19.9996 20V24C19.9996 24.4418 19.6414 24.8 19.1996 24.8C18.7578 24.8 18.3996 24.4418 18.3996 24V20C18.3996 19.5582 18.7578 19.2 19.1996 19.2Z" fill="#1C103F"/>
<path fill-rule="evenodd" clip-rule="evenodd" d="M20.7996 10.8C20.7996 9.2536 22.0532 8 23.5996 8C25.146 8 26.3996 9.2536 26.3996 10.8C26.3996 12.3464 25.146 13.6 23.5996 13.6C22.0532 13.6 20.7996 12.3464 20.7996 10.8ZM23.5996 9.6C22.9369 9.6 22.3996 10.1373 22.3996 10.8C22.3996 11.4627 22.9369 12 23.5996 12C24.2623 12 24.7996 11.4627 24.7996 10.8C24.7996 10.1373 24.2623 9.6 23.5996 9.6Z" fill="#1C103F"/>
</svg>
