<svg width="32" height="32" viewBox="0 0 32 32" fill="none" xmlns="http://www.w3.org/2000/svg">
<path d="M4.8 8.8C4.8 8.35817 5.15818 8 5.6 8H9.6C10.0418 8 10.4 8.35817 10.4 8.8V13.6C10.4 14.0418 10.0418 14.4 9.6 14.4H5.6C5.15818 14.4 4.8 14.0418 4.8 13.6V8.8Z" fill="#FF7870"/>
<path fill-rule="evenodd" clip-rule="evenodd" d="M10.3913 14.991C10.8353 14.7379 11.1463 14.2783 11.1937 13.7429C11.315 13.768 11.4439 13.7967 11.5775 13.8292C12.3175 14.0094 13.0679 14.2773 13.499 14.6237C13.9657 14.9986 14.4022 15.7428 14.7389 16.502C14.8992 16.8636 15.0236 17.1974 15.1078 17.4407C15.1498 17.562 15.1814 17.6598 15.2022 17.7261C15.2126 17.7592 15.2202 17.7843 15.2251 17.8006L15.2275 17.8087C15.3193 18.1493 15.6304 18.4 16 18.4C16.4418 18.4 16.8 18.0418 16.8 17.6V13.6C18.1255 13.6 19.2 12.5255 19.2 11.2C19.2 9.87452 18.1255 8.8 16.8 8.8V4.8C16.8 4.35817 16.4418 4 16 4C15.6304 4 15.3193 4.25068 15.2275 4.59131L15.2251 4.59945C15.2202 4.61567 15.2126 4.64084 15.2022 4.67395C15.1814 4.74022 15.1498 4.83799 15.1078 4.95926C15.0236 5.20261 14.8992 5.53639 14.7389 5.89795C14.4022 6.65715 13.9657 7.40139 13.499 7.77635C13.0679 8.12267 12.3175 8.39059 11.5775 8.57077C11.4439 8.6033 11.315 8.63198 11.1937 8.65711C11.1214 7.8404 10.4355 7.2 9.60001 7.2H5.60001C4.71635 7.2 4.00001 7.91634 4.00001 8.8H3.20001C2.31635 8.8 1.60001 9.51634 1.60001 10.4V12C1.60001 12.8837 2.31635 13.6 3.20001 13.6H4.00001C4.00001 14.4819 4.71348 15.1971 5.5947 15.2C5.59784 15.3283 5.60303 15.4669 5.61116 15.6123C5.64862 16.2829 5.75276 17.2057 6.06763 17.922C6.30419 18.46 6.70344 18.9835 7.06457 19.3978C7.4347 19.8223 7.80935 20.1821 8.04007 20.394C8.33711 20.6668 8.71722 20.8 9.09413 20.8H11.5648C12.4641 20.8 12.8435 19.7063 12.2256 19.1257C12.0028 18.9163 11.6933 18.6092 11.4021 18.2668C11.1035 17.9156 10.8601 17.5685 10.7323 17.278C10.5403 16.8413 10.4445 16.1642 10.4087 15.523C10.3978 15.3288 10.3929 15.1477 10.3913 14.991ZM15.2 8.29397C14.9906 8.56627 14.7577 8.81747 14.5011 9.02365C13.7769 9.6055 12.7272 9.93757 11.9561 10.1254C11.6785 10.1929 11.4198 10.2457 11.2 10.2859V12.1141C11.4198 12.1543 11.6785 12.2071 11.9561 12.2746C12.7272 12.4624 13.7769 12.7945 14.5011 13.3763C14.7577 13.5825 14.9906 13.8337 15.2 14.106V8.29397ZM7.20866 15.523C7.20236 15.4102 7.19806 15.3018 7.19524 15.2H8.7947C8.79784 15.3283 8.80303 15.4669 8.81116 15.6123C8.84862 16.2829 8.95276 17.2057 9.26763 17.922C9.46894 18.3799 9.78706 18.8253 10.0966 19.2H9.10542C8.89881 19.0094 8.57959 18.7008 8.27061 18.3464C7.94405 17.9718 7.67095 17.5933 7.53233 17.278C7.34035 16.8413 7.24449 16.1642 7.20866 15.523ZM4.00001 12V10.4H3.20001V12H4.00001ZM5.60001 8.8H9.60001V13.6H5.60001V8.8Z" fill="#1C103F"/>
<path d="M26.4 6.4H18.4C17.9582 6.4 17.6 6.04183 17.6 5.6C17.6 5.15817 17.9582 4.8 18.4 4.8H26.4C28.6091 4.8 30.4 6.59086 30.4 8.8V24.8C30.4 27.0091 28.6091 28.8 26.4 28.8H13.6C11.3909 28.8 9.60001 27.0091 9.60001 24.8V22.4C9.60001 21.9582 9.95818 21.6 10.4 21.6C10.8418 21.6 11.2 21.9582 11.2 22.4V24.8C11.2 26.1255 12.2745 27.2 13.6 27.2H26.4C27.7255 27.2 28.8 26.1255 28.8 24.8V8.8C28.8 7.47452 27.7255 6.4 26.4 6.4Z" fill="#1C103F"/>
<path d="M25.6 16.8C26.0418 16.8 26.4 17.1582 26.4 17.6V24C26.4 24.4418 26.0418 24.8 25.6 24.8C25.1582 24.8 24.8 24.4418 24.8 24V17.6C24.8 17.1582 25.1582 16.8 25.6 16.8Z" fill="#1C103F"/>
<path d="M22.4 20.8C22.8418 20.8 23.2 21.1582 23.2 21.6V24C23.2 24.4418 22.8418 24.8 22.4 24.8C21.9582 24.8 21.6 24.4418 21.6 24V21.6C21.6 21.1582 21.9582 20.8 22.4 20.8Z" fill="#1C103F"/>
<path d="M16 21.6C16.4418 21.6 16.8 21.9582 16.8 22.4V24C16.8 24.4418 16.4418 24.8 16 24.8C15.5582 24.8 15.2 24.4418 15.2 24V22.4C15.2 21.9582 15.5582 21.6 16 21.6Z" fill="#1C103F"/>
<path d="M19.2 19.2C19.6418 19.2 20 19.5582 20 20V24C20 24.4418 19.6418 24.8 19.2 24.8C18.7582 24.8 18.4 24.4418 18.4 24V20C18.4 19.5582 18.7582 19.2 19.2 19.2Z" fill="#1C103F"/>
<path fill-rule="evenodd" clip-rule="evenodd" d="M20.8 10.8C20.8 9.2536 22.0536 8 23.6 8C25.1464 8 26.4 9.2536 26.4 10.8C26.4 12.3464 25.1464 13.6 23.6 13.6C22.0536 13.6 20.8 12.3464 20.8 10.8ZM23.6 9.6C22.9373 9.6 22.4 10.1373 22.4 10.8C22.4 11.4627 22.9373 12 23.6 12C24.2627 12 24.8 11.4627 24.8 10.8C24.8 10.1373 24.2627 9.6 23.6 9.6Z" fill="#1C103F"/>
</svg>
