<svg width="32" height="32" viewBox="0 0 32 32" fill="none" xmlns="http://www.w3.org/2000/svg">
<g opacity="0.14">
<path d="M10.4 6.40002H8.79998C7.03266 6.40002 5.59998 7.83271 5.59998 9.60002V25.6C5.59998 27.0911 6.61979 28.344 7.99998 28.6992V9.60002C7.99998 8.71637 8.71632 8.00002 9.59998 8.00002H10.4V6.40002Z" fill="#241F2D"/>
<path d="M21.6 8.00002H25.1719C24.6186 7.04354 23.5844 6.40002 22.4 6.40002H21.6V8.00002Z" fill="#241F2D"/>
</g>
<path d="M17.6 12C17.6 11.5581 17.2418 11.2 16.8 11.2H15.2C14.7582 11.2 14.4 11.5581 14.4 12V13.6H12.8C12.3582 13.6 12 13.9581 12 14.4V16C12 16.4418 12.3582 16.8 12.8 16.8H14.4V18.4C14.4 18.8418 14.7582 19.2 15.2 19.2H16.8C17.2418 19.2 17.6 18.8418 17.6 18.4V16.8H19.2C19.6418 16.8 20 16.4418 20 16V14.4C20 13.9581 19.6418 13.6 19.2 13.6H17.6V12Z" fill="#FF7870"/>
<path fill-rule="evenodd" clip-rule="evenodd" d="M15.2 10.4C14.3163 10.4 13.6 11.1163 13.6 12V12.8H12.8C11.9163 12.8 11.2 13.5163 11.2 14.4V16C11.2 16.8836 11.9163 17.6 12.8 17.6H13.6V18.4C13.6 19.2836 14.3163 20 15.2 20H16.8C17.6836 20 18.4 19.2836 18.4 18.4V17.6H19.2C20.0836 17.6 20.8 16.8836 20.8 16V14.4C20.8 13.5163 20.0836 12.8 19.2 12.8H18.4V12C18.4 11.1163 17.6836 10.4 16.8 10.4H15.2ZM15.2 12H16.8V14.4H19.2V16H16.8V18.4H15.2V16H12.8V14.4H15.2V12Z" fill="#1C103F"/>
<path d="M21.6 22.4C21.6 22.8418 21.2418 23.2 20.8 23.2H11.2C10.7582 23.2 10.4 22.8418 10.4 22.4C10.4 21.9581 10.7582 21.6 11.2 21.6H20.8C21.2418 21.6 21.6 21.9581 21.6 22.4Z" fill="#1C103F"/>
<path d="M12 25.6C12 26.0418 12.3582 26.4 12.8 26.4H19.2C19.6418 26.4 20 26.0418 20 25.6C20 25.1581 19.6418 24.8 19.2 24.8H12.8C12.3582 24.8 12 25.1581 12 25.6Z" fill="#1C103F"/>
<path fill-rule="evenodd" clip-rule="evenodd" d="M12.7998 3.19998C13.5287 2.22959 14.6905 1.59998 16 1.59998C17.3095 1.59998 18.4713 2.22959 19.2002 3.19998L20.3455 3.19997C20.5474 3.19995 20.7441 3.19993 20.9106 3.21353C21.0935 3.22847 21.3092 3.26373 21.5264 3.37436C21.8274 3.52776 22.0722 3.77253 22.2256 4.07359C22.3362 4.29073 22.3715 4.50652 22.3864 4.68939C22.4 4.85592 22.4 5.05256 22.4 5.25447L22.4 5.59998H23.2C25.4091 5.59998 27.2 7.39084 27.2 9.59998V26.4C27.2 28.6091 25.4091 30.4 23.2 30.4H8.79999C6.59085 30.4 4.79999 28.6091 4.79999 26.4V9.59998C4.79999 7.39084 6.59085 5.59998 8.79999 5.59998H9.60001L9.59999 5.25446C9.59997 5.05256 9.59994 4.85591 9.61355 4.68939C9.62849 4.50652 9.66374 4.29073 9.77438 4.07359C9.92778 3.77253 10.1725 3.52776 10.4736 3.37437C10.6907 3.26373 10.9065 3.22847 11.0894 3.21353C11.2559 3.19993 11.4526 3.19995 11.6545 3.19997L12.7998 3.19998ZM16 3.19998C15.1127 3.19998 14.3368 3.68111 13.9206 4.40056L13.6895 4.79998H11.68C11.4428 4.79998 11.313 4.8006 11.2197 4.80822L11.2092 4.80913L11.2082 4.81968C11.2006 4.91295 11.2 5.04275 11.2 5.27998V5.43998C11.2 5.90122 11.2006 6.19904 11.2191 6.42571C11.2369 6.64304 11.267 6.72361 11.2872 6.76317C11.3639 6.9137 11.4863 7.03608 11.6368 7.11278C11.6764 7.13293 11.7569 7.16308 11.9743 7.18083C12.2009 7.19935 12.4987 7.19998 12.96 7.19998H19.04C19.5012 7.19998 19.7991 7.19935 20.0257 7.18083C20.2431 7.16308 20.3236 7.13293 20.3632 7.11278C20.5137 7.03608 20.6361 6.9137 20.7128 6.76317C20.733 6.72361 20.7631 6.64304 20.7809 6.42571C20.7994 6.19904 20.8 5.90122 20.8 5.43998V5.27998C20.8 5.04275 20.7994 4.91295 20.7917 4.81968L20.7908 4.80913L20.7803 4.80822C20.687 4.8006 20.5572 4.79998 20.32 4.79998H18.3105L18.0794 4.40056C17.6632 3.68111 16.8873 3.19998 16 3.19998ZM22.1384 7.48955C22.187 7.3941 22.226 7.29747 22.2574 7.19998H23.2C24.5255 7.19998 25.6 8.27449 25.6 9.59998V26.4C25.6 27.7255 24.5255 28.8 23.2 28.8H8.79999C7.4745 28.8 6.39999 27.7255 6.39999 26.4V9.59998C6.39999 8.27449 7.4745 7.19998 8.79999 7.19998H9.74259C9.77397 7.29747 9.81294 7.3941 9.86158 7.48955C10.0917 7.94114 10.4588 8.30829 10.9104 8.53839C11.2131 8.69263 11.5277 8.74968 11.844 8.77552C12.1436 8.8 12.5074 8.79999 12.9292 8.79998H19.0708C19.4925 8.79999 19.8564 8.8 20.156 8.77552C20.4723 8.74968 20.7869 8.69263 21.0896 8.53839C21.5412 8.30829 21.9083 7.94114 22.1384 7.48955Z" fill="#1C103F"/>
</svg>
