<svg width="32" height="32" viewBox="0 0 32 32" fill="none" xmlns="http://www.w3.org/2000/svg">
<path opacity="0.14" d="M9.97185 9.33328L10.4 9.39445V11.0107L9.74558 10.9172C8.08712 10.6803 6.52664 11.7626 6.16745 13.3989L4.05712 23.0126C3.82922 24.0508 4.3055 25.079 5.1661 25.6H2.97449C2.46448 24.7513 2.26517 23.7135 2.49433 22.6696L4.60466 13.0559C5.14345 10.6014 7.48416 8.97789 9.97185 9.33328Z" fill="#241F2D"/>
<path d="M10.4 10.4H21.6L20.8 13.6H11.2L10.4 10.4Z" fill="#FF7870"/>
<path d="M7.19998 13.6C7.19998 13.1581 7.55815 12.8 7.99998 12.8C8.4418 12.8 8.79997 13.1581 8.79997 13.6V14.4H9.59997C10.0418 14.4 10.4 14.7581 10.4 15.2C10.4 15.6418 10.0418 16 9.59997 16H8.79997V16.8C8.79997 17.2418 8.4418 17.6 7.99998 17.6C7.55815 17.6 7.19998 17.2418 7.19998 16.8V16H6.39998C5.95815 16 5.59998 15.6418 5.59998 15.2C5.59998 14.7581 5.95815 14.4 6.39998 14.4H7.19998V13.6Z" fill="#1C103F"/>
<path d="M13.6 18.4C13.6 19.2836 12.8836 20 12 20C11.1163 20 10.4 19.2836 10.4 18.4C10.4 17.5163 11.1163 16.8 12 16.8C12.8836 16.8 13.6 17.5163 13.6 18.4Z" fill="#1C103F"/>
<path d="M21.6 18.4C21.6 19.2836 20.8836 20 20 20C19.1163 20 18.4 19.2836 18.4 18.4C18.4 17.5163 19.1163 16.8 20 16.8C20.8836 16.8 21.6 17.5163 21.6 18.4Z" fill="#1C103F"/>
<path d="M23.2 15.2C23.2 15.6418 22.8418 16 22.4 16C21.9581 16 21.6 15.6418 21.6 15.2C21.6 14.7581 21.9581 14.4 22.4 14.4C22.8418 14.4 23.2 14.7581 23.2 15.2Z" fill="#1C103F"/>
<path d="M24 14.4C24.4418 14.4 24.8 14.0418 24.8 13.6C24.8 13.1581 24.4418 12.8 24 12.8C23.5581 12.8 23.2 13.1581 23.2 13.6C23.2 14.0418 23.5581 14.4 24 14.4Z" fill="#1C103F"/>
<path d="M24.8 16.8C24.8 17.2418 24.4418 17.6 24 17.6C23.5581 17.6 23.2 17.2418 23.2 16.8C23.2 16.3581 23.5581 16 24 16C24.4418 16 24.8 16.3581 24.8 16.8Z" fill="#1C103F"/>
<path d="M25.6 16C26.0418 16 26.4 15.6418 26.4 15.2C26.4 14.7581 26.0418 14.4 25.6 14.4C25.1581 14.4 24.8 14.7581 24.8 15.2C24.8 15.6418 25.1581 16 25.6 16Z" fill="#1C103F"/>
<path fill-rule="evenodd" clip-rule="evenodd" d="M6.39998 8.39995C6.39998 7.73721 6.93723 7.19995 7.59998 7.19995H9.19998C9.86272 7.19995 10.4 7.73721 10.4 8.39995V8.86039C10.7291 9.01314 10.9977 9.27423 11.1595 9.59995H20.8404C21.0022 9.27423 21.2708 9.01314 21.6 8.86039V8.39995C21.6 7.73721 22.1372 7.19995 22.8 7.19995H24.4C25.0627 7.19995 25.6 7.73721 25.6 8.39995V8.72813C27.159 9.24616 28.4033 10.5504 28.7776 12.2558L30.8879 21.8695C31.3654 24.0447 29.9827 26.1932 27.8053 26.6598C26.0135 27.0438 24.189 26.1669 23.3695 24.5279L22.0818 21.9525C21.5886 22.1868 20.8928 22.4 20 22.4C18.7385 22.4 17.8729 21.9748 17.4149 21.6677C17.37 21.6376 17.3328 21.6193 17.3053 21.6094C17.2809 21.6005 17.2685 21.6 17.2685 21.6H14.7314C14.7314 21.6 14.719 21.6005 14.6946 21.6094C14.6671 21.6193 14.6299 21.6376 14.5851 21.6677C14.1271 21.9748 13.2615 22.4 12 22.4C11.1072 22.4 10.4114 22.1868 9.91814 21.9525L8.63042 24.5279C7.81095 26.1669 5.98642 27.0438 4.1947 26.6598C2.0172 26.1932 0.634536 24.0447 1.11201 21.8695L3.22233 12.2558C3.59669 10.5504 4.84094 9.24616 6.39998 8.72813V8.39995ZM11.5358 11.2H20.4641L20.2084 12.4784C20.171 12.6654 20.0069 12.8 19.8162 12.8H12.1837C11.9931 12.8 11.8289 12.6654 11.7915 12.4784L11.5358 11.2ZM8.36325 10.1171C6.70479 9.88019 5.14432 10.9625 4.78512 12.5988L2.6748 22.2126C2.38746 23.5215 3.21954 24.8146 4.52994 25.0954C5.6082 25.3264 6.70619 24.7987 7.19934 23.8124L8.63625 20.9386C9.00831 20.1944 9.9028 20.1172 10.4454 20.4246C10.7362 20.5894 11.2513 20.8 12 20.8C12.8843 20.8 13.445 20.5057 13.694 20.3388C13.9492 20.1676 14.307 20 14.7314 20H17.2686C17.6929 20 18.0508 20.1676 18.306 20.3388C18.5549 20.5057 19.1157 20.8 20 20.8C20.7486 20.8 21.2637 20.5894 21.5546 20.4246C22.0971 20.1172 22.9916 20.1944 23.3637 20.9386L24.8006 23.8124C25.2938 24.7987 26.3918 25.3264 27.47 25.0954C28.7804 24.8146 29.6125 23.5215 29.3252 22.2126L27.2148 12.5988C26.8556 10.9625 25.2952 9.88019 23.6367 10.1171L22.2734 10.3119L21.7131 13.1137C21.5635 13.8616 20.9068 14.4 20.1441 14.4H11.8558C11.0931 14.4 10.4365 13.8616 10.2869 13.1137L9.72652 10.3119L8.36325 10.1171Z" fill="#1C103F"/>
</svg>
