<svg width="32" height="32" viewBox="0 0 32 32" fill="none" xmlns="http://www.w3.org/2000/svg">
<path opacity="0.14" d="M5.60002 12.8C3.83271 12.8 2.40002 14.2327 2.40002 16V25.6C2.40002 27.1168 3.45533 28.3871 4.87176 28.7168C4.82493 28.5388 4.80002 28.3522 4.80002 28.16V16.64C4.80002 15.4029 5.83156 14.4 7.10402 14.4H21.696C21.7928 14.4 21.8881 14.4058 21.9817 14.4171C21.4309 13.4512 20.3915 12.8 19.2 12.8H5.60002Z" fill="#241F2D"/>
<path d="M15.8015 20.1344L10.8437 16.8292C10.3121 16.4748 9.59998 16.8559 9.59998 17.4948V24.1052C9.59998 24.7442 10.3121 25.1253 10.8437 24.7708L15.8015 21.4657C16.2765 21.149 16.2765 20.451 15.8015 20.1344Z" fill="#FF7870"/>
<path d="M12.8 6.40002C12.8 4.19089 14.5908 2.40002 16.8 2.40002H26.4C28.6091 2.40002 30.4 4.19089 30.4 6.40002V12.8C30.4 15.0092 28.6091 16.8 26.4 16.8H24.8C24.3581 16.8 24 16.4419 24 16C24 15.5582 24.3581 15.2 24.8 15.2H26.4C27.7255 15.2 28.8 14.1255 28.8 12.8V11.5314L25.6 8.3314L22.5657 11.3657C22.2532 11.6781 21.7467 11.6781 21.4343 11.3657C21.1219 11.0533 21.1219 10.5468 21.4343 10.2343L24.7514 6.91718C25.2201 6.44855 25.9799 6.44855 26.4485 6.91718L28.8 9.26865V6.40002C28.8 5.07454 27.7255 4.00002 26.4 4.00002H16.8C15.4745 4.00002 14.4 5.07454 14.4 6.40002V10.4C14.4 10.8419 14.0418 11.2 13.6 11.2C13.1581 11.2 12.8 10.8419 12.8 10.4V6.40002Z" fill="#1C103F"/>
<path d="M18.4 8.80002C19.2836 8.80002 20 8.08368 20 7.20002C20 6.31637 19.2836 5.60002 18.4 5.60002C17.5163 5.60002 16.8 6.31637 16.8 7.20002C16.8 8.08368 17.5163 8.80002 18.4 8.80002Z" fill="#1C103F"/>
<path fill-rule="evenodd" clip-rule="evenodd" d="M11.2875 16.1636C10.2242 15.4547 8.79998 16.2169 8.79998 17.4948V24.1052C8.79998 25.3831 10.2242 26.1454 11.2875 25.4365L16.2453 22.1313C17.1952 21.498 17.1952 20.1021 16.2453 19.4687L11.2875 16.1636ZM10.4 17.4948L15.3578 20.8L10.4 24.1052V17.4948Z" fill="#1C103F"/>
<path fill-rule="evenodd" clip-rule="evenodd" d="M1.59998 16C1.59998 13.7909 3.39084 12 5.59998 12H19.2C21.4091 12 23.2 13.7909 23.2 16V25.6C23.2 27.8092 21.4091 29.6 19.2 29.6H5.59998C3.39084 29.6 1.59998 27.8092 1.59998 25.6V16ZM5.59998 13.6C4.27449 13.6 3.19998 14.6745 3.19998 16V25.6C3.19998 26.9255 4.27449 28 5.59998 28H19.2C20.5255 28 21.6 26.9255 21.6 25.6V16C21.6 14.6745 20.5255 13.6 19.2 13.6H5.59998Z" fill="#1C103F"/>
</svg>
