<svg width="14" height="14" viewBox="0 0 14 14" fill="none" xmlns="http://www.w3.org/2000/svg">
<path d="M12.8333 6.16683H7.83334V1.16683C7.83334 0.945816 7.74555 0.733854 7.58926 0.577574C7.43298 0.421294 7.22102 0.333496 7.00001 0.333496C6.779 0.333496 6.56703 0.421294 6.41075 0.577574C6.25447 0.733854 6.16668 0.945816 6.16668 1.16683V6.16683H1.16668C0.945663 6.16683 0.733702 6.25463 0.577421 6.41091C0.421141 6.56719 0.333344 6.77915 0.333344 7.00016C0.333344 7.22118 0.421141 7.43314 0.577421 7.58942C0.733702 7.7457 0.945663 7.8335 1.16668 7.8335H6.16668V12.8335C6.16668 13.0545 6.25447 13.2665 6.41075 13.4228C6.56703 13.579 6.779 13.6668 7.00001 13.6668C7.22102 13.6668 7.43298 13.579 7.58926 13.4228C7.74555 13.2665 7.83334 13.0545 7.83334 12.8335V7.8335H12.8333C13.0544 7.8335 13.2663 7.7457 13.4226 7.58942C13.5789 7.43314 13.6667 7.22118 13.6667 7.00016C13.6667 6.77915 13.5789 6.56719 13.4226 6.41091C13.2663 6.25463 13.0544 6.16683 12.8333 6.16683Z" fill="#3189ED"/>
</svg>
