<svg width="32" height="32" viewBox="0 0 32 32" fill="none" xmlns="http://www.w3.org/2000/svg">
<path opacity="0.14" d="M5.60039 3.19995C3.83308 3.19995 2.40039 4.63264 2.40039 6.39995V25.6C2.40039 27.091 3.42021 28.3439 4.80039 28.6991V6.39995C4.80039 5.5163 5.51674 4.79995 6.40039 4.79995H29.1723C28.619 3.84347 27.5848 3.19995 26.4004 3.19995H5.60039Z" fill="#241F2D"/>
<path d="M6.40039 20.8C6.40039 20.3582 6.75856 20 7.20039 20H17.6004C18.0422 20 18.4004 20.3582 18.4004 20.8V23.2C18.4004 23.6418 18.0422 24 17.6004 24H7.20039C6.75856 24 6.40039 23.6418 6.40039 23.2V20.8Z" fill="#FF7870"/>
<path d="M1.59961 6.40002C1.59961 4.19089 3.39047 2.40002 5.59961 2.40002H26.3996C28.6087 2.40002 30.3996 4.19089 30.3996 6.40002V19.2C30.3996 19.6419 30.0414 20 29.5996 20C29.1578 20 28.7996 19.6419 28.7996 19.2V6.40002C28.7996 5.07454 27.7251 4.00002 26.3996 4.00002H5.59961C4.27413 4.00002 3.19961 5.07454 3.19961 6.40002V25.6C3.19961 26.9255 4.27413 28 5.59961 28H19.1996C19.6414 28 19.9996 28.3582 19.9996 28.8C19.9996 29.2419 19.6414 29.6 19.1996 29.6H5.59961C3.39047 29.6 1.59961 27.8092 1.59961 25.6V6.40002Z" fill="#1C103F"/>
<path fill-rule="evenodd" clip-rule="evenodd" d="M22.9118 16.9854C22.6733 16.7867 22.3414 16.7439 22.0603 16.8756C21.7792 17.0072 21.5996 17.2896 21.5996 17.6V27.2C21.5996 27.5236 21.7945 27.8153 22.0935 27.9391C22.3924 28.063 22.7365 27.9945 22.9653 27.7657L24.1804 26.5506L25.3263 28.8423C25.7215 29.6326 26.6826 29.953 27.4729 29.5578L28.4418 29.0733C29.2322 28.6782 29.5526 27.7171 29.1574 26.9267L28.0115 24.635L29.7127 24.392C30.0257 24.3473 30.283 24.1225 30.3692 23.8184C30.4555 23.5142 30.3546 23.1878 30.1118 22.9854L22.9118 16.9854ZM23.1996 25.2687V19.3081L27.705 23.0626L26.6865 23.2081C26.4319 23.2444 26.2103 23.401 26.091 23.6287C25.9716 23.8565 25.9691 24.1278 26.0841 24.3578L27.7263 27.6423L26.7574 28.1267L25.1152 24.8423C25.0001 24.6122 24.7816 24.4515 24.5278 24.4104C24.2739 24.3692 24.0158 24.4525 23.8339 24.6343L23.1996 25.2687Z" fill="#1C103F"/>
<path fill-rule="evenodd" clip-rule="evenodd" d="M7.19961 19.2C6.31595 19.2 5.59961 19.9164 5.59961 20.8V23.2C5.59961 24.0837 6.31595 24.8 7.19961 24.8H17.5996C18.4833 24.8 19.1996 24.0837 19.1996 23.2V20.8C19.1996 19.9164 18.4833 19.2 17.5996 19.2H7.19961ZM7.19961 20.8H17.5996V23.2H7.19961V20.8Z" fill="#1C103F"/>
<path d="M5.59961 10.4C5.59961 9.9582 5.95778 9.60002 6.39961 9.60002H25.5996C26.0414 9.60002 26.3996 9.9582 26.3996 10.4C26.3996 10.8419 26.0414 11.2 25.5996 11.2H6.39961C5.95778 11.2 5.59961 10.8419 5.59961 10.4Z" fill="#1C103F"/>
<path d="M6.39961 12.8C5.95778 12.8 5.59961 13.1582 5.59961 13.6C5.59961 14.0419 5.95778 14.4 6.39961 14.4H25.5996C26.0414 14.4 26.3996 14.0419 26.3996 13.6C26.3996 13.1582 26.0414 12.8 25.5996 12.8H6.39961Z" fill="#1C103F"/>
<path d="M5.59961 16.8C5.59961 16.3582 5.95778 16 6.39961 16H18.3996C18.8414 16 19.1996 16.3582 19.1996 16.8C19.1996 17.2419 18.8414 17.6 18.3996 17.6H6.39961C5.95778 17.6 5.59961 17.2419 5.59961 16.8Z" fill="#1C103F"/>
<path d="M11.1996 6.40002C10.7578 6.40002 10.3996 6.7582 10.3996 7.20002C10.3996 7.64185 10.7578 8.00002 11.1996 8.00002H20.7996C21.2414 8.00002 21.5996 7.64185 21.5996 7.20002C21.5996 6.7582 21.2414 6.40002 20.7996 6.40002H11.1996Z" fill="#1C103F"/>
</svg>
