<svg width="32" height="32" viewBox="0 0 32 32" fill="none" xmlns="http://www.w3.org/2000/svg">
<path d="M21.6 13.6H29.6V22.4H21.6V13.6Z" fill="#FF7870"/>
<path opacity="0.14" d="M21.6 13.6H24V22.4H21.6V13.6Z" fill="#241F2D"/>
<path opacity="0.14" d="M4.00002 4C3.11637 4 2.40002 4.71634 2.40002 5.6V20C2.40002 20.8837 3.11637 21.6 4.00002 21.6H4.80002V6.4C4.80002 5.95817 5.1582 5.6 5.60002 5.6H26.4C26.4 4.71634 25.6837 4 24.8 4H4.00002Z" fill="#241F2D"/>
<path d="M14.4 9.59995C14.4 10.0418 14.0418 10.4 13.6 10.4H8.79998C8.35815 10.4 7.99998 10.0418 7.99998 9.59995C7.99998 9.15812 8.35815 8.79995 8.79998 8.79995H13.6C14.0418 8.79995 14.4 9.15812 14.4 9.59995Z" fill="#1C103F"/>
<path d="M12 12C12 12.4418 11.6418 12.8 11.2 12.8H8.79998C8.35815 12.8 7.99998 12.4418 7.99998 12C7.99998 11.5581 8.35815 11.2 8.79998 11.2H11.2C11.6418 11.2 12 11.5581 12 12Z" fill="#1C103F"/>
<path fill-rule="evenodd" clip-rule="evenodd" d="M5.59998 7.19995C5.59998 6.75812 5.95815 6.39995 6.39998 6.39995H17.6C18.0418 6.39995 18.4 6.75812 18.4 7.19995V15.2C18.4 15.6418 18.0418 16 17.6 16H6.39998C5.95815 16 5.59998 15.6418 5.59998 15.2V7.19995ZM7.19998 7.99995V14.4H16.8V7.99995H7.19998Z" fill="#1C103F"/>
<path fill-rule="evenodd" clip-rule="evenodd" d="M3.99998 3.19995C2.67449 3.19995 1.59998 4.27447 1.59998 5.59995V20C1.59998 21.3254 2.67449 22.4 3.99997 22.4H11.2V24.7999H10.4C9.95815 24.7999 9.59998 25.1581 9.59998 25.5999V27.1999H8.79998C8.35815 27.1999 7.99998 27.5581 7.99998 28C7.99998 28.4418 8.35815 28.7999 8.79998 28.7999H20C20.4418 28.7999 20.8 28.4418 20.8 28C20.8 27.5581 20.4418 27.1999 20 27.1999H19.2V25.5999C19.2 25.1581 18.8418 24.7999 18.4 24.7999H17.6V22.4H20.8V24C20.8 25.3254 21.8745 26.4 23.2 26.4H28C29.3255 26.4 30.4 25.3254 30.4 24V12.8C30.4 11.4745 29.3255 10.4 28 10.4H27.2V5.59995C27.2 4.27447 26.1255 3.19995 24.8 3.19995H3.99998ZM16 22.4H12.8V24.7999H16V22.4ZM25.6 5.59995C25.6 5.15812 25.2418 4.79995 24.8 4.79995H3.99998C3.55815 4.79995 3.19998 5.15812 3.19998 5.59995V17.6H20.8V12.8C20.8 11.4745 21.8745 10.4 23.2 10.4H25.6V5.59995ZM3.19998 19.2V20C3.19998 20.4418 3.55815 20.7999 3.99997 20.7999H20.8V19.2H3.19998ZM17.6 27.1999V26.4H11.2V27.1999H17.6ZM22.4 12.8C22.4 12.3581 22.7581 12 23.2 12H28C28.4418 12 28.8 12.3581 28.8 12.8H22.4ZM22.4 14.4V21.6H28.8V14.4H22.4ZM22.4 23.1999V24C22.4 24.4418 22.7581 24.7999 23.2 24.7999H28C28.4418 24.7999 28.8 24.4418 28.8 24V23.1999H22.4Z" fill="#1C103F"/>
</svg>
