<svg width="32" height="32" viewBox="0 0 32 32" fill="none" xmlns="http://www.w3.org/2000/svg">
<path d="M23.5258 12.7798C23.562 12.6522 23.5975 12.5236 23.6322 12.3942C24.9472 7.48627 24.6294 3.13683 22.9223 2.67942C21.2152 2.222 18.7653 5.82983 17.4502 10.7377C17.4155 10.8672 17.382 10.9962 17.3496 11.1249L23.5258 12.7798Z" fill="#FF7870"/>
<path opacity="0.14" d="M24.0763 4.04983C23.8208 3.3032 23.434 2.81646 22.9223 2.67937C21.2152 2.22195 18.7653 5.82978 17.4502 10.7377C17.4155 10.8671 17.382 10.9962 17.3495 11.1248L19.4163 11.6786C20.5758 7.60867 22.5029 4.51537 24.0763 4.04983Z" fill="#241F2D"/>
<path fill-rule="evenodd" clip-rule="evenodd" d="M23.3212 13.5532L23.3187 13.5525L21.0034 12.9321L19.6575 17.9549C19.5431 18.3817 19.1045 18.635 18.6777 18.5206C18.2509 18.4063 17.9977 17.9676 18.112 17.5408L19.4579 12.518L17.1425 11.8976L17.14 11.8969L11.7384 10.4496C11.3239 10.3385 11.0709 9.92021 11.1649 9.50153C11.1964 9.36139 11.2308 9.22128 11.2683 9.08128C12.689 3.77935 17.9761 0.52587 23.1294 1.90669C28.2827 3.28751 31.2348 8.74868 29.8141 14.0506C29.7766 14.1906 29.7364 14.3292 29.6936 14.4663C29.5657 14.8759 29.1374 15.1116 28.7229 15.0006L23.3212 13.5532ZM16.7838 10.145L12.9259 9.11132C14.0011 5.71058 16.9512 3.44498 20.1819 3.21102C19.9043 3.51836 19.6354 3.86738 19.3775 4.24717C18.3789 5.71764 17.4521 7.78786 16.7838 10.145ZM18.3295 10.5592L22.96 11.8C23.5244 9.55677 23.7265 7.48417 23.6127 5.92617C23.5522 5.09857 23.4057 4.46183 23.21 4.03105C23.0113 3.59374 22.8179 3.47966 22.7153 3.45217C22.6127 3.42469 22.3881 3.42675 21.9974 3.70614C21.6126 3.98135 21.1673 4.45953 20.7011 5.14602C19.8235 6.43836 18.9623 8.33438 18.3295 10.5592ZM25.0299 4.51005C27.7108 6.32801 29.1328 9.76512 28.3636 13.2478L24.5057 12.2141C25.1055 9.8386 25.338 7.58231 25.2085 5.80958C25.175 5.35172 25.1166 4.91501 25.0299 4.51005Z" fill="#1C103F"/>
<path fill-rule="evenodd" clip-rule="evenodd" d="M28.4434 18.7201C27.6768 17.4934 26.0782 17.0911 24.8222 17.8088L18.1876 21.6H5.20002C3.65363 21.6 2.40002 22.8536 2.40002 24.4C2.40002 25.9464 3.65363 27.2 5.20002 27.2H5.60002V28.8H3.20002C2.7582 28.8 2.40002 29.1582 2.40002 29.6C2.40002 30.0419 2.7582 30.4 3.20002 30.4H28C28.4419 30.4 28.8 30.0419 28.8 29.6C28.8 29.1582 28.4419 28.8 28 28.8H26.4V23.1262L27.5163 22.475C28.8294 21.7091 29.2491 20.0091 28.4434 18.7201ZM25.616 19.198C26.1261 18.9065 26.7753 19.0699 27.0866 19.5681C27.4138 20.0915 27.2434 20.7819 26.7101 21.093L18.9837 25.6H5.20002C4.53728 25.6 4.00002 25.0628 4.00002 24.4C4.00002 23.7373 4.53728 23.2 5.20002 23.2H5.60002V23.6C5.60002 24.0419 5.9582 24.4 6.40002 24.4C6.84185 24.4 7.20002 24.0419 7.20002 23.6V23.2H10.4V23.6C10.4 24.0419 10.7582 24.4 11.2 24.4C11.6419 24.4 12 24.0419 12 23.6V23.2H15.2V23.6C15.2 24.0419 15.5582 24.4 16 24.4C16.4419 24.4 16.8 24.0419 16.8 23.6V23.2H18.4C18.5392 23.2 18.6761 23.1637 18.7969 23.0946L25.616 19.198ZM24.8 24.0595L19.6031 27.091C19.4808 27.1624 19.3417 27.2 19.2 27.2H7.20002V28.8H24.8V24.0595Z" fill="#1C103F"/>
</svg>
