<svg width="30" height="28" viewBox="0 0 30 28" fill="none" xmlns="http://www.w3.org/2000/svg">
<path fill-rule="evenodd" clip-rule="evenodd" d="M11 0.400024C9.67452 0.400024 8.60001 1.47454 8.60001 2.80002V4.40002H4.60001C2.39087 4.40002 0.600006 6.19088 0.600006 8.40002V23.6C0.600006 25.8092 2.39087 27.6 4.60001 27.6H25.4C27.6091 27.6 29.4 25.8092 29.4 23.6V8.40002C29.4 6.19089 27.6091 4.40002 25.4 4.40002H21.4V2.80002C21.4 1.47454 20.3255 0.400024 19 0.400024H11ZM19.8 4.40002V2.80002C19.8 2.3582 19.4418 2.00002 19 2.00002H11C10.5582 2.00002 10.2 2.3582 10.2 2.80002V4.40002H19.8ZM2.20001 8.40002C2.20001 7.07454 3.27452 6.00002 4.60001 6.00002H25.4C26.7255 6.00002 27.8 7.07454 27.8 8.40002V11.0667C27.6676 11.1099 27.516 11.1583 27.3463 11.2111C26.6378 11.4316 25.6163 11.7265 24.3724 12.0216C22.6498 12.4304 20.511 12.8371 18.193 13.0493C18.117 12.2363 17.4328 11.6 16.6 11.6H13.4C12.5672 11.6 11.883 12.2363 11.807 13.0493C9.48897 12.8371 7.35023 12.4304 5.62756 12.0216C4.38371 11.7265 3.36224 11.4316 2.65372 11.2111C2.48404 11.1583 2.33239 11.1099 2.20001 11.0667V8.40002ZM11.8 14.6551C9.33098 14.4377 7.06422 14.007 5.25816 13.5784C3.98591 13.2765 2.93688 12.9744 2.20001 12.7456V23.6C2.20001 24.9255 3.27452 26 4.60001 26H25.4C26.7255 26 27.8 24.9255 27.8 23.6V12.7456C27.0631 12.9744 26.0141 13.2765 24.7419 13.5784C22.9358 14.007 20.669 14.4377 18.2 14.655V14.8C18.2 16.1255 17.1255 17.2 15.8 17.2H14.2C12.8745 17.2 11.8 16.1255 11.8 14.8V14.6551ZM13.4 13.2H16.6V14.8C16.6 15.2419 16.2418 15.6 15.8 15.6H14.2C13.7582 15.6 13.4 15.2419 13.4 14.8V13.2Z" fill="#1C103F"/>
</svg>
