<svg width="30" height="20" viewBox="0 0 30 20" fill="none" xmlns="http://www.w3.org/2000/svg">
<path d="M6.19998 6.59995C6.19998 6.15812 6.55815 5.79995 6.99998 5.79995C7.4418 5.79995 7.79997 6.15812 7.79997 6.59995V7.39995H8.59997C9.0418 7.39995 9.39997 7.75812 9.39997 8.19995C9.39997 8.64178 9.0418 8.99995 8.59997 8.99995H7.79997V9.79995C7.79997 10.2418 7.4418 10.6 6.99998 10.6C6.55815 10.6 6.19998 10.2418 6.19998 9.79995V8.99995H5.39998C4.95815 8.99995 4.59998 8.64178 4.59998 8.19995C4.59998 7.75812 4.95815 7.39995 5.39998 7.39995H6.19998V6.59995Z" fill="#1C103F"/>
<path d="M12.6 11.4C12.6 12.2836 11.8836 13 11 13C10.1163 13 9.39997 12.2836 9.39997 11.4C9.39997 10.5163 10.1163 9.79995 11 9.79995C11.8836 9.79995 12.6 10.5163 12.6 11.4Z" fill="#1C103F"/>
<path d="M20.6 11.4C20.6 12.2836 19.8836 13 19 13C18.1163 13 17.4 12.2836 17.4 11.4C17.4 10.5163 18.1163 9.79995 19 9.79995C19.8836 9.79995 20.6 10.5163 20.6 11.4Z" fill="#1C103F"/>
<path d="M22.2 8.19995C22.2 8.64178 21.8418 8.99995 21.4 8.99995C20.9581 8.99995 20.6 8.64178 20.6 8.19995C20.6 7.75812 20.9581 7.39995 21.4 7.39995C21.8418 7.39995 22.2 7.75812 22.2 8.19995Z" fill="#1C103F"/>
<path d="M23 7.39995C23.4418 7.39995 23.8 7.04178 23.8 6.59995C23.8 6.15812 23.4418 5.79995 23 5.79995C22.5581 5.79995 22.2 6.15812 22.2 6.59995C22.2 7.04178 22.5581 7.39995 23 7.39995Z" fill="#1C103F"/>
<path d="M23.8 9.79995C23.8 10.2418 23.4418 10.6 23 10.6C22.5581 10.6 22.2 10.2418 22.2 9.79995C22.2 9.35812 22.5581 8.99995 23 8.99995C23.4418 8.99995 23.8 9.35812 23.8 9.79995Z" fill="#1C103F"/>
<path d="M24.6 8.99995C25.0418 8.99995 25.4 8.64178 25.4 8.19995C25.4 7.75812 25.0418 7.39995 24.6 7.39995C24.1581 7.39995 23.8 7.75812 23.8 8.19995C23.8 8.64178 24.1581 8.99995 24.6 8.99995Z" fill="#1C103F"/>
<path fill-rule="evenodd" clip-rule="evenodd" d="M5.39998 1.39995C5.39998 0.737209 5.93723 0.199951 6.59998 0.199951H8.19998C8.86272 0.199951 9.39997 0.737209 9.39997 1.39995V1.86039C9.72912 2.01314 9.99771 2.27423 10.1595 2.59995H19.8404C20.0022 2.27423 20.2708 2.01314 20.6 1.86039V1.39995C20.6 0.737209 21.1372 0.199951 21.8 0.199951H23.4C24.0627 0.199951 24.6 0.737209 24.6 1.39995V1.72813C26.159 2.24616 27.4033 3.55038 27.7776 5.2558L29.8879 14.8695C30.3654 17.0447 28.9827 19.1932 26.8053 19.6598C25.0135 20.0438 23.189 19.1669 22.3695 17.5279L21.0818 14.9525C20.5886 15.1868 19.8928 15.4 19 15.4C17.7385 15.4 16.8729 14.9748 16.4149 14.6677C16.37 14.6376 16.3328 14.6193 16.3053 14.6094C16.2809 14.6005 16.2685 14.6 16.2685 14.6H13.7314C13.7314 14.6 13.719 14.6005 13.6946 14.6094C13.6671 14.6193 13.6299 14.6376 13.5851 14.6677C13.1271 14.9748 12.2615 15.4 11 15.4C10.1072 15.4 9.41138 15.1868 8.91814 14.9525L7.63042 17.5279C6.81095 19.1669 4.98642 20.0438 3.1947 19.6598C1.0172 19.1932 -0.365464 17.0447 0.112006 14.8695L2.22233 5.2558C2.59669 3.55039 3.84094 2.24616 5.39998 1.72813V1.39995ZM10.5358 4.19995H19.4641L19.2084 5.4784C19.171 5.66537 19.0069 5.79995 18.8162 5.79995H11.1837C10.9931 5.79995 10.8289 5.66537 10.7915 5.4784L10.5358 4.19995ZM7.36325 3.11711C5.70479 2.88019 4.14432 3.96251 3.78512 5.59885L1.6748 15.2126C1.38746 16.5215 2.21954 17.8146 3.52994 18.0954C4.6082 18.3264 5.70619 17.7987 6.19934 16.8124L7.63625 13.9386C8.00831 13.1944 8.9028 13.1172 9.44538 13.4246C9.73624 13.5894 10.2513 13.8 11 13.8C11.8843 13.8 12.445 13.5057 12.694 13.3388C12.9492 13.1676 13.307 13 13.7314 13H16.2686C16.6929 13 17.0508 13.1676 17.306 13.3388C17.5549 13.5057 18.1157 13.8 19 13.8C19.7486 13.8 20.2637 13.5894 20.5546 13.4246C21.0971 13.1172 21.9916 13.1944 22.3637 13.9386L23.8006 16.8124C24.2938 17.7987 25.3918 18.3264 26.47 18.0954C27.7804 17.8146 28.6125 16.5215 28.3252 15.2126L26.2148 5.59885C25.8556 3.96251 24.2952 2.88019 22.6367 3.11711L21.2734 3.31186L20.7131 6.11374C20.5635 6.86162 19.9068 7.39995 19.1441 7.39995H10.8558C10.0931 7.39995 9.43647 6.86162 9.28689 6.11374L8.72652 3.31186L7.36325 3.11711Z" fill="#1C103F"/>
</svg>
