<svg width="21" height="20" viewBox="0 0 21 20" fill="none" xmlns="http://www.w3.org/2000/svg">
<path d="M7.21 5.7099L9.5 3.4099V12.9999C9.5 13.2651 9.60536 13.5195 9.79289 13.707C9.98043 13.8945 10.2348 13.9999 10.5 13.9999C10.7652 13.9999 11.0196 13.8945 11.2071 13.707C11.3946 13.5195 11.5 13.2651 11.5 12.9999V3.4099L13.79 5.7099C13.883 5.80363 13.9936 5.87802 14.1154 5.92879C14.2373 5.97956 14.368 6.00569 14.5 6.00569C14.632 6.00569 14.7627 5.97956 14.8846 5.92879C15.0064 5.87802 15.117 5.80363 15.21 5.7099C15.3037 5.61693 15.3781 5.50633 15.4289 5.38447C15.4797 5.26261 15.5058 5.13191 15.5058 4.9999C15.5058 4.86788 15.4797 4.73718 15.4289 4.61532C15.3781 4.49346 15.3037 4.38286 15.21 4.2899L11.21 0.289896C11.1149 0.198856 11.0028 0.127491 10.88 0.0798963C10.6365 -0.0201217 10.3635 -0.0201217 10.12 0.0798963C9.99725 0.127491 9.8851 0.198856 9.79 0.289896L5.79 4.2899C5.69676 4.38313 5.6228 4.49383 5.57234 4.61565C5.52188 4.73747 5.49591 4.86804 5.49591 4.9999C5.49591 5.13176 5.52188 5.26232 5.57234 5.38415C5.6228 5.50597 5.69676 5.61666 5.79 5.7099C5.88324 5.80313 5.99393 5.8771 6.11575 5.92756C6.23757 5.97802 6.36814 6.00399 6.5 6.00399C6.63186 6.00399 6.76243 5.97802 6.88425 5.92756C7.00607 5.8771 7.11676 5.80313 7.21 5.7099ZM19.5 9.9999C19.2348 9.9999 18.9804 10.1053 18.7929 10.2928C18.6054 10.4803 18.5 10.7347 18.5 10.9999V16.9999C18.5 17.2651 18.3946 17.5195 18.2071 17.707C18.0196 17.8945 17.7652 17.9999 17.5 17.9999H3.5C3.23478 17.9999 2.98043 17.8945 2.79289 17.707C2.60536 17.5195 2.5 17.2651 2.5 16.9999V10.9999C2.5 10.7347 2.39464 10.4803 2.20711 10.2928C2.01957 10.1053 1.76522 9.9999 1.5 9.9999C1.23478 9.9999 0.98043 10.1053 0.792893 10.2928C0.605357 10.4803 0.5 10.7347 0.5 10.9999V16.9999C0.5 17.7955 0.816071 18.5586 1.37868 19.1212C1.94129 19.6838 2.70435 19.9999 3.5 19.9999H17.5C18.2956 19.9999 19.0587 19.6838 19.6213 19.1212C20.1839 18.5586 20.5 17.7955 20.5 16.9999V10.9999C20.5 10.7347 20.3946 10.4803 20.2071 10.2928C20.0196 10.1053 19.7652 9.9999 19.5 9.9999Z" fill="#3189ED"/>
</svg>
