<svg width="18" height="18" viewBox="0 0 18 18" fill="none" xmlns="http://www.w3.org/2000/svg">
<path d="M6.25832 5.42508L8.16666 3.50841V11.5001C8.16666 11.7211 8.25445 11.9331 8.41073 12.0893C8.56702 12.2456 8.77898 12.3334 8.99999 12.3334C9.221 12.3334 9.43297 12.2456 9.58925 12.0893C9.74553 11.9331 9.83332 11.7211 9.83332 11.5001V3.50841L11.7417 5.42508C11.8191 5.50318 11.9113 5.56518 12.0128 5.60749C12.1144 5.64979 12.2233 5.67158 12.3333 5.67158C12.4433 5.67158 12.5523 5.64979 12.6538 5.60749C12.7554 5.56518 12.8475 5.50318 12.925 5.42508C13.0031 5.34761 13.0651 5.25544 13.1074 5.15389C13.1497 5.05234 13.1715 4.94342 13.1715 4.83341C13.1715 4.7234 13.1497 4.61448 13.1074 4.51293C13.0651 4.41138 13.0031 4.31921 12.925 4.24174L9.59166 0.90841C9.5124 0.832543 9.41895 0.773072 9.31666 0.73341C9.11377 0.650061 8.88621 0.650061 8.68332 0.73341C8.58103 0.773072 8.48758 0.832543 8.40832 0.90841L5.07499 4.24174C4.99729 4.31944 4.93566 4.41168 4.89361 4.5132C4.85156 4.61472 4.82991 4.72353 4.82991 4.83341C4.82991 4.94329 4.85156 5.0521 4.89361 5.15362C4.93566 5.25514 4.99729 5.34738 5.07499 5.42508C5.15269 5.50278 5.24493 5.56441 5.34645 5.60646C5.44797 5.64851 5.55677 5.67015 5.66666 5.67015C5.77654 5.67015 5.88535 5.64851 5.98687 5.60646C6.08838 5.56441 6.18062 5.50278 6.25832 5.42508ZM16.5 9.00008C16.279 9.00008 16.067 9.08787 15.9107 9.24415C15.7545 9.40043 15.6667 9.6124 15.6667 9.83341V14.8334C15.6667 15.0544 15.5789 15.2664 15.4226 15.4227C15.2663 15.5789 15.0543 15.6667 14.8333 15.6667H3.16666C2.94564 15.6667 2.73368 15.5789 2.5774 15.4227C2.42112 15.2664 2.33332 15.0544 2.33332 14.8334V9.83341C2.33332 9.6124 2.24553 9.40043 2.08925 9.24415C1.93297 9.08787 1.721 9.00008 1.49999 9.00008C1.27898 9.00008 1.06701 9.08787 0.910734 9.24415C0.754454 9.40043 0.666656 9.6124 0.666656 9.83341V14.8334C0.666656 15.4965 0.930049 16.1323 1.39889 16.6012C1.86773 17.07 2.50362 17.3334 3.16666 17.3334H14.8333C15.4964 17.3334 16.1322 17.07 16.6011 16.6012C17.0699 16.1323 17.3333 15.4965 17.3333 14.8334V9.83341C17.3333 9.6124 17.2455 9.40043 17.0892 9.24415C16.933 9.08787 16.721 9.00008 16.5 9.00008Z" fill="#3189ED"/>
</svg>
