<svg width="10" height="6" viewBox="0 0 10 6" fill="none" xmlns="http://www.w3.org/2000/svg">
<path d="M9.16664 0.64168C9.01051 0.486471 8.7993 0.399353 8.57914 0.399353C8.35899 0.399353 8.14778 0.486471 7.99164 0.64168L4.99998 3.59168L2.04998 0.64168C1.89384 0.486471 1.68263 0.399353 1.46248 0.399353C1.24232 0.399353 1.03111 0.486471 0.874978 0.64168C0.796871 0.719149 0.734875 0.811317 0.692568 0.912866C0.650261 1.01442 0.628479 1.12334 0.628479 1.23335C0.628479 1.34336 0.650261 1.45228 0.692568 1.55383C0.734875 1.65538 0.796871 1.74754 0.874978 1.82501L4.40831 5.35835C4.48578 5.43645 4.57795 5.49845 4.6795 5.54076C4.78105 5.58306 4.88997 5.60485 4.99998 5.60485C5.10999 5.60485 5.21891 5.58306 5.32046 5.54076C5.42201 5.49845 5.51417 5.43645 5.59164 5.35835L9.16664 1.82501C9.24475 1.74754 9.30675 1.65538 9.34905 1.55383C9.39136 1.45228 9.41314 1.34336 9.41314 1.23335C9.41314 1.12334 9.39136 1.01442 9.34905 0.912866C9.30675 0.811317 9.24475 0.719149 9.16664 0.64168Z" fill="#3F3B48"/>
</svg>
