<svg width="40" height="40" viewBox="0 0 40 40" fill="none" xmlns="http://www.w3.org/2000/svg">
<path opacity="0.14" d="M19 12C16.7909 12 15 13.7909 15 16V34C15 35.8638 16.2748 37.4299 18 37.874V16C18 14.8954 18.8954 14 20 14H34.4649C33.7733 12.8044 32.4806 12 31 12H19Z" fill="#241F2D"/>
<path d="M27 18C27 19.1046 26.1046 20 25 20C23.8954 20 23 19.1046 23 18C23 16.8954 23.8954 16 25 16C26.1046 16 27 16.8954 27 18Z" fill="#FF7870"/>
<path d="M21 27.2374C21 26.4178 21.1095 25.5834 21.57 24.9054C22.1522 24.0482 23.2267 23 25 23C26.7733 23 27.8478 24.0482 28.43 24.9054C28.8905 25.5834 29 26.4178 29 27.2374C29 27.6586 28.6586 28 28.2374 28H21.7626C21.3414 28 21 27.6586 21 27.2374Z" fill="#FF7870"/>
<path fill-rule="evenodd" clip-rule="evenodd" d="M25 15C23.3431 15 22 16.3431 22 18C22 19.6569 23.3431 21 25 21C26.6569 21 28 19.6569 28 18C28 16.3431 26.6569 15 25 15ZM24 18C24 17.4477 24.4477 17 25 17C25.5523 17 26 17.4477 26 18C26 18.5523 25.5523 19 25 19C24.4477 19 24 18.5523 24 18Z" fill="#1C103F"/>
<path fill-rule="evenodd" clip-rule="evenodd" d="M20.7428 24.3435C21.4252 23.3387 22.7673 22 25 22C27.2327 22 28.5748 23.3387 29.2572 24.3435C29.8888 25.2733 30 26.3557 30 27.2374C30 28.2109 29.2109 29 28.2374 29H21.7626C20.7891 29 20 28.2109 20 27.2374C20 26.3557 20.1112 25.2733 20.7428 24.3435ZM25 24C23.6862 24 22.8792 24.7576 22.3972 25.4672C22.1387 25.8478 22.0252 26.3562 22.0038 27H27.9962C27.9748 26.3562 27.8613 25.8478 27.6028 25.4672C27.1208 24.7576 26.3138 24 25 24Z" fill="#1C103F"/>
<path d="M30 33C30.5523 33 31 32.5523 31 32C31 31.4477 30.5523 31 30 31H20C19.4477 31 19 31.4477 19 32C19 32.5523 19.4477 33 20 33H30Z" fill="#1C103F"/>
<path fill-rule="evenodd" clip-rule="evenodd" d="M9 4C6.23858 4 4 6.23858 4 9V27C4 29.7614 6.23858 32 9 32H9.41604C10.1876 33.7659 11.9497 35 14 35H14.416C15.1876 36.7659 16.9497 38 19 38H31C33.7614 38 36 35.7614 36 33V15C36 12.2386 33.7614 10 31 10H30.584C29.8124 8.2341 28.0503 7 26 7H25.584C24.8124 5.2341 23.0503 4 21 4H9ZM23.2361 7C22.6868 6.38625 21.8885 6 21 6H9C7.34315 6 6 7.34315 6 9V27C6 28.6569 7.34315 30 9 30V12C9 9.23858 11.2386 7 14 7H23.2361ZM26 9C26.8885 9 27.6868 9.38625 28.2361 10H19C16.2386 10 14 12.2386 14 15V33C12.3431 33 11 31.6569 11 30V12C11 10.3431 12.3431 9 14 9H26ZM16 15C16 13.3431 17.3431 12 19 12H31C32.6569 12 34 13.3431 34 15V33C34 34.6569 32.6569 36 31 36H19C17.3431 36 16 34.6569 16 33V15Z" fill="#1C103F"/>
</svg>
