<svg width="40" height="40" viewBox="0 0 40 40" fill="none" xmlns="http://www.w3.org/2000/svg">
<path opacity="0.14" d="M11 4H25V6H12C10.8954 6 10 6.89543 10 8V35C8.34315 35 7 33.6569 7 32V8C7 5.79086 8.79086 4 11 4Z" fill="#241F2D"/>
<path d="M12 11C12 9.89543 12.8954 9 14 9H18C19.1046 9 20 9.89543 20 11V15C20 16.1046 19.1046 17 18 17H14C12.8954 17 12 16.1046 12 15V11Z" fill="#FF7870"/>
<path fill-rule="evenodd" clip-rule="evenodd" d="M11 3C8.23858 3 6 5.23858 6 8V32C6 34.7614 8.23858 37 11 37H20C20.5523 37 21 36.5523 21 36C21 35.4477 20.5523 35 20 35H11C9.34315 35 8 33.6569 8 32V8C8 6.34315 9.34315 5 11 5H24V10C24 11.6569 25.3431 13 27 13H32V24.0588C32 24.6111 32.4477 25.0588 33 25.0588C33.5523 25.0588 34 24.6111 34 24.0588V11.5858L25.4142 3H11ZM30.5858 11L26 6.41421V10C26 10.5523 26.4477 11 27 11H30.5858Z" fill="#1C103F"/>
<path fill-rule="evenodd" clip-rule="evenodd" d="M11 11C11 9.34315 12.3431 8 14 8H18C19.6569 8 21 9.34315 21 11V15C21 16.6569 19.6569 18 18 18H14C12.3431 18 11 16.6569 11 15V11ZM14 10C13.4477 10 13 10.4477 13 11V15C13 15.5523 13.4477 16 14 16H18C18.5523 16 19 15.5523 19 15V11C19 10.4477 18.5523 10 18 10H14Z" fill="#1C103F"/>
<path d="M19 22C19.5523 22 20 21.5523 20 21C20 20.4477 19.5523 20 19 20H13C12.4477 20 12 20.4477 12 21C12 21.5523 12.4477 22 13 22H19Z" fill="#1C103F"/>
<path d="M18 26C18.5523 26 19 25.5523 19 25C19 24.4477 18.5523 24 18 24H13C12.4477 24 12 24.4477 12 25C12 25.5523 12.4477 26 13 26H18Z" fill="#1C103F"/>
<path d="M12 29C12 29.5523 12.4477 30 13 30H18C18.5523 30 19 29.5523 19 29C19 28.4477 18.5523 28 18 28H13C12.4477 28 12 28.4477 12 29Z" fill="#1C103F"/>
<path fill-rule="evenodd" clip-rule="evenodd" d="M24.6402 21.2318C24.3421 20.9834 23.9272 20.9298 23.5758 21.0944C23.2245 21.259 23 21.612 23 22V34C23 34.4045 23.2436 34.7691 23.6173 34.9239C23.991 35.0787 24.4211 34.9931 24.7071 34.7071L26.226 33.1882L27.6584 36.0528C28.1523 37.0407 29.3537 37.4412 30.3416 36.9472L31.5528 36.3416C32.5407 35.8477 32.9412 34.6463 32.4472 33.6584L31.0149 30.7937L33.1414 30.4899C33.5326 30.4341 33.8542 30.1531 33.962 29.7729C34.0699 29.3928 33.9438 28.9847 33.6402 28.7318L24.6402 21.2318ZM25 31.5858V24.135L30.6318 28.8282L29.3586 29.01C29.0404 29.0555 28.7634 29.2512 28.6142 29.5359C28.465 29.8206 28.4618 30.1597 28.6056 30.4472L30.6584 34.5528L29.4472 35.1584L27.3944 31.0528C27.2507 30.7653 26.9775 30.5644 26.6602 30.5129C26.3429 30.4614 26.0202 30.5656 25.7929 30.7929L25 31.5858Z" fill="#1C103F"/>
</svg>
