<svg width="40" height="40" viewBox="0 0 40 40" fill="none" xmlns="http://www.w3.org/2000/svg">
<path d="M14.9609 20.555C14.2882 20.2312 13.5307 20.0401 12.7072 20.0169C12.3184 20.006 11.9156 20 11.5 20C11.0844 20 10.6816 20.006 10.2928 20.0169C6.69633 20.118 4.36086 23.423 4.83455 26.9896L5.26935 30.2633C5.40137 31.2574 6.24914 32 7.25194 32H14.4767L13.7925 26.527C13.5309 24.4341 13.9602 22.3234 14.9609 20.555Z" fill="#FF7870"/>
<path opacity="0.14" d="M26 20C24.6191 20 23.3464 20.054 22.2075 20.1365C19.3366 20.3446 17.382 22.9937 17.7616 26.0308L18.7733 34.124C18.8358 34.6245 19.2612 35 19.7656 35H21.0073L20.0455 27.0308C19.6789 23.9937 21.5662 21.3446 24.3381 21.1365C25.4379 21.054 26.6667 21 28 21C29.3333 21 30.5621 21.054 31.6619 21.1365C31.9759 21.1601 32.2785 21.215 32.5678 21.2982C31.8226 20.6385 30.8724 20.2148 29.7925 20.1365C28.6535 20.054 27.3809 20 26 20Z" fill="#241F2D"/>
<path opacity="0.14" d="M14.9609 20.555C14.2882 20.2312 13.5307 20.0401 12.7072 20.0169C12.3184 20.006 11.9156 20 11.5 20C11.0844 20 10.6816 20.006 10.2928 20.0169C6.69633 20.118 4.36086 23.423 4.83455 26.9896L5.26935 30.2633C5.40137 31.2574 6.24914 32 7.25194 32H8.62125C8.53128 31.8189 8.46949 31.6197 8.44214 31.408L8.0543 28.4071C7.63176 25.1377 9.71504 22.1082 12.9232 22.0155C13.27 22.0055 13.6293 22 14 22C14.0998 22 14.1988 22.0004 14.297 22.0012C14.478 21.5001 14.7 21.016 14.9609 20.555Z" fill="#241F2D"/>
<path fill-rule="evenodd" clip-rule="evenodd" d="M26 3C24.329 3 22.8022 3.45112 21.6881 4.50398C20.5642 5.56614 20 7.10833 20 9C20 11.5012 20.6748 13.296 21.8628 14.4596C23.0445 15.6171 24.5815 16 26 16C27.4185 16 28.9555 15.6171 30.1372 14.4596C31.3252 13.296 32 11.5012 32 9C32 7.07494 31.3553 5.53915 30.2101 4.4926C29.08 3.45972 27.5685 3 26 3ZM22 9C22 7.50705 22.4358 6.54925 23.0619 5.95756C23.6978 5.35657 24.671 5 26 5C27.1929 5 28.1815 5.34797 28.8609 5.96894C29.5254 6.57623 30 7.54044 30 9C30 11.1526 29.4248 12.3578 28.7378 13.0308C28.0445 13.7098 27.0815 14 26 14C24.9185 14 23.9555 13.7098 23.2622 13.0308C22.5752 12.3578 22 11.1526 22 9Z" fill="#1C103F"/>
<path fill-rule="evenodd" clip-rule="evenodd" d="M11.5 7C10.2691 7 9.11221 7.34665 8.26189 8.18156C7.40748 9.02048 7 10.2172 7 11.6364C7 13.4929 7.48166 14.8736 8.38049 15.7883C9.27941 16.7031 10.4463 17 11.5 17C12.5537 17 13.7206 16.7031 14.6195 15.7883C15.5183 14.8736 16 13.4929 16 11.6364C16 10.1849 15.5314 8.99403 14.6634 8.16993C13.8059 7.35566 12.6645 7 11.5 7ZM9 11.6364C9 10.594 9.29252 9.97252 9.66311 9.60865C10.0378 9.24076 10.6309 9 11.5 9C12.2685 9 12.8771 9.23175 13.2863 9.62028C13.6851 9.99897 14 10.6263 14 11.6364C14 13.1644 13.6067 13.9655 13.193 14.3865C12.7794 14.8074 12.1963 15 11.5 15C10.8037 15 10.2206 14.8074 9.80701 14.3865C9.39334 13.9655 9 13.1644 9 11.6364Z" fill="#1C103F"/>
<path fill-rule="evenodd" clip-rule="evenodd" d="M22.0629 18.1418C23.2461 18.056 24.5672 18 26 18C27.4328 18 28.7539 18.056 29.9371 18.1418C34.1282 18.4456 36.7215 22.2903 36.2229 26.2789L35.2113 34.3721C35.0236 35.8734 33.7474 37 32.2344 37H19.7656C18.2526 37 16.9764 35.8734 16.7887 34.3721L15.7771 26.2789C15.2785 22.2903 17.8718 18.4456 22.0629 18.1418ZM26 20C24.6191 20 23.3464 20.054 22.2075 20.1365C19.3366 20.3446 17.382 22.9937 17.7616 26.0308L18.7733 34.124C18.8358 34.6245 19.2612 35 19.7656 35H32.2344C32.7388 35 33.1642 34.6245 33.2267 34.124L34.2384 26.0308C34.618 22.9937 32.6634 20.3446 29.7925 20.1365C28.6536 20.054 27.3809 20 26 20Z" fill="#1C103F"/>
<path d="M12.7353 19.0173C13.759 19.0461 14.6898 19.2916 15.5065 19.7035C15.1137 20.2477 14.7812 20.8358 14.5135 21.455C13.9609 21.1901 13.3432 21.0352 12.6791 21.0166C12.2993 21.0059 11.9059 21 11.5 21C11.0941 21 10.7007 21.0059 10.3209 21.0166C7.42712 21.0979 5.41508 23.7651 5.82585 26.8579L6.26064 30.1317C6.32665 30.6287 6.75054 31 7.25194 31H14.3517L14.6017 33H7.25194C5.74774 33 4.47609 31.8861 4.27805 30.395L3.84325 27.1212C3.30664 23.0808 5.96554 19.1382 10.2647 19.0173C10.6626 19.0062 11.0748 19 11.5 19C11.9252 19 12.3374 19.0062 12.7353 19.0173Z" fill="#1C103F"/>
</svg>
