<svg width="40" height="40" viewBox="0 0 40 40" fill="none" xmlns="http://www.w3.org/2000/svg">
<path d="M11 7H10C7.79086 7 6 8.79086 6 11V33C6 35.2091 7.79086 37 10 37H24C26.2091 37 28 35.2091 28 33H15C12.7909 33 11 31.2091 11 29V7Z" fill="#FF7870"/>
<path opacity="0.14" d="M10 7H12V9H11C9.89543 9 9 9.89543 9 11V36C7.34315 36 6 34.6569 6 33V11C6 8.79086 7.79086 7 10 7Z" fill="#241F2D"/>
<path opacity="0.14" d="M15 3H26V5H16C14.8954 5 14 5.89543 14 7V32C12.3431 32 11 30.6569 11 29V7C11 4.79086 12.7909 3 15 3Z" fill="#241F2D"/>
<path d="M28 19C28.4418 19.3314 28.5314 19.9582 28.2 20.4L22.8 27.6C22.4686 28.0418 21.8418 28.1314 21.4 27.8L18.2 25.4C17.7582 25.0686 17.6686 24.4418 18 24C18.3314 23.5582 18.9582 23.4686 19.4 23.8L21.8 25.6L26.6 19.2C26.9314 18.7582 27.5582 18.6686 28 19Z" fill="#1C103F"/>
<path d="M15 14C15 14.5523 15.4477 15 16 15H21C21.5523 15 22 14.5523 22 14C22 13.4477 21.5523 13 21 13H16C15.4477 13 15 13.4477 15 14Z" fill="#1C103F"/>
<path d="M22 18C22 18.5523 21.5523 19 21 19H16C15.4477 19 15 18.5523 15 18C15 17.4477 15.4477 17 16 17H21C21.5523 17 22 17.4477 22 18Z" fill="#1C103F"/>
<path d="M15 10C15 10.5523 15.4477 11 16 11H21C21.5523 11 22 10.5523 22 10C22 9.44772 21.5523 9 21 9H16C15.4477 9 15 9.44772 15 10Z" fill="#1C103F"/>
<path fill-rule="evenodd" clip-rule="evenodd" d="M24 38C26.419 38 28.4367 36.2822 28.9 34H30C32.7614 34 35 31.7614 35 29V10.5858L26.4142 2H15C12.581 2 10.5633 3.71776 10.1 6H10C7.23858 6 5 8.23858 5 11V33C5 35.7614 7.23858 38 10 38H24ZM7 11C7 9.34315 8.34315 8 10 8V29C10 31.7614 12.2386 34 15 34H26.8293C26.4175 35.1652 25.3062 36 24 36H10C8.34315 36 7 34.6569 7 33V11ZM15 4C13.3431 4 12 5.34315 12 7V29C12 30.6569 13.3431 32 15 32H30C31.6569 32 33 30.6569 33 29V12H28C26.3431 12 25 10.6569 25 9V4H15ZM27 5.41421V9C27 9.55228 27.4477 10 28 10H31.5858L27 5.41421Z" fill="#1C103F"/>
</svg>
