<svg width="40" height="40" viewBox="0 0 40 40" fill="none" xmlns="http://www.w3.org/2000/svg">
<path d="M7 3C4.79086 3 3 4.79086 3 7V19C3 21.2091 4.79086 23 7 23H16.5L18 17H23.5L27 3H7Z" fill="#FF7870"/>
<path opacity="0.14" d="M36 19H21L16.5 37H13L18 17H35L36 19Z" fill="#241F2D"/>
<path opacity="0.14" d="M3 7C3 4.79086 4.79086 3 7 3H27L26.5 5H8C6.89543 5 6 5.89543 6 7V22.874C4.27477 22.4299 3 20.8638 3 19V7Z" fill="#241F2D"/>
<path fill-rule="evenodd" clip-rule="evenodd" d="M28.3542 30L29.7036 33.4349C29.9055 33.9489 30.486 34.2019 31 34C31.514 33.7981 31.767 33.2176 31.5651 32.7036L26.8961 20.8189C26.3977 19.5502 24.6023 19.5502 24.1039 20.8189L19.4349 32.7036C19.233 33.2176 19.486 33.7981 20 34C20.514 34.2019 21.0945 33.9489 21.2964 33.4349L22.6458 30H28.3542ZM27.5685 28L25.5 22.7348L23.4315 28H27.5685Z" fill="#1C103F"/>
<path fill-rule="evenodd" clip-rule="evenodd" d="M2 7C2 4.23858 4.23858 2 7 2H28.2808L24.7808 16H33C35.7614 16 38 18.2386 38 21V33C38 35.7614 35.7614 38 33 38H11.7192L15.2192 24H7C4.23858 24 2 21.7614 2 19V7ZM15.7192 22L16.5765 18.571C15.833 18.0147 15.1249 17.3047 14.4799 16.5501C13.2002 17.9241 11.8082 18.9844 10.8767 19.6939C10.4664 20.0065 9.87247 19.947 9.54223 19.5507L9.5 19.5C9.14644 19.0757 9.20688 18.4489 9.64552 18.1133C9.69171 18.078 9.73859 18.0422 9.78611 18.0059C10.7836 17.2438 12.0666 16.2635 13.2354 14.9484C12.5721 14.0169 12.0026 13.0909 11.5755 12.3295C11.3053 11.8478 11.506 11.247 12 11C12.494 10.753 13.0946 10.9534 13.3666 11.4341C13.6771 11.9827 14.0684 12.6251 14.5178 13.2888C15.1148 12.4078 15.6282 11.4876 16.0344 10.6331C16.3248 10.0221 16.5501 9.46682 16.7114 9H9C8.44772 9 8 8.55228 8 8C8 7.44772 8.44772 7 9 7H13C13 6.44772 13.4477 6 14 6C14.5523 6 15 6.44772 15 7H19C19.5523 7 20 7.44772 20 8C20 8.55228 19.5523 9 19 9H18.8066C18.6049 9.72382 18.268 10.593 17.8406 11.4919C17.3108 12.6064 16.6105 13.8327 15.7735 14.9797C16.2084 15.5092 16.6599 16 17.1147 16.4183L17.2192 16H22.7192L25.7192 4H7C5.34315 4 4 5.34315 4 7V19C4 20.6569 5.34315 22 7 22H15.7192ZM36 33C36 34.6569 34.6569 36 33 36H14.2808L18.7808 18H33C34.6569 18 36 19.3431 36 21V33Z" fill="#1C103F"/>
<path d="M31 4C31 4.55228 31.4477 5 32 5C33.6569 5 35 6.34315 35 8V12C35 12.5523 35.4477 13 36 13C36.5523 13 37 12.5523 37 12V8C37 5.23858 34.7614 3 32 3C31.4477 3 31 3.44772 31 4Z" fill="#1C103F"/>
<path d="M4 27C3.44772 27 3 27.4477 3 28V32C3 34.7614 5.23858 37 8 37C8.55228 37 9 36.5523 9 36C9 35.4477 8.55228 35 8 35C6.34315 35 5 33.6569 5 32V28C5 27.4477 4.55228 27 4 27Z" fill="#1C103F"/>
</svg>
