<svg width="40" height="40" viewBox="0 0 40 40" fill="none" xmlns="http://www.w3.org/2000/svg">
<path d="M7 9C4.79086 9 3 10.7909 3 13V17C3 17 9.29556 19.3608 17 19.8939V19.4286C17 18.6396 17.6716 18 18.5 18H21.5C22.3284 18 23 18.6396 23 19.4286V19.8939C30.7044 19.3608 37 17 37 17V13C37 10.7909 35.2091 9 33 9H7Z" fill="#FF7870"/>
<path opacity="0.14" d="M7 9H34C35.1046 9 36 9.89543 36 11H8C6.89543 11 6 11.8954 6 13V35C4.34315 35 3 33.6569 3 32V13C3 10.7909 4.79086 9 7 9Z" fill="#241F2D"/>
<path fill-rule="evenodd" clip-rule="evenodd" d="M15 3C13.3431 3 12 4.34315 12 6V8H7C4.23858 8 2 10.2386 2 13V32C2 34.7614 4.23858 37 7 37H33C35.7614 37 38 34.7614 38 32V13C38 10.2386 35.7614 8 33 8H28V6C28 4.34315 26.6569 3 25 3H15ZM26 8V6C26 5.44772 25.5523 5 25 5H15C14.4477 5 14 5.44772 14 6V8H26ZM4 13C4 11.3431 5.34315 10 7 10H33C34.6569 10 36 11.3431 36 13V16.3333C35.8345 16.3873 35.645 16.4479 35.4328 16.5139C34.5472 16.7894 33.2704 17.1581 31.7156 17.527C29.5622 18.038 26.8888 18.5463 23.9912 18.8115C23.8963 17.7954 23.041 17 22 17H18C16.959 17 16.1037 17.7954 16.0088 18.8115C13.1112 18.5463 10.4378 18.038 8.28444 17.527C6.72963 17.1581 5.45279 16.7894 4.56715 16.5139C4.35505 16.4479 4.16548 16.3873 4 16.3333V13ZM16 20.8188C12.9137 20.5471 10.0803 20.0087 7.82269 19.473C6.23238 19.0956 4.9211 18.718 4 18.432V32C4 33.6569 5.34315 35 7 35H33C34.6569 35 36 33.6569 36 32V18.432C35.0789 18.718 33.7676 19.0956 32.1773 19.473C29.9197 20.0087 27.0863 20.5471 24 20.8188V21C24 22.6569 22.6569 24 21 24H19C17.3431 24 16 22.6569 16 21V20.8188ZM18 19H22V21C22 21.5523 21.5523 22 21 22H19C18.4477 22 18 21.5523 18 21V19Z" fill="#1C103F"/>
</svg>
