<svg width="40" height="40" viewBox="0 0 40 40" fill="none" xmlns="http://www.w3.org/2000/svg">
<path opacity="0.14" d="M7 3H29C30.1046 3 31 3.89543 31 5H8C6.89543 5 6 5.89543 6 7V36C4.34315 36 3 34.6569 3 33V7C3 4.79086 4.79086 3 7 3Z" fill="#241F2D"/>
<path d="M38 23C38 28.5228 33.5228 33 28 33C22.4772 33 18 28.5228 18 23C18 17.4772 22.4772 13 28 13C33.5228 13 38 17.4772 38 23Z" fill="#FF7870"/>
<path opacity="0.14" d="M31 14.5121C30.0617 14.1805 29.0519 14 28 14C23.0294 14 19 18.0294 19 23C19 26.4829 20.9784 29.5038 23.8728 31H24.301C22.874 29.3007 22 27.0144 22 24.5C22 19.2533 25.8056 15 30.5 15C30.6678 15 30.8346 15.0054 31 15.0162V14.5121Z" fill="#241F2D"/>
<path d="M9 10C9 10.5523 9.44772 11 10 11H25C25.5523 11 26 10.5523 26 10C26 9.44772 25.5523 9 25 9H10C9.44772 9 9 9.44772 9 10Z" fill="#1C103F"/>
<path d="M17 15C17 15.5523 16.5523 16 16 16H10C9.44772 16 9 15.5523 9 15C9 14.4477 9.44772 14 10 14H16C16.5523 14 17 14.4477 17 15Z" fill="#1C103F"/>
<path d="M9 20C9 20.5523 9.44772 21 10 21H14C14.5523 21 15 20.5523 15 20C15 19.4477 14.5523 19 14 19H10C9.44772 19 9 19.4477 9 20Z" fill="#1C103F"/>
<path d="M15 25C15 25.5523 14.5523 26 14 26H10C9.44772 26 9 25.5523 9 25C9 24.4477 9.44772 24 10 24H14C14.5523 24 15 24.4477 15 25Z" fill="#1C103F"/>
<path d="M9 30C9 30.5523 9.44772 31 10 31H16C16.5523 31 17 30.5523 17 30C17 29.4477 16.5523 29 16 29H10C9.44772 29 9 29.4477 9 30Z" fill="#1C103F"/>
<path d="M27 16V17.5974C25.1034 17.9827 24 19.4545 24 21C24 22.2013 24.9569 22.8979 25.6314 23.2505C26.368 23.6355 27.2239 23.858 27.793 23.9783C28.2623 24.0776 28.9099 24.2553 29.4163 24.5176C29.6691 24.6485 29.8344 24.7741 29.9265 24.8772C29.9692 24.9251 29.9869 24.9579 29.9938 24.9738C29.9994 24.9868 30 24.993 30 25C30 25.602 29.5033 26.5 28 26.5C26.6247 26.5 26.0606 25.4412 25.9545 25.1017L24.0455 25.6983C24.2416 26.3259 25.0766 27.9569 27 28.392V30H29V28.4032C30.9033 28.0186 32 26.5447 32 25C32 23.7857 31.0031 23.0871 30.336 22.7416C29.5932 22.3569 28.7408 22.1346 28.207 22.0217C27.6952 21.9134 27.0511 21.7358 26.5579 21.478C26.3125 21.3497 26.1563 21.2279 26.0707 21.1297C25.9994 21.0478 25.9999 21.0116 26 21.0011L26 21C26 20.4 26.5033 19.5 28 19.5C29.1856 19.5 29.6207 20.2359 30.0025 20.8817C30.0527 20.9666 30.1021 21.0501 30.152 21.13L31.848 20.07C31.8266 20.0358 31.7994 19.9867 31.7655 19.9258C31.4763 19.4051 30.7064 18.0193 29 17.6133V16H27Z" fill="#1C103F"/>
<path fill-rule="evenodd" clip-rule="evenodd" d="M2 7C2 4.23858 4.23858 2 7 2H28C30.7614 2 33 4.23858 33 7V14.3378C35.989 16.0669 38 19.2986 38 23C38 26.7014 35.989 29.9331 33 31.6622V33C33 35.7614 30.7614 38 28 38H7C4.23858 38 2 35.7614 2 33V7ZM31 7V13.4578C30.053 13.1604 29.0452 13 28 13C22.4772 13 18 17.4772 18 23C18 28.5228 22.4772 33 28 33C29.0452 33 30.053 32.8396 31 32.5422V33C31 34.6569 29.6569 36 28 36H7C5.34315 36 4 34.6569 4 33V7C4 5.34315 5.34315 4 7 4H28C29.6569 4 31 5.34315 31 7ZM28 31C32.4183 31 36 27.4183 36 23C36 18.5817 32.4183 15 28 15C23.5817 15 20 18.5817 20 23C20 27.4183 23.5817 31 28 31Z" fill="#1C103F"/>
</svg>
