<svg width="29" height="30" viewBox="0 0 29 30" fill="none" xmlns="http://www.w3.org/2000/svg">
<path fill-rule="evenodd" clip-rule="evenodd" d="M21.3212 12.5532L21.3187 12.5525L19.0034 11.9321L17.6575 16.9549C17.5431 17.3817 17.1045 17.635 16.6777 17.5206C16.2509 17.4063 15.9977 16.9676 16.112 16.5408L17.4579 11.518L15.1425 10.8976L15.14 10.8969L9.73838 9.44956C9.3239 9.3385 9.07086 8.92021 9.16488 8.50153C9.19635 8.36139 9.23083 8.22128 9.26834 8.08128C10.689 2.77935 15.9761 -0.47413 21.1294 0.906689C26.2827 2.28751 29.2348 7.74868 27.8141 13.0506C27.7766 13.1906 27.7364 13.3292 27.6936 13.4663C27.5657 13.8759 27.1374 14.1116 26.7229 14.0006L21.3212 12.5532ZM14.7838 9.14505L10.9259 8.11132C12.0011 4.71058 14.9512 2.44498 18.1819 2.21102C17.9043 2.51836 17.6354 2.86738 17.3775 3.24717C16.3789 4.71764 15.4521 6.78786 14.7838 9.14505ZM16.3295 9.55921L20.96 10.8C21.5244 8.55677 21.7265 6.48417 21.6127 4.92617C21.5522 4.09857 21.4057 3.46183 21.21 3.03105C21.0113 2.59374 20.8179 2.47966 20.7153 2.45217C20.6127 2.42469 20.3881 2.42675 19.9974 2.70614C19.6126 2.98135 19.1673 3.45953 18.7011 4.14602C17.8235 5.43836 16.9623 7.33438 16.3295 9.55921ZM23.0299 3.51005C25.7108 5.32801 27.1328 8.76512 26.3636 12.2478L22.5057 11.2141C23.1055 8.8386 23.338 6.58231 23.2085 4.80958C23.175 4.35172 23.1166 3.91501 23.0299 3.51005Z" fill="#1C103F"/>
<path fill-rule="evenodd" clip-rule="evenodd" d="M26.4434 17.7201C25.6768 16.4934 24.0782 16.0911 22.8222 16.8088L16.1876 20.6H3.20002C1.65363 20.6 0.400024 21.8536 0.400024 23.4C0.400024 24.9464 1.65363 26.2 3.20002 26.2H3.60002V27.8H1.20002C0.758196 27.8 0.400024 28.1582 0.400024 28.6C0.400024 29.0419 0.758197 29.4 1.20002 29.4H26C26.4419 29.4 26.8 29.0419 26.8 28.6C26.8 28.1582 26.4419 27.8 26 27.8H24.4V22.1262L25.5163 21.475C26.8294 20.7091 27.2491 19.0091 26.4434 17.7201ZM23.616 18.198C24.1261 17.9065 24.7753 18.0699 25.0866 18.5681C25.4138 19.0915 25.2434 19.7819 24.7101 20.093L16.9837 24.6H3.20002C2.53728 24.6 2.00002 24.0628 2.00002 23.4C2.00002 22.7373 2.53728 22.2 3.20002 22.2H3.60002V22.6C3.60002 23.0419 3.9582 23.4 4.40002 23.4C4.84185 23.4 5.20002 23.0419 5.20002 22.6V22.2H8.40002V22.6C8.40002 23.0419 8.7582 23.4 9.20002 23.4C9.64185 23.4 10 23.0419 10 22.6V22.2H13.2V22.6C13.2 23.0419 13.5582 23.4 14 23.4C14.4419 23.4 14.8 23.0419 14.8 22.6V22.2H16.4C16.5392 22.2 16.6761 22.1637 16.7969 22.0946L23.616 18.198ZM22.8 23.0595L17.6031 26.091C17.4808 26.1624 17.3417 26.2 17.2 26.2H5.20002V27.8H22.8V23.0595Z" fill="#1C103F"/>
</svg>
